<svg width="177" height="48" viewBox="0 0 177 48" fill="none" xmlns="http://www.w3.org/2000/svg">
<path d="M0.5 6C0.5 2.96243 2.96243 0.5 6 0.5H171C174.038 0.5 176.5 2.96243 176.5 6V42C176.5 45.0376 174.038 47.5 171 47.5H6C2.96243 47.5 0.5 45.0376 0.5 42V6Z" fill="black" stroke="#A6A6A6"/>
<path d="M155.638 20.1172C155.169 20.1172 154.745 20.041 154.366 19.8887C153.991 19.7324 153.671 19.5156 153.405 19.2383C153.143 18.9609 152.942 18.6348 152.802 18.2598C152.661 17.8848 152.591 17.4805 152.591 17.0469V16.8125C152.591 16.3164 152.663 15.8672 152.807 15.4648C152.952 15.0625 153.153 14.7188 153.411 14.4336C153.669 14.1445 153.973 13.9238 154.325 13.7715C154.677 13.6191 155.057 13.543 155.468 13.543C155.921 13.543 156.317 13.6191 156.657 13.7715C156.997 13.9238 157.278 14.1387 157.501 14.416C157.727 14.6895 157.895 15.0156 158.005 15.3945C158.118 15.7734 158.175 16.1914 158.175 16.6484V17.252H153.276V16.2383H156.78V16.127C156.772 15.873 156.722 15.6348 156.628 15.4121C156.538 15.1895 156.399 15.0098 156.212 14.873C156.024 14.7363 155.774 14.668 155.462 14.668C155.227 14.668 155.018 14.7188 154.835 14.8203C154.655 14.918 154.505 15.0605 154.384 15.248C154.263 15.4355 154.169 15.6621 154.102 15.9277C154.04 16.1895 154.009 16.4844 154.009 16.8125V17.0469C154.009 17.3242 154.046 17.582 154.12 17.8203C154.198 18.0547 154.311 18.2598 154.46 18.4355C154.608 18.6113 154.788 18.75 154.999 18.8516C155.21 18.9492 155.45 18.998 155.72 18.998C156.059 18.998 156.362 18.9297 156.628 18.793C156.893 18.6562 157.124 18.4629 157.319 18.2129L158.063 18.9336C157.927 19.1328 157.749 19.3242 157.53 19.5078C157.311 19.6875 157.044 19.834 156.727 19.9473C156.415 20.0605 156.052 20.1172 155.638 20.1172Z" fill="white"/>
<path d="M147.449 11V20H146.043V11H147.449ZM147.203 16.5957L146.746 16.5898C146.75 16.1523 146.811 15.748 146.928 15.377C147.049 15.0059 147.217 14.6836 147.432 14.4102C147.65 14.1328 147.912 13.9199 148.217 13.7715C148.521 13.6191 148.859 13.543 149.23 13.543C149.543 13.543 149.824 13.5859 150.074 13.6719C150.328 13.7578 150.547 13.8965 150.73 14.0879C150.914 14.2754 151.053 14.5215 151.146 14.8262C151.244 15.127 151.293 15.4941 151.293 15.9277V20H149.875V15.916C149.875 15.6113 149.83 15.3691 149.74 15.1895C149.654 15.0098 149.527 14.8809 149.359 14.8027C149.191 14.7207 148.986 14.6797 148.744 14.6797C148.49 14.6797 148.266 14.7305 148.07 14.832C147.879 14.9336 147.719 15.0723 147.59 15.248C147.461 15.4238 147.363 15.627 147.297 15.8574C147.234 16.0879 147.203 16.334 147.203 16.5957Z" fill="white"/>
<path d="M144.845 13.6602V14.6914H141.271V13.6602H144.845ZM142.302 12.1074H143.714V18.248C143.714 18.4434 143.741 18.5938 143.796 18.6992C143.855 18.8008 143.935 18.8691 144.036 18.9043C144.138 18.9395 144.257 18.957 144.394 18.957C144.491 18.957 144.585 18.9512 144.675 18.9395C144.765 18.9277 144.837 18.916 144.892 18.9043L144.898 19.9824C144.78 20.0176 144.644 20.0488 144.487 20.0762C144.335 20.1035 144.159 20.1172 143.96 20.1172C143.636 20.1172 143.349 20.0605 143.099 19.9473C142.849 19.8301 142.653 19.6406 142.513 19.3789C142.372 19.1172 142.302 18.7695 142.302 18.3359V12.1074Z" fill="white"/>
<path d="M129.669 14.9492V20H128.257V13.6602H129.587L129.669 14.9492ZM129.441 16.5957L128.96 16.5898C128.96 16.1523 129.015 15.748 129.124 15.377C129.234 15.0059 129.394 14.6836 129.605 14.4102C129.816 14.1328 130.077 13.9199 130.39 13.7715C130.706 13.6191 131.072 13.543 131.486 13.543C131.775 13.543 132.038 13.5859 132.277 13.6719C132.519 13.7539 132.728 13.8848 132.904 14.0645C133.083 14.2441 133.22 14.4746 133.314 14.7559C133.411 15.0371 133.46 15.377 133.46 15.7754V20H132.048V15.8984C132.048 15.5898 132.001 15.3477 131.908 15.1719C131.818 14.9961 131.687 14.8711 131.515 14.7969C131.347 14.7188 131.146 14.6797 130.911 14.6797C130.646 14.6797 130.419 14.7305 130.232 14.832C130.048 14.9336 129.898 15.0723 129.781 15.248C129.663 15.4238 129.577 15.627 129.523 15.8574C129.468 16.0879 129.441 16.334 129.441 16.5957ZM133.372 16.2207L132.71 16.3672C132.71 15.9844 132.763 15.623 132.868 15.2832C132.978 14.9395 133.136 14.6387 133.343 14.3809C133.554 14.1191 133.814 13.9141 134.122 13.7656C134.431 13.6172 134.784 13.543 135.183 13.543C135.507 13.543 135.796 13.5879 136.05 13.6777C136.308 13.7637 136.527 13.9004 136.706 14.0879C136.886 14.2754 137.023 14.5195 137.117 14.8203C137.21 15.1172 137.257 15.4766 137.257 15.8984V20H135.839V15.8926C135.839 15.5723 135.792 15.3242 135.699 15.1484C135.609 14.9727 135.48 14.8516 135.312 14.7852C135.144 14.7148 134.943 14.6797 134.708 14.6797C134.49 14.6797 134.296 14.7207 134.128 14.8027C133.964 14.8809 133.826 14.9922 133.712 15.1367C133.599 15.2773 133.513 15.4395 133.454 15.623C133.4 15.8066 133.372 16.0059 133.372 16.2207Z" fill="white"/>
<path d="M121.059 16.9004V16.7656C121.059 16.3086 121.125 15.8848 121.258 15.4941C121.391 15.0996 121.582 14.7578 121.832 14.4688C122.086 14.1758 122.395 13.9492 122.758 13.7891C123.125 13.625 123.539 13.543 124 13.543C124.465 13.543 124.879 13.625 125.243 13.7891C125.61 13.9492 125.92 14.1758 126.174 14.4688C126.428 14.7578 126.622 15.0996 126.754 15.4941C126.887 15.8848 126.954 16.3086 126.954 16.7656V16.9004C126.954 17.3574 126.887 17.7812 126.754 18.1719C126.622 18.5625 126.428 18.9043 126.174 19.1973C125.92 19.4863 125.612 19.7129 125.248 19.877C124.885 20.0371 124.473 20.1172 124.012 20.1172C123.547 20.1172 123.131 20.0371 122.764 19.877C122.401 19.7129 122.092 19.4863 121.838 19.1973C121.584 18.9043 121.391 18.5625 121.258 18.1719C121.125 17.7812 121.059 17.3574 121.059 16.9004ZM122.471 16.7656V16.9004C122.471 17.1855 122.5 17.4551 122.559 17.709C122.618 17.9629 122.709 18.1855 122.834 18.377C122.959 18.5684 123.12 18.7188 123.315 18.8281C123.51 18.9375 123.743 18.9922 124.012 18.9922C124.274 18.9922 124.5 18.9375 124.692 18.8281C124.887 18.7188 125.047 18.5684 125.172 18.377C125.297 18.1855 125.389 17.9629 125.448 17.709C125.51 17.4551 125.541 17.1855 125.541 16.9004V16.7656C125.541 16.4844 125.51 16.2188 125.448 15.9688C125.389 15.7148 125.295 15.4902 125.166 15.2949C125.041 15.0996 124.881 14.9473 124.686 14.8379C124.495 14.7246 124.266 14.668 124 14.668C123.735 14.668 123.504 14.7246 123.309 14.8379C123.118 14.9473 122.959 15.0996 122.834 15.2949C122.709 15.4902 122.618 15.7148 122.559 15.9688C122.5 16.2188 122.471 16.4844 122.471 16.7656Z" fill="white"/>
<path d="M118.537 14.8672V20H117.125V13.6602H118.472L118.537 14.8672ZM120.476 13.6191L120.464 14.9316C120.378 14.916 120.285 14.9043 120.183 14.8965C120.085 14.8887 119.988 14.8848 119.89 14.8848C119.648 14.8848 119.435 14.9199 119.252 14.9902C119.068 15.0566 118.914 15.1543 118.789 15.2832C118.668 15.4082 118.574 15.5605 118.507 15.7402C118.441 15.9199 118.402 16.1211 118.39 16.3438L118.068 16.3672C118.068 15.9688 118.107 15.5996 118.185 15.2598C118.263 14.9199 118.38 14.6211 118.537 14.3633C118.697 14.1055 118.896 13.9043 119.134 13.7598C119.377 13.6152 119.656 13.543 119.972 13.543C120.058 13.543 120.15 13.5508 120.248 13.5664C120.349 13.582 120.425 13.5996 120.476 13.6191Z" fill="white"/>
<path d="M114.667 20H113.255V13.0508C113.255 12.5781 113.342 12.1816 113.518 11.8613C113.698 11.5371 113.954 11.293 114.286 11.1289C114.618 10.9609 115.01 10.877 115.464 10.877C115.604 10.877 115.743 10.8867 115.88 10.9062C116.016 10.9219 116.149 10.9473 116.278 10.9824L116.243 12.0723C116.165 12.0527 116.079 12.0391 115.985 12.0312C115.895 12.0234 115.798 12.0195 115.692 12.0195C115.477 12.0195 115.292 12.0605 115.135 12.1426C114.983 12.2207 114.866 12.3359 114.784 12.4883C114.706 12.6406 114.667 12.8281 114.667 13.0508V20ZM115.973 13.6602V14.6914H112.282V13.6602H115.973Z" fill="white"/>
<path d="M106.634 18.6875V11H108.052V20H106.768L106.634 18.6875ZM102.509 16.9004V16.7773C102.509 16.2969 102.565 15.8594 102.679 15.4648C102.792 15.0664 102.956 14.7246 103.171 14.4395C103.386 14.1504 103.647 13.9297 103.956 13.7773C104.265 13.6211 104.612 13.543 104.999 13.543C105.382 13.543 105.718 13.6172 106.007 13.7656C106.296 13.9141 106.542 14.127 106.745 14.4043C106.948 14.6777 107.11 15.0059 107.231 15.3887C107.352 15.7676 107.438 16.1895 107.489 16.6543V17.0469C107.438 17.5 107.352 17.9141 107.231 18.2891C107.11 18.6641 106.948 18.9883 106.745 19.2617C106.542 19.5352 106.294 19.7461 106.001 19.8945C105.712 20.043 105.374 20.1172 104.987 20.1172C104.604 20.1172 104.259 20.0371 103.95 19.877C103.645 19.7168 103.386 19.4922 103.171 19.2031C102.956 18.9141 102.792 18.5742 102.679 18.1836C102.565 17.7891 102.509 17.3613 102.509 16.9004ZM103.921 16.7773V16.9004C103.921 17.1895 103.946 17.459 103.997 17.709C104.052 17.959 104.136 18.1797 104.249 18.3711C104.362 18.5586 104.509 18.707 104.688 18.8164C104.872 18.9219 105.091 18.9746 105.345 18.9746C105.665 18.9746 105.929 18.9043 106.136 18.7637C106.343 18.623 106.505 18.4336 106.622 18.1953C106.743 17.9531 106.825 17.6836 106.868 17.3867V16.3262C106.845 16.0957 106.796 15.8809 106.722 15.6816C106.651 15.4824 106.556 15.3086 106.434 15.1602C106.313 15.0078 106.163 14.8906 105.983 14.8086C105.808 14.7227 105.599 14.6797 105.356 14.6797C105.099 14.6797 104.88 14.7344 104.7 14.8438C104.52 14.9531 104.372 15.1035 104.255 15.2949C104.142 15.4863 104.058 15.709 104.003 15.9629C103.948 16.2168 103.921 16.4883 103.921 16.7773Z" fill="white"/>
<path d="M99.752 18.7285V15.7051C99.752 15.4785 99.711 15.2832 99.6289 15.1191C99.5469 14.9551 99.4219 14.8281 99.2539 14.7383C99.0899 14.6484 98.8828 14.6035 98.6328 14.6035C98.4024 14.6035 98.2032 14.6426 98.0352 14.7207C97.8672 14.7988 97.7364 14.9043 97.6426 15.0371C97.5489 15.1699 97.502 15.3203 97.502 15.4883H96.0957C96.0957 15.2383 96.1563 14.9961 96.2774 14.7617C96.3985 14.5273 96.5742 14.3184 96.8047 14.1348C97.0352 13.9512 97.3106 13.8066 97.6309 13.7012C97.9512 13.5957 98.3106 13.543 98.709 13.543C99.1856 13.543 99.6075 13.623 99.9746 13.7832C100.346 13.9434 100.637 14.1855 100.848 14.5098C101.063 14.8301 101.17 15.2324 101.17 15.7168V18.5352C101.17 18.8242 101.189 19.084 101.229 19.3145C101.272 19.541 101.332 19.7383 101.41 19.9062V20H99.9629C99.8965 19.8477 99.8438 19.6543 99.8047 19.4199C99.7696 19.1816 99.752 18.9512 99.752 18.7285ZM99.9571 16.1445L99.9688 17.0176H98.9551C98.6934 17.0176 98.4629 17.043 98.2637 17.0938C98.0645 17.1406 97.8985 17.2109 97.7657 17.3047C97.6328 17.3984 97.5332 17.5117 97.4668 17.6445C97.4004 17.7773 97.3672 17.9277 97.3672 18.0957C97.3672 18.2637 97.4063 18.418 97.4844 18.5586C97.5625 18.6953 97.6758 18.8027 97.8242 18.8809C97.9766 18.959 98.1602 18.998 98.375 18.998C98.6641 18.998 98.916 18.9395 99.1309 18.8223C99.3496 18.7012 99.5215 18.5547 99.6465 18.3828C99.7715 18.207 99.8379 18.041 99.8457 17.8848L100.303 18.5117C100.256 18.6719 100.176 18.8438 100.063 19.0273C99.9492 19.2109 99.8008 19.3867 99.6172 19.5547C99.4375 19.7188 99.2207 19.8535 98.9668 19.959C98.7168 20.0645 98.4278 20.1172 98.0996 20.1172C97.6856 20.1172 97.3164 20.0352 96.9922 19.8711C96.668 19.7031 96.4141 19.4785 96.2305 19.1973C96.0469 18.9121 95.9551 18.5898 95.9551 18.2305C95.9551 17.8945 96.0176 17.5977 96.1426 17.3398C96.2715 17.0781 96.459 16.8594 96.7051 16.6836C96.9551 16.5078 97.2598 16.375 97.6192 16.2852C97.9785 16.1914 98.3887 16.1445 98.8496 16.1445H99.9571Z" fill="white"/>
<path d="M88.9796 16.9004V16.7656C88.9796 16.3086 89.046 15.8848 89.1789 15.4941C89.3117 15.0996 89.5031 14.7578 89.7531 14.4688C90.007 14.1758 90.3156 13.9492 90.6789 13.7891C91.046 13.625 91.4601 13.543 91.921 13.543C92.3859 13.543 92.7999 13.625 93.1632 13.7891C93.5304 13.9492 93.841 14.1758 94.0949 14.4688C94.3488 14.7578 94.5421 15.0996 94.6749 15.4941C94.8078 15.8848 94.8742 16.3086 94.8742 16.7656V16.9004C94.8742 17.3574 94.8078 17.7812 94.6749 18.1719C94.5421 18.5625 94.3488 18.9043 94.0949 19.1973C93.841 19.4863 93.5324 19.7129 93.1691 19.877C92.8058 20.0371 92.3937 20.1172 91.9328 20.1172C91.4679 20.1172 91.0519 20.0371 90.6847 19.877C90.3214 19.7129 90.0128 19.4863 89.7589 19.1973C89.505 18.9043 89.3117 18.5625 89.1789 18.1719C89.046 17.7812 88.9796 17.3574 88.9796 16.9004ZM90.3917 16.7656V16.9004C90.3917 17.1855 90.421 17.4551 90.4796 17.709C90.5382 17.9629 90.63 18.1855 90.755 18.377C90.88 18.5684 91.0402 18.7188 91.2355 18.8281C91.4308 18.9375 91.6632 18.9922 91.9328 18.9922C92.1945 18.9922 92.421 18.9375 92.6124 18.8281C92.8078 18.7188 92.9679 18.5684 93.0929 18.377C93.2179 18.1855 93.3097 17.9629 93.3683 17.709C93.4308 17.4551 93.4621 17.1855 93.4621 16.9004V16.7656C93.4621 16.4844 93.4308 16.2188 93.3683 15.9688C93.3097 15.7148 93.216 15.4902 93.0871 15.2949C92.9621 15.0996 92.8019 14.9473 92.6066 14.8379C92.4152 14.7246 92.1867 14.668 91.921 14.668C91.6554 14.668 91.4249 14.7246 91.2296 14.8379C91.0382 14.9473 90.88 15.0996 90.755 15.2949C90.63 15.4902 90.5382 15.7148 90.4796 15.9688C90.421 16.2188 90.3917 16.4844 90.3917 16.7656Z" fill="white"/>
<path d="M87.5823 11V20H86.1643V11H87.5823Z" fill="white"/>
<path d="M80.6713 15.0137V20H79.2592V13.6602H80.5892L80.6713 15.0137ZM80.4193 16.5957L79.9623 16.5898C79.9662 16.1406 80.0287 15.7285 80.1498 15.3535C80.2748 14.9785 80.4467 14.6562 80.6654 14.3867C80.8881 14.1172 81.1537 13.9102 81.4623 13.7656C81.7709 13.6172 82.1146 13.543 82.4935 13.543C82.7982 13.543 83.0736 13.5859 83.3197 13.6719C83.5697 13.7539 83.7826 13.8887 83.9584 14.0762C84.1381 14.2637 84.2748 14.5078 84.3685 14.8086C84.4623 15.1055 84.5092 15.4707 84.5092 15.9043V20H83.0912V15.8984C83.0912 15.5938 83.0463 15.3535 82.9564 15.1777C82.8705 14.998 82.7435 14.8711 82.5756 14.7969C82.4115 14.7188 82.2064 14.6797 81.9603 14.6797C81.7182 14.6797 81.5014 14.7305 81.31 14.832C81.1185 14.9336 80.9564 15.0723 80.8236 15.248C80.6947 15.4238 80.5951 15.627 80.5248 15.8574C80.4545 16.0879 80.4193 16.334 80.4193 16.5957Z" fill="white"/>
<path d="M71.9673 18.5938L73.4321 13.6602H74.3345L74.0884 15.1367L72.6118 20H71.8032L71.9673 18.5938ZM71.106 13.6602L72.2485 18.6172L72.3423 20H71.4399L69.7232 13.6602H71.106ZM75.7056 18.5586L76.813 13.6602H78.1899L76.479 20H75.5767L75.7056 18.5586ZM74.4868 13.6602L75.9341 18.5352L76.1157 20H75.3071L73.813 15.1309L73.5669 13.6602H74.4868Z" fill="white"/>
<path d="M63.0465 16.9004V16.7656C63.0465 16.3086 63.1129 15.8848 63.2457 15.4941C63.3785 15.0996 63.57 14.7578 63.82 14.4688C64.0739 14.1758 64.3825 13.9492 64.7457 13.7891C65.1129 13.625 65.527 13.543 65.9879 13.543C66.4528 13.543 66.8668 13.625 67.2301 13.7891C67.5973 13.9492 67.9078 14.1758 68.1617 14.4688C68.4157 14.7578 68.609 15.0996 68.7418 15.4941C68.8746 15.8848 68.941 16.3086 68.941 16.7656V16.9004C68.941 17.3574 68.8746 17.7812 68.7418 18.1719C68.609 18.5625 68.4157 18.9043 68.1617 19.1973C67.9078 19.4863 67.5992 19.7129 67.236 19.877C66.8727 20.0371 66.4606 20.1172 65.9996 20.1172C65.5348 20.1172 65.1188 20.0371 64.7516 19.877C64.3883 19.7129 64.0797 19.4863 63.8258 19.1973C63.5719 18.9043 63.3785 18.5625 63.2457 18.1719C63.1129 17.7812 63.0465 17.3574 63.0465 16.9004ZM64.4586 16.7656V16.9004C64.4586 17.1855 64.4879 17.4551 64.5465 17.709C64.6051 17.9629 64.6969 18.1855 64.8219 18.377C64.9469 18.5684 65.1071 18.7188 65.3024 18.8281C65.4977 18.9375 65.7301 18.9922 65.9996 18.9922C66.2614 18.9922 66.4879 18.9375 66.6793 18.8281C66.8746 18.7188 67.0348 18.5684 67.1598 18.377C67.2848 18.1855 67.3766 17.9629 67.4352 17.709C67.4977 17.4551 67.5289 17.1855 67.5289 16.9004V16.7656C67.5289 16.4844 67.4977 16.2188 67.4352 15.9688C67.3766 15.7148 67.2828 15.4902 67.1539 15.2949C67.0289 15.0996 66.8688 14.9473 66.6735 14.8379C66.4821 14.7246 66.2535 14.668 65.9879 14.668C65.7223 14.668 65.4918 14.7246 65.2965 14.8379C65.1051 14.9473 64.9469 15.0996 64.8219 15.2949C64.6969 15.4902 64.6051 15.7148 64.5465 15.9688C64.4879 16.2188 64.4586 16.4844 64.4586 16.7656Z" fill="white"/>
<path d="M57.9753 20H56.1531L56.1648 18.834H57.9753C58.5027 18.834 58.9441 18.7188 59.2996 18.4883C59.6589 18.2578 59.9285 17.9277 60.1082 17.498C60.2917 17.0684 60.3835 16.5566 60.3835 15.9629V15.5C60.3835 15.0391 60.3308 14.6309 60.2253 14.2754C60.1238 13.9199 59.9714 13.6211 59.7683 13.3789C59.5691 13.1367 59.323 12.9531 59.03 12.8281C58.741 12.7031 58.407 12.6406 58.0281 12.6406H56.1179V11.4688H58.0281C58.5945 11.4688 59.1121 11.5645 59.5808 11.7559C60.0496 11.9434 60.4539 12.2148 60.7937 12.5703C61.1375 12.9258 61.4011 13.3516 61.5847 13.8477C61.7683 14.3438 61.8601 14.8984 61.8601 15.5117V15.9629C61.8601 16.5762 61.7683 17.1309 61.5847 17.627C61.4011 18.123 61.1375 18.5488 60.7937 18.9043C60.45 19.2559 60.0398 19.5273 59.5632 19.7188C59.0906 19.9062 58.5613 20 57.9753 20ZM56.9675 11.4688V20H55.4968V11.4688H56.9675Z" fill="white"/>
<path d="M152.785 31.3517V38.0001H150.902V29.547H152.676L152.785 31.3517ZM152.449 33.4611L151.84 33.4533C151.845 32.8543 151.928 32.3048 152.09 31.8048C152.256 31.3048 152.486 30.8751 152.777 30.5158C153.074 30.1564 153.428 29.8803 153.84 29.6876C154.251 29.4897 154.71 29.3908 155.215 29.3908C155.621 29.3908 155.988 29.4481 156.316 29.5626C156.65 29.672 156.934 29.8517 157.168 30.1017C157.407 30.3517 157.59 30.6772 157.715 31.0783C157.84 31.4741 157.902 31.9611 157.902 32.5392V38.0001H156.012V32.5314C156.012 32.1251 155.952 31.8048 155.832 31.5705C155.717 31.3309 155.548 31.1616 155.324 31.0626C155.105 30.9585 154.832 30.9064 154.504 30.9064C154.181 30.9064 153.892 30.9741 153.637 31.1095C153.381 31.2449 153.165 31.4298 152.988 31.6642C152.816 31.8986 152.684 32.1694 152.59 32.4767C152.496 32.784 152.449 33.1121 152.449 33.4611Z" fill="white"/>
<path d="M141.34 36.1251L143.293 29.547H144.496L144.168 31.5158L142.199 38.0001H141.121L141.34 36.1251ZM140.191 29.547L141.715 36.1564L141.84 38.0001H140.637L138.348 29.547H140.191ZM146.324 36.0783L147.801 29.547H149.637L147.355 38.0001H146.152L146.324 36.0783ZM144.699 29.547L146.629 36.047L146.871 38.0001H145.793L143.801 31.508L143.473 29.547H144.699Z" fill="white"/>
<path d="M129.605 33.8673V33.6876C129.605 33.0783 129.694 32.5132 129.871 31.9923C130.048 31.4663 130.303 31.0106 130.637 30.6251C130.975 30.2345 131.387 29.9324 131.871 29.7189C132.361 29.5001 132.913 29.3908 133.527 29.3908C134.147 29.3908 134.699 29.5001 135.184 29.7189C135.673 29.9324 136.087 30.2345 136.426 30.6251C136.764 31.0106 137.022 31.4663 137.199 31.9923C137.376 32.5132 137.465 33.0783 137.465 33.6876V33.8673C137.465 34.4767 137.376 35.0418 137.199 35.5626C137.022 36.0835 136.764 36.5392 136.426 36.9298C136.087 37.3152 135.676 37.6173 135.191 37.8361C134.707 38.0496 134.157 38.1564 133.543 38.1564C132.923 38.1564 132.368 38.0496 131.879 37.8361C131.394 37.6173 130.983 37.3152 130.644 36.9298C130.306 36.5392 130.048 36.0835 129.871 35.5626C129.694 35.0418 129.605 34.4767 129.605 33.8673ZM131.488 33.6876V33.8673C131.488 34.2475 131.527 34.6069 131.605 34.9455C131.684 35.284 131.806 35.5809 131.973 35.8361C132.139 36.0913 132.353 36.2918 132.613 36.4376C132.874 36.5835 133.184 36.6564 133.543 36.6564C133.892 36.6564 134.194 36.5835 134.449 36.4376C134.71 36.2918 134.923 36.0913 135.09 35.8361C135.256 35.5809 135.379 35.284 135.457 34.9455C135.54 34.6069 135.582 34.2475 135.582 33.8673V33.6876C135.582 33.3126 135.54 32.9585 135.457 32.6251C135.379 32.2866 135.254 31.9871 135.082 31.7267C134.915 31.4663 134.702 31.2632 134.441 31.1173C134.186 30.9663 133.881 30.8908 133.527 30.8908C133.173 30.8908 132.866 30.9663 132.605 31.1173C132.35 31.2632 132.139 31.4663 131.973 31.7267C131.806 31.9871 131.684 32.2866 131.605 32.6251C131.527 32.9585 131.488 33.3126 131.488 33.6876Z" fill="white"/>
<path d="M126.176 26.6251V38.0001H124.23V26.6251H126.176ZM129.746 26.6251V28.1876H120.691V26.6251H129.746Z" fill="white"/>
<path d="M113.967 38.1564C113.342 38.1564 112.777 38.0548 112.271 37.8517C111.771 37.6434 111.344 37.3543 110.99 36.9845C110.641 36.6147 110.373 36.1798 110.185 35.6798C109.998 35.1798 109.904 34.6408 109.904 34.0626V33.7501C109.904 33.0887 110.001 32.4897 110.193 31.9533C110.386 31.4168 110.654 30.9585 110.998 30.5783C111.342 30.1928 111.748 29.8986 112.217 29.6955C112.685 29.4923 113.193 29.3908 113.74 29.3908C114.344 29.3908 114.873 29.4923 115.326 29.6955C115.779 29.8986 116.154 30.185 116.451 30.5548C116.753 30.9194 116.977 31.3543 117.123 31.8595C117.274 32.3647 117.35 32.922 117.35 33.5314V34.3361H110.818V32.9845H115.49V32.8361C115.48 32.4975 115.412 32.1798 115.287 31.883C115.167 31.5861 114.982 31.3465 114.732 31.1642C114.482 30.9819 114.149 30.8908 113.732 30.8908C113.42 30.8908 113.141 30.9585 112.896 31.0939C112.657 31.2241 112.456 31.4142 112.295 31.6642C112.133 31.9142 112.008 32.2163 111.92 32.5705C111.837 32.9194 111.795 33.3126 111.795 33.7501V34.0626C111.795 34.4324 111.844 34.7762 111.943 35.0939C112.047 35.4064 112.199 35.6798 112.396 35.9142C112.594 36.1486 112.834 36.3335 113.115 36.4689C113.396 36.5991 113.717 36.6642 114.076 36.6642C114.529 36.6642 114.933 36.5731 115.287 36.3908C115.641 36.2085 115.949 35.9507 116.209 35.6173L117.201 36.5783C117.019 36.8439 116.782 37.0991 116.49 37.3439C116.199 37.5835 115.842 37.7788 115.42 37.9298C115.003 38.0809 114.519 38.1564 113.967 38.1564Z" fill="white"/>
<path d="M106.748 35.7111C106.748 35.5236 106.701 35.3543 106.607 35.2033C106.514 35.047 106.334 34.9064 106.068 34.7814C105.808 34.6564 105.422 34.5418 104.912 34.4376C104.464 34.3387 104.053 34.2215 103.678 34.0861C103.308 33.9455 102.99 33.7762 102.725 33.5783C102.459 33.3803 102.253 33.146 102.107 32.8751C101.962 32.6043 101.889 32.2918 101.889 31.9376C101.889 31.5939 101.964 31.2684 102.115 30.9611C102.266 30.6538 102.482 30.383 102.764 30.1486C103.045 29.9142 103.386 29.7293 103.787 29.5939C104.193 29.4585 104.646 29.3908 105.146 29.3908C105.855 29.3908 106.462 29.5106 106.967 29.7501C107.477 29.9845 107.868 30.3048 108.139 30.7111C108.409 31.1121 108.545 31.5652 108.545 32.0705H106.662C106.662 31.8465 106.605 31.6382 106.49 31.4455C106.381 31.2475 106.214 31.0887 105.99 30.9689C105.766 30.8439 105.485 30.7814 105.146 30.7814C104.824 30.7814 104.555 30.8335 104.342 30.9376C104.133 31.0366 103.977 31.1668 103.873 31.3283C103.774 31.4897 103.725 31.6668 103.725 31.8595C103.725 32.0001 103.751 32.1277 103.803 32.2423C103.86 32.3517 103.954 32.4533 104.084 32.547C104.214 32.6356 104.391 32.7189 104.615 32.797C104.844 32.8751 105.131 32.9507 105.475 33.0236C106.12 33.159 106.675 33.3335 107.139 33.547C107.607 33.7553 107.967 34.0262 108.217 34.3595C108.467 34.6876 108.592 35.1043 108.592 35.6095C108.592 35.9845 108.511 36.3283 108.35 36.6408C108.193 36.9481 107.964 37.2163 107.662 37.4455C107.36 37.6694 106.998 37.8439 106.576 37.9689C106.159 38.0939 105.691 38.1564 105.17 38.1564C104.404 38.1564 103.756 38.021 103.225 37.7501C102.693 37.4741 102.29 37.1225 102.014 36.6955C101.743 36.2632 101.607 35.8152 101.607 35.3517H103.428C103.449 35.7007 103.545 35.9793 103.717 36.1876C103.894 36.3908 104.113 36.5392 104.373 36.633C104.639 36.7215 104.912 36.7658 105.193 36.7658C105.532 36.7658 105.816 36.7215 106.045 36.633C106.274 36.5392 106.449 36.4142 106.568 36.258C106.688 36.0965 106.748 35.9142 106.748 35.7111Z" fill="white"/>
<path d="M98.2402 31.1564V38.0001H96.3574V29.547H98.1542L98.2402 31.1564ZM100.826 29.4923L100.81 31.2423C100.696 31.2215 100.571 31.2059 100.435 31.1955C100.305 31.185 100.175 31.1798 100.045 31.1798C99.7219 31.1798 99.4381 31.2267 99.1933 31.3205C98.9485 31.409 98.7428 31.5392 98.5761 31.7111C98.4147 31.8777 98.2897 32.0809 98.2011 32.3205C98.1126 32.56 98.0605 32.8283 98.0449 33.1251L97.6152 33.1564C97.6152 32.6251 97.6673 32.133 97.7714 31.6798C97.8756 31.2267 98.0318 30.8283 98.2402 30.4845C98.4537 30.1408 98.7193 29.8725 99.037 29.6798C99.36 29.4871 99.7324 29.3908 100.154 29.3908C100.269 29.3908 100.391 29.4012 100.521 29.422C100.657 29.4428 100.758 29.4663 100.826 29.4923Z" fill="white"/>
<path d="M91.498 38.1564C90.873 38.1564 90.3079 38.0548 89.8027 37.8517C89.3027 37.6434 88.8756 37.3543 88.5214 36.9845C88.1725 36.6147 87.9042 36.1798 87.7167 35.6798C87.5292 35.1798 87.4355 34.6408 87.4355 34.0626V33.7501C87.4355 33.0887 87.5318 32.4897 87.7245 31.9533C87.9173 31.4168 88.1855 30.9585 88.5292 30.5783C88.873 30.1928 89.2792 29.8986 89.748 29.6955C90.2167 29.4923 90.7245 29.3908 91.2714 29.3908C91.8756 29.3908 92.4042 29.4923 92.8574 29.6955C93.3105 29.8986 93.6855 30.185 93.9824 30.5548C94.2844 30.9194 94.5084 31.3543 94.6542 31.8595C94.8053 32.3647 94.8808 32.922 94.8808 33.5314V34.3361H88.3495V32.9845H93.0214V32.8361C93.011 32.4975 92.9433 32.1798 92.8183 31.883C92.6985 31.5861 92.5136 31.3465 92.2636 31.1642C92.0136 30.9819 91.6803 30.8908 91.2636 30.8908C90.9511 30.8908 90.6725 30.9585 90.4277 31.0939C90.1881 31.2241 89.9876 31.4142 89.8261 31.6642C89.6647 31.9142 89.5397 32.2163 89.4511 32.5705C89.3678 32.9194 89.3261 33.3126 89.3261 33.7501V34.0626C89.3261 34.4324 89.3756 34.7762 89.4745 35.0939C89.5787 35.4064 89.7298 35.6798 89.9277 35.9142C90.1256 36.1486 90.3652 36.3335 90.6464 36.4689C90.9277 36.5991 91.248 36.6642 91.6074 36.6642C92.0605 36.6642 92.4641 36.5731 92.8183 36.3908C93.1725 36.2085 93.4798 35.9507 93.7402 35.6173L94.7324 36.5783C94.5501 36.8439 94.3131 37.0991 94.0214 37.3439C93.7298 37.5835 93.373 37.7788 92.9511 37.9298C92.5344 38.0809 92.0501 38.1564 91.498 38.1564Z" fill="white"/>
<path d="M82.6933 36.508L84.7636 29.547H86.7167L83.7792 38.0001H82.5605L82.6933 36.508ZM81.1074 29.547L83.2167 36.5392L83.3183 38.0001H82.0995L79.1464 29.547H81.1074Z" fill="white"/>
<path d="M74.5527 37.0783L76.8495 29.547H78.8652L75.4745 39.2892C75.3964 39.4975 75.2949 39.7241 75.1699 39.9689C75.0449 40.2137 74.8808 40.4455 74.6777 40.6642C74.4798 40.8882 74.2324 41.0678 73.9355 41.2033C73.6386 41.3439 73.2792 41.4142 72.8574 41.4142C72.6907 41.4142 72.5292 41.3986 72.373 41.3673C72.2219 41.3413 72.0787 41.3126 71.9433 41.2814L71.9355 39.8439C71.9876 39.8491 72.0501 39.8543 72.123 39.8595C72.2011 39.8647 72.2636 39.8673 72.3105 39.8673C72.623 39.8673 72.8834 39.8283 73.0917 39.7501C73.3001 39.6772 73.4693 39.5574 73.5995 39.3908C73.735 39.2241 73.8495 39.0001 73.9433 38.7189L74.5527 37.0783ZM73.2558 29.547L75.2636 35.8751L75.5995 37.8595L74.2949 38.1955L71.2245 29.547H73.2558Z" fill="white"/>
<path d="M62.787 33.8673V33.6876C62.787 33.0783 62.8756 32.5132 63.0527 31.9923C63.2298 31.4663 63.485 31.0106 63.8183 30.6251C64.1568 30.2345 64.5683 29.9324 65.0527 29.7189C65.5423 29.5001 66.0943 29.3908 66.7089 29.3908C67.3287 29.3908 67.8808 29.5001 68.3652 29.7189C68.8548 29.9324 69.2688 30.2345 69.6074 30.6251C69.9459 31.0106 70.2037 31.4663 70.3808 31.9923C70.5579 32.5132 70.6464 33.0783 70.6464 33.6876V33.8673C70.6464 34.4767 70.5579 35.0418 70.3808 35.5626C70.2037 36.0835 69.9459 36.5392 69.6074 36.9298C69.2688 37.3152 68.8574 37.6173 68.373 37.8361C67.8886 38.0496 67.3391 38.1564 66.7245 38.1564C66.1048 38.1564 65.5501 38.0496 65.0605 37.8361C64.5761 37.6173 64.1647 37.3152 63.8261 36.9298C63.4876 36.5392 63.2298 36.0835 63.0527 35.5626C62.8756 35.0418 62.787 34.4767 62.787 33.8673ZM64.6699 33.6876V33.8673C64.6699 34.2475 64.7089 34.6069 64.787 34.9455C64.8652 35.284 64.9876 35.5809 65.1542 35.8361C65.3209 36.0913 65.5344 36.2918 65.7949 36.4376C66.0553 36.5835 66.3652 36.6564 66.7245 36.6564C67.0735 36.6564 67.3756 36.5835 67.6308 36.4376C67.8912 36.2918 68.1048 36.0913 68.2714 35.8361C68.4381 35.5809 68.5605 35.284 68.6386 34.9455C68.7219 34.6069 68.7636 34.2475 68.7636 33.8673V33.6876C68.7636 33.3126 68.7219 32.9585 68.6386 32.6251C68.5605 32.2866 68.4355 31.9871 68.2636 31.7267C68.0969 31.4663 67.8834 31.2632 67.623 31.1173C67.3678 30.9663 67.0631 30.8908 66.7089 30.8908C66.3548 30.8908 66.0475 30.9663 65.787 31.1173C65.5318 31.2632 65.3209 31.4663 65.1542 31.7267C64.9876 31.9871 64.8652 32.2866 64.787 32.6251C64.7089 32.9585 64.6699 33.3126 64.6699 33.6876Z" fill="white"/>
<path d="M61.8183 36.4455V38.0001H56.1074V36.4455H61.8183ZM56.6542 26.6251V38.0001H54.6933V26.6251H56.6542Z" fill="white"/>
<path fill-rule="evenodd" clip-rule="evenodd" d="M43.0967 27.5556V39.9998H12.0185V27.5556H43.0967ZM36.6998 13.12L40.0666 10.0385C40.5845 9.56445 40.5845 8.82963 40.0666 8.35556C39.5486 7.88148 38.7458 7.88148 38.2278 8.35556L34.3948 11.8637C32.3488 10.9156 30.018 10.3704 27.5576 10.3704C25.0713 10.3704 22.7405 10.9156 20.6686 11.8637L16.8097 8.35556C16.2917 7.88148 15.4889 7.88148 14.9709 8.35556C14.453 8.82963 14.453 9.56445 14.9709 10.0385L18.3636 13.1437C14.5306 15.7274 12.0185 19.8756 12.0185 24.5926H43.0967C43.0967 19.8756 40.5845 15.7037 36.6998 13.12ZM22.3779 19.8519H19.788V17.4815H22.3779V19.8519ZM35.3271 19.8519H32.7373V17.4815H35.3271V19.8519ZM19.5861 29.3337H19.0647H18.1798H17.6722L13.9609 38.2226H16.1492L16.8402 36.3484H20.43L21.1227 38.2226H23.318L19.5861 29.3337ZM19.8998 34.9137H17.3691L18.6328 31.4858L19.8998 34.9137ZM27.9932 35.0541H26.1616V38.2226H24.1036V29.3337H27.9932C28.7752 29.3337 29.4452 29.4599 30.0032 29.7122C30.5657 29.9605 30.9956 30.3044 31.2929 30.744C31.5901 31.1836 31.7388 31.6862 31.7388 32.2519C31.7388 32.8258 31.5901 33.3223 31.2929 33.7416C30.9956 34.1608 30.5657 34.4843 30.0032 34.7122C29.4452 34.9402 28.7752 35.0541 27.9932 35.0541ZM26.1616 30.7684V33.6256H27.9932C28.3865 33.6256 28.7066 33.5686 28.9536 33.4546C29.2006 33.3366 29.3812 33.1738 29.4955 32.9662C29.6099 32.7586 29.667 32.5246 29.667 32.2641C29.667 31.9996 29.6099 31.7534 29.4955 31.5254C29.3812 31.2975 29.2006 31.1144 28.9536 30.976C28.7066 30.8376 28.3865 30.7684 27.9932 30.7684H26.1616ZM35.0763 33.4062V29.3337H33.0183V38.2226H35.0763V35.6594L36.1484 34.6337L38.719 38.2226H41.1543L37.5113 33.2672L41.0583 29.3337H38.5338L35.9887 32.2947L35.0763 33.4062Z" fill="white"/>
</svg>
