<svg width="177" height="48" viewBox="0 0 177 48" fill="none" xmlns="http://www.w3.org/2000/svg">
<rect x="0.5" y="0.5" width="176" height="47" rx="5.5" fill="black" stroke="#A6A6A6"/>
<path fill-rule="evenodd" clip-rule="evenodd" d="M43.0967 27.5556V39.9998H12.0185V27.5556H43.0967ZM36.6998 13.12L40.0666 10.0385C40.5845 9.56445 40.5845 8.82963 40.0666 8.35556C39.5486 7.88148 38.7458 7.88148 38.2278 8.35556L34.3948 11.8637C32.3488 10.9156 30.018 10.3704 27.5576 10.3704C25.0713 10.3704 22.7405 10.9156 20.6686 11.8637L16.8097 8.35556C16.2917 7.88148 15.4889 7.88148 14.9709 8.35556C14.453 8.82963 14.453 9.56445 14.9709 10.0385L18.3636 13.1437C14.5306 15.7274 12.0185 19.8756 12.0185 24.5926H43.0967C43.0967 19.8756 40.5845 15.7037 36.6998 13.12ZM22.3779 19.8519H19.788V17.4815H22.3779V19.8519ZM35.3271 19.8519H32.7373V17.4815H35.3271V19.8519ZM19.5861 29.3337H19.0647H18.1798H17.6722L13.9609 38.2226H16.1492L16.8402 36.3484H20.43L21.1227 38.2226H23.318L19.5861 29.3337ZM19.8998 34.9137H17.3691L18.6328 31.4858L19.8998 34.9137ZM27.9932 35.0541H26.1616V38.2226H24.1036V29.3337H27.9932C28.7752 29.3337 29.4452 29.4599 30.0032 29.7122C30.5657 29.9605 30.9956 30.3044 31.2929 30.744C31.5901 31.1836 31.7388 31.6862 31.7388 32.2519C31.7388 32.8258 31.5901 33.3223 31.2929 33.7416C30.9956 34.1608 30.5657 34.4843 30.0032 34.7122C29.4452 34.9402 28.7752 35.0541 27.9932 35.0541ZM26.1616 30.7684V33.6256H27.9932C28.3865 33.6256 28.7066 33.5686 28.9536 33.4546C29.2006 33.3366 29.3812 33.1738 29.4955 32.9662C29.6099 32.7586 29.667 32.5246 29.667 32.2641C29.667 31.9996 29.6099 31.7534 29.4955 31.5254C29.3812 31.2975 29.2006 31.1144 28.9536 30.976C28.7066 30.8376 28.3865 30.7684 27.9932 30.7684H26.1616ZM35.0763 33.4062V29.3337H33.0183V38.2226H35.0763V35.6594L36.1484 34.6337L38.719 38.2226H41.1543L37.5113 33.2672L41.0583 29.3337H38.5338L35.9887 32.2947L35.0763 33.4062Z" fill="white"/>
<path d="M161.765 16.3574C161.335 16.3574 160.947 16.2876 160.6 16.1479C160.256 16.0047 159.962 15.806 159.719 15.5518C159.479 15.2975 159.294 14.9985 159.166 14.6548C159.037 14.311 158.972 13.9404 158.972 13.543V13.3281C158.972 12.8734 159.038 12.4616 159.171 12.0928C159.303 11.724 159.488 11.4089 159.724 11.1475C159.96 10.8825 160.24 10.6802 160.562 10.5405C160.884 10.4009 161.233 10.3311 161.609 10.3311C162.025 10.3311 162.388 10.4009 162.7 10.5405C163.011 10.6802 163.269 10.8771 163.473 11.1313C163.681 11.382 163.835 11.681 163.935 12.0283C164.039 12.3757 164.091 12.7588 164.091 13.1777V13.731H159.601V12.8018H162.812V12.6997C162.805 12.467 162.759 12.2485 162.673 12.0444C162.59 11.8403 162.463 11.6756 162.292 11.5503C162.12 11.425 161.89 11.3623 161.604 11.3623C161.389 11.3623 161.198 11.4089 161.029 11.502C160.865 11.5915 160.727 11.7222 160.616 11.894C160.505 12.0659 160.419 12.2736 160.358 12.5171C160.301 12.757 160.272 13.0273 160.272 13.3281V13.543C160.272 13.7972 160.306 14.0335 160.374 14.252C160.446 14.4668 160.549 14.6548 160.686 14.8159C160.822 14.9771 160.986 15.1042 161.18 15.1973C161.373 15.2868 161.593 15.3315 161.84 15.3315C162.152 15.3315 162.429 15.2689 162.673 15.1436C162.916 15.0182 163.128 14.841 163.307 14.6118L163.989 15.2725C163.863 15.4551 163.701 15.6305 163.5 15.7988C163.299 15.9635 163.054 16.0978 162.764 16.2017C162.478 16.3055 162.145 16.3574 161.765 16.3574Z" fill="white"/>
<path d="M157.785 8V16.25H156.485V8H157.785Z" fill="white"/>
<path d="M151.259 14.6763C151.259 14.5474 151.227 14.431 151.163 14.3271C151.098 14.2197 150.975 14.123 150.792 14.0371C150.613 13.9512 150.348 13.8724 149.997 13.8008C149.689 13.7327 149.406 13.6522 149.148 13.5591C148.894 13.4624 148.676 13.346 148.493 13.21C148.311 13.0739 148.169 12.9128 148.069 12.7266C147.969 12.5404 147.918 12.3255 147.918 12.082C147.918 11.8457 147.97 11.6219 148.074 11.4106C148.178 11.1994 148.327 11.0132 148.52 10.8521C148.713 10.6909 148.948 10.5638 149.224 10.4707C149.503 10.3776 149.814 10.3311 150.158 10.3311C150.645 10.3311 151.062 10.4134 151.41 10.5781C151.761 10.7393 152.029 10.9595 152.215 11.2388C152.402 11.5145 152.495 11.826 152.495 12.1733H151.2C151.2 12.0194 151.161 11.8761 151.082 11.7437C151.007 11.6076 150.892 11.4984 150.738 11.416C150.584 11.3301 150.391 11.2871 150.158 11.2871C149.936 11.2871 149.752 11.3229 149.605 11.3945C149.462 11.4626 149.354 11.5521 149.283 11.6631C149.215 11.7741 149.181 11.8958 149.181 12.0283C149.181 12.125 149.199 12.2127 149.234 12.2915C149.274 12.3667 149.338 12.4365 149.428 12.501C149.517 12.5618 149.639 12.6191 149.793 12.6729C149.951 12.7266 150.147 12.7785 150.384 12.8286C150.828 12.9217 151.209 13.0417 151.528 13.1885C151.85 13.3317 152.097 13.5179 152.269 13.7471C152.441 13.9727 152.527 14.2591 152.527 14.6064C152.527 14.8643 152.471 15.1006 152.36 15.3154C152.253 15.5267 152.095 15.7111 151.888 15.8687C151.68 16.0226 151.431 16.1426 151.141 16.2285C150.855 16.3145 150.532 16.3574 150.174 16.3574C149.648 16.3574 149.202 16.2643 148.837 16.0781C148.472 15.8883 148.194 15.6466 148.004 15.353C147.818 15.0558 147.725 14.7479 147.725 14.4292H148.977C148.991 14.6691 149.057 14.8607 149.175 15.0039C149.297 15.1436 149.447 15.2456 149.626 15.3101C149.809 15.3709 149.997 15.4014 150.19 15.4014C150.423 15.4014 150.618 15.3709 150.776 15.3101C150.933 15.2456 151.053 15.1597 151.136 15.0522C151.218 14.9412 151.259 14.8159 151.259 14.6763Z" fill="white"/>
<path d="M146.581 10.4385V16.25H145.281V10.4385H146.581ZM145.195 8.91309C145.195 8.71615 145.26 8.55322 145.389 8.42432C145.521 8.29183 145.704 8.22559 145.937 8.22559C146.166 8.22559 146.347 8.29183 146.479 8.42432C146.611 8.55322 146.678 8.71615 146.678 8.91309C146.678 9.10645 146.611 9.26758 146.479 9.39648C146.347 9.52539 146.166 9.58984 145.937 9.58984C145.704 9.58984 145.521 9.52539 145.389 9.39648C145.26 9.26758 145.195 9.10645 145.195 8.91309Z" fill="white"/>
<path d="M142.569 14.8804V10.4385H143.869V16.25H142.644L142.569 14.8804ZM142.751 13.6719L143.187 13.6611C143.187 14.0514 143.144 14.4113 143.058 14.7407C142.972 15.0666 142.839 15.3512 142.66 15.5947C142.481 15.8346 142.252 16.0226 141.973 16.1587C141.693 16.2912 141.359 16.3574 140.968 16.3574C140.685 16.3574 140.426 16.3162 140.189 16.2339C139.953 16.1515 139.749 16.0244 139.577 15.8525C139.409 15.6807 139.278 15.4569 139.185 15.1812C139.092 14.9054 139.045 14.576 139.045 14.1929V10.4385H140.34V14.2036C140.34 14.4149 140.365 14.5921 140.415 14.7354C140.465 14.875 140.533 14.9878 140.619 15.0737C140.705 15.1597 140.805 15.2205 140.92 15.2563C141.035 15.2922 141.156 15.3101 141.285 15.3101C141.654 15.3101 141.944 15.2384 142.155 15.0952C142.37 14.9484 142.522 14.7515 142.612 14.5044C142.705 14.2573 142.751 13.9798 142.751 13.6719Z" fill="white"/>
<path d="M134.185 11.5557V18.4844H132.89V10.4385H134.083L134.185 11.5557ZM137.971 13.2905V13.4033C137.971 13.8258 137.921 14.2179 137.821 14.5796C137.724 14.9377 137.579 15.251 137.386 15.5195C137.196 15.7845 136.961 15.9904 136.682 16.1372C136.403 16.284 136.081 16.3574 135.715 16.3574C135.354 16.3574 135.037 16.2912 134.765 16.1587C134.496 16.0226 134.269 15.8311 134.083 15.584C133.896 15.3369 133.746 15.0469 133.631 14.7139C133.52 14.3773 133.442 14.0085 133.395 13.6074V13.1724C133.442 12.7463 133.52 12.3595 133.631 12.0122C133.746 11.6649 133.896 11.3659 134.083 11.1152C134.269 10.8646 134.496 10.6712 134.765 10.5352C135.033 10.3991 135.347 10.3311 135.705 10.3311C136.07 10.3311 136.394 10.4027 136.677 10.5459C136.96 10.6855 137.198 10.8861 137.391 11.1475C137.584 11.4053 137.729 11.7168 137.826 12.082C137.923 12.4437 137.971 12.8465 137.971 13.2905ZM136.677 13.4033V13.2905C136.677 13.022 136.652 12.7731 136.602 12.5439C136.551 12.3112 136.473 12.1071 136.365 11.9316C136.258 11.7562 136.12 11.6201 135.952 11.5234C135.787 11.4232 135.588 11.373 135.355 11.373C135.126 11.373 134.929 11.4124 134.765 11.4912C134.6 11.5664 134.462 11.672 134.351 11.8081C134.24 11.9442 134.154 12.1035 134.093 12.2861C134.032 12.4652 133.989 12.6603 133.964 12.8716V13.9136C134.007 14.1714 134.081 14.4077 134.185 14.6226C134.288 14.8374 134.435 15.0093 134.625 15.1382C134.818 15.2635 135.065 15.3262 135.366 15.3262C135.599 15.3262 135.798 15.276 135.962 15.1758C136.127 15.0755 136.261 14.9377 136.365 14.7622C136.473 14.5832 136.551 14.3773 136.602 14.1445C136.652 13.9118 136.677 13.6647 136.677 13.4033Z" fill="white"/>
<path d="M129.549 16.3574C129.12 16.3574 128.731 16.2876 128.384 16.1479C128.04 16.0047 127.746 15.806 127.503 15.5518C127.263 15.2975 127.079 14.9985 126.95 14.6548C126.821 14.311 126.756 13.9404 126.756 13.543V13.3281C126.756 12.8734 126.823 12.4616 126.955 12.0928C127.088 11.724 127.272 11.4089 127.508 11.1475C127.745 10.8825 128.024 10.6802 128.346 10.5405C128.668 10.4009 129.018 10.3311 129.394 10.3311C129.809 10.3311 130.172 10.4009 130.484 10.5405C130.795 10.6802 131.053 10.8771 131.257 11.1313C131.465 11.382 131.619 11.681 131.719 12.0283C131.823 12.3757 131.875 12.7588 131.875 13.1777V13.731H127.385V12.8018H130.597V12.6997C130.59 12.467 130.543 12.2485 130.457 12.0444C130.375 11.8403 130.248 11.6756 130.076 11.5503C129.904 11.425 129.675 11.3623 129.388 11.3623C129.173 11.3623 128.982 11.4089 128.813 11.502C128.649 11.5915 128.511 11.7222 128.4 11.894C128.289 12.0659 128.203 12.2736 128.142 12.5171C128.085 12.757 128.056 13.0273 128.056 13.3281V13.543C128.056 13.7972 128.09 14.0335 128.158 14.252C128.23 14.4668 128.334 14.6548 128.47 14.8159C128.606 14.9771 128.771 15.1042 128.964 15.1973C129.157 15.2868 129.377 15.3315 129.625 15.3315C129.936 15.3315 130.214 15.2689 130.457 15.1436C130.701 15.0182 130.912 14.841 131.091 14.6118L131.773 15.2725C131.648 15.4551 131.485 15.6305 131.284 15.7988C131.084 15.9635 130.838 16.0978 130.548 16.2017C130.262 16.3055 129.929 16.3574 129.549 16.3574Z" fill="white"/>
<path d="M124.334 15.0469V8H125.634V16.25H124.458L124.334 15.0469ZM120.553 13.4087V13.2959C120.553 12.8555 120.605 12.4544 120.708 12.0928C120.812 11.7275 120.963 11.4142 121.16 11.1528C121.357 10.8879 121.597 10.6855 121.879 10.5459C122.162 10.4027 122.481 10.3311 122.835 10.3311C123.186 10.3311 123.494 10.3991 123.759 10.5352C124.024 10.6712 124.25 10.8664 124.436 11.1206C124.622 11.3713 124.771 11.672 124.882 12.0229C124.993 12.3703 125.072 12.757 125.118 13.1831V13.543C125.072 13.9583 124.993 14.3379 124.882 14.6816C124.771 15.0254 124.622 15.3226 124.436 15.5732C124.25 15.8239 124.022 16.0173 123.754 16.1533C123.489 16.2894 123.179 16.3574 122.825 16.3574C122.474 16.3574 122.157 16.284 121.874 16.1372C121.595 15.9904 121.357 15.7845 121.16 15.5195C120.963 15.2546 120.812 14.943 120.708 14.585C120.605 14.2233 120.553 13.8312 120.553 13.4087ZM121.847 13.2959V13.4087C121.847 13.6737 121.87 13.9207 121.917 14.1499C121.967 14.3791 122.044 14.5814 122.148 14.7568C122.252 14.9287 122.386 15.0648 122.551 15.165C122.719 15.2617 122.92 15.3101 123.152 15.3101C123.446 15.3101 123.688 15.2456 123.877 15.1167C124.067 14.9878 124.216 14.8141 124.323 14.5957C124.434 14.3737 124.509 14.1266 124.549 13.8545V12.8823C124.527 12.6711 124.483 12.4741 124.415 12.2915C124.35 12.1089 124.262 11.9495 124.151 11.8135C124.04 11.6738 123.903 11.5664 123.738 11.4912C123.577 11.4124 123.385 11.373 123.163 11.373C122.927 11.373 122.726 11.4232 122.562 11.5234C122.397 11.6237 122.261 11.7616 122.153 11.937C122.049 12.1125 121.972 12.3166 121.922 12.5493C121.872 12.7821 121.847 13.0309 121.847 13.2959Z" fill="white"/>
<path d="M115.461 11.5449V16.25H114.167V10.4385H115.402L115.461 11.5449ZM117.239 10.4009L117.228 11.604C117.149 11.5897 117.063 11.5789 116.97 11.5718C116.881 11.5646 116.791 11.561 116.702 11.561C116.48 11.561 116.285 11.5933 116.116 11.6577C115.948 11.7186 115.806 11.8081 115.692 11.9263C115.581 12.0409 115.495 12.1805 115.434 12.3452C115.373 12.5099 115.337 12.6943 115.327 12.8984L115.031 12.9199C115.031 12.5547 115.067 12.2163 115.139 11.9048C115.21 11.5933 115.318 11.3193 115.461 11.083C115.608 10.8467 115.79 10.6623 116.009 10.5298C116.231 10.3973 116.487 10.3311 116.777 10.3311C116.856 10.3311 116.94 10.3382 117.029 10.3525C117.122 10.3669 117.192 10.383 117.239 10.4009Z" fill="white"/>
<path d="M110.826 16.3574C110.396 16.3574 110.007 16.2876 109.66 16.1479C109.316 16.0047 109.023 15.806 108.779 15.5518C108.539 15.2975 108.355 14.9985 108.226 14.6548C108.097 14.311 108.033 13.9404 108.033 13.543V13.3281C108.033 12.8734 108.099 12.4616 108.231 12.0928C108.364 11.724 108.548 11.4089 108.785 11.1475C109.021 10.8825 109.3 10.6802 109.623 10.5405C109.945 10.4009 110.294 10.3311 110.67 10.3311C111.085 10.3311 111.449 10.4009 111.76 10.5405C112.072 10.6802 112.33 10.8771 112.534 11.1313C112.741 11.382 112.895 11.681 112.996 12.0283C113.099 12.3757 113.151 12.7588 113.151 13.1777V13.731H108.661V12.8018H111.873V12.6997C111.866 12.467 111.819 12.2485 111.733 12.0444C111.651 11.8403 111.524 11.6756 111.352 11.5503C111.18 11.425 110.951 11.3623 110.665 11.3623C110.45 11.3623 110.258 11.4089 110.09 11.502C109.925 11.5915 109.787 11.7222 109.676 11.894C109.565 12.0659 109.479 12.2736 109.418 12.5171C109.361 12.757 109.333 13.0273 109.333 13.3281V13.543C109.333 13.7972 109.367 14.0335 109.435 14.252C109.506 14.4668 109.61 14.6548 109.746 14.8159C109.882 14.9771 110.047 15.1042 110.24 15.1973C110.434 15.2868 110.654 15.3315 110.901 15.3315C111.212 15.3315 111.49 15.2689 111.733 15.1436C111.977 15.0182 112.188 14.841 112.367 14.6118L113.049 15.2725C112.924 15.4551 112.761 15.6305 112.561 15.7988C112.36 15.9635 112.115 16.0978 111.825 16.2017C111.538 16.3055 111.205 16.3574 110.826 16.3574Z" fill="white"/>
<path d="M105.745 10.4385H106.921V16.0889C106.921 16.6117 106.81 17.0557 106.588 17.4209C106.366 17.7861 106.056 18.0636 105.659 18.2534C105.261 18.4468 104.801 18.5435 104.278 18.5435C104.056 18.5435 103.809 18.5112 103.537 18.4468C103.269 18.3823 103.007 18.2785 102.753 18.1353C102.502 17.9956 102.293 17.8112 102.125 17.582L102.731 16.8193C102.939 17.0664 103.168 17.2472 103.419 17.3618C103.67 17.4764 103.933 17.5337 104.208 17.5337C104.506 17.5337 104.758 17.4782 104.966 17.3672C105.177 17.2598 105.34 17.1004 105.455 16.8892C105.569 16.6779 105.626 16.4201 105.626 16.1157V11.7544L105.745 10.4385ZM101.797 13.4087V13.2959C101.797 12.8555 101.851 12.4544 101.958 12.0928C102.065 11.7275 102.219 11.4142 102.42 11.1528C102.62 10.8879 102.864 10.6855 103.15 10.5459C103.437 10.4027 103.761 10.3311 104.123 10.3311C104.499 10.3311 104.819 10.3991 105.084 10.5352C105.353 10.6712 105.576 10.8664 105.755 11.1206C105.934 11.3713 106.074 11.672 106.174 12.0229C106.278 12.3703 106.355 12.757 106.405 13.1831V13.543C106.359 13.9583 106.28 14.3379 106.169 14.6816C106.058 15.0254 105.911 15.3226 105.729 15.5732C105.546 15.8239 105.32 16.0173 105.052 16.1533C104.787 16.2894 104.473 16.3574 104.112 16.3574C103.757 16.3574 103.437 16.284 103.15 16.1372C102.868 15.9904 102.624 15.7845 102.42 15.5195C102.219 15.2546 102.065 14.943 101.958 14.585C101.851 14.2233 101.797 13.8312 101.797 13.4087ZM103.091 13.2959V13.4087C103.091 13.6737 103.116 13.9207 103.167 14.1499C103.22 14.3791 103.301 14.5814 103.408 14.7568C103.519 14.9287 103.659 15.0648 103.827 15.165C103.999 15.2617 104.201 15.3101 104.434 15.3101C104.738 15.3101 104.987 15.2456 105.181 15.1167C105.378 14.9878 105.528 14.8141 105.632 14.5957C105.739 14.3737 105.814 14.1266 105.857 13.8545V12.8823C105.836 12.6711 105.791 12.4741 105.723 12.2915C105.659 12.1089 105.571 11.9495 105.46 11.8135C105.349 11.6738 105.209 11.5664 105.041 11.4912C104.873 11.4124 104.674 11.373 104.445 11.373C104.212 11.373 104.01 11.4232 103.838 11.5234C103.666 11.6237 103.525 11.7616 103.414 11.937C103.306 12.1125 103.226 12.3166 103.172 12.5493C103.118 12.7821 103.091 13.0309 103.091 13.2959Z" fill="white"/>
<path d="M99.541 11.5449V16.25H98.2466V10.4385H99.4819L99.541 11.5449ZM101.319 10.4009L101.308 11.604C101.229 11.5897 101.143 11.5789 101.05 11.5718C100.961 11.5646 100.871 11.561 100.782 11.561C100.56 11.561 100.365 11.5933 100.196 11.6577C100.028 11.7186 99.8866 11.8081 99.772 11.9263C99.661 12.0409 99.575 12.1805 99.5142 12.3452C99.4533 12.5099 99.4175 12.6943 99.4067 12.8984L99.1113 12.9199C99.1113 12.5547 99.1471 12.2163 99.2188 11.9048C99.2904 11.5933 99.3978 11.3193 99.541 11.083C99.6878 10.8467 99.8704 10.6623 100.089 10.5298C100.311 10.3973 100.567 10.3311 100.857 10.3311C100.936 10.3311 101.02 10.3382 101.109 10.3525C101.202 10.3669 101.272 10.383 101.319 10.4009Z" fill="white"/>
<path d="M95.5879 15.0845V12.313C95.5879 12.1053 95.5503 11.9263 95.4751 11.7759C95.3999 11.6255 95.2853 11.5091 95.1313 11.4268C94.981 11.3444 94.7912 11.3032 94.562 11.3032C94.3507 11.3032 94.1681 11.339 94.0142 11.4106C93.8602 11.4823 93.7402 11.5789 93.6543 11.7007C93.5684 11.8224 93.5254 11.9603 93.5254 12.1143H92.2363C92.2363 11.8851 92.2918 11.6631 92.4028 11.4482C92.5138 11.2334 92.675 11.0418 92.8862 10.8735C93.0975 10.7052 93.3499 10.5728 93.6436 10.4761C93.9372 10.3794 94.2666 10.3311 94.6318 10.3311C95.0687 10.3311 95.4554 10.4045 95.792 10.5513C96.1322 10.6981 96.3989 10.9201 96.5923 11.2173C96.7892 11.5109 96.8877 11.8797 96.8877 12.3237V14.9072C96.8877 15.1722 96.9056 15.4103 96.9414 15.6216C96.9808 15.8293 97.0363 16.0101 97.1079 16.1641V16.25H95.7812C95.7204 16.1104 95.672 15.9331 95.6362 15.7183C95.604 15.4998 95.5879 15.2886 95.5879 15.0845ZM95.7759 12.7158L95.7866 13.5161H94.8574C94.6175 13.5161 94.4062 13.5394 94.2236 13.5859C94.041 13.6289 93.8888 13.6934 93.7671 13.7793C93.6453 13.8652 93.554 13.9691 93.4932 14.0908C93.4323 14.2126 93.4019 14.3504 93.4019 14.5044C93.4019 14.6584 93.4377 14.7998 93.5093 14.9287C93.5809 15.054 93.6847 15.1525 93.8208 15.2241C93.9604 15.2957 94.1287 15.3315 94.3257 15.3315C94.5907 15.3315 94.8216 15.2778 95.0186 15.1704C95.2191 15.0594 95.3766 14.9251 95.4912 14.7676C95.6058 14.6064 95.6667 14.4543 95.6738 14.311L96.0928 14.8857C96.0498 15.0326 95.9764 15.1901 95.8726 15.3584C95.7687 15.5267 95.6326 15.6878 95.4644 15.8418C95.2996 15.9922 95.1009 16.1157 94.8682 16.2124C94.639 16.3091 94.374 16.3574 94.0732 16.3574C93.6937 16.3574 93.3553 16.2822 93.0581 16.1318C92.7609 15.9779 92.5282 15.772 92.3599 15.5142C92.1916 15.2528 92.1074 14.9574 92.1074 14.6279C92.1074 14.32 92.1647 14.0479 92.2793 13.8115C92.3975 13.5716 92.5693 13.3711 92.7949 13.21C93.0241 13.0488 93.3034 12.9271 93.6328 12.8447C93.9622 12.7588 94.3382 12.7158 94.7607 12.7158H95.7759Z" fill="white"/>
<path d="M87.4775 8V16.25H86.1885V8H87.4775ZM87.252 13.1294L86.833 13.124C86.8366 12.723 86.8921 12.3524 86.9995 12.0122C87.1105 11.672 87.2645 11.3766 87.4614 11.126C87.6619 10.8717 87.9019 10.6766 88.1812 10.5405C88.4604 10.4009 88.7702 10.3311 89.1104 10.3311C89.3968 10.3311 89.6546 10.3704 89.8838 10.4492C90.1165 10.528 90.3171 10.6551 90.4854 10.8306C90.6536 11.0024 90.7808 11.228 90.8667 11.5073C90.9562 11.783 91.001 12.1196 91.001 12.5171V16.25H89.7012V12.5063C89.7012 12.2271 89.66 12.005 89.5776 11.8403C89.4989 11.6756 89.3825 11.5575 89.2285 11.4858C89.0745 11.4106 88.8866 11.373 88.6646 11.373C88.4318 11.373 88.2259 11.4196 88.0469 11.5127C87.8714 11.6058 87.7246 11.7329 87.6064 11.894C87.4883 12.0552 87.3988 12.2414 87.3379 12.4526C87.2806 12.6639 87.252 12.8895 87.252 13.1294Z" fill="white"/>
<path d="M82.8262 15.3262C83.0374 15.3262 83.2272 15.285 83.3955 15.2026C83.5674 15.1167 83.7052 14.9985 83.8091 14.8481C83.9165 14.6978 83.9756 14.5241 83.9863 14.3271H85.2056C85.1984 14.7031 85.0874 15.0451 84.8726 15.353C84.6577 15.661 84.373 15.9062 84.0186 16.0889C83.6641 16.2679 83.272 16.3574 82.8423 16.3574C82.3983 16.3574 82.0116 16.2822 81.6821 16.1318C81.3527 15.9779 81.0788 15.7666 80.8604 15.498C80.6419 15.2295 80.4772 14.9198 80.3662 14.5688C80.2588 14.2179 80.2051 13.842 80.2051 13.4409V13.2529C80.2051 12.8519 80.2588 12.4759 80.3662 12.125C80.4772 11.7705 80.6419 11.459 80.8604 11.1904C81.0788 10.9219 81.3527 10.7124 81.6821 10.562C82.0116 10.408 82.3965 10.3311 82.8369 10.3311C83.3024 10.3311 83.7106 10.4242 84.0615 10.6104C84.4124 10.793 84.6882 11.049 84.8887 11.3784C85.0928 11.7043 85.1984 12.0838 85.2056 12.5171H83.9863C83.9756 12.3022 83.9219 12.1089 83.8252 11.937C83.7321 11.7616 83.5996 11.6219 83.4277 11.5181C83.2594 11.4142 83.0571 11.3623 82.8208 11.3623C82.5594 11.3623 82.3428 11.416 82.1709 11.5234C81.999 11.6273 81.8647 11.7705 81.7681 11.9531C81.6714 12.1322 81.6016 12.3345 81.5586 12.5601C81.5192 12.7821 81.4995 13.013 81.4995 13.2529V13.4409C81.4995 13.6808 81.5192 13.9136 81.5586 14.1392C81.598 14.3647 81.666 14.5671 81.7627 14.7461C81.863 14.9215 81.999 15.063 82.1709 15.1704C82.3428 15.2743 82.5612 15.3262 82.8262 15.3262Z" fill="white"/>
<path d="M77.1167 16.3574C76.687 16.3574 76.2985 16.2876 75.9512 16.1479C75.6074 16.0047 75.3138 15.806 75.0703 15.5518C74.8304 15.2975 74.646 14.9985 74.5171 14.6548C74.3882 14.311 74.3237 13.9404 74.3237 13.543V13.3281C74.3237 12.8734 74.39 12.4616 74.5225 12.0928C74.6549 11.724 74.8394 11.4089 75.0757 11.1475C75.312 10.8825 75.5913 10.6802 75.9136 10.5405C76.2358 10.4009 76.585 10.3311 76.9609 10.3311C77.3763 10.3311 77.7397 10.4009 78.0513 10.5405C78.3628 10.6802 78.6206 10.8771 78.8247 11.1313C79.0324 11.382 79.1864 11.681 79.2866 12.0283C79.3905 12.3757 79.4424 12.7588 79.4424 13.1777V13.731H74.9521V12.8018H78.1641V12.6997C78.1569 12.467 78.1104 12.2485 78.0244 12.0444C77.9421 11.8403 77.8149 11.6756 77.6431 11.5503C77.4712 11.425 77.242 11.3623 76.9556 11.3623C76.7407 11.3623 76.5492 11.4089 76.3809 11.502C76.2161 11.5915 76.0783 11.7222 75.9673 11.894C75.8563 12.0659 75.7703 12.2736 75.7095 12.5171C75.6522 12.757 75.6235 13.0273 75.6235 13.3281V13.543C75.6235 13.7972 75.6576 14.0335 75.7256 14.252C75.7972 14.4668 75.901 14.6548 76.0371 14.8159C76.1732 14.9771 76.3379 15.1042 76.5312 15.1973C76.7246 15.2868 76.9448 15.3315 77.1919 15.3315C77.5034 15.3315 77.7809 15.2689 78.0244 15.1436C78.2679 15.0182 78.4792 14.841 78.6582 14.6118L79.3403 15.2725C79.215 15.4551 79.0521 15.6305 78.8516 15.7988C78.651 15.9635 78.4058 16.0978 78.1157 16.2017C77.8293 16.3055 77.4963 16.3574 77.1167 16.3574ZM76.2144 9.6167L77.2617 8H78.7227L77.2617 9.6167H76.2144Z" fill="white"/>
<path d="M73.1367 8V16.25H71.8369V8H73.1367Z" fill="white"/>
<path d="M68.4155 16.3574C67.9858 16.3574 67.5973 16.2876 67.25 16.1479C66.9062 16.0047 66.6126 15.806 66.3691 15.5518C66.1292 15.2975 65.9448 14.9985 65.8159 14.6548C65.687 14.311 65.6226 13.9404 65.6226 13.543V13.3281C65.6226 12.8734 65.6888 12.4616 65.8213 12.0928C65.9538 11.724 66.1382 11.4089 66.3745 11.1475C66.6108 10.8825 66.8901 10.6802 67.2124 10.5405C67.5347 10.4009 67.8838 10.3311 68.2598 10.3311C68.6751 10.3311 69.0386 10.4009 69.3501 10.5405C69.6616 10.6802 69.9194 10.8771 70.1235 11.1313C70.3312 11.382 70.4852 11.681 70.5854 12.0283C70.6893 12.3757 70.7412 12.7588 70.7412 13.1777V13.731H66.251V12.8018H69.4629V12.6997C69.4557 12.467 69.4092 12.2485 69.3232 12.0444C69.2409 11.8403 69.1138 11.6756 68.9419 11.5503C68.77 11.425 68.5409 11.3623 68.2544 11.3623C68.0396 11.3623 67.848 11.4089 67.6797 11.502C67.515 11.5915 67.3771 11.7222 67.2661 11.894C67.1551 12.0659 67.0692 12.2736 67.0083 12.5171C66.951 12.757 66.9224 13.0273 66.9224 13.3281V13.543C66.9224 13.7972 66.9564 14.0335 67.0244 14.252C67.096 14.4668 67.1999 14.6548 67.3359 14.8159C67.472 14.9771 67.6367 15.1042 67.8301 15.1973C68.0234 15.2868 68.2437 15.3315 68.4907 15.3315C68.8022 15.3315 69.0798 15.2689 69.3232 15.1436C69.5667 15.0182 69.778 14.841 69.957 14.6118L70.6392 15.2725C70.5138 15.4551 70.3509 15.6305 70.1504 15.7988C69.9499 15.9635 69.7046 16.0978 69.4146 16.2017C69.1281 16.3055 68.7951 16.3574 68.4155 16.3574ZM67.5132 9.6167L68.5605 8H70.0215L68.5605 9.6167H67.5132Z" fill="white"/>
<path d="M63.0122 8.42969V16.25H61.6748V8.42969H63.0122ZM65.4668 8.42969V9.50391H59.2417V8.42969H65.4668Z" fill="white"/>
<path d="M158.248 28.9978V35.6462H156.365V27.1931H158.139L158.248 28.9978ZM157.912 31.1072L157.303 31.0994C157.308 30.5004 157.391 29.9509 157.553 29.4509C157.719 28.9509 157.949 28.5212 158.24 28.1619C158.537 27.8025 158.891 27.5264 159.303 27.3337C159.714 27.1358 160.173 27.0369 160.678 27.0369C161.084 27.0369 161.451 27.0942 161.779 27.2087C162.113 27.3181 162.396 27.4978 162.631 27.7478C162.87 27.9978 163.053 28.3233 163.178 28.7244C163.303 29.1202 163.365 29.6072 163.365 30.1853V35.6462H161.475V30.1775C161.475 29.7712 161.415 29.4509 161.295 29.2166C161.18 28.977 161.011 28.8077 160.787 28.7087C160.568 28.6046 160.295 28.5525 159.967 28.5525C159.644 28.5525 159.355 28.6202 159.1 28.7556C158.844 28.891 158.628 29.0759 158.451 29.3103C158.279 29.5447 158.146 29.8155 158.053 30.1228C157.959 30.4301 157.912 30.7582 157.912 31.1072Z" fill="white"/>
<path d="M146.803 33.7712L148.756 27.1931H149.959L149.631 29.1619L147.662 35.6462H146.584L146.803 33.7712ZM145.654 27.1931L147.178 33.8025L147.303 35.6462H146.1L143.811 27.1931H145.654ZM151.787 33.7244L153.264 27.1931H155.1L152.818 35.6462H151.615L151.787 33.7244ZM150.162 27.1931L152.092 33.6931L152.334 35.6462H151.256L149.264 29.1541L148.936 27.1931H150.162Z" fill="white"/>
<path d="M135.068 31.5134V31.3337C135.068 30.7244 135.157 30.1593 135.334 29.6384C135.511 29.1124 135.766 28.6567 136.1 28.2712C136.438 27.8806 136.85 27.5785 137.334 27.365C137.824 27.1462 138.376 27.0369 138.99 27.0369C139.61 27.0369 140.162 27.1462 140.646 27.365C141.136 27.5785 141.55 27.8806 141.889 28.2712C142.227 28.6567 142.485 29.1124 142.662 29.6384C142.839 30.1593 142.928 30.7244 142.928 31.3337V31.5134C142.928 32.1228 142.839 32.6879 142.662 33.2087C142.485 33.7296 142.227 34.1853 141.889 34.5759C141.55 34.9613 141.139 35.2634 140.654 35.4822C140.17 35.6957 139.62 35.8025 139.006 35.8025C138.386 35.8025 137.831 35.6957 137.342 35.4822C136.857 35.2634 136.446 34.9613 136.107 34.5759C135.769 34.1853 135.511 33.7296 135.334 33.2087C135.157 32.6879 135.068 32.1228 135.068 31.5134ZM136.951 31.3337V31.5134C136.951 31.8936 136.99 32.253 137.068 32.5916C137.146 32.9301 137.269 33.227 137.436 33.4822C137.602 33.7374 137.816 33.9379 138.076 34.0837C138.337 34.2296 138.646 34.3025 139.006 34.3025C139.355 34.3025 139.657 34.2296 139.912 34.0837C140.173 33.9379 140.386 33.7374 140.553 33.4822C140.719 33.227 140.842 32.9301 140.92 32.5916C141.003 32.253 141.045 31.8936 141.045 31.5134V31.3337C141.045 30.9587 141.003 30.6046 140.92 30.2712C140.842 29.9327 140.717 29.6332 140.545 29.3728C140.378 29.1124 140.165 28.9093 139.904 28.7634C139.649 28.6124 139.344 28.5369 138.99 28.5369C138.636 28.5369 138.329 28.6124 138.068 28.7634C137.813 28.9093 137.602 29.1124 137.436 29.3728C137.269 29.6332 137.146 29.9327 137.068 30.2712C136.99 30.6046 136.951 30.9587 136.951 31.3337Z" fill="white"/>
<path d="M131.639 24.2712V35.6462H129.693V24.2712H131.639ZM135.209 24.2712V25.8337H126.154V24.2712H135.209Z" fill="white"/>
<path d="M119.43 35.8025C118.805 35.8025 118.24 35.7009 117.734 35.4978C117.234 35.2895 116.807 35.0004 116.453 34.6306C116.104 34.2608 115.836 33.8259 115.648 33.3259C115.461 32.8259 115.367 32.2869 115.367 31.7087V31.3962C115.367 30.7348 115.464 30.1358 115.656 29.5994C115.849 29.0629 116.117 28.6046 116.461 28.2244C116.805 27.8389 117.211 27.5447 117.68 27.3416C118.148 27.1384 118.656 27.0369 119.203 27.0369C119.807 27.0369 120.336 27.1384 120.789 27.3416C121.242 27.5447 121.617 27.8311 121.914 28.2009C122.216 28.5655 122.44 29.0004 122.586 29.5056C122.737 30.0108 122.812 30.5681 122.812 31.1775V31.9822H116.281V30.6306H120.953V30.4822C120.943 30.1436 120.875 29.8259 120.75 29.5291C120.63 29.2322 120.445 28.9926 120.195 28.8103C119.945 28.628 119.612 28.5369 119.195 28.5369C118.883 28.5369 118.604 28.6046 118.359 28.74C118.12 28.8702 117.919 29.0603 117.758 29.3103C117.596 29.5603 117.471 29.8624 117.383 30.2166C117.299 30.5655 117.258 30.9587 117.258 31.3962V31.7087C117.258 32.0785 117.307 32.4223 117.406 32.74C117.51 33.0525 117.661 33.3259 117.859 33.5603C118.057 33.7947 118.297 33.9796 118.578 34.115C118.859 34.2452 119.18 34.3103 119.539 34.3103C119.992 34.3103 120.396 34.2192 120.75 34.0369C121.104 33.8546 121.411 33.5968 121.672 33.2634L122.664 34.2244C122.482 34.49 122.245 34.7452 121.953 34.99C121.661 35.2296 121.305 35.4249 120.883 35.5759C120.466 35.727 119.982 35.8025 119.43 35.8025Z" fill="white"/>
<path d="M112.211 33.3572C112.211 33.1697 112.164 33.0004 112.07 32.8494C111.977 32.6931 111.797 32.5525 111.531 32.4275C111.271 32.3025 110.885 32.1879 110.375 32.0837C109.927 31.9848 109.516 31.8676 109.141 31.7322C108.771 31.5916 108.453 31.4223 108.188 31.2244C107.922 31.0264 107.716 30.7921 107.57 30.5212C107.424 30.2504 107.352 29.9379 107.352 29.5837C107.352 29.24 107.427 28.9145 107.578 28.6072C107.729 28.2999 107.945 28.0291 108.227 27.7947C108.508 27.5603 108.849 27.3754 109.25 27.24C109.656 27.1046 110.109 27.0369 110.609 27.0369C111.318 27.0369 111.924 27.1567 112.43 27.3962C112.94 27.6306 113.331 27.9509 113.602 28.3572C113.872 28.7582 114.008 29.2113 114.008 29.7166H112.125C112.125 29.4926 112.068 29.2843 111.953 29.0916C111.844 28.8936 111.677 28.7348 111.453 28.615C111.229 28.49 110.948 28.4275 110.609 28.4275C110.286 28.4275 110.018 28.4796 109.805 28.5837C109.596 28.6827 109.44 28.8129 109.336 28.9744C109.237 29.1358 109.188 29.3129 109.188 29.5056C109.188 29.6462 109.214 29.7738 109.266 29.8884C109.323 29.9978 109.417 30.0994 109.547 30.1931C109.677 30.2817 109.854 30.365 110.078 30.4431C110.307 30.5212 110.594 30.5968 110.938 30.6697C111.583 30.8051 112.138 30.9796 112.602 31.1931C113.07 31.4014 113.43 31.6723 113.68 32.0056C113.93 32.3337 114.055 32.7504 114.055 33.2556C114.055 33.6306 113.974 33.9744 113.812 34.2869C113.656 34.5942 113.427 34.8624 113.125 35.0916C112.823 35.3155 112.461 35.49 112.039 35.615C111.622 35.74 111.154 35.8025 110.633 35.8025C109.867 35.8025 109.219 35.6671 108.688 35.3962C108.156 35.1202 107.753 34.7686 107.477 34.3416C107.206 33.9093 107.07 33.4613 107.07 32.9978H108.891C108.911 33.3468 109.008 33.6254 109.18 33.8337C109.357 34.0369 109.576 34.1853 109.836 34.2791C110.102 34.3676 110.375 34.4119 110.656 34.4119C110.995 34.4119 111.279 34.3676 111.508 34.2791C111.737 34.1853 111.911 34.0603 112.031 33.9041C112.151 33.7426 112.211 33.5603 112.211 33.3572Z" fill="white"/>
<path d="M103.703 28.8025V35.6462H101.82V27.1931H103.617L103.703 28.8025ZM106.289 27.1384L106.273 28.8884C106.159 28.8676 106.034 28.852 105.898 28.8416C105.768 28.8311 105.638 28.8259 105.508 28.8259C105.185 28.8259 104.901 28.8728 104.656 28.9666C104.411 29.0551 104.206 29.1853 104.039 29.3572C103.878 29.5238 103.753 29.727 103.664 29.9666C103.576 30.2061 103.523 30.4744 103.508 30.7712L103.078 30.8025C103.078 30.2712 103.13 29.7791 103.234 29.3259C103.339 28.8728 103.495 28.4744 103.703 28.1306C103.917 27.7869 104.182 27.5186 104.5 27.3259C104.823 27.1332 105.195 27.0369 105.617 27.0369C105.732 27.0369 105.854 27.0473 105.984 27.0681C106.12 27.0889 106.221 27.1124 106.289 27.1384Z" fill="white"/>
<path d="M96.9609 35.8025C96.3359 35.8025 95.7708 35.7009 95.2656 35.4978C94.7656 35.2895 94.3385 35.0004 93.9844 34.6306C93.6354 34.2608 93.3672 33.8259 93.1797 33.3259C92.9922 32.8259 92.8984 32.2869 92.8984 31.7087V31.3962C92.8984 30.7348 92.9948 30.1358 93.1875 29.5994C93.3802 29.0629 93.6484 28.6046 93.9922 28.2244C94.3359 27.8389 94.7422 27.5447 95.2109 27.3416C95.6797 27.1384 96.1875 27.0369 96.7344 27.0369C97.3385 27.0369 97.8672 27.1384 98.3203 27.3416C98.7734 27.5447 99.1484 27.8311 99.4453 28.2009C99.7474 28.5655 99.9714 29.0004 100.117 29.5056C100.268 30.0108 100.344 30.5681 100.344 31.1775V31.9822H93.8125V30.6306H98.4844V30.4822C98.474 30.1436 98.4062 29.8259 98.2812 29.5291C98.1615 29.2322 97.9766 28.9926 97.7266 28.8103C97.4766 28.628 97.1432 28.5369 96.7266 28.5369C96.4141 28.5369 96.1354 28.6046 95.8906 28.74C95.651 28.8702 95.4505 29.0603 95.2891 29.3103C95.1276 29.5603 95.0026 29.8624 94.9141 30.2166C94.8307 30.5655 94.7891 30.9587 94.7891 31.3962V31.7087C94.7891 32.0785 94.8385 32.4223 94.9375 32.74C95.0417 33.0525 95.1927 33.3259 95.3906 33.5603C95.5885 33.7947 95.8281 33.9796 96.1094 34.115C96.3906 34.2452 96.7109 34.3103 97.0703 34.3103C97.5234 34.3103 97.9271 34.2192 98.2812 34.0369C98.6354 33.8546 98.9427 33.5968 99.2031 33.2634L100.195 34.2244C100.013 34.49 99.776 34.7452 99.4844 34.99C99.1927 35.2296 98.8359 35.4249 98.4141 35.5759C97.9974 35.727 97.513 35.8025 96.9609 35.8025Z" fill="white"/>
<path d="M88.1562 34.1541L90.2266 27.1931H92.1797L89.2422 35.6462H88.0234L88.1562 34.1541ZM86.5703 27.1931L88.6797 34.1853L88.7812 35.6462H87.5625L84.6094 27.1931H86.5703Z" fill="white"/>
<path d="M80.0156 34.7244L82.3125 27.1931H84.3281L80.9375 36.9353C80.8594 37.1436 80.7578 37.3702 80.6328 37.615C80.5078 37.8598 80.3438 38.0916 80.1406 38.3103C79.9427 38.5343 79.6953 38.7139 79.3984 38.8494C79.1016 38.99 78.7422 39.0603 78.3203 39.0603C78.1536 39.0603 77.9922 39.0447 77.8359 39.0134C77.6849 38.9874 77.5417 38.9587 77.4062 38.9275L77.3984 37.49C77.4505 37.4952 77.513 37.5004 77.5859 37.5056C77.6641 37.5108 77.7266 37.5134 77.7734 37.5134C78.0859 37.5134 78.3464 37.4744 78.5547 37.3962C78.763 37.3233 78.9323 37.2035 79.0625 37.0369C79.1979 36.8702 79.3125 36.6462 79.4062 36.365L80.0156 34.7244ZM78.7188 27.1931L80.7266 33.5212L81.0625 35.5056L79.7578 35.8416L76.6875 27.1931H78.7188Z" fill="white"/>
<path d="M68.25 31.5134V31.3337C68.25 30.7244 68.3385 30.1593 68.5156 29.6384C68.6927 29.1124 68.9479 28.6567 69.2812 28.2712C69.6198 27.8806 70.0312 27.5785 70.5156 27.365C71.0052 27.1462 71.5573 27.0369 72.1719 27.0369C72.7917 27.0369 73.3438 27.1462 73.8281 27.365C74.3177 27.5785 74.7318 27.8806 75.0703 28.2712C75.4089 28.6567 75.6667 29.1124 75.8438 29.6384C76.0208 30.1593 76.1094 30.7244 76.1094 31.3337V31.5134C76.1094 32.1228 76.0208 32.6879 75.8438 33.2087C75.6667 33.7296 75.4089 34.1853 75.0703 34.5759C74.7318 34.9613 74.3203 35.2634 73.8359 35.4822C73.3516 35.6957 72.8021 35.8025 72.1875 35.8025C71.5677 35.8025 71.013 35.6957 70.5234 35.4822C70.0391 35.2634 69.6276 34.9613 69.2891 34.5759C68.9505 34.1853 68.6927 33.7296 68.5156 33.2087C68.3385 32.6879 68.25 32.1228 68.25 31.5134ZM70.1328 31.3337V31.5134C70.1328 31.8936 70.1719 32.253 70.25 32.5916C70.3281 32.9301 70.4505 33.227 70.6172 33.4822C70.7839 33.7374 70.9974 33.9379 71.2578 34.0837C71.5182 34.2296 71.8281 34.3025 72.1875 34.3025C72.5365 34.3025 72.8385 34.2296 73.0938 34.0837C73.3542 33.9379 73.5677 33.7374 73.7344 33.4822C73.901 33.227 74.0234 32.9301 74.1016 32.5916C74.1849 32.253 74.2266 31.8936 74.2266 31.5134V31.3337C74.2266 30.9587 74.1849 30.6046 74.1016 30.2712C74.0234 29.9327 73.8984 29.6332 73.7266 29.3728C73.5599 29.1124 73.3464 28.9093 73.0859 28.7634C72.8307 28.6124 72.526 28.5369 72.1719 28.5369C71.8177 28.5369 71.5104 28.6124 71.25 28.7634C70.9948 28.9093 70.7839 29.1124 70.6172 29.3728C70.4505 29.6332 70.3281 29.9327 70.25 30.2712C70.1719 30.6046 70.1328 30.9587 70.1328 31.3337Z" fill="white"/>
<path d="M67.2812 34.0916V35.6462H61.5703V34.0916H67.2812ZM62.1172 24.2712V35.6462H60.1562V24.2712H62.1172Z" fill="white"/>
</svg>
