<?xml version="1.0" encoding="UTF-8"?>
<!-- Created with Inkscape (http://www.inkscape.org/) -->
<svg width="40" height="40" version="1.1" viewBox="0 0 40 40" xmlns="http://www.w3.org/2000/svg">
 <defs>
  <linearGradient id="linearGradient3731-79" x1="-187.05" x2="-7.4246" y1="184.39" y2="9.0259" gradientTransform="scale(1 .99479)" gradientUnits="userSpaceOnUse">
   <stop stop-color="#43a047" offset="0"/>
   <stop stop-color="#4caf50" offset="1"/>
  </linearGradient>
  <filter id="filter4518" color-interpolation-filters="sRGB">
   <feFlood flood-color="rgb(0,0,0)" flood-opacity=".4" result="flood"/>
   <feComposite in="flood" in2="SourceGraphic" operator="in" result="composite1"/>
   <feGaussianBlur in="composite1" result="blur" stdDeviation="3"/>
   <feOffset dx="0" dy="3" result="offset"/>
   <feComposite in="SourceGraphic" in2="offset" result="composite2"/>
  </filter>
 </defs>

 <g transform="matrix(.20833 0 0 .20833 0 -8.0112e-5)">
  <g>
   <rect y="-8.3923e-6" width="192" height="192" rx="12" ry="12" fill="#0d8734"/>
   <rect transform="scale(-1,1)" x="-192" width="192" height="191" rx="12" ry="12" fill="url(#linearGradient3731-79)"/>
   <path d="m165.51 43.654c0.8431 1.0174 1.5282 2.1995 2.0137 3.5156 0.0412 0.10859 0.0799 0.21704 0.11719 0.32617 8e-3 0.02423 0.0153 0.0499 0.0234 0.07422 0.0557 0.16677 0.10889 0.33332 0.15625 0.50195 0.0376 0.13117 0.0717 0.26501 0.10547 0.39844 0 0.0037 9.5e-4 8e-3 2e-3 0.01172 0.26867 1.0672 0.41602 2.2038 0.41602 3.3984v0.12695c0.0399 1.1899 0.0228 2.4966 0.0156 3.9922l-0.0156 41.518v42.602c0 7.1119-5.1012 12.229-11.264 12.229h-107.29l-13.793 0.0039c-0.15538 3.7e-4 -0.30301-2e-3 -0.45312-4e-3h-0.63086c-2.615 0-5.0371-0.92528-6.9609-2.5293 13.484 13.494 26.735 26.954 40.953 41.182h111.09c6.648 0 12-5.352 12-12v-108.86z" fill-opacity=".12"/>
   <path transform="matrix(.1875 0 0 .1875 -288.28 133.31)" d="m1723.7-499.52c-32.867 0-60.066 27.287-60.066 65.217v470.61c0 37.93 27.2 65.215 60.066 65.215h651.57c32.867 0 60.068-27.285 60.068-65.215v-470.61c0-37.93-27.202-65.217-60.068-65.217zm37.785 44.52h576v512h-576z" fill="#fff" fill-rule="evenodd" filter="url(#filter4518)"/>
   <path d="m42 48v96h108v-96z" fill="#49aa4d"/>
   <g transform="matrix(2 0 0 2 -56.136 45.466)" fill="#fff">
    <g transform="translate(0 .3)" fill="#fff">
     <path transform="matrix(.25 0 0 .25 52.068 0)" d="m40 60v48h8v16h-8v48h48v-8h16v8h48v-48h-8v-16h8v-48h-48v8h-16v-8zm8 8h32v32h-32zm64 0h32v32h-32zm-24 8h16v32h32v16h-32v32h-16v-32h-32v-16h32zm-40 56h32v32h-32zm64 0h32v32h-32z"/>
     <path transform="matrix(.25 0 0 .25 52.068 0)" d="m128.93 25.443c-3.0661-3.0652-6.6721-4.5557-11.026-4.5557-5.0042 0-8.8162 1.7401-11.658 5.3267l-10.251 13.204-10.257-13.224c-2.8298-3.5704-6.6397-5.3066-11.642-5.3066-4.3537 0-7.9613 1.4905-11.028 4.5557-3.0643 3.065-4.5537 6.6707-4.5537 11.025 0 4.3546 1.4896 7.9604 4.5557 11.026 2.6254 2.6263 5.6369 4.0858 9.2831 4.4648h47.326l0.0404-0.0039c3.5635-0.37509 6.5729-1.8343 9.2024-4.4609 3.0661-3.0663 4.5555-6.6728 4.5555-11.026 2.4e-4 -4.3523-1.4894-7.9592-4.5553-11.025zm-38.364 19.121h-16.462c-2.2352 0-4.1656-0.79544-5.732-2.3628-1.5685-1.5676-2.3628-3.4956-2.3628-5.7322 0-2.2364 0.7943-4.1646 2.3628-5.732 1.5664-1.5673 3.4947-2.3628 5.732-2.3628 2.4174 0 4.39 0.89144 5.8879 2.6741l10.575 13.516zm10.959 0 10.514-13.542c1.4736-1.7564 3.4462-2.6478 5.8655-2.6478 2.2355 0 4.1637 0.7943 5.7302 2.3616 1.5685 1.5685 2.3628 3.4967 2.3628 5.7331 0 2.2366-0.79431 4.1646-2.3628 5.7322-1.5664 1.5673-3.4947 2.3628-5.7302 2.3628h-16.379z"/>
    </g>
   </g>
  </g>
 </g>
</svg>
