<?xml version="1.0" encoding="UTF-8" standalone="no"?>
<!-- Created with Inkscape (http://www.inkscape.org/) -->
<svg id="svg4871" xmlns:rdf="http://www.w3.org/1999/02/22-rdf-syntax-ns#" xmlns="http://www.w3.org/2000/svg" height="40" viewBox="0 0 40 39.999835" width="40" version="1.1" xmlns:cc="http://creativecommons.org/ns#" xmlns:dc="http://purl.org/dc/elements/1.1/">
 <defs id="defs4877">
  <filter id="filter3396" style="color-interpolation-filters:sRGB">
   <feFlood id="feFlood3398" flood-color="rgb(0,0,0)" flood-opacity=".1" result="flood"/>
   <feComposite id="feComposite3400" operator="in" in="flood" in2="SourceGraphic" result="composite1"/>
   <feGaussianBlur id="feGaussianBlur3402" in="composite1" stdDeviation="4" result="blur"/>
   <feOffset id="feOffset3404" dy="4" dx="4" result="offset"/>
   <feComposite id="feComposite3406" operator="over" in="SourceGraphic" in2="offset" result="composite2"/>
  </filter>
  <linearGradient id="linearGradient3731" x1="-187.05" gradientUnits="userSpaceOnUse" y1="184.39" gradientTransform="scale(1 .99479)" x2="-7.4246" y2="9.0259">
   <stop id="stop3727" stop-color="#48ac4b" offset="0"/>
   <stop id="stop3729" stop-color="#76be53" offset="1"/>
  </linearGradient>
 </defs>
 <g id="layer2" transform="matrix(.83332 0 0 .83332 -.0000019073 -120)">
  <g id="g4182" transform="matrix(.25 0 0 .25 0 144)">
   <rect id="rect3408" rx="12" ry="12" height="192" width="192" y="-.0000083923" x="0" fill="#0d8734"/>
   <rect id="rect4956" rx="12" ry="12" transform="scale(-1,1)" width="192" y="0" x="-192" height="191" fill="url(#linearGradient3731)"/>
   <path id="path3280" fill-opacity="0.08" fill-rule="evenodd" d="m74.1 20.887c-4.3537 0-7.961 1.4914-11.027 4.5566-3.0643 3.065-4.5547 6.6708-4.5547 11.025 0 4.1955 1.399 7.6901 4.2422 10.682l-0.01367 0.002 0.18164 0.18164c0.05128 0.05249 0.0943 0.10798 0.14648 0.16016 0.05934 0.05936 0.1219 0.1098 0.18164 0.16797l12.328 12.335-35.576 0.002-0.008 48 8 8v8l-7.9844-0.008-0.016 48.03 19.982 19.98h120.02c6.648 0 12-5.352 12-12v-91.461l-62.842-62.842c-0.0805-0.08356-0.14966-0.17114-0.23242-0.25391-0.0755-0.07545-0.15629-0.1374-0.23242-0.21094-3.0167-2.9142-6.5467-4.3457-10.793-4.3457-5.0042 0-8.8163 1.7396-11.658 5.3262l-10.24 13.202-10.258-13.225c-2.8298-3.5704-6.6402-5.3066-11.643-5.3066z"/>
   <g id="g19" fill-opacity=".2">
    <path id="rect5060-7" fill="#fff" d="m40 59v1h48v-1h-48zm64 0v1h48v-1h-48zm-16 8v1h16v-1h-16zm-40 32v1h32v-1h-32zm64 0v1h32v-1h-32zm-72 24v1h8v-1h-8zm16 0v1h32v-1h-32zm48 0v1h32v-1h-32zm40 0v1h8v-1h-8zm-56 32v1h16v-1h-16zm-40 8v1h32v-1h-32zm64 0v1h32v-1h-32z"/>
    <path id="path5241" d="m48 68v1h32v-1h-32zm64 0v1h32v-1h-32zm-24 8v1h16v-1h-16zm-48 32v1h8v-1h-8zm16 0v1h32v-1h-32zm48 0v1h32v-1h-32zm40 0v1h8v-1h-8zm-96 24v1h32v-1h-32zm64 0v1h32v-1h-32zm-24 32v1h16v-1h-16zm-48 8v1h48v-1h-48zm64 0v1h48v-1h-48z"/>
    <path id="path99-3" d="m74.1 28.373c-2.2373 0-4.166 0.79594-5.7324 2.3633-1.5685 1.5673-2.3633 3.496-2.3633 5.7324 0 0.17623 0.01359 0.34716 0.02344 0.51953 0.11559-2.0143 0.89541-3.7676 2.3398-5.2109 1.5664-1.5673 3.4951-2.3613 5.7324-2.3613 2.4174 0 4.3908 0.89117 5.8887 2.6738l9.7578 12.473h0.81641l-10.574-13.516c-1.4979-1.7827-3.4713-2.6738-5.8887-2.6738zm43.801 0c-2.4192 0-4.3916 0.89206-5.8652 2.6484l-10.514 13.541h0.81055l9.7031-12.5c1.4736-1.7564 3.446-2.6465 5.8652-2.6465 2.2355 0 4.164 0.79399 5.7305 2.3613 1.4444 1.4444 2.2243 3.1966 2.3398 5.2109 0.01-0.17237 0.0234-0.3433 0.0234-0.51953 0-2.2364-0.7948-4.1659-2.3633-5.7344-1.5664-1.5673-3.495-2.3613-5.7305-2.3613zm-59.359 8.6152c-0.005 0.1752-0.02344 0.34381-0.02344 0.52148 0 4.3546 1.4905 7.9602 4.5566 11.025 2.6254 2.6263 5.637 4.0859 9.2832 4.4648h47.326l0.0391-0.0039c3.5635-0.37509 6.5736-1.8344 9.2031-4.4609 3.0661-3.0663 4.5566-6.6726 4.5566-11.025 0.00001-0.17758-0.0185-0.34637-0.0234-0.52148-0.1163 4.1179-1.5917 7.5642-4.5332 10.506-2.6295 2.6266-5.6396 4.0858-9.2031 4.4609l-0.0391 0.0039h-47.326c-3.6462-0.37898-6.6578-1.8385-9.2832-4.4648-2.9415-2.9406-4.4169-6.3864-4.5332-10.506z"/>
   </g>
   <g id="g24" fill="#fff">
    <path id="path3326" fill-opacity=".2" d="m74.1 19.928c-4.3537 0-7.961 1.4914-11.027 4.5566-3.0643 3.065-4.5547 6.6708-4.5547 11.025 0 0.16304 0.0173 0.31757 0.02148 0.47852 0.10776-4.1372 1.584-7.595 4.5332-10.545 3.0663-3.0652 6.6737-4.5566 11.027-4.5566 5.0024 0 8.8128 1.7363 11.643 5.3066l10.258 13.224 10.24-13.205c2.8419-3.5866 6.654-5.3262 11.658-5.3262 4.3534 0 7.9593 1.4914 11.025 4.5566 2.9506 2.9508 4.4275 6.4099 4.5352 10.545 0.004-0.16089 0.0215-0.31555 0.0215-0.47852 0.00024-4.3523-1.4908-7.9593-4.5566-11.025-3.0661-3.0652-6.672-4.5566-11.025-4.5566-5.0042 0-8.8163 1.7415-11.658 5.3281l-10.24 13.203-10.258-13.225c-2.8298-3.5704-6.6402-5.3066-11.643-5.3066zm-8.0742 16.061c-0.0084 0.15966-0.02148 0.31751-0.02148 0.48047 0 2.2366 0.7948 4.1649 2.3633 5.7324 1.5664 1.5673 3.4972 2.3613 5.7324 2.3613h16.463l-0.74805-0.95703h-15.715c-2.2352 0-4.166-0.79594-5.7324-2.3633-1.4547-1.4538-2.235-3.2214-2.3418-5.2539zm59.947 0c-0.10683 2.0325-0.88715 3.8001-2.3418 5.2539-1.5664 1.5673-3.495 2.3633-5.7305 2.3633h-15.637l-0.74219 0.95703h16.379c2.2355 0 4.164-0.79399 5.7305-2.3613 1.5685-1.5676 2.3633-3.4958 2.3633-5.7324 0-0.16296-0.0131-0.3208-0.0215-0.48047z"/>
    <path id="rect5060" filter="url(#filter3396)" d="m40 60v48h8v16h-8v48h48v-8h16v8h48v-48h-8v-16h8v-48h-48v8h-16v-8h-48zm8 8h32v32h-32v-32zm64 0h32v32h-32v-32zm-24 8h16v32h32v16h-32v32h-16v-32h-32v-16h32v-32zm-40 56h32v32h-32v-32zm64 0h32v32h-32v-32z"/>
    <path id="path99" filter="url(#filter3396)" d="m128.93 25.443c-3.0661-3.0652-6.6721-4.5557-11.026-4.5557-5.0042 0-8.8162 1.7401-11.658 5.3267l-10.255 13.204-10.257-13.224c-2.8298-3.5704-6.6397-5.3066-11.642-5.3066-4.3537 0-7.9613 1.4905-11.028 4.5557-3.0643 3.065-4.5537 6.6707-4.5537 11.025 0 4.3546 1.4896 7.9604 4.5557 11.026 2.6254 2.6263 5.6369 4.0858 9.2831 4.4648h47.326l0.0404-0.0039c3.5635-0.37509 6.5729-1.8343 9.2024-4.4609 3.0661-3.0663 4.5555-6.6728 4.5555-11.026 0.00024-4.3523-1.4894-7.9592-4.5553-11.025zm-38.364 19.121h-16.462c-2.2352 0-4.1656-0.79544-5.732-2.3628-1.5685-1.5676-2.3628-3.4956-2.3628-5.7322 0-2.2364 0.7943-4.1646 2.3628-5.732 1.5664-1.5673 3.4947-2.3628 5.732-2.3628 2.4174 0 4.39 0.89144 5.8879 2.6741l10.575 13.516zm10.959 0 10.514-13.542c1.4736-1.7564 3.4462-2.6478 5.8655-2.6478 2.2355 0 4.1637 0.7943 5.7302 2.3616 1.5685 1.5685 2.3628 3.4967 2.3628 5.7331 0 2.2366-0.79431 4.1646-2.3628 5.7322-1.5664 1.5673-3.4947 2.3628-5.7302 2.3628h-16.379z"/>
   </g>
  </g>
 </g>
</svg>
