<svg width="48" height="48" viewBox="0 0 48 48" fill="none" xmlns="http://www.w3.org/2000/svg">
<g clip-path="url(#clip0_1275_1032)">
<path d="M24 10C16.2681 10 10 16.2681 10 24C10 30.5654 14.5203 36.0747 20.6182 37.5878V28.2784H17.7314V24H20.6182V22.1565C20.6182 17.3914 22.7747 15.1828 27.453 15.1828C28.34 15.1828 29.8705 15.357 30.4966 15.5306V19.4086C30.1662 19.3738 29.5922 19.3565 28.8793 19.3565C26.5838 19.3565 25.6968 20.2262 25.6968 22.4869V24H30.2698L29.4841 28.2784H25.6968V37.8975C32.629 37.0603 38.0006 31.1579 38.0006 24C38 16.2681 31.7319 10 24 10Z" fill="white"/>
</g>
<defs>
<clipPath id="clip0_1275_1032">
<rect width="28" height="28" fill="white" transform="translate(10 10)"/>
</clipPath>
</defs>
</svg>
