<svg width="152" height="48" viewBox="0 0 152 48" fill="none" xmlns="http://www.w3.org/2000/svg">
<path d="M140.373 0.000155999H11.4416C11.0015 0.000155999 10.5668 0.000156 10.1279 0.00255599C9.76053 0.00495598 9.39608 0.011928 9.02517 0.0177959C8.21939 0.0272781 7.4155 0.0981672 6.6205 0.229847C5.82661 0.364394 5.05759 0.618053 4.33945 0.982245C3.62219 1.34952 2.9668 1.82675 2.39708 2.39663C1.82436 2.96491 1.34695 3.62176 0.983217 4.34193C0.618478 5.06067 0.365567 5.83086 0.233219 6.62591C0.0996128 7.41995 0.027718 8.22315 0.0181799 9.0283C0.00704398 9.39622 0.00586798 9.76536 0 10.1333V37.8704C0.00586798 38.243 0.00704398 38.6039 0.0181799 38.9766C0.0277209 39.7817 0.0996157 40.5849 0.233219 41.3789C0.365202 42.1744 0.618128 42.945 0.983217 43.6641C1.34679 44.3819 1.82426 45.0361 2.39708 45.6012C2.96464 46.1736 3.62045 46.6512 4.33945 47.0156C5.05759 47.3808 5.82652 47.636 6.6205 47.7726C7.41564 47.9032 8.21944 47.9741 9.02517 47.9848C9.39608 47.9929 9.76053 47.9976 10.1279 47.9976C10.5668 48 11.0016 48 11.4416 48H140.373C140.805 48 141.243 48 141.674 47.9976C142.04 47.9976 142.415 47.9929 142.78 47.9848C143.585 47.9747 144.387 47.9038 145.18 47.7726C145.977 47.635 146.749 47.3799 147.47 47.0156C148.189 46.651 148.844 46.1734 149.411 45.6012C149.982 45.0339 150.461 44.3802 150.829 43.6641C151.191 42.9445 151.442 42.174 151.572 41.3789C151.706 40.5848 151.78 39.7818 151.794 38.9766C151.799 38.6039 151.799 38.243 151.799 37.8704C151.809 37.4344 151.809 37.0008 151.809 36.5578V11.4435C151.809 11.004 151.809 10.5681 151.799 10.1333C151.799 9.76536 151.799 9.39622 151.794 9.02825C151.78 8.22304 151.706 7.42001 151.572 6.62586C151.441 5.83128 151.191 5.06114 150.829 4.34189C150.088 2.89838 148.914 1.72338 147.47 0.982137C146.749 0.618835 145.977 0.365243 145.18 0.229739C144.387 0.097479 143.585 0.0265652 142.78 0.0176279C142.415 0.011772 142.04 0.00473998 141.674 0.00239999C141.243 0 140.805 0.000155999 140.373 0.000155999Z" fill="#A6A6A6"/>
<path d="M10.1337 46.9498C9.76815 46.9498 9.41135 46.9452 9.04862 46.937C8.29716 46.9272 7.54745 46.8618 6.80566 46.7413C6.11397 46.6222 5.44391 46.4006 4.81758 46.0838C4.19699 45.7697 3.63096 45.3578 3.14118 44.8639C2.64431 44.3758 2.23064 43.8097 1.91657 43.1881C1.59904 42.5624 1.37929 41.8917 1.26497 41.1995C1.14152 40.4556 1.07473 39.7034 1.06518 38.9495C1.05757 38.6964 1.04761 37.8537 1.04761 37.8537V10.1332C1.04761 10.1332 1.05822 9.30348 1.06524 9.05972C1.07439 8.30694 1.14079 7.55595 1.26386 6.81325C1.37839 6.11907 1.59832 5.44647 1.91602 4.81873C2.22894 4.19751 2.6403 3.63102 3.13417 3.1412C3.6275 2.64673 4.19534 2.23271 4.81699 1.91424C5.44188 1.5985 6.11067 1.37847 6.80096 1.26151C7.5452 1.13979 8.2975 1.07398 9.05157 1.06464L10.1343 1.04999H141.668L142.764 1.06523C143.511 1.07411 144.257 1.13933 144.994 1.26034C145.691 1.37876 146.367 1.60032 146.999 1.91775C148.245 2.55957 149.258 3.57498 149.897 4.82166C150.21 5.44507 150.426 6.11218 150.539 6.80036C150.664 7.54916 150.734 8.30605 150.748 9.065C150.751 9.40484 150.751 9.76988 150.751 10.1332C150.761 10.5832 150.761 11.0115 150.761 11.4433V36.5576C150.761 36.9936 150.761 37.419 150.751 37.8479C150.751 38.2381 150.751 38.5956 150.747 38.9635C150.733 39.7089 150.664 40.4523 150.542 41.1877C150.43 41.885 150.211 42.5609 149.894 43.1917C149.577 43.8066 149.166 44.3678 148.675 44.8545C148.185 45.3511 147.618 45.7654 146.996 46.0815C146.365 46.4007 145.691 46.6231 144.994 46.7413C144.252 46.8624 143.503 46.9279 142.751 46.937C142.4 46.9452 142.032 46.9498 141.674 46.9498L140.373 46.9522L10.1337 46.9498Z" fill="black"/>
<path d="M29.7261 24.3607C29.739 23.3591 30.005 22.3771 30.4995 21.5059C30.9939 20.6348 31.7006 19.9029 32.5539 19.3782C32.0119 18.6041 31.2967 17.9669 30.4653 17.5175C29.6339 17.068 28.7092 16.8186 27.7646 16.789C25.7495 16.5775 23.7959 17.9948 22.7691 17.9948C21.7224 17.9948 20.1414 16.81 18.4389 16.8451C17.3377 16.8806 16.2645 17.2009 15.3238 17.7745C14.3832 18.3482 13.6072 19.1558 13.0714 20.1185C10.7506 24.1366 12.4817 30.0418 14.7049 33.2897C15.8171 34.8802 17.1171 36.6567 18.818 36.5937C20.4825 36.5247 21.1041 35.5323 23.1133 35.5323C25.1038 35.5323 25.687 36.5937 27.4225 36.5536C29.2085 36.5247 30.3338 34.9562 31.4071 33.3507C32.2062 32.2175 32.8212 30.965 33.2291 29.6397C32.1915 29.2008 31.306 28.4662 30.683 27.5274C30.0601 26.5887 29.7273 25.4873 29.7261 24.3607Z" fill="white"/>
<path d="M26.4481 14.653C27.4219 13.4839 27.9017 11.9813 27.7855 10.4643C26.2977 10.6205 24.9234 11.3316 23.9364 12.4558C23.4539 13.005 23.0843 13.6439 22.8488 14.336C22.6133 15.0282 22.5165 15.7599 22.564 16.4894C23.3082 16.4971 24.0444 16.3358 24.7172 16.0177C25.3899 15.6996 25.9818 15.233 26.4481 14.653Z" fill="white"/>
<path d="M42.7862 17.6419V11.4937H40.5338V10.4818H46.1459V11.4937H43.8983V17.6419H42.7862Z" fill="white"/>
<path d="M51.3175 16.1829C51.1726 16.6768 50.8587 17.104 50.4306 17.3897C50.0026 17.6755 49.4877 17.8017 48.9761 17.7462C48.6201 17.7556 48.2663 17.6874 47.9393 17.5464C47.6123 17.4054 47.3199 17.1948 47.0824 16.9295C46.8449 16.6641 46.668 16.3503 46.564 16.0097C46.46 15.6691 46.4313 15.3099 46.48 14.9572C46.4326 14.6033 46.4618 14.2434 46.5655 13.9018C46.6693 13.5602 46.8453 13.2448 47.0815 12.9772C47.3178 12.7095 47.6088 12.4957 47.9348 12.3502C48.2609 12.2048 48.6144 12.1311 48.9714 12.1341C50.4749 12.1341 51.3819 13.1613 51.3819 14.8581V15.2302H47.5663V15.2899C47.5496 15.4882 47.5745 15.6878 47.6395 15.8759C47.7044 16.064 47.808 16.2365 47.9435 16.3822C48.0789 16.528 48.2434 16.6438 48.4263 16.7223C48.6091 16.8007 48.8064 16.8401 49.0054 16.8379C49.2605 16.8686 49.5189 16.8226 49.7478 16.706C49.9767 16.5893 50.1658 16.4072 50.2909 16.1829L51.3175 16.1829ZM47.5663 14.4415H50.2956C50.309 14.2602 50.2844 14.078 50.2233 13.9068C50.1621 13.7355 50.0658 13.5789 49.9405 13.4471C49.8153 13.3153 49.6638 13.2111 49.4959 13.1413C49.328 13.0715 49.1473 13.0376 48.9655 13.0417C48.7811 13.0394 48.598 13.0741 48.4272 13.1436C48.2564 13.2131 48.1011 13.3161 47.9707 13.4466C47.8403 13.5771 47.7374 13.7323 47.6679 13.9032C47.5985 14.074 47.5639 14.2571 47.5663 14.4415ZM48.3304 11.3349L49.5761 9.62808H50.8265L49.4319 11.3349H48.3304Z" fill="white"/>
<path d="M52.8631 10.1291H53.9295V17.6419H52.8631V10.1291Z" fill="white"/>
<path d="M60.2494 16.1829C60.1045 16.6768 59.7906 17.104 59.3626 17.3897C58.9346 17.6755 58.4197 17.8017 57.908 17.7462C57.552 17.7556 57.1982 17.6874 56.8712 17.5464C56.5442 17.4054 56.2519 17.1948 56.0144 16.9295C55.7769 16.6641 55.6 16.3503 55.4959 16.0097C55.3919 15.6691 55.3632 15.3099 55.4119 14.9572C55.3645 14.6033 55.3937 14.2434 55.4975 13.9018C55.6013 13.5602 55.7772 13.2448 56.0135 12.9772C56.2497 12.7095 56.5407 12.4957 56.8668 12.3502C57.1928 12.2048 57.5463 12.1311 57.9033 12.1341C59.4068 12.1341 60.3139 13.1613 60.3139 14.8581V15.2302H56.4982V15.2899C56.4815 15.4882 56.5065 15.6878 56.5714 15.8759C56.6363 16.064 56.7399 16.2365 56.8754 16.3822C57.0109 16.528 57.1753 16.6438 57.3582 16.7223C57.5411 16.8007 57.7383 16.8401 57.9373 16.8379C58.1924 16.8686 58.4508 16.8226 58.6797 16.706C58.9086 16.5893 59.0977 16.4072 59.2228 16.1829L60.2494 16.1829ZM56.4982 14.4415H59.2275C59.241 14.2602 59.2163 14.078 59.1552 13.9068C59.094 13.7355 58.9977 13.5789 58.8725 13.4471C58.7472 13.3153 58.5957 13.2111 58.4278 13.1413C58.2599 13.0715 58.0792 13.0376 57.8974 13.0417C57.713 13.0394 57.53 13.0741 57.3591 13.1436C57.1883 13.2131 57.0331 13.3161 56.9027 13.4466C56.7723 13.5771 56.6693 13.7323 56.5998 13.9032C56.5304 14.0741 56.4958 14.2571 56.4982 14.4415ZM57.2623 11.3349L58.508 9.62808H59.7584L58.3639 11.3349H57.2623Z" fill="white"/>
<path d="M65.2838 14.0044C65.2158 13.7242 65.0497 13.4776 64.8156 13.3093C64.5815 13.141 64.2949 13.0621 64.0076 13.0868C63.1147 13.0868 62.5686 13.7712 62.5686 14.9226C62.5686 16.0939 63.1194 16.7935 64.0076 16.7935C64.2921 16.8264 64.5787 16.7543 64.8138 16.5908C65.0488 16.4272 65.2159 16.1834 65.2838 15.9052H66.3209C66.2523 16.4524 65.9727 16.9511 65.5416 17.295C65.1106 17.6389 64.5622 17.8008 64.0135 17.7462C63.6522 17.7576 63.2928 17.6899 62.9603 17.5479C62.6279 17.4059 62.3305 17.193 62.089 16.9241C61.8475 16.6551 61.6676 16.3367 61.562 15.9909C61.4564 15.6452 61.4276 15.2806 61.4776 14.9226C61.4301 14.5672 61.4607 14.2058 61.5673 13.8635C61.674 13.5212 61.854 13.2063 62.095 12.9407C62.3359 12.6752 62.6318 12.4655 62.9622 12.3262C63.2926 12.1869 63.6493 12.1213 64.0076 12.1341C64.5609 12.0832 65.1122 12.2501 65.5442 12.5994C65.9762 12.9487 66.2549 13.4528 66.3209 14.0045L65.2838 14.0044Z" fill="white"/>
<path d="M67.7365 10.1291H68.7935V13.1068H68.8779C69.0197 12.7956 69.2539 12.5357 69.5488 12.3625C69.8436 12.1893 70.1847 12.1112 70.5255 12.1388C70.7871 12.1246 71.0485 12.1683 71.2913 12.2667C71.534 12.3652 71.752 12.516 71.9297 12.7084C72.1075 12.9008 72.2406 13.13 72.3195 13.3798C72.3985 13.6296 72.4213 13.8937 72.3864 14.1533V17.6419H71.3189V14.4163C71.3189 13.5533 70.9169 13.1161 70.1634 13.1161C69.9801 13.1011 69.7957 13.1263 69.6232 13.19C69.4507 13.2536 69.2941 13.3542 69.1646 13.4847C69.035 13.6152 68.9354 13.7724 68.873 13.9454C68.8105 14.1184 68.7866 14.3029 68.8028 14.4861V17.6419H67.7365L67.7365 10.1291Z" fill="white"/>
<path d="M73.7271 16.1138C73.7271 15.1411 74.4514 14.5804 75.7369 14.5007L77.2006 14.4163V13.9499C77.2006 13.3792 76.8232 13.057 76.0943 13.057C75.499 13.057 75.0865 13.2755 74.9681 13.6576H73.9357C74.0447 12.7294 74.9178 12.1341 76.1435 12.1341C77.4982 12.1341 78.2617 12.8085 78.2617 13.9499V17.6419H77.2357V16.8825H77.1514C76.9801 17.1549 76.7396 17.377 76.4545 17.526C76.1693 17.6751 75.8497 17.7458 75.5283 17.7309C75.3015 17.7545 75.0722 17.7303 74.8553 17.6599C74.6384 17.5895 74.4386 17.4744 74.2689 17.322C74.0992 17.1696 73.9633 16.9834 73.87 16.7753C73.7767 16.5672 73.728 16.3419 73.7271 16.1138ZM77.2006 15.6521V15.2003L75.881 15.2847C75.1369 15.3345 74.7994 15.5876 74.7994 16.064C74.7994 16.5503 75.2213 16.8333 75.8014 16.8333C75.9714 16.8505 76.1431 16.8334 76.3063 16.7829C76.4695 16.7324 76.6209 16.6495 76.7514 16.5393C76.8819 16.4291 76.989 16.2938 77.0662 16.1413C77.1433 15.9889 77.189 15.8225 77.2006 15.6521Z" fill="white"/>
<path d="M79.9316 12.2384H80.9582V13.0669H81.0379C81.1528 12.7793 81.3559 12.5355 81.618 12.3706C81.8802 12.2056 82.1878 12.1279 82.4968 12.1488C82.6566 12.1466 82.8161 12.1615 82.9726 12.1933V13.2457C82.7769 13.2039 82.5774 13.1823 82.3773 13.1812C82.2014 13.1654 82.0242 13.1866 81.857 13.2434C81.6898 13.3002 81.5363 13.3913 81.4064 13.5109C81.2765 13.6306 81.173 13.7761 81.1027 13.938C81.0324 14.1 80.9967 14.2749 80.998 14.4515V17.6419H79.9316L79.9316 12.2384Z" fill="white"/>
<path d="M83.9535 18.1827H85.0445C85.1347 18.5747 85.5859 18.8279 86.3054 18.8279C87.1937 18.8279 87.7199 18.406 87.7199 17.6917V16.6546H87.6402C87.4729 16.9449 87.2286 17.1834 86.9344 17.3435C86.6401 17.5037 86.3072 17.5794 85.9726 17.5622C84.5933 17.5622 83.7402 16.4958 83.7402 14.8781C83.7402 13.2305 84.6027 12.1488 85.9832 12.1488C86.3262 12.1368 86.6658 12.2194 86.9651 12.3874C87.2643 12.5554 87.5117 12.8025 87.68 13.1015H87.7644V12.2384H88.7863V17.6864C88.7863 18.9222 87.8183 19.7061 86.2902 19.7061C84.9402 19.7062 84.0672 19.1009 83.9535 18.1827ZM87.7398 14.8728C87.7398 13.7964 87.1832 13.1068 86.275 13.1068C85.3574 13.1068 84.8418 13.7964 84.8418 14.8728C84.8418 15.9497 85.3574 16.6394 86.275 16.6394C87.189 16.6394 87.7398 15.9551 87.7398 14.8728Z" fill="white"/>
<path d="M95.0546 16.1829C94.9097 16.6768 94.5958 17.104 94.1678 17.3898C93.7397 17.6755 93.2249 17.8017 92.7132 17.7462C92.3572 17.7556 92.0034 17.6874 91.6764 17.5464C91.3494 17.4054 91.057 17.1949 90.8195 16.9295C90.582 16.6641 90.4051 16.3503 90.3011 16.0097C90.1971 15.6691 90.1684 15.3099 90.2171 14.9572C90.1697 14.6033 90.1989 14.2434 90.3027 13.9018C90.4064 13.5602 90.5824 13.2449 90.8187 12.9772C91.0549 12.7095 91.3459 12.4957 91.6719 12.3502C91.998 12.2048 92.3515 12.1311 92.7085 12.1341C94.212 12.1341 95.119 13.1613 95.119 14.8581V15.2302H91.3034V15.2899C91.2867 15.4882 91.3117 15.6878 91.3766 15.8759C91.4416 16.064 91.5451 16.2365 91.6806 16.3822C91.8161 16.528 91.9805 16.6438 92.1634 16.7223C92.3463 16.8008 92.5435 16.8402 92.7425 16.8379C92.9976 16.8686 93.256 16.8226 93.4849 16.706C93.7138 16.5893 93.9029 16.4072 94.028 16.1829L95.0546 16.1829ZM91.3034 14.4415H94.0327C94.0461 14.2602 94.0215 14.078 93.9603 13.9068C93.8992 13.7355 93.8029 13.5789 93.6776 13.4471C93.5524 13.3153 93.4009 13.2111 93.233 13.1413C93.0651 13.0715 92.8844 13.0376 92.7026 13.0418C92.5182 13.0394 92.3351 13.0741 92.1643 13.1436C91.9935 13.2131 91.8383 13.3162 91.7079 13.4466C91.5775 13.5771 91.4745 13.7323 91.405 13.9032C91.3356 14.0741 91.301 14.2571 91.3034 14.4415Z" fill="white"/>
<path d="M96.5511 12.2384H97.5777V13.0669H97.6574C97.7723 12.7793 97.9754 12.5355 98.2376 12.3706C98.4997 12.2056 98.8074 12.1279 99.1164 12.1488C99.2761 12.1466 99.4356 12.1615 99.5922 12.1933V13.2457C99.3965 13.2039 99.197 13.1823 98.9968 13.1812C98.821 13.1654 98.6437 13.1866 98.4765 13.2434C98.3093 13.3002 98.1558 13.3913 98.0259 13.5109C97.896 13.6306 97.7925 13.776 97.7222 13.938C97.6519 14.1 97.6162 14.2749 97.6175 14.4515V17.6419H96.5511V12.2384Z" fill="white"/>
<path d="M103.435 14.9378C103.435 13.2304 104.312 12.1488 105.678 12.1488C106.015 12.1332 106.35 12.2141 106.644 12.382C106.937 12.5498 107.177 12.7978 107.335 13.0968H107.414V10.1291H108.481V17.6419H107.459V16.7882H107.374C107.205 17.0852 106.957 17.33 106.658 17.4962C106.358 17.6624 106.02 17.7436 105.678 17.731C104.303 17.731 103.435 16.6493 103.435 14.9378ZM104.536 14.9378C104.536 16.0839 105.076 16.7736 105.98 16.7736C106.879 16.7736 107.434 16.074 107.434 14.9425C107.434 13.8163 106.873 13.1068 105.98 13.1068C105.082 13.1068 104.536 13.8011 104.536 14.9378Z" fill="white"/>
<path d="M109.922 16.1138C109.922 15.1411 110.646 14.5804 111.932 14.5007L113.396 14.4163V13.9499C113.396 13.3792 113.018 13.057 112.289 13.057C111.694 13.057 111.282 13.2755 111.163 13.6576H110.131C110.24 12.7294 111.113 12.1341 112.339 12.1341C113.693 12.1341 114.457 12.8085 114.457 13.9499V17.6419H113.431V16.8825H113.346C113.175 17.1549 112.935 17.377 112.649 17.526C112.364 17.6751 112.045 17.7458 111.723 17.7309C111.496 17.7545 111.267 17.7303 111.05 17.6599C110.833 17.5895 110.634 17.4743 110.464 17.322C110.294 17.1696 110.158 16.9834 110.065 16.7753C109.972 16.5672 109.923 16.3419 109.922 16.1138ZM113.396 15.6521V15.2003L112.076 15.2847C111.332 15.3345 110.994 15.5876 110.994 16.064C110.994 16.5503 111.416 16.8333 111.996 16.8333C112.166 16.8505 112.338 16.8333 112.501 16.7828C112.664 16.7323 112.816 16.6495 112.946 16.5393C113.077 16.4291 113.184 16.2938 113.261 16.1413C113.338 15.9889 113.384 15.8225 113.396 15.6521Z" fill="white"/>
<path d="M116.127 12.2384H117.154V13.0968H117.233C117.369 12.7885 117.597 12.5301 117.886 12.3575C118.175 12.1849 118.51 12.1068 118.846 12.1341C119.109 12.1143 119.373 12.154 119.618 12.2501C119.864 12.3462 120.085 12.4963 120.264 12.6893C120.444 12.8824 120.578 13.1133 120.656 13.3651C120.734 13.6169 120.755 13.883 120.716 14.1439V17.6418H119.65V14.4116C119.65 13.5433 119.273 13.1115 118.484 13.1115C118.305 13.1031 118.127 13.1335 117.961 13.2005C117.796 13.2675 117.647 13.3695 117.524 13.4996C117.402 13.6297 117.309 13.7847 117.251 13.954C117.194 14.1234 117.175 14.3031 117.194 14.4808V17.6419H116.127V12.2384Z" fill="white"/>
<path d="M124.341 12.1341C125.556 12.1341 126.351 12.6996 126.455 13.6523H125.432C125.333 13.2556 124.946 13.0025 124.341 13.0025C123.746 13.0025 123.293 13.2849 123.293 13.7068C123.293 14.0296 123.566 14.233 124.152 14.3671L125.05 14.5751C126.078 14.8136 126.559 15.2554 126.559 16.0494C126.559 17.0665 125.611 17.7462 124.321 17.7462C123.035 17.7462 122.197 17.1656 122.103 16.2081H123.17C123.262 16.436 123.428 16.6264 123.641 16.7487C123.854 16.871 124.102 16.9181 124.346 16.8825C125.01 16.8825 125.482 16.5849 125.482 16.153C125.482 15.8308 125.229 15.6222 124.688 15.4933L123.746 15.2747C122.718 15.0316 122.242 14.5704 122.242 13.7665C122.242 12.8085 123.12 12.1341 124.341 12.1341Z" fill="white"/>
<path d="M42.2378 21.6802H44.469V36.5823H42.2378V21.6802Z" fill="white"/>
<path d="M47.1573 27.1329L48.376 21.6802H50.544L49.0674 27.1329H47.1573Z" fill="white"/>
<path d="M58.9756 32.5546H53.2956L51.9315 36.5823H49.5256L54.9057 21.6802H57.4053L62.7854 36.5823H60.3385L58.9756 32.5546ZM53.8838 30.696H58.3862L56.1667 24.1587H56.1046L53.8838 30.696Z" fill="white"/>
<path d="M74.4033 31.1507C74.4033 34.5269 72.5962 36.696 69.8693 36.696C69.1785 36.7321 68.4915 36.573 67.887 36.2369C67.2824 35.9007 66.7848 35.4011 66.451 34.7952H66.3994V40.1764H64.1693V25.7173H66.3279V27.5243H66.3689C66.718 26.9214 67.2241 26.4243 67.8333 26.0861C68.4424 25.7479 69.1319 25.5812 69.8282 25.6036C72.5857 25.6037 74.4033 27.7833 74.4033 31.1507ZM72.1111 31.1507C72.1111 28.9505 70.9744 27.5044 69.24 27.5044C67.5361 27.5044 66.39 28.981 66.39 31.1507C66.39 33.3398 67.5361 34.8058 69.24 34.8058C70.9744 34.8058 72.1111 33.3702 72.1111 31.1507Z" fill="white"/>
<path d="M86.3605 31.1507C86.3605 34.5269 84.5535 36.696 81.8265 36.696C81.1357 36.7321 80.4487 36.573 79.8442 36.2369C79.2396 35.9007 78.742 35.4011 78.4082 34.7952H78.3566V40.1764H76.1271V25.7173H78.2851V27.5243H78.3261C78.6753 26.9214 79.1814 26.4243 79.7905 26.0861C80.3997 25.7479 81.0891 25.5812 81.7855 25.6036C84.5429 25.6037 86.3605 27.7833 86.3605 31.1507ZM84.0683 31.1507C84.0683 28.9505 82.9316 27.5044 81.1972 27.5044C79.4933 27.5044 78.3472 28.981 78.3472 31.1507C78.3472 33.3398 79.4933 34.8058 81.1972 34.8058C82.9316 34.8058 84.0683 33.3702 84.0683 31.1507Z" fill="white"/>
<path d="M94.2636 32.4304C94.4288 33.9081 95.8644 34.8784 97.8261 34.8784C99.7058 34.8784 101.058 33.9081 101.058 32.5756C101.058 31.419 100.242 30.7264 98.3112 30.2518L96.38 29.786C93.6437 29.1251 92.3733 27.8454 92.3733 25.7689C92.3733 23.1978 94.6139 21.4318 97.7956 21.4318C100.944 21.4318 103.103 23.1978 103.176 25.7689H100.924C100.79 24.2818 99.5604 23.3841 97.764 23.3841C95.9675 23.3841 94.7382 24.2923 94.7382 25.6142C94.7382 26.6677 95.5234 27.2876 97.444 27.7622L99.0858 28.1653C102.143 28.8883 103.414 30.117 103.414 32.2967C103.414 35.0846 101.193 36.8307 97.6608 36.8307C94.3562 36.8307 92.1249 35.1256 91.9808 32.4303L94.2636 32.4304Z" fill="white"/>
<path d="M108.228 23.1462V25.7173H110.294V27.4833H108.228V33.4733C108.228 34.4038 108.641 34.8374 109.55 34.8374C109.795 34.8331 110.04 34.8159 110.283 34.7858V36.5412C109.875 36.6175 109.46 36.6521 109.044 36.6444C106.845 36.6444 105.987 35.8182 105.987 33.7112V27.4833H104.407V25.7173H105.987V23.1462H108.228Z" fill="white"/>
<path d="M111.489 31.1507C111.489 27.7318 113.502 25.5837 116.642 25.5837C119.792 25.5837 121.795 27.7317 121.795 31.1507C121.795 34.5784 119.802 36.7171 116.642 36.7171C113.482 36.7171 111.489 34.5784 111.489 31.1507ZM119.523 31.1507C119.523 28.8052 118.449 27.4212 116.642 27.4212C114.835 27.4212 113.761 28.8157 113.761 31.1507C113.761 33.505 114.835 34.8784 116.642 34.8784C118.449 34.8784 119.523 33.505 119.523 31.1507Z" fill="white"/>
<path d="M123.634 25.7173H125.761V27.5665H125.813C125.957 26.9889 126.295 26.4785 126.771 26.1211C127.247 25.7636 127.831 25.5809 128.426 25.6036C128.683 25.6027 128.939 25.6306 129.19 25.6868V27.7727C128.866 27.6736 128.527 27.628 128.188 27.6379C127.864 27.6248 127.541 27.682 127.241 27.8055C126.941 27.929 126.672 28.1159 126.451 28.3535C126.23 28.591 126.063 28.8735 125.962 29.1815C125.861 29.4896 125.827 29.8159 125.864 30.1381V36.5823H123.634L123.634 25.7173Z" fill="white"/>
<path d="M139.471 33.3913C139.171 35.3636 137.25 36.7171 134.793 36.7171C131.632 36.7171 129.67 34.5995 129.67 31.2022C129.67 27.7939 131.643 25.5837 134.699 25.5837C137.705 25.5837 139.595 27.6485 139.595 30.9433V31.7073H131.922V31.8421C131.886 32.2419 131.936 32.6447 132.068 33.0237C132.201 33.4027 132.412 33.7493 132.688 34.0403C132.965 34.3314 133.3 34.5603 133.672 34.7119C134.043 34.8634 134.443 34.9342 134.844 34.9194C135.371 34.9688 135.9 34.8467 136.352 34.5714C136.804 34.2961 137.155 33.8822 137.353 33.3913L139.471 33.3913ZM131.932 30.1487H137.364C137.384 29.7892 137.329 29.4293 137.204 29.0918C137.078 28.7543 136.884 28.4464 136.634 28.1874C136.384 27.9285 136.083 27.724 135.75 27.5869C135.417 27.4498 135.059 27.383 134.699 27.3907C134.336 27.3886 133.976 27.4584 133.64 27.5961C133.304 27.7338 132.998 27.9368 132.741 28.1932C132.484 28.4496 132.28 28.7544 132.141 29.0901C132.002 29.4257 131.931 29.7855 131.932 30.1487Z" fill="white"/>
</svg>
