<svg width="125" height="20" viewBox="0 0 125 20" fill="none" xmlns="http://www.w3.org/2000/svg">
<path d="M121.362 7.78L117.732 7.465L116.315 4.1275C116.06 3.52 115.19 3.52 114.935 4.1275L113.517 7.4725L109.895 7.78C109.235 7.8325 108.965 8.6575 109.467 9.0925L112.22 11.4775L111.395 15.0175C111.245 15.6625 111.942 16.1725 112.512 15.8275L115.625 13.9525L118.737 15.835C119.307 16.18 120.005 15.67 119.855 15.025L119.03 11.4775L121.782 9.0925C122.285 8.6575 122.022 7.8325 121.362 7.78ZM115.625 12.55V5.575L116.907 8.605L120.192 8.89L117.702 11.05L118.452 14.26L115.625 12.55Z" fill="#FF9500"/>
<path d="M43.6247 14.1397L46.7372 16.0222C47.3073 16.3672 48.0047 15.8572 47.8547 15.2122L47.0297 11.6722L49.7822 9.2872C50.2847 8.8522 50.0147 8.0272 49.3547 7.9747L45.7322 7.6672L44.3147 4.3222C44.0597 3.7147 43.1897 3.7147 42.9347 4.3222L41.5172 7.6597L37.8947 7.9672C37.2347 8.0197 36.9647 8.8447 37.4672 9.2797L40.2197 11.6647L39.3947 15.2047C39.2447 15.8497 39.9422 16.3597 40.5122 16.0147L43.6247 14.1397Z" fill="#FF9500"/>
<path d="M79.6247 14.1397L82.7372 16.0222C83.3073 16.3672 84.0047 15.8572 83.8547 15.2122L83.0297 11.6722L85.7822 9.2872C86.2847 8.8522 86.0147 8.0272 85.3547 7.9747L81.7322 7.6672L80.3147 4.3222C80.0597 3.7147 79.1897 3.7147 78.9347 4.3222L77.5172 7.6597L73.8947 7.9672C73.2347 8.0197 72.9647 8.8447 73.4672 9.2797L76.2197 11.6647L75.3947 15.2047C75.2447 15.8497 75.9422 16.3597 76.5122 16.0147L79.6247 14.1397Z" fill="#FF9500"/>
<path d="M61.6247 14.1397L64.7372 16.0222C65.3073 16.3672 66.0047 15.8572 65.8547 15.2122L65.0297 11.6722L67.7822 9.2872C68.2847 8.8522 68.0147 8.0272 67.3547 7.9747L63.7322 7.6672L62.3147 4.3222C62.0597 3.7147 61.1897 3.7147 60.9347 4.3222L59.5172 7.6597L55.8947 7.9672C55.2347 8.0197 54.9647 8.8447 55.4672 9.2797L58.2197 11.6647L57.3947 15.2047C57.2447 15.8497 57.9422 16.3597 58.5122 16.0147L61.6247 14.1397Z" fill="#FF9500"/>
<path d="M97.6247 14.1397L100.737 16.0222C101.307 16.3672 102.005 15.8572 101.855 15.2122L101.03 11.6722L103.782 9.2872C104.285 8.8522 104.015 8.0272 103.355 7.9747L99.7322 7.6672L98.3147 4.3222C98.0597 3.7147 97.1897 3.7147 96.9347 4.3222L95.5172 7.6597L91.8947 7.9672C91.2347 8.0197 90.9647 8.8447 91.4672 9.2797L94.2197 11.6647L93.3947 15.2047C93.2447 15.8497 93.9422 16.3597 94.5122 16.0147L97.6247 14.1397Z" fill="#FF9500"/>
<path d="M9.32031 10.9453V12.4453H1.11719L1.05469 11.3125L5.96094 3.625H7.46875L5.83594 6.42188L3.01562 10.9453H9.32031ZM7.89844 3.625V15H6.01562V3.625H7.89844ZM10.7656 14.0625C10.7656 13.7708 10.8646 13.526 11.0625 13.3281C11.2604 13.125 11.5286 13.0234 11.8672 13.0234C12.2109 13.0234 12.4792 13.125 12.6719 13.3281C12.8698 13.526 12.9688 13.7708 12.9688 14.0625C12.9688 14.3542 12.8698 14.599 12.6719 14.7969C12.4792 14.9948 12.2109 15.0938 11.8672 15.0938C11.5286 15.0938 11.2604 14.9948 11.0625 14.7969C10.8646 14.599 10.7656 14.3542 10.7656 14.0625ZM22.4688 11.8984C22.4688 12.6068 22.3047 13.2031 21.9766 13.6875C21.6484 14.1719 21.2005 14.5391 20.6328 14.7891C20.0703 15.0339 19.4349 15.1562 18.7266 15.1562C18.0182 15.1562 17.3802 15.0339 16.8125 14.7891C16.2448 14.5391 15.7969 14.1719 15.4688 13.6875C15.1406 13.2031 14.9766 12.6068 14.9766 11.8984C14.9766 11.4297 15.0677 11.0052 15.25 10.625C15.4323 10.2396 15.6901 9.90885 16.0234 9.63281C16.362 9.35156 16.7578 9.13542 17.2109 8.98438C17.6693 8.83333 18.1693 8.75781 18.7109 8.75781C19.4297 8.75781 20.0729 8.89062 20.6406 9.15625C21.2083 9.42188 21.6536 9.78906 21.9766 10.2578C22.3047 10.7266 22.4688 11.2734 22.4688 11.8984ZM20.5781 11.8047C20.5781 11.4245 20.5 11.0911 20.3438 10.8047C20.1875 10.5182 19.9688 10.2969 19.6875 10.1406C19.4062 9.98438 19.0807 9.90625 18.7109 9.90625C18.3359 9.90625 18.0104 9.98438 17.7344 10.1406C17.4583 10.2969 17.2422 10.5182 17.0859 10.8047C16.9349 11.0911 16.8594 11.4245 16.8594 11.8047C16.8594 12.1901 16.9349 12.5234 17.0859 12.8047C17.237 13.0807 17.4531 13.2917 17.7344 13.4375C18.0156 13.5833 18.3464 13.6562 18.7266 13.6562C19.1068 13.6562 19.4349 13.5833 19.7109 13.4375C19.987 13.2917 20.2005 13.0807 20.3516 12.8047C20.5026 12.5234 20.5781 12.1901 20.5781 11.8047ZM22.2109 6.61719C22.2109 7.1849 22.0599 7.6901 21.7578 8.13281C21.4609 8.57552 21.0495 8.92448 20.5234 9.17969C19.9974 9.42969 19.3984 9.55469 18.7266 9.55469C18.0495 9.55469 17.4453 9.42969 16.9141 9.17969C16.388 8.92448 15.974 8.57552 15.6719 8.13281C15.375 7.6901 15.2266 7.1849 15.2266 6.61719C15.2266 5.9401 15.375 5.36979 15.6719 4.90625C15.974 4.4375 16.388 4.08073 16.9141 3.83594C17.4401 3.59115 18.0417 3.46875 18.7188 3.46875C19.3958 3.46875 19.9974 3.59115 20.5234 3.83594C21.0495 4.08073 21.4609 4.4375 21.7578 4.90625C22.0599 5.36979 22.2109 5.9401 22.2109 6.61719ZM20.3281 6.67969C20.3281 6.34115 20.2604 6.04427 20.125 5.78906C19.9948 5.52865 19.8099 5.32552 19.5703 5.17969C19.3307 5.03385 19.0469 4.96094 18.7188 4.96094C18.3906 4.96094 18.1068 5.03125 17.8672 5.17188C17.6276 5.3125 17.4427 5.51042 17.3125 5.76562C17.1823 6.02083 17.1172 6.32552 17.1172 6.67969C17.1172 7.02865 17.1823 7.33333 17.3125 7.59375C17.4427 7.84896 17.6276 8.04948 17.8672 8.19531C18.112 8.34115 18.3984 8.41406 18.7266 8.41406C19.0547 8.41406 19.3385 8.34115 19.5781 8.19531C19.8177 8.04948 20.0026 7.84896 20.1328 7.59375C20.263 7.33333 20.3281 7.02865 20.3281 6.67969Z" fill="black" fill-opacity="0.54"/>
</svg>
