<svg width="146" height="32" viewBox="0 0 146 32" fill="none" xmlns="http://www.w3.org/2000/svg">
<path d="M0.226562 11.7526H13.4996H21.5599V3.76465L0.226562 11.7526Z" fill="#FF9D28"/>
<path d="M21.5596 3.7647V32L31.6471 0L21.5596 3.7647Z" fill="#68C5ED"/>
<path d="M21.5603 11.7527H13.5L21.5603 31.9759V11.7527Z" fill="#044D80"/>
<path d="M0.226562 11.7527L15.575 16.9412L13.4996 11.7527H0.226562Z" fill="#E54747"/>
<path d="M49.1194 24.543C48.9988 24.6637 48.8057 24.8085 48.5402 24.9774C48.2748 25.1463 47.9128 25.3394 47.4784 25.5083C47.044 25.6772 46.5131 25.8462 45.8615 25.9668C45.2341 26.0875 44.5101 26.1599 43.6896 26.1599C42.1209 26.1599 40.7454 25.8944 39.587 25.4118C38.4286 24.905 37.4874 24.2051 36.7393 23.2881C35.9912 22.3711 35.4362 21.3092 35.0983 20.0785C34.7363 18.8477 34.5674 17.4721 34.5674 16C34.5674 14.5279 34.7604 13.1524 35.1466 11.8975C35.5327 10.6426 36.0877 9.55659 36.86 8.63954C37.6081 7.7225 38.5734 6.99852 39.7077 6.49173C40.8419 5.98495 42.1933 5.71948 43.7378 5.71948C44.4859 5.71948 45.1858 5.79188 45.7891 5.91254C46.3924 6.05734 46.9475 6.20213 47.406 6.3952C47.8645 6.58826 48.2506 6.78133 48.5402 6.97439C48.854 7.16745 49.0712 7.3605 49.216 7.48117C49.3849 7.62596 49.5538 7.81903 49.6745 8.03623C49.7951 8.25342 49.8675 8.49475 49.8675 8.73607C49.8675 9.1222 49.7227 9.50832 49.4331 9.89444C49.1436 10.2806 48.8298 10.6426 48.4678 10.9804C48.2265 10.7391 47.9611 10.4978 47.6715 10.2564C47.3819 10.0151 47.044 9.79791 46.682 9.60485C46.32 9.41179 45.9098 9.267 45.4512 9.14633C44.9927 9.02567 44.4859 8.95327 43.9067 8.95327C42.9173 8.95327 42.0727 9.14633 41.3969 9.55658C40.7212 9.96684 40.1903 10.4736 39.7801 11.1252C39.3698 11.7768 39.0802 12.5008 38.9113 13.3213C38.7423 14.1418 38.6458 14.9865 38.6458 15.8552C38.6458 16.7723 38.7423 17.641 38.9113 18.4857C39.0802 19.3303 39.3939 20.0543 39.8283 20.7059C40.2627 21.3575 40.8178 21.8643 41.5176 22.2504C42.2175 22.6365 43.0621 22.8296 44.0998 22.8296C44.6549 22.8296 45.1375 22.7572 45.596 22.6365C46.0546 22.4917 46.4648 22.3228 46.8027 22.1297C47.1647 21.9367 47.4543 21.7195 47.7197 21.5264C47.9852 21.3092 48.2024 21.1162 48.3713 20.9714C48.492 21.1162 48.6126 21.2851 48.7816 21.4782C48.9505 21.6712 49.0953 21.8884 49.216 22.0815C49.3607 22.2987 49.4573 22.5159 49.5779 22.7331C49.6745 22.9503 49.7227 23.1433 49.7227 23.3122C49.7227 23.5777 49.6745 23.7708 49.5779 23.9638C49.4814 24.1328 49.3125 24.3258 49.1194 24.543ZM64.1782 22.2987C64.1782 23.8432 64.3954 24.9774 64.854 25.6773C64.492 25.822 64.1782 25.9186 63.8645 25.9668C63.5508 26.0151 63.2371 26.0634 62.8992 26.0634C62.1994 26.0634 61.6684 25.9186 61.3064 25.6531C60.9445 25.3877 60.7031 24.9774 60.6066 24.4706C60.1722 24.9291 59.6172 25.3153 58.8932 25.629C58.1933 25.9427 57.3246 26.0875 56.311 26.0875C55.7801 26.0875 55.2491 26.0151 54.7182 25.8703C54.1873 25.7255 53.7046 25.4842 53.2703 25.1463C52.8359 24.8085 52.498 24.3741 52.2084 23.819C51.943 23.264 51.7982 22.5883 51.7982 21.7919C51.7982 20.8024 52.0395 19.9819 52.5221 19.3545C53.0048 18.727 53.6081 18.2444 54.3321 17.8824C55.0561 17.5204 55.8525 17.2791 56.673 17.1343C57.5176 16.9895 58.2899 16.9171 58.9897 16.8688C59.231 16.8447 59.4482 16.8447 59.6896 16.8447H60.317V16.3137C60.317 15.5656 60.1239 15.0347 59.7137 14.6969C59.3034 14.3831 58.6518 14.2142 57.7589 14.2142C56.9143 14.2142 56.1662 14.359 55.5146 14.6245C54.863 14.8899 54.2114 15.2036 53.584 15.5656C53.3185 15.2278 53.0772 14.8658 52.9324 14.4555C52.7635 14.0453 52.6911 13.7557 52.6911 13.5626C52.6911 13.2972 52.8359 13.0317 53.1496 12.7662C53.4633 12.5008 53.8736 12.2836 54.4045 12.0664C54.9354 11.8492 55.5387 11.7044 56.2386 11.5596C56.9143 11.4389 57.6383 11.3665 58.4105 11.3665C59.4724 11.3665 60.3653 11.4631 61.0893 11.6803C61.8132 11.8975 62.4166 12.2353 62.8751 12.6697C63.3336 13.1282 63.6715 13.6833 63.8645 14.359C64.0576 15.0347 64.1541 15.8311 64.1541 16.724L64.1782 22.2987ZM60.4135 18.896H60.0033C59.8585 18.896 59.7378 18.896 59.593 18.9201C59.1104 18.9684 58.6277 19.0166 58.1451 19.089C57.6624 19.1614 57.228 19.3062 56.866 19.4993C56.504 19.6923 56.1903 19.9578 55.949 20.2715C55.7077 20.5852 55.587 20.9955 55.587 21.4782C55.587 22.0332 55.7318 22.4917 56.0455 22.8779C56.3592 23.264 56.8902 23.457 57.6383 23.457C58.0003 23.457 58.3623 23.4088 58.7001 23.3122C59.038 23.2157 59.3276 23.095 59.593 22.9261C59.8585 22.7572 60.0515 22.5883 60.1963 22.4193C60.3411 22.2263 60.4135 22.0573 60.4135 21.9125V18.896ZM71.4905 13.1041C71.8042 12.7421 72.2868 12.356 72.9626 11.9699C73.6383 11.5837 74.4588 11.3907 75.4724 11.3907C76.1964 11.3907 76.8962 11.5113 77.5478 11.7527C78.1994 11.994 78.7785 12.4042 79.2853 12.9352C79.7921 13.4902 80.2024 14.2142 80.492 15.1071C80.8057 16 80.9505 17.1101 80.9505 18.4374C80.9505 19.9578 80.7816 21.2368 80.4196 22.2263C80.0576 23.2157 79.6232 24.0121 79.0681 24.5671C78.5131 25.1463 77.8856 25.5566 77.2099 25.7979C76.5342 26.0392 75.8344 26.1599 75.1586 26.1599C74.6036 26.1599 74.0968 26.0875 73.6865 25.9668C73.2763 25.8462 72.9143 25.7014 72.6247 25.5325C72.3351 25.3877 72.1179 25.2187 71.949 25.0739C71.8042 24.9291 71.6835 24.8085 71.6594 24.7602V32H67.6534V11.8251C67.7499 11.8009 67.8705 11.7768 68.0153 11.7768C68.136 11.7527 68.2808 11.7527 68.4256 11.7285C68.5945 11.7285 68.7635 11.7044 68.9807 11.7044C69.6322 11.7044 70.1873 11.8009 70.6458 12.0181C71.0802 12.2353 71.3698 12.5973 71.4905 13.1041ZM76.7997 18.534C76.7997 17.9548 76.7514 17.3997 76.6549 16.8929C76.5583 16.3861 76.3894 15.9518 76.1722 15.5656C75.955 15.2036 75.6413 14.9141 75.2552 14.6969C74.869 14.4797 74.4105 14.3831 73.8555 14.3831C73.035 14.3831 72.4558 14.5521 72.142 14.8417C71.8283 15.1554 71.6594 15.4932 71.6594 15.8794V22.1297C71.8042 22.2987 72.0938 22.4676 72.504 22.6848C72.9143 22.902 73.3728 22.9985 73.9037 22.9985C74.8932 22.9985 75.6172 22.6124 76.0998 21.816C76.5583 21.0438 76.7997 19.9578 76.7997 18.534ZM84.0395 23.6018C83.8947 23.2157 83.8223 22.8055 83.774 22.3711C83.7258 21.9367 83.7258 21.5023 83.7258 21.0679V7.43291C83.8706 7.40877 84.0154 7.38464 84.1601 7.38464C84.3049 7.36051 84.4497 7.36051 84.5945 7.33638C84.7393 7.33638 84.9083 7.31224 85.0531 7.31224C85.3668 7.31224 85.6805 7.33638 85.9942 7.40877C86.308 7.45704 86.5975 7.5777 86.8389 7.77076C87.1043 7.93969 87.2974 8.18102 87.4663 8.49475C87.6111 8.80847 87.7077 9.19459 87.7077 9.67725V11.7768H91.8344V14.7451H87.7318V21.0196C87.7318 22.3952 88.2868 23.0709 89.3969 23.0709C89.6624 23.0709 89.9279 23.0226 90.1692 22.9502C90.4105 22.8537 90.6277 22.7572 90.8208 22.6607C91.0138 22.5641 91.1828 22.4435 91.3276 22.3228C91.4724 22.2021 91.5689 22.1056 91.6413 22.0573C91.9309 22.4917 92.1722 22.8537 92.317 23.1674C92.4618 23.4812 92.5583 23.7708 92.5583 24.0604C92.5583 24.3258 92.4618 24.5671 92.2446 24.8085C92.0274 25.0498 91.7378 25.2911 91.3758 25.4842C91.0138 25.7014 90.5553 25.8703 90.0244 25.991C89.4935 26.1116 88.9143 26.184 88.2868 26.184C87.0802 26.184 86.1149 25.9427 85.4392 25.4842C84.8117 24.9774 84.3291 24.3741 84.0395 23.6018ZM101.97 23.2157C102.453 23.2157 102.887 23.1674 103.273 23.0468C103.635 22.9502 103.973 22.8055 104.287 22.6607C104.576 22.5159 104.842 22.3228 105.059 22.1539C105.276 21.9608 105.469 21.7919 105.638 21.6471C105.88 21.9367 106.121 22.3228 106.386 22.7813C106.652 23.2398 106.773 23.626 106.773 23.9156C106.773 24.3499 106.531 24.7361 106.049 25.0981C105.638 25.4118 105.059 25.6773 104.287 25.9186C103.539 26.1358 102.646 26.2564 101.632 26.2564C100.715 26.2564 99.7981 26.1358 98.9052 25.8944C98.0123 25.6531 97.216 25.2429 96.5161 24.6637C95.8163 24.0845 95.2612 23.2881 94.8268 22.2987C94.3924 21.3092 94.1752 20.0543 94.1752 18.5581C94.1752 17.3273 94.3683 16.2655 94.7544 15.3726C95.1405 14.4797 95.6473 13.7315 96.2748 13.1524C96.9022 12.5732 97.6262 12.1388 98.4467 11.8492C99.2431 11.5837 100.064 11.4389 100.908 11.4389C101.994 11.4389 102.935 11.6079 103.708 11.9457C104.48 12.2836 105.083 12.7421 105.566 13.3213C106.049 13.9005 106.386 14.5521 106.604 15.3002C106.821 16.0483 106.917 16.8205 106.917 17.641V18.0513C106.917 18.2202 106.917 18.365 106.893 18.5581C106.893 18.727 106.869 18.8959 106.869 19.0649C106.869 19.2338 106.845 19.3545 106.821 19.451H98.1571C98.2295 20.537 98.5674 21.4299 99.1707 22.1539C99.7499 22.8537 100.691 23.2157 101.97 23.2157ZM103.322 17.2549C103.322 16.3137 103.128 15.5415 102.766 14.9623C102.404 14.3831 101.753 14.0694 100.812 14.0694C99.9912 14.0694 99.3638 14.359 98.8811 14.9141C98.3985 15.4691 98.1571 16.2413 98.1571 17.2549H103.322ZM113.892 13.1765C114.012 13.0076 114.157 12.8145 114.35 12.5973C114.543 12.3801 114.785 12.1871 115.074 12.0181C115.364 11.8492 115.677 11.7044 116.015 11.5837C116.353 11.4631 116.715 11.4148 117.125 11.4148C117.367 11.4148 117.608 11.4389 117.874 11.4631C118.139 11.5113 118.38 11.5837 118.598 11.6803C118.815 11.7768 119.008 11.9216 119.153 12.1147C119.297 12.3077 119.37 12.5249 119.37 12.7904C119.37 13.2248 119.273 13.7074 119.056 14.2625C118.839 14.8175 118.622 15.3002 118.404 15.6863C118.067 15.4208 117.729 15.2036 117.415 15.0589C117.077 14.9141 116.691 14.8417 116.233 14.8417C115.629 14.8417 115.122 15.0106 114.712 15.3726C114.302 15.7346 114.085 16.1448 114.085 16.6516V26.1599H110.079V11.8009C110.175 11.7768 110.296 11.7527 110.441 11.7527C110.561 11.7285 110.706 11.7285 110.851 11.7044C110.996 11.7044 111.189 11.6803 111.406 11.6803C112.033 11.6803 112.589 11.8009 113.047 12.0423C113.481 12.3077 113.771 12.6697 113.892 13.1765ZM125.258 13.1765C125.379 13.0076 125.524 12.8145 125.717 12.5973C125.91 12.3801 126.151 12.1871 126.441 12.0181C126.73 11.8492 127.044 11.7044 127.382 11.5837C127.72 11.4631 128.082 11.4148 128.492 11.4148C128.733 11.4148 128.975 11.4389 129.24 11.4631C129.506 11.5113 129.747 11.5837 129.964 11.6803C130.181 11.7768 130.374 11.9216 130.519 12.1147C130.664 12.3077 130.736 12.5249 130.736 12.7904C130.736 13.2248 130.64 13.7074 130.423 14.2625C130.205 14.8175 129.988 15.3002 129.771 15.6863C129.433 15.4208 129.095 15.2036 128.782 15.0589C128.444 14.9141 128.058 14.8417 127.599 14.8417C126.996 14.8417 126.489 15.0106 126.079 15.3726C125.668 15.7346 125.451 16.1448 125.451 16.6516V26.1599H121.445V11.8009C121.542 11.7768 121.662 11.7527 121.807 11.7527C121.928 11.7285 122.073 11.7285 122.217 11.7044C122.362 11.7044 122.555 11.6803 122.773 11.6803C123.4 11.6803 123.955 11.8009 124.414 12.0423C124.848 12.3077 125.138 12.6697 125.258 13.1765ZM144.347 22.2987C144.347 23.8432 144.564 24.9774 145.023 25.6773C144.661 25.822 144.347 25.9186 144.033 25.9668C143.72 26.0151 143.406 26.0634 143.068 26.0634C142.368 26.0634 141.837 25.9186 141.475 25.6531C141.113 25.3877 140.872 24.9774 140.776 24.4706C140.341 24.9291 139.786 25.3153 139.062 25.629C138.362 25.9427 137.493 26.0875 136.48 26.0875C135.949 26.0875 135.418 26.0151 134.887 25.8703C134.356 25.7255 133.874 25.4842 133.439 25.1463C133.005 24.8085 132.667 24.3741 132.377 23.819C132.112 23.264 131.967 22.5883 131.967 21.7919C131.967 20.8024 132.208 19.9819 132.691 19.3545C133.174 18.727 133.777 18.2444 134.501 17.8824C135.225 17.5204 136.021 17.2791 136.842 17.1343C137.687 16.9895 138.459 16.9171 139.159 16.8688C139.4 16.8447 139.617 16.8447 139.858 16.8447H140.486V16.3137C140.486 15.5656 140.293 15.0347 139.883 14.6969C139.472 14.3831 138.821 14.2142 137.928 14.2142C137.083 14.2142 136.335 14.359 135.684 14.6245C135.032 14.8899 134.38 15.2036 133.753 15.5656C133.487 15.2278 133.246 14.8658 133.101 14.4555C132.932 14.0453 132.86 13.7557 132.86 13.5626C132.86 13.2972 133.005 13.0317 133.319 12.7662C133.632 12.5008 134.042 12.2836 134.573 12.0664C135.104 11.8492 135.708 11.7044 136.408 11.5596C137.083 11.4389 137.807 11.3665 138.579 11.3665C139.641 11.3665 140.534 11.4631 141.258 11.6803C141.982 11.8975 142.585 12.2353 143.044 12.6697C143.503 13.1282 143.84 13.6833 144.033 14.359C144.227 15.0347 144.323 15.8311 144.323 16.724L144.347 22.2987ZM140.582 18.896H140.172C140.027 18.896 139.907 18.896 139.762 18.9201C139.279 18.9684 138.797 19.0166 138.314 19.089C137.831 19.1614 137.397 19.3062 137.035 19.4993C136.673 19.6923 136.359 19.9578 136.118 20.2715C135.877 20.5852 135.756 20.9955 135.756 21.4782C135.756 22.0332 135.901 22.4917 136.214 22.8779C136.528 23.264 137.059 23.457 137.807 23.457C138.169 23.457 138.531 23.4088 138.869 23.3122C139.207 23.2157 139.496 23.095 139.762 22.9261C140.027 22.7572 140.22 22.5883 140.365 22.4193C140.51 22.2263 140.582 22.0573 140.582 21.9125V18.896Z" fill="#044D80"/>
</svg>
