<svg width="33" height="32" viewBox="0 0 33 32" fill="none" xmlns="http://www.w3.org/2000/svg">
<g clip-path="url(#clip0_3136_14439)">
<path d="M16.125 32C24.9616 32 32.125 24.8366 32.125 16C32.125 7.16344 24.9616 0 16.125 0C7.28844 0 0.125 7.16344 0.125 16C0.125 24.8366 7.28844 32 16.125 32Z" fill="#FF492C"/>
<path d="M23.0494 12.256H20.3166C20.3902 11.8272 20.6558 11.5872 21.1934 11.3152L21.6958 11.0592C22.595 10.5984 23.075 10.0768 23.075 9.22561C23.075 8.69121 22.867 8.26881 22.4542 7.96481C22.0414 7.66081 21.555 7.51041 20.9854 7.51041C20.5448 7.50523 20.1122 7.62867 19.7406 7.86561C19.3662 8.09601 19.0878 8.39361 18.915 8.76481L19.7054 9.55841C20.0126 8.93761 20.4574 8.63361 21.043 8.63361C21.539 8.63361 21.843 8.88961 21.843 9.24481C21.843 9.54241 21.6958 9.78881 21.1262 10.0768L20.803 10.2336C20.1022 10.5888 19.6158 10.9952 19.3342 11.456C19.0526 11.9168 18.915 12.496 18.915 13.1968V13.3888H23.0494V12.256Z" fill="white"/>
<path d="M22.6847 14.6945H18.1599L15.8975 18.6113H20.4223L22.6847 22.5313L24.9471 18.6113L22.6847 14.6945Z" fill="white"/>
<path d="M16.2879 21.2255C13.4079 21.2255 11.0623 18.8799 11.0623 15.9999C11.0623 13.1199 13.4079 10.7743 16.2879 10.7743L18.0767 7.03354C17.4876 6.91641 16.8885 6.85746 16.2879 6.85754C11.2383 6.85754 7.14551 10.9503 7.14551 15.9999C7.14551 21.0495 11.2383 25.1423 16.2879 25.1423C18.223 25.146 20.1087 24.5316 21.6703 23.3887L19.6927 19.9583C18.7466 20.7756 17.5381 21.2254 16.2879 21.2255Z" fill="white"/>
</g>
<defs>
<clipPath id="clip0_3136_14439">
<rect width="32" height="32" fill="white" transform="translate(0.125)"/>
</clipPath>
</defs>
</svg>
