<svg width="55" height="32" viewBox="0 0 55 32" fill="none" xmlns="http://www.w3.org/2000/svg">
<path d="M54.3165 14.9375L39.73 0.351153C39.2258 -0.117051 38.4694 -0.117051 38.0012 0.351153L35.1199 3.23241L46.8252 14.9375C47.2934 15.4057 47.2934 16.1981 46.8252 16.6663L34.7598 28.7315L37.6411 31.6128C38.1453 32.081 38.9016 32.081 39.3698 31.6128L54.2805 16.7023C54.7847 16.1981 54.7847 15.4417 54.3165 14.9375Z" fill="#009C9C"/>
<path d="M29.467 1.43162L28.4226 0.387164C27.9183 -0.0810403 27.162 -0.0810403 26.6938 0.387164L23.8125 3.26842L25.7214 5.17725L29.467 8.92289L33.2127 5.17725L29.467 1.43162Z" fill="#40E3E3"/>
<path d="M29.1438 23.1132L25.3981 26.8588L23.4893 28.7676L26.3705 31.6489C26.8748 32.1171 27.6311 32.1171 28.0993 31.6489L29.1438 30.6044L32.8895 26.8588L29.1438 23.1132Z" fill="#40E3E3"/>
<path d="M35.5525 14.9375C36.0207 15.4417 36.0207 16.1981 35.5525 16.6663L29.1416 23.077L32.8873 26.8227L43.0438 16.6663C43.512 16.1981 43.512 15.4057 43.0438 14.9375L33.2474 5.14124L29.4657 8.88687L35.5525 14.9375Z" fill="#1ABAB8"/>
<path d="M11.7471 15.2977L21.9037 5.14125L18.158 1.39561L17.0775 0.351153C16.5733 -0.117051 15.817 -0.117051 15.3488 0.351153L0.438072 15.2977C-0.0301384 15.7659 -0.0301384 16.5582 0.438072 17.0264L15.0246 31.6128C15.5288 32.081 16.2852 32.081 16.7534 31.6128L17.8339 30.5683L21.5796 26.8227L11.7832 17.0264C11.2789 16.5582 11.2789 15.8019 11.7471 15.2977Z" fill="#87F0F0"/>
<path d="M23.0558 15.2977L27.5219 10.8317L23.7762 7.08608L21.8673 5.17725L11.7828 15.3337C11.3146 15.8019 11.3146 16.5942 11.7828 17.0624L21.5432 26.8227L23.452 24.9139L27.1977 21.1682L23.0558 17.0264C22.5876 16.5942 22.5876 15.8019 23.0558 15.2977Z" fill="#40E3E3"/>
<path d="M23.0585 17.0264L27.2004 21.1682L31.6664 16.7022C32.1346 16.234 32.1346 15.4417 31.6664 14.9735L27.5245 10.8317L23.0585 15.2976C22.6263 15.8018 22.6263 16.5582 23.0585 17.0264Z" fill="#17CFCF"/>
</svg>
