<svg width="163" height="19" viewBox="0 0 163 19" fill="none" xmlns="http://www.w3.org/2000/svg">
<path d="M148.345 1.53936C148.345 0.675156 149.048 0 149.885 0H161.335C162.2 0 162.875 0.702163 162.875 1.53936V7.15671C162.875 8.02091 162.173 8.69607 161.335 8.69607H160.147C159.283 8.69607 157.987 9.04716 157.23 9.45225L153.071 11.7748C152.315 12.1799 152.018 11.8828 152.369 11.1266L152.855 10.0734C153.207 9.29021 152.801 8.66907 151.937 8.66907H149.858C148.994 8.66907 148.318 7.9669 148.318 7.1297V1.53936" fill="url(#paint0_linear_3136_14401)"/>
<path d="M148.346 16.1771C148.427 16.1771 148.508 16.1501 148.562 16.1231C148.616 16.0961 148.643 16.0421 148.643 15.9341C148.643 15.8801 148.643 15.8261 148.616 15.7991C148.589 15.7721 148.562 15.745 148.535 15.718C148.508 15.691 148.454 15.691 148.427 15.691C148.373 15.691 148.346 15.691 148.292 15.691H148.021V16.1501L148.346 16.1771ZM148.346 15.367C148.589 15.367 148.778 15.421 148.886 15.529C148.994 15.637 149.075 15.7721 149.075 15.9611C149.075 16.1231 149.021 16.2582 148.94 16.3392C148.859 16.4202 148.751 16.4742 148.616 16.5012L149.075 17.2844H148.616L148.157 16.5282H147.994V17.2844H147.589V15.394L148.346 15.367ZM147.157 16.7983C147.211 16.9603 147.292 17.0954 147.4 17.2034C147.508 17.3114 147.643 17.4194 147.778 17.4735C147.94 17.5275 148.102 17.5815 148.265 17.5815C148.454 17.5815 148.616 17.5545 148.751 17.4735C148.913 17.4194 149.021 17.3114 149.129 17.2034C149.237 17.0954 149.318 16.9603 149.372 16.7983C149.426 16.6363 149.453 16.4742 149.453 16.3122C149.453 16.1501 149.426 15.9881 149.372 15.8261C149.318 15.664 149.237 15.529 149.129 15.421C149.021 15.3129 148.886 15.2049 148.751 15.1509C148.589 15.0969 148.427 15.0429 148.265 15.0429C148.075 15.0429 147.913 15.0699 147.778 15.1509C147.616 15.2049 147.508 15.3129 147.4 15.421C147.292 15.529 147.211 15.664 147.157 15.8261C147.103 15.9881 147.076 16.1501 147.076 16.3122C147.076 16.5012 147.103 16.6633 147.157 16.7983ZM146.671 15.637C146.752 15.421 146.887 15.2319 147.049 15.0699C147.211 14.9078 147.4 14.7728 147.616 14.6918C147.832 14.6108 148.048 14.5568 148.292 14.5568C148.535 14.5568 148.751 14.6108 148.967 14.6918C149.183 14.7728 149.372 14.9078 149.534 15.0699C149.696 15.2319 149.831 15.421 149.912 15.637C149.993 15.8531 150.047 16.0691 150.047 16.3122C150.047 16.5552 149.993 16.7713 149.912 16.9873C149.831 17.2034 149.696 17.3924 149.534 17.5545C149.372 17.7165 149.183 17.8245 148.967 17.9326C148.751 18.0136 148.535 18.0676 148.292 18.0676C148.048 18.0676 147.832 18.0136 147.616 17.9326C147.4 17.8515 147.211 17.7165 147.049 17.5545C146.887 17.3924 146.752 17.2034 146.671 16.9873C146.59 16.7713 146.536 16.5552 146.536 16.3122C146.536 16.0691 146.59 15.8531 146.671 15.637Z" fill="#2D2E2C"/>
<path d="M142.539 11.0455H140C139.811 11.0455 139.757 10.9374 139.757 10.8024L139.784 10.4783C139.838 9.80316 140.46 9.31705 141.297 9.31705C142.107 9.31705 142.755 9.80316 142.809 10.4513L142.836 10.7754C142.836 10.9374 142.782 11.0455 142.539 11.0455ZM141.216 6.67041C138.488 6.67041 136.517 8.64188 136.517 10.8834V13.8811C136.517 16.3927 138.38 18.1211 141.216 18.1211C142.755 18.1211 143.862 17.581 144.646 16.8248C145.024 16.4467 145.321 16.0146 145.564 15.5825C145.699 15.3395 145.645 15.0964 145.483 15.0154L143.187 13.8541C143.052 13.7731 142.917 13.8271 142.836 14.0432C142.512 14.8534 141.972 15.2315 141.189 15.2315C140.325 15.2315 139.73 14.6643 139.73 13.9081V13.395C139.73 13.233 139.811 13.152 140 13.152H145.618C145.753 13.152 145.861 13.0709 145.861 12.9089V10.8834C145.834 8.66889 143.916 6.67041 141.216 6.67041Z" fill="#2D2E2C"/>
<path d="M131.17 9.50627C131.899 9.50627 132.412 9.96538 132.817 10.9106C132.898 11.0726 133.006 11.1267 133.168 11.0456L135.437 10.0194C135.572 9.93838 135.626 9.80335 135.545 9.6143C135.329 9.12819 135.112 8.69608 134.815 8.31799C134.059 7.29174 132.925 6.72461 131.143 6.72461C128.253 6.72461 126.524 8.45302 126.524 10.9646V13.8003C126.524 16.3119 128.253 18.0133 131.143 18.0133C132.763 18.0133 133.843 17.5272 134.599 16.663C135.004 16.2309 135.302 15.6907 135.545 15.0966C135.626 14.9076 135.572 14.7995 135.437 14.7185L133.168 13.6653C133.006 13.5842 132.898 13.6383 132.817 13.8003C132.412 14.7185 131.899 15.2046 131.17 15.2046C130.305 15.2046 129.765 14.6105 129.765 13.8543V10.8296C129.765 10.1274 130.332 9.50627 131.17 9.50627Z" fill="#2D2E2C"/>
<path d="M124.499 6.99463H121.744C121.582 6.99463 121.501 7.07565 121.501 7.23769V17.5541C121.501 17.7162 121.582 17.7972 121.744 17.7972H124.499C124.634 17.7972 124.715 17.7162 124.715 17.5541V7.23769C124.688 7.04864 124.607 6.99463 124.499 6.99463Z" fill="#2D2E2C"/>
<path d="M123.094 2.43054C122.203 2.43054 121.474 3.15972 121.474 4.05093C121.474 4.94214 122.203 5.67131 123.094 5.67131C123.985 5.67131 124.714 4.94214 124.714 4.05093C124.741 3.15972 123.985 2.43054 123.094 2.43054Z" fill="#2D2E2C"/>
<path d="M120.042 6.99463H117.099C116.991 6.99463 116.883 7.07565 116.856 7.18368L115.127 12.1799C115.046 12.4229 114.884 13.0441 114.857 13.3411H114.776C114.722 13.0441 114.614 12.4769 114.506 12.1799L112.697 7.15667C112.643 7.04864 112.589 6.99463 112.454 6.99463H109.51C109.294 6.99463 109.24 7.12966 109.294 7.31871L113.453 17.6082C113.507 17.7162 113.588 17.7702 113.696 17.7702H115.856C115.964 17.7702 116.073 17.7162 116.1 17.6082L120.286 7.31871C120.34 7.12966 120.259 6.99463 120.042 6.99463Z" fill="#2D2E2C"/>
<path d="M104.839 13.7732C104.839 14.5294 104.217 15.1235 103.407 15.1235C102.57 15.1235 102.003 14.5564 102.003 13.7732V10.9915C102.003 10.2354 102.57 9.69523 103.407 9.69523C104.244 9.69523 104.839 10.2624 104.839 10.9915V13.7732ZM107.809 3.15967H105.082C104.974 3.15967 104.839 3.24069 104.839 3.40273V6.6165C104.839 6.96758 104.92 7.64274 104.92 7.64274C104.46 7.23764 103.677 6.99459 103.137 6.99459C100.598 6.99459 98.7891 8.69599 98.7891 11.2076V13.5571C98.7891 16.2578 100.355 17.7702 103.191 17.7702C103.839 17.7702 104.595 17.5541 105.082 17.149C105.217 17.041 105.379 17.068 105.379 17.257V17.6081C105.379 17.6891 105.46 17.7702 105.568 17.7702H107.809C107.944 17.7702 108.052 17.6891 108.052 17.5271V3.37572C108.052 3.24069 107.944 3.15967 107.809 3.15967Z" fill="#2D2E2C"/>
<path d="M92.7392 12.801H91.3349C91.0918 12.801 91.0108 12.6659 91.0648 12.5309L91.5509 10.6405C91.794 9.77625 91.956 8.75 92.01 8.15586H92.0911C92.1451 8.75 92.2801 9.77625 92.4962 10.6405L92.9823 12.5309C93.0363 12.6389 92.9283 12.801 92.7392 12.801ZM93.2793 3.32171C93.2253 3.21368 93.1713 3.15967 93.0363 3.15967H90.9568C90.8218 3.15967 90.7677 3.21368 90.7137 3.32171L86.2037 17.4731C86.1226 17.6621 86.2307 17.7702 86.4467 17.7702H89.3634C89.4714 17.7702 89.5254 17.7161 89.5795 17.6081L90.2546 15.5016C90.3086 15.3936 90.3356 15.3666 90.4977 15.3666H93.5494C93.7115 15.3666 93.7655 15.3936 93.7925 15.5016L94.4406 17.6081C94.4946 17.7161 94.5216 17.7702 94.6837 17.7702H97.6274C97.8704 17.7702 97.9245 17.6621 97.8704 17.4731L93.2793 3.32171Z" fill="#2D2E2C"/>
<path d="M77.859 11.0455H75.3204C75.1314 11.0455 75.0773 10.9374 75.0773 10.8024L75.1044 10.4783C75.1584 9.80316 75.7795 9.31705 76.6167 9.31705C77.4269 9.31705 78.0751 9.80316 78.1291 10.4513L78.1561 10.7754C78.1291 10.9374 78.1021 11.0455 77.859 11.0455ZM76.5087 6.67041C73.781 6.67041 71.8096 8.64188 71.8096 10.8834V13.8811C71.8096 16.3927 73.673 18.1211 76.5087 18.1211C78.0481 18.1211 79.1553 17.581 79.9385 16.8248C80.3166 16.4467 80.6137 16.0146 80.8567 15.5825C80.9918 15.3395 80.9377 15.0964 80.7757 15.0154L78.4802 13.8541C78.3451 13.7731 78.2101 13.8271 78.1291 14.0432C77.805 14.8534 77.2649 15.2315 76.4817 15.2315C75.6175 15.2315 75.0233 14.6643 75.0233 13.9081V13.395C75.0233 13.233 75.1044 13.152 75.2934 13.152H80.8837C81.0188 13.152 81.1268 13.0709 81.1268 12.9089V10.8834C81.1538 8.66889 79.2363 6.67041 76.5087 6.67041Z" fill="#2D2E2C"/>
<path d="M70.4321 7.04865C70.2701 7.02164 70.081 6.99463 69.8379 6.99463C68.9467 6.99463 68.1095 7.39972 67.7585 7.88584C67.6504 7.99386 67.4614 7.96686 67.4614 7.77781V7.23769C67.4614 7.07565 67.3804 6.99463 67.2183 6.99463H65.0038C64.8688 6.99463 64.7607 7.07565 64.7607 7.23769V17.5541C64.7607 17.7162 64.8418 17.7972 65.0038 17.7972H67.7315C67.8665 17.7972 67.9745 17.7162 67.9745 17.5541V11.3967C67.9745 10.5865 68.5416 9.99234 69.3788 9.99234C69.7299 9.99234 70.027 10.0464 70.2971 10.1004C70.5131 10.1544 70.6481 10.0734 70.6481 9.85731V7.23769C70.6481 7.15667 70.5671 7.04865 70.4321 7.04865Z" fill="#2D2E2C"/>
<path d="M58.1438 15.2857H57.2796C56.7935 15.2857 56.5234 14.9886 56.5234 14.3404C56.5234 13.8813 56.8475 13.5572 57.3066 13.5572H59.2781C59.4131 13.5572 59.4671 13.8003 59.4671 13.8813C59.4131 14.7185 58.7649 15.2857 58.1438 15.2857ZM58.0628 6.72461C56.6314 6.72461 55.5512 7.18372 54.768 7.91289C54.3359 8.31799 53.9848 8.7771 53.6877 9.29022C53.5527 9.53328 53.6067 9.77634 53.7687 9.85736L56.0643 11.0186C56.1993 11.0997 56.3344 11.0456 56.4154 10.8296C56.7395 10.0194 57.2796 9.6413 58.0628 9.6413C58.927 9.6413 59.4671 10.2354 59.4671 10.9646V11.0726C59.4671 11.2347 59.3861 11.3157 59.2241 11.3157H57.1716C55.1191 11.3157 53.4717 12.423 53.4717 14.3674V14.6105C53.4717 16.582 54.957 17.7702 56.9555 17.7702H57.7657C58.3868 17.7702 59.089 17.5542 59.5751 17.1761C59.6562 17.0951 59.7912 17.1221 59.8182 17.2031L59.8992 17.6082C59.9262 17.7162 60.0072 17.7972 60.1423 17.7972H62.4108C62.5458 17.7972 62.6539 17.7162 62.6539 17.5542V10.9916C62.6539 8.48002 60.8984 6.72461 58.0628 6.72461Z" fill="#2D2E2C"/>
<path d="M52.5535 6.99463H49.7449C49.6098 6.99463 49.5018 7.07565 49.5018 7.18368L48.4485 11.5317C48.3405 12.0178 48.2325 12.72 48.2055 13.2061H48.1245C48.0975 12.72 48.0164 12.0988 47.8814 11.5317L46.8282 7.18368C46.8012 7.07565 46.7201 6.99463 46.5851 6.99463H44.2896C44.1545 6.99463 44.0735 7.07565 44.0465 7.18368L43.0203 11.5317C42.9122 12.0178 42.8042 12.639 42.7772 13.0981H42.7232C42.6962 12.639 42.6152 12.0178 42.4801 11.5317L41.3999 7.18368C41.3729 7.07565 41.3188 6.99463 41.1568 6.99463H38.2941C38.0781 6.99463 38.0241 7.10266 38.0781 7.2917L41.3459 17.6082C41.3999 17.7162 41.4539 17.7702 41.5889 17.7702H43.6414C43.7764 17.7702 43.8575 17.7162 43.8845 17.6082L45.1538 12.801C45.2888 12.2609 45.3968 11.3697 45.3968 11.3697H45.4778C45.4778 11.3697 45.5859 12.2879 45.7209 12.801L46.9632 17.5812C46.9902 17.6892 47.0442 17.7702 47.2063 17.7702H49.2317C49.3398 17.7702 49.4208 17.7162 49.4748 17.6082L52.7966 7.2917C52.8506 7.12966 52.7696 6.99463 52.5535 6.99463Z" fill="#2D2E2C"/>
<path d="M36.9167 6.99461H35.3503C35.1343 6.99461 35.0802 6.91359 35.0802 6.75155V5.2932C35.0802 5.13117 35.0262 5.07715 34.8642 5.07715H33.4058C33.3248 5.07715 33.1898 5.13116 33.1358 5.18517L30.2461 8.07486V9.64123C30.2461 9.80327 30.3271 9.85729 30.4892 9.85729H31.6504C31.8665 9.85729 31.9205 9.93831 31.9205 10.1003V13.7192C31.9205 16.5009 33.6489 17.9322 35.8634 17.9322H36.8357C37.0517 17.9322 37.1327 17.8512 37.1327 17.6892V15.3126C37.1327 15.1776 37.0517 15.0695 36.8897 15.0695H36.5116C35.5664 15.0695 35.1073 14.5024 35.1073 13.5032V10.1274C35.1073 9.96532 35.1883 9.8843 35.3773 9.8843H36.9437C37.1057 9.8843 37.1597 9.83028 37.1597 9.66824V7.21066C37.1327 7.04862 37.0787 6.99461 36.9167 6.99461Z" fill="#2D2E2C"/>
<path d="M29.9759 3.05169C29.5708 2.97067 28.9227 2.88965 28.3285 2.88965C24.8987 2.88965 23.6024 5.26622 23.6024 7.15667V7.72381C23.6024 7.88585 23.5214 7.96686 23.3594 7.96686H22.8192C22.6842 7.96686 22.5762 8.04788 22.5762 8.20992V10.6405C22.5762 10.8025 22.6572 10.8836 22.8192 10.8836H23.3594C23.5754 10.8836 23.6024 10.9646 23.6024 11.1266V17.5812C23.6024 17.7432 23.6834 17.8242 23.8455 17.8242H26.5731C26.7352 17.8242 26.8162 17.7432 26.8162 17.5812V11.1266C26.8162 10.9646 26.8972 10.8836 27.0592 10.8836H28.5716C28.7336 10.8836 28.8147 10.8025 28.8147 10.6405V8.20992C28.8147 8.04788 28.7336 7.96686 28.5716 7.96686H27.0592C26.8702 7.96686 26.8162 7.88585 26.8162 7.72381V7.10265C26.8162 6.29246 27.3833 5.77934 28.2745 5.77934C28.5716 5.77934 28.8957 5.83335 29.1657 5.88736C29.3278 5.94138 29.4088 5.88736 29.4628 5.75233L30.192 3.37577C30.219 3.21373 30.165 3.0787 29.9759 3.05169Z" fill="#2D2E2C"/>
<path d="M17.9853 13.9083C17.9853 14.6645 17.3911 15.2586 16.581 15.2586C15.7167 15.2586 15.1226 14.6645 15.1226 13.9083V10.8836C15.1226 10.1544 15.7167 9.53328 16.581 9.53328C17.3911 9.53328 17.9853 10.1274 17.9853 10.8836V13.9083ZM16.581 6.72461C13.7453 6.72461 11.8818 8.45302 11.8818 10.9646V13.8003C11.8818 16.3119 13.7453 18.0133 16.581 18.0133C19.3626 18.0133 21.2261 16.3119 21.2261 13.8003V10.9646C21.2261 8.45302 19.3626 6.72461 16.581 6.72461Z" fill="#2D2E2C"/>
<path d="M6.91282 9.04693C5.64352 8.56081 4.26619 8.20973 4.26619 7.15648C4.26619 6.31928 4.88734 5.75214 5.69753 5.75214H6.04861C6.8318 5.75214 7.37193 6.13023 7.696 6.94042C7.77702 7.15647 7.91206 7.18348 8.04709 7.12947L10.3426 5.9682C10.4777 5.88718 10.5587 5.64412 10.4237 5.40106C10.2346 5.04998 10.0186 4.69889 9.72149 4.40182C8.91129 3.51061 7.75002 2.83545 6.04861 2.83545H5.69753C2.80784 2.83545 0.998408 4.56386 0.998408 7.18349C0.998408 9.85712 2.72682 10.8564 4.86033 11.7206C6.26466 12.2877 7.45295 12.5848 7.45295 13.746C7.45295 14.6913 6.72377 15.1234 5.88657 15.1234H5.31944C4.53625 15.1234 3.99612 14.7453 3.67205 13.9351C3.59103 13.719 3.45599 13.692 3.32096 13.746L1.02541 14.9073C0.890382 14.9883 0.809363 15.2314 0.944395 15.4745C1.16045 15.8525 1.4035 16.2036 1.70058 16.5547C2.48376 17.4459 3.64504 18.0401 5.29243 18.0401H6.02161C8.96531 18.0401 10.6937 16.3387 10.6937 13.719C10.6937 10.9914 9.10034 9.91114 6.91282 9.04693Z" fill="#2D2E2C"/>
<defs>
<linearGradient id="paint0_linear_3136_14401" x1="155.618" y1="2.16962" x2="155.618" y2="13.0909" gradientUnits="userSpaceOnUse">
<stop stop-color="#FD810B"/>
<stop offset="1" stop-color="#FD810B"/>
</linearGradient>
</defs>
</svg>
