<svg width="593" height="133" viewBox="0 0 593 133" fill="none" xmlns="http://www.w3.org/2000/svg">
<rect x="1.06738" y="21.3213" width="78.9851" height="51" fill="white"/>
<rect x="1.06738" y="21.3213" width="78.9851" height="51" stroke="#D6DCE5"/>
<path d="M30.8816 56.694L34.2168 37.118H39.5516L36.2139 56.694H30.8816ZM55.4879 37.54C54.4312 37.1434 52.7749 36.7178 50.7067 36.7178C45.4351 36.7178 41.7221 39.3729 41.6903 43.1782C41.6606 45.9911 44.3413 47.5604 46.3648 48.4967C48.4415 49.4565 49.1395 50.0683 49.1295 50.925C49.1162 52.2373 47.4712 52.8365 45.9377 52.8365C43.8026 52.8365 42.6682 52.5398 40.9162 51.8092L40.2285 51.4981L39.4799 55.8803C40.726 56.427 43.03 56.9002 45.4226 56.9248C51.0305 56.9248 54.671 54.3 54.7124 50.2363C54.7323 48.0093 53.3111 46.3148 50.2332 44.9175C48.3685 44.0119 47.2265 43.4076 47.2386 42.4906C47.2386 41.6769 48.2053 40.8068 50.2941 40.8068C52.0383 40.7797 53.3023 41.1602 54.2869 41.5568L54.7649 41.7827L55.4879 37.54ZM69.2162 37.1177H65.094C63.8171 37.1177 62.8613 37.4663 62.3006 38.7411L54.3776 56.6811H59.9796C59.9796 56.6811 60.8953 54.269 61.1025 53.7393C61.7147 53.7393 67.1568 53.7477 67.9348 53.7477C68.0943 54.4331 68.5839 56.6811 68.5839 56.6811H73.5341L69.2162 37.1171V37.1177ZM62.6758 49.7587C63.1171 48.6308 64.8014 44.2863 64.8014 44.2863C64.77 44.3384 65.2394 43.1529 65.5086 42.4179L65.8692 44.1057C65.8692 44.1057 66.8907 48.7786 67.1042 49.7584H62.6758V49.7587ZM26.3527 37.1177L21.1298 50.4677L20.5734 47.7548C19.601 44.6274 16.5717 41.2391 13.1851 39.5428L17.9608 56.6628L23.6053 56.6565L32.0041 37.1175L26.3527 37.1174" fill="#0E4595"/>
<path d="M16.2566 37.1172H7.65412L7.58594 37.5245C14.2786 39.1449 18.7068 43.0608 20.5455 47.7665L18.6749 38.7705C18.3521 37.5309 17.4155 37.1609 16.2568 37.1177" fill="#F2AE14"/>
<g filter="url(#filter0_dd_515_6166)">
<rect x="95.5522" y="21.8213" width="78" height="50" rx="2" fill="white"/>
<rect x="95.0522" y="21.3213" width="79" height="51" rx="2.5" stroke="#D6DCE5"/>
<path d="M122.372 61.46V59.4569C122.372 58.6887 121.909 58.1882 121.15 58.1882C120.752 58.1882 120.325 58.322 120.028 58.7524C119.797 58.3849 119.47 58.1882 118.972 58.1882C118.786 58.1801 118.602 58.2186 118.435 58.3001C118.268 58.3817 118.124 58.5039 118.015 58.6557V58.2527H117.388V61.4576H118.015V59.6238C118.015 59.0595 118.345 58.7895 118.807 58.7895C119.27 58.7895 119.534 59.0902 119.534 59.6238V61.46H120.161V59.6238C120.161 59.0595 120.491 58.7895 120.953 58.7895C121.416 58.7895 121.68 59.0902 121.68 59.6238V61.46H122.372ZM132.672 58.2881H131.516V57.3208H130.891V58.2881H130.231V58.8524H130.891V60.3581C130.891 61.0925 131.155 61.5269 131.947 61.5269C132.247 61.5206 132.541 61.4404 132.804 61.2932L132.605 60.7289C132.427 60.8415 132.221 60.8994 132.011 60.8958C131.681 60.8958 131.516 60.6951 131.516 60.3613V58.8266H132.672V58.2922L132.672 58.2881ZM138.549 58.1882C138.378 58.1843 138.209 58.2254 138.059 58.3073C137.908 58.3893 137.781 58.5093 137.69 58.6557V58.2527H137.063V61.4576H137.69V59.6576C137.69 59.1232 137.954 58.7895 138.384 58.7895C138.529 58.7955 138.673 58.8179 138.813 58.8564L139.011 58.2551C138.86 58.2165 138.705 58.1941 138.549 58.1882ZM129.668 58.5219C129.338 58.2881 128.875 58.1882 128.38 58.1882C127.588 58.1882 127.093 58.5557 127.093 59.1901C127.093 59.7246 127.457 60.0244 128.149 60.1252L128.479 60.1582C128.843 60.2251 129.074 60.3589 129.074 60.5258C129.074 60.7595 128.81 60.9288 128.314 60.9288C127.936 60.9367 127.565 60.8195 127.258 60.5951L126.928 61.0957C127.39 61.4294 127.952 61.4987 128.283 61.4987C129.208 61.4987 129.703 61.065 129.703 60.4637C129.703 59.8995 129.304 59.6294 128.613 59.5287L128.283 59.4956C127.986 59.4626 127.725 59.3618 127.725 59.1619C127.725 58.9282 127.989 58.7589 128.353 58.7589C128.751 58.7589 129.145 58.9257 129.343 59.0257L129.668 58.5219ZM139.242 59.8576C139.242 60.8248 139.87 61.5269 140.893 61.5269C141.356 61.5269 141.686 61.427 142.016 61.1594L141.686 60.6588C141.452 60.8501 141.161 60.9561 140.861 60.9595C140.303 60.9595 139.87 60.5258 139.87 59.8914C139.87 59.257 140.297 58.8266 140.861 58.8266C141.161 58.83 141.452 58.9359 141.686 59.1273L142.016 58.6267C141.686 58.3599 141.356 58.2591 140.893 58.2591C139.903 58.1922 139.242 58.8935 139.242 59.8616V59.8576ZM134.818 58.1882C133.894 58.1882 133.266 58.8556 133.266 59.8576C133.266 60.8595 133.926 61.5269 134.884 61.5269C135.349 61.5369 135.804 61.3837 136.171 61.0933L135.841 60.6257C135.576 60.8336 135.252 60.9505 134.916 60.9595C134.487 60.9595 134.025 60.6926 133.96 60.1252H136.304V59.8584C136.304 58.8564 135.709 58.189 134.818 58.189V58.1882ZM134.786 58.7895C135.248 58.7895 135.578 59.0902 135.611 59.5907H133.894C133.993 59.1232 134.293 58.7895 134.786 58.7895ZM126.235 59.8576V58.2551H125.607V58.6581C125.376 58.3575 125.049 58.1906 124.584 58.1906C123.692 58.1906 123.032 58.8919 123.032 59.86C123.032 60.8281 123.692 61.5293 124.584 61.5293C125.046 61.5293 125.376 61.3625 125.607 61.0618V61.4649H126.235V59.8576ZM123.692 59.8576C123.692 59.2562 124.056 58.7895 124.683 58.7895C125.278 58.7895 125.64 59.257 125.64 59.8576C125.64 60.4919 125.241 60.9256 124.683 60.9256C124.056 60.9586 123.692 60.4581 123.692 59.8576ZM148.092 58.1882C147.921 58.1843 147.752 58.2254 147.601 58.3073C147.451 58.3893 147.324 58.5093 147.233 58.6557V58.2527H146.606V61.4576H147.232V59.6576C147.232 59.1232 147.496 58.7895 147.926 58.7895C148.071 58.7955 148.215 58.8179 148.355 58.8564L148.553 58.2551C148.402 58.2165 148.247 58.1941 148.091 58.1882H148.092ZM145.648 59.8576V58.2551H145.021V58.6581C144.79 58.3575 144.463 58.1906 143.998 58.1906C143.106 58.1906 142.445 58.8919 142.445 59.86C142.445 60.8281 143.105 61.5293 143.998 61.5293C144.46 61.5293 144.79 61.3625 145.021 61.0618V61.4649H145.648V59.8576ZM143.106 59.8576C143.106 59.2562 143.47 58.7895 144.097 58.7895C144.692 58.7895 145.054 59.257 145.054 59.8576C145.054 60.4919 144.655 60.9256 144.097 60.9256C143.47 60.9586 143.106 60.4581 143.106 59.8576ZM152.021 59.8576V56.9863H151.394V58.6557C151.162 58.355 150.835 58.1882 150.37 58.1882C149.479 58.1882 148.818 58.8895 148.818 59.8576C148.818 60.8256 149.478 61.5269 150.37 61.5269C150.832 61.5269 151.162 61.3601 151.394 61.0594V61.4624H152.021V59.8576ZM149.479 59.8576C149.479 59.2562 149.842 58.7895 150.47 58.7895C151.064 58.7895 151.426 59.257 151.426 59.8576C151.426 60.4919 151.028 60.9256 150.47 60.9256C149.841 60.9595 149.478 60.4589 149.478 59.8576H149.479Z" fill="black"/>
<path d="M128.942 33.9502H140.399V52.8461H128.942V33.9502Z" fill="#FF5F00"/>
<path d="M130.097 43.3984C130.098 41.5806 130.505 39.7865 131.288 38.1503C132.071 36.5141 133.211 35.0783 134.62 33.9504C132.867 32.5565 130.761 31.6896 128.544 31.4487C126.326 31.2077 124.086 31.6026 122.08 32.5882C120.074 33.5737 118.383 35.1101 117.2 37.0217C116.016 38.9334 115.389 41.1431 115.389 43.3984C115.389 45.6537 116.016 47.8634 117.2 49.7751C118.383 51.6867 120.074 53.2231 122.08 54.2087C124.086 55.1942 126.326 55.5891 128.544 55.3482C130.761 55.1073 132.867 54.2403 134.62 52.8464C133.211 51.7185 132.071 50.2827 131.288 48.6465C130.505 47.0104 130.098 45.2162 130.097 43.3984Z" fill="#EB001B"/>
<path d="M153.869 43.3979C153.871 45.6516 153.245 47.8602 152.064 49.7711C150.882 51.682 149.193 53.2182 147.189 54.2038C145.184 55.1895 142.946 55.5849 140.73 55.3447C138.514 55.1046 136.41 54.2386 134.658 52.8459C136.068 51.7183 137.207 50.2826 137.991 48.6464C138.774 47.0101 139.181 45.2158 139.181 43.3979C139.181 41.5801 138.774 39.7858 137.991 38.1495C137.207 36.5133 136.068 35.0776 134.658 33.95C136.41 32.5573 138.514 31.6913 140.73 31.4512C142.946 31.211 145.184 31.6064 147.189 32.5921C149.193 33.5777 150.882 35.1139 152.064 37.0248C153.245 38.9357 153.871 41.1443 153.869 43.3979Z" fill="#F79E1B"/>
</g>
<g clip-path="url(#clip0_515_6166)">
<path d="M193.552 21.8213H263.552C265.761 21.8213 267.552 23.6122 267.552 25.8213V67.8213C267.552 70.0305 265.761 71.8213 263.552 71.8213H193.552C191.343 71.8213 189.552 70.0305 189.552 67.8213V25.8213C189.552 23.6122 191.343 21.8213 193.552 21.8213Z" fill="#2557D6"/>
<path d="M189.578 45.3905H193.322L194.166 43.4395H196.056L196.898 45.3905H204.265V43.899L204.922 45.397H208.747L209.404 43.8768V45.3906H227.712L227.704 42.188H228.058C228.306 42.1963 228.378 42.2182 228.378 42.6106V45.3906H237.847V44.6451C238.611 45.0371 239.799 45.3906 241.362 45.3906H245.346L246.198 43.4396H248.088L248.922 45.3906H256.598V43.5374L257.761 45.3906H263.912V33.1396H257.824V34.5864L256.972 33.1396H250.725V34.5864L249.942 33.1396H241.504C240.092 33.1396 238.85 33.3285 237.847 33.8549V33.1396H232.025V33.8549C231.386 33.3123 230.517 33.1396 229.55 33.1396H208.276L206.848 36.3037L205.382 33.1396H198.682V34.5864L197.946 33.1396H192.231L189.577 38.9642V45.3903H189.577L189.578 45.3905ZM213.212 43.6235H210.965L210.957 36.7441L207.779 43.6234H205.855L202.67 36.738V43.6234H198.213L197.371 41.6642H192.808L191.957 43.6234H189.577L193.501 34.8397H196.757L200.484 43.1561V34.8397H204.061L206.929 40.7984L209.563 34.8397H213.212L213.212 43.6235ZM196.622 39.8412L195.122 36.3395L193.63 39.8412H196.622ZM222.152 43.6233H214.831V34.8396H222.152V36.6687H217.023V38.252H222.029V40.0525H217.023V41.8067H222.152L222.152 43.6233ZM232.468 37.2053C232.468 38.6057 231.492 39.3293 230.924 39.5465C231.403 39.7213 231.813 40.0303 232.008 40.2862C232.317 40.7231 232.371 41.1133 232.371 41.8978V43.6233H230.16L230.152 42.5156C230.152 41.9871 230.205 41.227 229.806 40.8044C229.486 40.4954 228.998 40.4284 228.209 40.4284H225.856V43.6234H223.665V34.8396H228.705C229.825 34.8396 230.65 34.8679 231.359 35.2603C232.052 35.6527 232.468 36.2255 232.468 37.2053ZM229.698 38.5095C229.396 38.6847 229.04 38.6905 228.614 38.6905H225.952V36.7395H228.65C229.032 36.7395 229.43 36.7559 229.689 36.8979C229.973 37.0259 230.149 37.2982 230.149 37.6744C230.149 38.0584 229.982 38.3673 229.698 38.5095ZM235.982 43.6233H233.746V34.8396H235.982V43.6233ZM261.938 43.6233H258.833L254.679 37.0306V43.6233H250.217L249.364 41.6641H244.812L243.985 43.6233H241.42C240.355 43.6233 239.006 43.3976 238.243 42.6518C237.472 41.906 237.072 40.8958 237.072 39.2985C237.072 37.9958 237.311 36.8049 238.253 35.8638C238.961 35.1628 240.071 34.8396 241.581 34.8396H243.702V36.7217H241.625C240.826 36.7217 240.374 36.8357 239.939 37.242C239.566 37.6119 239.309 38.311 239.309 39.2317C239.309 40.1727 239.504 40.8513 239.912 41.2945C240.249 41.6421 240.862 41.7475 241.439 41.7475H242.423L245.511 34.8399H248.795L252.505 43.148V34.84H255.842L259.694 40.9574V34.84H261.938V43.6233ZM248.618 39.8413L247.102 36.3396L245.594 39.8413H248.618ZM267.522 57.6494C266.99 58.3951 265.953 58.7731 264.549 58.7731H260.317V56.8891H264.531C264.949 56.8891 265.242 56.8364 265.418 56.6716C265.585 56.5243 265.679 56.3162 265.677 56.0987C265.677 55.8426 265.571 55.6394 265.41 55.5176C265.251 55.3834 265.019 55.3226 264.637 55.3226C262.58 55.2556 260.013 55.3834 260.013 52.6032C260.013 51.329 260.857 49.9876 263.157 49.9876H267.522V48.2397H263.466C262.242 48.2397 261.353 48.5207 260.724 48.9571V48.2396H254.725C253.766 48.2396 252.64 48.4675 252.107 48.9571V48.2396H241.395V48.9571C240.543 48.3679 239.104 48.2396 238.44 48.2396H231.375V48.9571C230.7 48.3313 229.2 48.2396 228.286 48.2396H220.378L218.569 50.116L216.874 48.2396H205.061V60.4986H216.651L218.516 58.5925L220.272 60.4986L227.416 60.5047V57.6209H228.118C229.066 57.6349 230.184 57.5982 231.171 57.1897V60.4982H237.064V57.303H237.348C237.711 57.303 237.746 57.3174 237.746 57.6645V60.4978H255.647C256.784 60.4978 257.972 60.2192 258.63 59.7133V60.4978H264.308C265.489 60.4978 266.643 60.3391 267.521 59.933L267.521 57.6489L267.522 57.6494ZM232.028 52.9338C232.028 55.3744 230.128 55.8783 228.212 55.8783H225.478V58.8252H221.219L218.52 55.9166L215.716 58.8252H207.036V50.0394H215.85L218.546 52.9192L221.333 50.0394H228.335C230.074 50.0394 232.028 50.5006 232.028 52.9338ZM214.606 56.9772H209.218V55.2292H214.029V53.4366H209.218V51.8392H214.712L217.109 54.3996L214.606 56.9772ZM223.287 57.9832L219.923 54.4043L223.287 50.9394V57.9832ZM228.263 54.0766H225.431V51.8392H228.288C229.079 51.8392 229.629 52.1482 229.629 52.9164C229.629 53.6763 229.105 54.0766 228.263 54.0766ZM243.099 50.0394H250.413V51.8563H245.281V53.4536H250.287V55.2463H245.281V56.9942L250.413 57.0022V58.8252H243.099L243.099 50.0394ZM240.287 54.7422C240.775 54.9147 241.173 55.2238 241.36 55.4797C241.67 55.9088 241.715 56.3091 241.723 57.0834V58.8252H239.523V57.726C239.523 57.1975 239.576 56.4148 239.169 56.0062C238.849 55.6915 238.361 55.6163 237.561 55.6163H235.219V58.8253H233.017V50.0394H238.077C239.186 50.0394 239.994 50.0865 240.713 50.4541C241.405 50.8545 241.84 51.4027 241.84 52.4051C241.84 53.8073 240.864 54.5229 240.287 54.7422ZM239.048 53.6315C238.755 53.7983 238.393 53.8127 237.967 53.8127H235.304V51.8394H238.003C238.393 51.8394 238.783 51.8474 239.048 51.9981C239.332 52.1404 239.502 52.4128 239.502 52.7885C239.502 53.1642 239.332 53.467 239.048 53.6315ZM258.83 54.1912C259.257 54.6141 259.486 55.1483 259.486 56.0525C259.486 57.9425 258.254 58.8248 256.043 58.8248H251.775V56.9408H256.026C256.442 56.9408 256.737 56.8883 256.921 56.7233C257.072 56.5875 257.18 56.39 257.18 56.1504C257.18 55.8943 257.063 55.6912 256.913 55.5693C256.745 55.4353 256.514 55.3744 256.132 55.3744C254.083 55.3074 251.517 55.4353 251.517 52.6552C251.517 51.3808 252.352 50.0394 254.65 50.0394H259.043V51.9094H255.023C254.625 51.9094 254.366 51.9239 254.145 52.0681C253.905 52.2104 253.816 52.4215 253.816 52.7C253.816 53.0314 254.02 53.257 254.296 53.3546C254.527 53.4316 254.775 53.4541 255.148 53.4541L256.328 53.4847C257.518 53.5123 258.334 53.7095 258.83 54.1912ZM267.526 51.8392H263.532C263.134 51.8392 262.868 51.8536 262.645 51.9979C262.414 52.1402 262.325 52.3513 262.325 52.6301C262.325 52.9615 262.52 53.1869 262.804 53.2845C263.036 53.3616 263.284 53.3841 263.649 53.3841L264.837 53.4145C266.035 53.4429 266.835 53.6404 267.323 54.1217C267.412 54.1887 267.465 54.2639 267.526 54.3392V51.8392H267.526Z" fill="white"/>
</g>
<g filter="url(#filter1_dd_515_6166)">
<rect x="283.552" y="21.8213" width="78.5" height="50" rx="2" fill="white"/>
<rect x="283.052" y="21.3213" width="79.5" height="51" rx="2.5" stroke="#D6DCE5"/>
<path d="M346.166 41.5447C345.596 38.2784 344.002 35.3053 341.212 33.1278C338.251 31.0759 334.208 29.9034 329.767 29.4846C325.496 29.0659 322.592 29.1915 322.592 29.1915C322.592 29.1915 319.688 29.1077 315.418 29.4846C310.976 29.9034 306.933 31.0759 303.972 33.1278C301.182 35.3053 299.588 38.2784 299.019 41.5447C298.449 44.6853 298.563 46.821 298.563 46.821C298.563 46.821 298.449 48.9566 298.962 52.0972C299.531 55.3631 301.125 58.3366 303.915 60.5141C306.876 62.566 310.919 63.7381 315.361 64.1569C319.631 64.5756 322.535 64.4504 322.535 64.4504C322.535 64.4504 325.439 64.5337 329.71 64.1569C334.151 63.7381 338.194 62.566 341.155 60.5141C343.945 58.3371 345.539 55.3631 346.109 52.0972C346.678 48.9566 346.507 46.821 346.507 46.821C346.507 46.821 346.735 44.6853 346.166 41.5447Z" fill="#1E4BC6"/>
<path d="M311.494 41.6738V50.9281H313.21V48.2904H314.634C315.136 48.2904 315.597 48.206 315.974 48.0385C316.351 47.8719 316.728 47.6197 317.021 47.327C317.314 47.0343 317.565 46.6989 317.732 46.2801C317.9 45.8613 317.983 45.4428 317.983 44.9821C317.983 44.5215 317.9 44.1029 317.732 43.6842C317.565 43.2654 317.314 42.9304 317.021 42.6373C316.728 42.3442 316.393 42.0924 315.974 41.9249C315.555 41.7574 315.136 41.6738 314.634 41.6738L311.494 41.6738ZM313.168 43.2237H314.509C314.76 43.2237 315.011 43.2659 315.22 43.3497C315.429 43.4334 315.597 43.5584 315.765 43.7259C315.89 43.8934 316.015 44.0612 316.099 44.2706C316.183 44.48 316.225 44.6892 316.225 44.9404C316.225 45.1917 316.183 45.4009 316.099 45.6103C316.015 45.8196 315.932 45.9875 315.765 46.155C315.597 46.3225 315.429 46.4483 315.22 46.532C315.011 46.6158 314.76 46.6571 314.509 46.6571H313.168V43.2654V43.2237ZM321.961 43.4748C321.458 43.4748 321.04 43.5584 320.58 43.7259C320.161 43.8934 319.742 44.1024 319.407 44.4374C319.072 44.7724 318.779 45.1496 318.57 45.6103C318.36 46.0709 318.277 46.6156 318.277 47.2018C318.277 47.7881 318.402 48.332 318.611 48.7926C318.821 49.2532 319.114 49.63 319.449 49.9654C319.784 50.2582 320.203 50.5095 320.621 50.677C321.082 50.8449 321.5 50.9281 321.961 50.9281C322.463 50.9281 322.882 50.8453 323.301 50.677C323.72 50.4676 324.097 50.2166 324.348 49.8812V50.9281H326.064V43.4748H324.348V44.4374C324.055 44.1443 323.72 43.8934 323.301 43.7259C322.924 43.5584 322.463 43.4748 321.961 43.4748ZM326.65 43.5165L329.665 50.5936L328.116 54.3206H329.874L334.27 43.5165H332.47L330.544 48.5832L328.45 43.5165H326.65ZM322.254 45.0664C322.547 45.0664 322.84 45.1082 323.133 45.2757C323.426 45.4014 323.635 45.5268 323.845 45.7362C324.054 45.9037 324.18 46.1548 324.305 46.4061C324.431 46.6569 324.473 46.95 324.473 47.2436C324.473 47.5363 324.431 47.829 324.305 48.0811C324.18 48.3323 324.054 48.5415 323.845 48.7509C323.635 48.9603 323.385 49.0866 323.133 49.2122C322.882 49.3378 322.589 49.379 322.254 49.379C321.919 49.379 321.626 49.2955 321.374 49.2122C321.123 49.0861 320.872 48.9603 320.663 48.7509C320.496 48.5415 320.328 48.2914 320.203 48.0393C320.077 47.7881 320.035 47.495 320.035 47.2018C320.035 46.9087 320.077 46.6156 320.203 46.3643C320.286 46.1131 320.454 45.9039 320.663 45.6945C320.872 45.4851 321.081 45.3597 321.374 45.234C321.667 45.1084 321.961 45.0664 322.254 45.0664Z" fill="white"/>
</g>
<g filter="url(#filter2_dd_515_6166)">
<rect x="378.052" y="21.8213" width="78.5" height="50" rx="2" fill="white"/>
<rect x="377.552" y="21.3213" width="79.5" height="51" rx="2.5" stroke="#D6DCE5"/>
<path d="M403.442 40.2721C403.966 39.6244 404.321 38.7548 404.228 37.8662C403.461 37.9039 402.526 38.3663 401.984 39.0144C401.498 39.5695 401.067 40.4755 401.179 41.3269C402.04 41.4007 402.9 40.9016 403.442 40.2721Z" fill="#000008"/>
<path d="M404.218 41.4931C402.968 41.4195 401.906 42.1944 401.309 42.1944C400.711 42.1944 399.798 41.5302 398.809 41.5481C397.522 41.5668 396.329 42.286 395.676 43.43C394.333 45.7184 395.321 49.113 396.627 50.9768C397.261 51.8989 398.026 52.9142 399.033 52.8777C399.984 52.8408 400.357 52.2685 401.514 52.2685C402.67 52.2685 403.006 52.8777 404.013 52.8592C405.057 52.8408 405.71 51.9367 406.345 51.0137C407.072 49.9626 407.37 48.9476 407.389 48.8919C407.37 48.8735 405.374 48.1166 405.356 45.8472C405.337 43.947 406.923 43.0431 406.997 42.9871C406.102 41.6778 404.703 41.5302 404.218 41.4931Z" fill="#000008"/>
<path d="M415.1 38.9215C417.817 38.9215 419.708 40.7728 419.708 43.4681C419.708 46.1731 417.778 48.034 415.032 48.034H412.025V52.7628H409.852V38.9215L415.1 38.9215ZM412.025 46.2306H414.518C416.41 46.2306 417.487 45.2235 417.487 43.4777C417.487 41.7321 416.41 40.7345 414.528 40.7345H412.025V46.2306Z" fill="#000008"/>
<path d="M420.276 49.8948C420.276 48.1298 421.644 47.0459 424.07 46.9116L426.864 46.7486V45.9717C426.864 44.8494 426.097 44.178 424.817 44.178C423.604 44.178 422.847 44.7534 422.663 45.6552H420.684C420.8 43.8326 422.372 42.4897 424.894 42.4897C427.368 42.4897 428.949 43.7846 428.949 45.8085V52.7628H426.941V51.1034H426.893C426.301 52.2257 425.011 52.9354 423.672 52.9354C421.673 52.9354 420.276 51.7076 420.276 49.8948ZM426.864 48.9836V48.1875L424.351 48.3409C423.099 48.4273 422.391 48.974 422.391 49.8373C422.391 50.7196 423.128 51.2952 424.254 51.2952C425.719 51.2952 426.864 50.2976 426.864 48.9836Z" fill="#000008"/>
<path d="M430.845 56.475V54.7963C431 54.8346 431.349 54.8346 431.524 54.8346C432.494 54.8346 433.018 54.4318 433.338 53.3959C433.338 53.3767 433.523 52.782 433.523 52.7724L429.836 42.6719H432.106L434.687 50.8828H434.726L437.307 42.6719H439.519L435.696 53.2903C434.823 55.7364 433.814 56.5229 431.699 56.5229C431.524 56.5229 431 56.5037 430.845 56.475Z" fill="#000008"/>
</g>
<g filter="url(#filter3_dd_515_6166)">
<rect x="472.552" y="21.8213" width="78.5" height="50" rx="2" fill="white"/>
<rect x="472.052" y="21.3213" width="79.5" height="51" rx="2.5" stroke="#D6DCE5"/>
<path d="M510.096 52.8136H508.33V39.2303H513.011C514.197 39.2303 515.209 39.6212 516.036 40.4031C516.882 41.185 517.305 42.1397 517.305 43.2671C517.305 44.4218 516.882 45.3764 516.036 46.1492C515.218 46.922 514.206 47.3039 513.011 47.3039H510.096V52.8136ZM510.096 40.9032V45.6401H513.048C513.747 45.6401 514.335 45.4037 514.795 44.94C515.264 44.4763 515.503 43.9126 515.503 43.2762C515.503 42.6488 515.264 42.0942 514.795 41.6305C514.335 41.1487 513.756 40.9123 513.048 40.9123H510.096V40.9032Z" fill="#3C4043"/>
<path d="M521.922 43.2125C523.227 43.2125 524.257 43.558 525.011 44.249C525.766 44.94 526.143 45.8856 526.143 47.0857V52.8136H524.46V51.5226H524.386C523.66 52.5863 522.685 53.1136 521.471 53.1136C520.432 53.1136 519.567 52.8136 518.869 52.2045C518.17 51.5953 517.82 50.8407 517.82 49.9315C517.82 48.9677 518.188 48.204 518.924 47.6403C519.659 47.0675 520.643 46.7857 521.866 46.7857C522.915 46.7857 523.779 46.9766 524.451 47.3585V46.9584C524.451 46.3493 524.211 45.8401 523.724 45.4128C523.237 44.9855 522.667 44.7763 522.014 44.7763C521.03 44.7763 520.248 45.1855 519.678 46.0129L518.124 45.0491C518.979 43.8217 520.248 43.2125 521.922 43.2125ZM519.641 49.9587C519.641 50.4133 519.834 50.7952 520.23 51.0952C520.616 51.3953 521.076 51.5498 521.6 51.5498C522.345 51.5498 523.007 51.2771 523.586 50.7316C524.165 50.186 524.46 49.5496 524.46 48.8132C523.908 48.3858 523.145 48.1676 522.161 48.1676C521.443 48.1676 520.846 48.3404 520.368 48.6768C519.88 49.0314 519.641 49.4587 519.641 49.9587Z" fill="#3C4043"/>
<path d="M535.743 43.5127L529.858 56.896H528.037L530.226 52.2136L526.345 43.5127H528.267L531.062 50.1861H531.099L533.821 43.5127H535.743Z" fill="#3C4043"/>
<path d="M503.073 46.2038C503.073 45.6346 503.021 45.09 502.926 44.5663H495.525V47.5667L499.787 47.5676C499.614 48.5659 499.058 49.4169 498.205 49.9842V51.9308H500.743C502.224 50.5752 503.073 48.5713 503.073 46.2038Z" fill="#4285F4"/>
<path d="M498.206 49.9843C497.5 50.4553 496.591 50.7308 495.527 50.7308C493.471 50.7308 491.728 49.3615 491.103 47.5158H488.486V49.5233C489.783 52.0673 492.448 53.8129 495.527 53.8129C497.655 53.8129 499.442 53.121 500.743 51.93L498.206 49.9843Z" fill="#34A853"/>
<path d="M490.857 46.0265C490.857 45.5082 490.944 45.0073 491.103 44.5363V42.5288H488.486C487.95 43.5807 487.648 44.7682 487.648 46.0265C487.648 47.2848 487.951 48.4722 488.486 49.5241L491.103 47.5166C490.944 47.0457 490.857 46.5447 490.857 46.0265Z" fill="#FABB05"/>
<path d="M495.527 41.3214C496.688 41.3214 497.728 41.7169 498.549 42.4897L500.798 40.2686C499.432 39.0112 497.652 38.2393 495.527 38.2393C492.449 38.2393 489.783 39.9849 488.486 42.5288L491.103 44.5363C491.728 42.6907 493.471 41.3214 495.527 41.3214Z" fill="#E94235"/>
</g>
<defs>
<filter id="filter0_dd_515_6166" x="54.5522" y="0.821289" width="160" height="132" filterUnits="userSpaceOnUse" color-interpolation-filters="sRGB">
<feFlood flood-opacity="0" result="BackgroundImageFix"/>
<feColorMatrix in="SourceAlpha" type="matrix" values="0 0 0 0 0 0 0 0 0 0 0 0 0 0 0 0 0 0 127 0" result="hardAlpha"/>
<feOffset dy="2"/>
<feGaussianBlur stdDeviation="10"/>
<feColorMatrix type="matrix" values="0 0 0 0 0.717647 0 0 0 0 0.717647 0 0 0 0 0.717647 0 0 0 0.08 0"/>
<feBlend mode="normal" in2="BackgroundImageFix" result="effect1_dropShadow_515_6166"/>
<feColorMatrix in="SourceAlpha" type="matrix" values="0 0 0 0 0 0 0 0 0 0 0 0 0 0 0 0 0 0 127 0" result="hardAlpha"/>
<feOffset dy="20"/>
<feGaussianBlur stdDeviation="20"/>
<feColorMatrix type="matrix" values="0 0 0 0 0.717647 0 0 0 0 0.717647 0 0 0 0 0.717647 0 0 0 0.08 0"/>
<feBlend mode="normal" in2="effect1_dropShadow_515_6166" result="effect2_dropShadow_515_6166"/>
<feBlend mode="normal" in="SourceGraphic" in2="effect2_dropShadow_515_6166" result="shape"/>
</filter>
<filter id="filter1_dd_515_6166" x="242.552" y="0.821289" width="160.5" height="132" filterUnits="userSpaceOnUse" color-interpolation-filters="sRGB">
<feFlood flood-opacity="0" result="BackgroundImageFix"/>
<feColorMatrix in="SourceAlpha" type="matrix" values="0 0 0 0 0 0 0 0 0 0 0 0 0 0 0 0 0 0 127 0" result="hardAlpha"/>
<feOffset dy="2"/>
<feGaussianBlur stdDeviation="10"/>
<feColorMatrix type="matrix" values="0 0 0 0 0.717647 0 0 0 0 0.717647 0 0 0 0 0.717647 0 0 0 0.08 0"/>
<feBlend mode="normal" in2="BackgroundImageFix" result="effect1_dropShadow_515_6166"/>
<feColorMatrix in="SourceAlpha" type="matrix" values="0 0 0 0 0 0 0 0 0 0 0 0 0 0 0 0 0 0 127 0" result="hardAlpha"/>
<feOffset dy="20"/>
<feGaussianBlur stdDeviation="20"/>
<feColorMatrix type="matrix" values="0 0 0 0 0.717647 0 0 0 0 0.717647 0 0 0 0 0.717647 0 0 0 0.08 0"/>
<feBlend mode="normal" in2="effect1_dropShadow_515_6166" result="effect2_dropShadow_515_6166"/>
<feBlend mode="normal" in="SourceGraphic" in2="effect2_dropShadow_515_6166" result="shape"/>
</filter>
<filter id="filter2_dd_515_6166" x="337.052" y="0.821289" width="160.5" height="132" filterUnits="userSpaceOnUse" color-interpolation-filters="sRGB">
<feFlood flood-opacity="0" result="BackgroundImageFix"/>
<feColorMatrix in="SourceAlpha" type="matrix" values="0 0 0 0 0 0 0 0 0 0 0 0 0 0 0 0 0 0 127 0" result="hardAlpha"/>
<feOffset dy="2"/>
<feGaussianBlur stdDeviation="10"/>
<feColorMatrix type="matrix" values="0 0 0 0 0.717647 0 0 0 0 0.717647 0 0 0 0 0.717647 0 0 0 0.08 0"/>
<feBlend mode="normal" in2="BackgroundImageFix" result="effect1_dropShadow_515_6166"/>
<feColorMatrix in="SourceAlpha" type="matrix" values="0 0 0 0 0 0 0 0 0 0 0 0 0 0 0 0 0 0 127 0" result="hardAlpha"/>
<feOffset dy="20"/>
<feGaussianBlur stdDeviation="20"/>
<feColorMatrix type="matrix" values="0 0 0 0 0.717647 0 0 0 0 0.717647 0 0 0 0 0.717647 0 0 0 0.08 0"/>
<feBlend mode="normal" in2="effect1_dropShadow_515_6166" result="effect2_dropShadow_515_6166"/>
<feBlend mode="normal" in="SourceGraphic" in2="effect2_dropShadow_515_6166" result="shape"/>
</filter>
<filter id="filter3_dd_515_6166" x="431.552" y="0.821289" width="160.5" height="132" filterUnits="userSpaceOnUse" color-interpolation-filters="sRGB">
<feFlood flood-opacity="0" result="BackgroundImageFix"/>
<feColorMatrix in="SourceAlpha" type="matrix" values="0 0 0 0 0 0 0 0 0 0 0 0 0 0 0 0 0 0 127 0" result="hardAlpha"/>
<feOffset dy="2"/>
<feGaussianBlur stdDeviation="10"/>
<feColorMatrix type="matrix" values="0 0 0 0 0.717647 0 0 0 0 0.717647 0 0 0 0 0.717647 0 0 0 0.08 0"/>
<feBlend mode="normal" in2="BackgroundImageFix" result="effect1_dropShadow_515_6166"/>
<feColorMatrix in="SourceAlpha" type="matrix" values="0 0 0 0 0 0 0 0 0 0 0 0 0 0 0 0 0 0 127 0" result="hardAlpha"/>
<feOffset dy="20"/>
<feGaussianBlur stdDeviation="20"/>
<feColorMatrix type="matrix" values="0 0 0 0 0.717647 0 0 0 0 0.717647 0 0 0 0 0.717647 0 0 0 0.08 0"/>
<feBlend mode="normal" in2="effect1_dropShadow_515_6166" result="effect2_dropShadow_515_6166"/>
<feBlend mode="normal" in="SourceGraphic" in2="effect2_dropShadow_515_6166" result="shape"/>
</filter>
<clipPath id="clip0_515_6166">
<rect width="78" height="50" fill="white" transform="translate(189.552 21.8213)"/>
</clipPath>
</defs>
</svg>
