<?xml version="1.0" encoding="UTF-8" standalone="no"?>
<!-- Created with Inkscape (http://www.inkscape.org/) -->

<svg
   height="72"
   width="72"
   version="1.1"
   viewBox="0 0 72 72"
   id="svg42"
   xmlns="http://www.w3.org/2000/svg"
   xmlns:svg="http://www.w3.org/2000/svg"
   xmlns:rdf="http://www.w3.org/1999/02/22-rdf-syntax-ns#"
   xmlns:cc="http://creativecommons.org/ns#"
   xmlns:dc="http://purl.org/dc/elements/1.1/">
  <defs
     id="defs18">
    <linearGradient
       id="linearGradient3731"
       y2="38.178001"
       gradientUnits="userSpaceOnUse"
       x2="-17.424999"
       gradientTransform="scale(1,0.99479)"
       y1="128.10001"
       x1="-182.05">
      <stop
         style="stop-color:#627f8d"
         offset="0"
         id="stop2" />
      <stop
         style="stop-color:#778eae"
         offset="1"
         id="stop4" />
    </linearGradient>
    <filter
       id="filter4175"
       style="color-interpolation-filters:sRGB"
       x="-0.065365493"
       y="-0.15770028"
       width="1.129397"
       height="1.3121822">
      <feFlood
         result="flood"
         flood-opacity=".10196"
         flood-color="rgb(0,0,0)"
         id="feFlood7" />
      <feComposite
         operator="in"
         result="composite1"
         in2="SourceGraphic"
         in="flood"
         id="feComposite9" />
      <feGaussianBlur
         stdDeviation="2"
         result="blur"
         in="composite1"
         id="feGaussianBlur11" />
      <feOffset
         result="offset"
         dx="-0.1"
         dy="-0.1"
         id="feOffset13" />
      <feComposite
         operator="over"
         result="composite2"
         in2="offset"
         in="SourceGraphic"
         id="feComposite15" />
    </filter>
  </defs>
  <metadata
     id="metadata20">
    <rdf:RDF>
      <cc:Work
         rdf:about="">
        <dc:format>image/svg+xml</dc:format>
        <dc:type
           rdf:resource="http://purl.org/dc/dcmitype/StillImage" />
      </cc:Work>
    </rdf:RDF>
  </metadata>
  <g
     id="g871"
     transform="matrix(0.37499572,0,0,0.37499572,0,-5.2452231e-6)">
    <g
       id="g40">
      <rect
         style="fill:#485c68"
         rx="12"
         ry="12"
         height="192"
         width="192"
         y="-8.3922996e-06"
         x="0"
         id="rect22" />
      <rect
         style="fill:url(#linearGradient3731)"
         rx="12"
         transform="scale(-1,1)"
         ry="12"
         width="192"
         y="0"
         x="-192"
         height="191"
         id="rect24" />
      <path
         style="fill-opacity:0.08;fill-rule:evenodd"
         d="m 74.1,20.887 c -4.3537,0 -7.961,1.4914 -11.027,4.5566 -3.0643,3.065 -4.5547,6.6708 -4.5547,11.025 0,4.1955 1.399,7.6901 4.2422,10.682 l -0.01367,0.002 0.18164,0.18164 c 0.05128,0.05249 0.0943,0.10798 0.14648,0.16016 0.05934,0.05936 0.1219,0.1098 0.18164,0.16797 l 12.328,12.335 -35.576,0.002 -0.008,48 8,8 v 8 l -7.9844,-0.008 -0.016,48.03 19.982,19.98 h 120.02 c 6.648,0 12,-5.352 12,-12 v -91.461 l -62.842,-62.842 c -0.0805,-0.08356 -0.14966,-0.17114 -0.23242,-0.25391 -0.0755,-0.07545 -0.15629,-0.1374 -0.23242,-0.21094 -3.0167,-2.9142 -6.5467,-4.3457 -10.793,-4.3457 -5.0042,0 -8.8163,1.7396 -11.658,5.3262 l -10.24,13.202 -10.258,-13.225 c -2.8298,-3.5704 -6.6402,-5.3066 -11.643,-5.3066 z"
         id="path26" />
      <path
         style="fill:#ffffff;fill-opacity:0.2"
         d="m 40,59 v 1 h 48 v -1 z m 64,0 v 1 h 48 v -1 z m -16,8 v 1 h 16 V 67 Z M 48,99 v 1 h 32 v -1 z m 64,0 v 1 h 32 v -1 z m -72,24 v 1 h 8 v -1 z m 16,0 v 1 h 32 v -1 z m 48,0 v 1 h 32 v -1 z m 40,0 v 1 h 8 v -1 z m -56,32 v 1 h 16 v -1 z m -40,8 v 1 h 32 v -1 z m 64,0 v 1 h 32 v -1 z"
         id="path28" />
      <path
         style="fill-opacity:0.2"
         d="m 48,68 v 1 h 32 v -1 z m 64,0 v 1 h 32 v -1 z m -24,8 v 1 h 16 v -1 z m -48,32 v 1 h 8 v -1 z m 16,0 v 1 h 32 v -1 z m 48,0 v 1 h 32 v -1 z m 40,0 v 1 h 8 v -1 z m -96,24 v 1 h 32 v -1 z m 64,0 v 1 h 32 v -1 z m -24,32 v 1 h 16 v -1 z m -48,8 v 1 h 48 v -1 z m 64,0 v 1 h 48 v -1 z"
         id="path30" />
      <path
         style="fill-opacity:0.2"
         d="m 74.1,28.373 c -2.2373,0 -4.166,0.79594 -5.7324,2.3633 -1.5685,1.5673 -2.3633,3.496 -2.3633,5.7324 0,0.17623 0.01359,0.34716 0.02344,0.51953 0.11559,-2.0143 0.89541,-3.7676 2.3398,-5.2109 1.5664,-1.5673 3.4951,-2.3613 5.7324,-2.3613 2.4174,0 4.3908,0.89117 5.8887,2.6738 l 9.7578,12.473 h 0.81641 l -10.574,-13.516 c -1.4979,-1.7827 -3.4713,-2.6738 -5.8887,-2.6738 z m 43.801,0 c -2.4192,0 -4.3916,0.89206 -5.8652,2.6484 l -10.514,13.541 h 0.81055 l 9.7031,-12.5 c 1.4736,-1.7564 3.446,-2.6465 5.8652,-2.6465 2.2355,0 4.164,0.79399 5.7305,2.3613 1.4444,1.4444 2.2243,3.1966 2.3398,5.2109 0.01,-0.17237 0.0234,-0.3433 0.0234,-0.51953 0,-2.2364 -0.7948,-4.1659 -2.3633,-5.7344 -1.5664,-1.5673 -3.495,-2.3613 -5.7305,-2.3613 z m -59.359,8.6152 c -0.005,0.1752 -0.02344,0.34381 -0.02344,0.52148 0,4.3546 1.4905,7.9602 4.5566,11.025 2.6254,2.6263 5.637,4.0859 9.2832,4.4648 h 47.326 l 0.0391,-0.0039 c 3.5635,-0.37509 6.5736,-1.8344 9.2031,-4.4609 3.0661,-3.0663 4.5566,-6.6726 4.5566,-11.025 1e-5,-0.17758 -0.0185,-0.34637 -0.0234,-0.52148 -0.1163,4.1179 -1.5917,7.5642 -4.5332,10.506 -2.6295,2.6266 -5.6396,4.0858 -9.2031,4.4609 l -0.0391,0.0039 h -47.326 c -3.6462,-0.37898 -6.6578,-1.8385 -9.2832,-4.4648 -2.9415,-2.9406 -4.4169,-6.3864 -4.5332,-10.506 z"
         id="path32" />
      <path
         style="fill:#ffffff;fill-opacity:0.2"
         d="m 74.1,19.928 c -4.3537,0 -7.961,1.4914 -11.027,4.5566 -3.0643,3.065 -4.5547,6.6708 -4.5547,11.025 0,0.16304 0.0173,0.31757 0.02148,0.47852 0.10776,-4.1372 1.584,-7.595 4.5332,-10.545 3.0663,-3.0652 6.6737,-4.5566 11.027,-4.5566 5.0024,0 8.8128,1.7363 11.643,5.3066 l 10.258,13.224 10.24,-13.205 c 2.8419,-3.5866 6.654,-5.3262 11.658,-5.3262 4.3534,0 7.9593,1.4914 11.025,4.5566 2.9506,2.9508 4.4275,6.4099 4.5352,10.545 0.004,-0.16089 0.0215,-0.31555 0.0215,-0.47852 2.4e-4,-4.3523 -1.4908,-7.9593 -4.5566,-11.025 -3.0661,-3.0652 -6.672,-4.5566 -11.025,-4.5566 -5.0042,0 -8.8163,1.7415 -11.658,5.3281 l -10.24,13.203 -10.258,-13.225 c -2.8298,-3.5704 -6.6402,-5.3066 -11.643,-5.3066 z m -8.0742,16.061 c -0.0084,0.15966 -0.02148,0.31751 -0.02148,0.48047 0,2.2366 0.7948,4.1649 2.3633,5.7324 1.5664,1.5673 3.4972,2.3613 5.7324,2.3613 h 16.463 l -0.74805,-0.95703 h -15.715 c -2.2352,0 -4.166,-0.79594 -5.7324,-2.3633 -1.4547,-1.4538 -2.235,-3.2214 -2.3418,-5.2539 z m 59.947,0 c -0.10683,2.0325 -0.88715,3.8001 -2.3418,5.2539 -1.5664,1.5673 -3.495,2.3633 -5.7305,2.3633 h -15.637 l -0.74219,0.95703 h 16.379 c 2.2355,0 4.164,-0.79399 5.7305,-2.3613 1.5685,-1.5676 2.3633,-3.4958 2.3633,-5.7324 0,-0.16296 -0.0131,-0.3208 -0.0215,-0.48047 z"
         id="path34" />
      <path
         style="fill:#ffffff;filter:url(#filter4175)"
         d="m 40,60 v 48 h 8 v 16 h -8 v 48 h 48 v -8 h 16 v 8 h 48 v -48 h -8 v -16 h 8 V 60 h -48 v 8 H 88 v -8 z m 8,8 h 32 v 32 H 48 Z m 64,0 h 32 v 32 h -32 z m -24,8 h 16 v 32 h 32 v 16 h -32 v 32 H 88 V 124 H 56 v -16 h 32 z m -40,56 h 32 v 32 H 48 Z m 64,0 h 32 v 32 h -32 z"
         id="path36" />
      <path
         style="fill:#ffffff;filter:url(#filter4175)"
         d="m 128.93,25.443 c -3.0661,-3.0652 -6.6721,-4.5557 -11.026,-4.5557 -5.0042,0 -8.8162,1.7401 -11.658,5.3267 L 95.995,39.418 85.738,26.194 c -2.8298,-3.5704 -6.6397,-5.3066 -11.642,-5.3066 -4.3537,0 -7.9613,1.4905 -11.028,4.5557 -3.0643,3.065 -4.5537,6.6707 -4.5537,11.025 0,4.3546 1.4896,7.9604 4.5557,11.026 2.6254,2.6263 5.6369,4.0858 9.2831,4.4648 h 47.326 l 0.0404,-0.0039 c 3.5635,-0.37509 6.5729,-1.8343 9.2024,-4.4609 3.0661,-3.0663 4.5555,-6.6728 4.5555,-11.026 2.4e-4,-4.3523 -1.4894,-7.9592 -4.5553,-11.025 z M 90.566,44.564 H 74.104 c -2.2352,0 -4.1656,-0.79544 -5.732,-2.3628 -1.5685,-1.5676 -2.3628,-3.4956 -2.3628,-5.7322 0,-2.2364 0.7943,-4.1646 2.3628,-5.732 1.5664,-1.5673 3.4947,-2.3628 5.732,-2.3628 2.4174,0 4.39,0.89144 5.8879,2.6741 l 10.575,13.516 z m 10.959,0 10.514,-13.542 c 1.4736,-1.7564 3.4462,-2.6478 5.8655,-2.6478 2.2355,0 4.1637,0.7943 5.7302,2.3616 1.5685,1.5685 2.3628,3.4967 2.3628,5.7331 0,2.2366 -0.79431,4.1646 -2.3628,5.7322 -1.5664,1.5673 -3.4947,2.3628 -5.7302,2.3628 h -16.379 z"
         id="path38" />
    </g>
  </g>
</svg>
