<svg width="720" height="133" viewBox="0 0 720 133" fill="none" xmlns="http://www.w3.org/2000/svg">
<g filter="url(#filter0_dd_1463_1215)">
<rect x="41" y="21.5973" width="78.5873" height="50.0556" rx="2" fill="white"/>
<rect x="40.5" y="21.0973" width="79.5873" height="51.0556" rx="2.5" stroke="#D6DCE5"/>
<path d="M79.8132 38.4678L76.1476 55.4087H71.7152L75.3813 38.4678H79.8132ZM98.4621 49.4066L100.796 43.0447L102.139 49.4066H98.4621ZM103.408 55.4087H107.508L103.93 38.4678H100.146C99.2951 38.4678 98.5776 38.9568 98.2582 39.7106L91.6082 55.4087H96.263L97.1871 52.879H102.874L103.408 55.4087ZM91.8393 49.8774C91.8582 45.4061 85.5852 45.16 85.6285 43.1626C85.6416 42.5541 86.2278 41.9085 87.5082 41.7428C88.1444 41.6608 89.8934 41.598 91.8794 42.5015L92.6571 38.909C91.5903 38.5262 90.2177 38.1578 88.5105 38.1578C84.1296 38.1578 81.0459 40.4608 81.0199 43.7584C80.9922 46.1969 83.2212 47.5578 84.9007 48.3685C86.6275 49.1991 87.2078 49.731 87.2002 50.4736C87.1888 51.6109 85.8227 52.1117 84.5482 52.1315C82.3193 52.1664 81.0258 51.5369 79.9949 51.0618L79.1917 54.7739C80.227 55.2441 82.1387 55.6527 84.122 55.6736C88.7778 55.6736 91.8241 53.3991 91.8393 49.8774ZM73.4794 38.4678L66.2979 55.4087H61.6117L58.0779 41.8887C57.8631 41.0559 57.6766 40.7514 57.0241 40.4002C55.9596 39.8291 54.1997 39.2924 52.6514 38.96L52.7571 38.4678H60.2992C61.2602 38.4678 62.1252 39.1005 62.3433 40.1948L64.2099 49.9985L68.8224 38.4678H73.4794Z" fill="#1434CB"/>
</g>
<path d="M185.717 21.5973H139.587V71.6529H185.717V21.5973Z" fill="#1C3378"/>
<path d="M184.563 54.1039H140.742V22.7535H184.563V54.1039Z" fill="white"/>
<path d="M173.737 28.4441L165.139 49.0014H159.521L155.289 32.5919C155.034 31.5835 154.809 31.2138 154.031 30.7835C152.749 30.0945 150.641 29.4424 148.789 29.0357L148.913 28.4441H157.947C159.098 28.4441 160.135 29.2104 160.397 30.5348L162.635 42.4302L168.159 28.4441H173.737Z" fill="#1C3378"/>
<path d="M152.954 62.1373C153.158 62.1944 153.43 62.2112 153.769 62.2112C155.018 62.2112 155.779 61.5692 155.779 60.4499C155.779 59.3877 155.075 58.8197 153.917 58.8197C153.46 58.8197 153.132 58.8634 152.954 58.9071V62.1373ZM151.299 57.687C151.897 57.5727 152.726 57.4886 153.853 57.4886C155.075 57.4886 155.967 57.7575 156.551 58.2685C157.095 58.7357 157.447 59.4852 157.447 60.3827C157.447 61.2869 157.175 62.0364 156.659 62.5507C155.994 63.2431 154.95 63.5691 153.769 63.5691C153.46 63.5691 153.172 63.5523 152.954 63.512V67.1152H151.299V57.687Z" fill="white"/>
<path d="M163.729 63.0884L163.011 60.7356C162.833 60.1541 162.686 59.502 162.548 58.9474H162.521C162.387 59.502 162.249 60.1709 162.088 60.7356L161.384 63.0884H163.729ZM161.112 64.4061L160.323 67.1152H158.602L161.531 57.5592H163.662L166.635 67.1152H164.843L164.015 64.4061H161.112Z" fill="white"/>
<path d="M170.149 67.1152V63.1288L167.26 57.5592H169.156L170.257 60.0095C170.569 60.7221 170.797 61.2566 171.045 61.912H171.069C171.3 61.3003 171.562 60.7053 171.871 60.0095L172.971 57.5592H174.857L171.817 63.0884V67.1152H170.149Z" fill="white"/>
<g filter="url(#filter1_dd_1463_1215)">
<rect x="205.717" y="21.5973" width="78.5873" height="50.0556" rx="2" fill="white"/>
<rect x="205.217" y="21.0973" width="79.5873" height="51.0556" rx="2.5" stroke="#D6DCE5"/>
<path d="M250.656 36.3461H239.085V56.904H250.656V36.3461Z" fill="#FF5F00"/>
<path d="M239.82 46.625C239.818 44.6451 240.272 42.6908 241.147 40.9099C242.022 39.1291 243.295 37.5684 244.87 36.3461C242.92 34.83 240.577 33.8873 238.11 33.6255C235.643 33.3637 233.151 33.7934 230.919 34.8656C228.687 35.9377 226.806 37.6091 225.489 39.6886C224.173 41.7681 223.475 44.1718 223.475 46.625C223.475 49.0782 224.173 51.4819 225.489 53.5614C226.806 55.6409 228.687 57.3123 230.919 58.3844C233.151 59.4566 235.643 59.8864 238.11 59.6246C240.577 59.3628 242.92 58.42 244.87 56.904C243.295 55.6816 242.022 54.1209 241.147 52.3401C240.272 50.5592 239.818 48.6049 239.82 46.625Z" fill="#EB001B"/>
<path d="M266.265 46.625C266.266 49.0782 265.568 51.4819 264.251 53.5614C262.935 55.6409 261.053 57.3122 258.822 58.3844C256.59 59.4566 254.098 59.8864 251.631 59.6246C249.164 59.3628 246.821 58.42 244.87 56.904C246.444 55.6804 247.717 54.1194 248.592 52.3389C249.466 50.5583 249.921 48.6046 249.921 46.625C249.921 44.6454 249.466 42.6917 248.592 40.9112C247.717 39.1306 246.444 37.5697 244.87 36.3461C246.821 34.83 249.164 33.8872 251.631 33.6254C254.098 33.3637 256.59 33.7934 258.822 34.8656C261.053 35.9378 262.935 37.6091 264.251 39.6886C265.568 41.7681 266.266 44.1718 266.265 46.625Z" fill="#F79E1B"/>
<path d="M265.004 54.7266V54.3057H265.176V54.2199H264.738V54.3057H264.91V54.7266H265.004ZM265.853 54.7266V54.2191H265.719L265.564 54.5681L265.41 54.2191H265.276V54.7266H265.371V54.3438L265.515 54.6738H265.613L265.758 54.3429V54.7266H265.853Z" fill="#F79E1B"/>
</g>
<g filter="url(#filter2_dd_1463_1215)">
<rect x="304.304" y="21.5973" width="78.5873" height="50.0556" rx="2" fill="white"/>
<rect x="303.804" y="21.0973" width="79.5873" height="51.0556" rx="2.5" stroke="#D6DCE5"/>
<path fill-rule="evenodd" clip-rule="evenodd" d="M382.921 31.0335H376.416L373.016 40.6803L369.468 31.0335H362.816V46.0542L356.015 31.0335H350.546L343.745 46.3803H348.476L349.806 43.3111H356.903L358.233 46.3803H367.103V35.7105L371.094 46.3803H374.79L378.782 35.7105V46.3803H382.921V48.7188H377.451L373.016 53.5422L368.433 48.7188H349.659V64.0656H368.286L372.868 59.0963L377.451 64.0656H382.921V65.9654H376.416L372.868 62.1655L369.32 65.9654H347.293V48.4264H340.197L349.067 28.6946H357.642L360.746 35.4181V28.6946H371.39L373.164 33.8103L374.938 28.6946H382.921V31.0335ZM382.921 52.0804L378.93 56.319L382.921 60.5577V64.0656L375.677 56.319L382.921 48.7188V52.0804ZM362.816 64.0656V60.4117H353.946V58.0732H362.668V54.5653H353.946V52.2268H362.816V48.7188L370.207 56.319L362.816 64.0656ZM351.137 39.9491L353.207 34.9798L355.276 39.9491H351.137Z" fill="#006FCF"/>
</g>
<g filter="url(#filter3_dd_1463_1215)">
<rect x="402.892" y="21.5973" width="78.5873" height="50.0556" rx="2" fill="white"/>
<rect x="402.392" y="21.0973" width="79.5873" height="51.0556" rx="2.5" stroke="#D6DCE5"/>
<path d="M428.31 40.0685C428.834 39.4201 429.19 38.5495 429.096 37.6599C428.329 37.6976 427.392 38.1605 426.85 38.8094C426.363 39.3651 425.932 40.2721 426.045 41.1244C426.906 41.1983 427.767 40.6987 428.31 40.0685Z" fill="#000008"/>
<path d="M429.087 41.2909C427.835 41.2172 426.772 41.9929 426.174 41.9929C425.576 41.9929 424.661 41.328 423.672 41.3459C422.384 41.3646 421.188 42.0847 420.535 43.2299C419.19 45.5209 420.18 48.9192 421.487 50.7851C422.122 51.7082 422.887 52.7246 423.896 52.6881C424.848 52.6511 425.222 52.0782 426.379 52.0782C427.536 52.0782 427.873 52.6881 428.881 52.6696C429.927 52.6511 430.581 51.746 431.216 50.822C431.944 49.7697 432.242 48.7536 432.261 48.6979C432.242 48.6794 430.244 47.9217 430.226 45.6498C430.207 43.7474 431.794 42.8426 431.869 42.7865C430.973 41.4758 429.572 41.328 429.087 41.2909Z" fill="#000008"/>
<path d="M439.981 38.7164C442.7 38.7164 444.594 40.5697 444.594 43.268C444.594 45.976 442.662 47.839 439.913 47.839H436.902V52.5731H434.726V38.7164L439.981 38.7164ZM436.902 46.0336H439.398C441.292 46.0336 442.37 45.0254 442.37 43.2777C442.37 41.5301 441.292 40.5314 439.408 40.5314H436.902V46.0336Z" fill="#000008"/>
<path d="M445.162 49.7019C445.162 47.9349 446.532 46.8499 448.96 46.7154L451.757 46.5522V45.7744C451.757 44.6509 450.99 43.9787 449.708 43.9787C448.494 43.9787 447.736 44.5548 447.552 45.4575H445.571C445.687 43.6329 447.26 42.2885 449.786 42.2885C452.262 42.2885 453.845 43.5849 453.845 45.6111V52.5731H451.835V50.9118H451.787C451.194 52.0354 449.902 52.7459 448.562 52.7459C446.561 52.7459 445.162 51.5167 445.162 49.7019ZM451.757 48.7897V47.9927L449.242 48.1462C447.989 48.2327 447.28 48.7801 447.28 49.6443C447.28 50.5276 448.018 51.1039 449.145 51.1039C450.611 51.1039 451.757 50.1051 451.757 48.7897Z" fill="#000008"/>
<path d="M455.744 56.2894V54.6088C455.899 54.6472 456.248 54.6472 456.423 54.6472C457.394 54.6472 457.919 54.244 458.239 53.2069C458.239 53.1876 458.424 52.5923 458.424 52.5827L454.733 42.471H457.006L459.59 50.691H459.628L462.212 42.471H464.427L460.599 53.1011C459.726 55.55 458.716 56.3374 456.598 56.3374C456.423 56.3374 455.899 56.3181 455.744 56.2894Z" fill="#000008"/>
</g>
<g filter="url(#filter4_dd_1463_1215)">
<rect x="501.479" y="21.5973" width="78.5873" height="50.0556" rx="2" fill="white"/>
<rect x="500.979" y="21.0973" width="79.5873" height="51.0556" rx="2.5" stroke="#D6DCE5"/>
<path d="M539.064 52.6239H537.297V39.0254H541.983C543.17 39.0254 544.183 39.4168 545.011 40.1996C545.858 40.9824 546.282 41.9381 546.282 43.0668C546.282 44.2227 545.858 45.1784 545.011 45.9521C544.192 46.7258 543.179 47.1081 541.983 47.1081H539.064V52.6239ZM539.064 40.7002V45.4424H542.019C542.719 45.4424 543.308 45.2057 543.769 44.7415C544.238 44.2773 544.477 43.713 544.477 43.0758C544.477 42.4478 544.238 41.8926 543.769 41.4284C543.308 40.946 542.728 40.7093 542.019 40.7093H539.064V40.7002Z" fill="#3C4043"/>
<path d="M550.903 43.0121C552.21 43.0121 553.241 43.358 553.996 44.0498C554.751 44.7415 555.129 45.6881 555.129 46.8896V52.6239H553.444V51.3314H553.37C552.643 52.3963 551.667 52.9243 550.452 52.9243C549.412 52.9243 548.546 52.6239 547.847 52.0141C547.147 51.4042 546.797 50.6487 546.797 49.7385C546.797 48.7737 547.165 48.0092 547.902 47.4448C548.638 46.8714 549.623 46.5892 550.848 46.5892C551.897 46.5892 552.763 46.7804 553.435 47.1627V46.7622C553.435 46.1523 553.195 45.6426 552.708 45.2148C552.22 44.787 551.649 44.5777 550.995 44.5777C550.01 44.5777 549.228 44.9873 548.657 45.8156L547.101 44.8507C547.957 43.622 549.228 43.0121 550.903 43.0121ZM548.62 49.7658C548.62 50.2209 548.813 50.6032 549.209 50.9036C549.596 51.204 550.056 51.3587 550.581 51.3587C551.327 51.3587 551.989 51.0856 552.569 50.5395C553.149 49.9934 553.444 49.3563 553.444 48.619C552.892 48.1912 552.128 47.9727 551.142 47.9727C550.424 47.9727 549.826 48.1457 549.347 48.4825C548.859 48.8374 548.62 49.2652 548.62 49.7658Z" fill="#3C4043"/>
<path d="M564.74 43.3126L558.848 56.7108H557.025L559.216 52.0232L555.331 43.3126H557.255L560.054 49.9935H560.091L562.816 43.3126H564.74Z" fill="#3C4043"/>
<path d="M532.033 46.0067C532.033 45.4369 531.982 44.8917 531.886 44.3674H524.477V47.3711L528.744 47.372C528.571 48.3714 528.014 49.2234 527.161 49.7913V51.7401H529.701C531.184 50.383 532.033 48.3769 532.033 46.0067Z" fill="#4285F4"/>
<path d="M527.161 49.7914C526.454 50.2629 525.544 50.5387 524.479 50.5387C522.421 50.5387 520.676 49.1679 520.051 47.3202H517.431V49.33C518.729 51.8767 521.397 53.6243 524.479 53.6243C526.609 53.6243 528.399 52.9316 529.701 51.7393L527.161 49.7914Z" fill="#34A853"/>
<path d="M519.804 45.8292C519.804 45.3104 519.891 44.8089 520.051 44.3374V42.3277H517.43C516.894 43.3808 516.592 44.5695 516.592 45.8292C516.592 47.0889 516.895 48.2777 517.43 49.3308L520.051 47.321C519.891 46.8495 519.804 46.348 519.804 45.8292Z" fill="#FABB05"/>
<path d="M524.479 41.1189C525.642 41.1189 526.683 41.5149 527.505 42.2885L529.756 40.0649C528.389 38.8061 526.606 38.0333 524.479 38.0333C521.397 38.0333 518.729 39.7809 517.43 42.3277L520.051 44.3374C520.676 42.4897 522.421 41.1189 524.479 41.1189Z" fill="#E94235"/>
</g>
<g filter="url(#filter5_dd_1463_1215)">
<rect x="600.066" y="21.5973" width="78.0868" height="50.0556" rx="2" fill="white"/>
<rect x="599.566" y="21.0973" width="79.0868" height="51.0556" rx="2.5" stroke="#D6DCE5"/>
<path d="M631.646 61.402V59.4232C631.657 59.2572 631.633 59.0906 631.575 58.9346C631.517 58.7786 631.426 58.6368 631.308 58.5185C631.191 58.4002 631.049 58.3082 630.893 58.2487C630.737 58.1891 630.57 58.1634 630.403 58.1732C630.184 58.1589 629.965 58.2034 629.769 58.302C629.573 58.4006 629.407 58.5497 629.289 58.7338C629.181 58.5553 629.027 58.4089 628.843 58.3103C628.658 58.2116 628.451 58.1642 628.242 58.1732C628.059 58.164 627.878 58.2024 627.715 58.2845C627.552 58.3667 627.414 58.4897 627.313 58.6415V58.2523H626.624V61.402H627.32V59.6573C627.305 59.5494 627.314 59.4394 627.346 59.3353C627.379 59.2312 627.434 59.1356 627.508 59.0554C627.582 58.9753 627.674 58.9125 627.775 58.8717C627.877 58.8309 627.986 58.8131 628.096 58.8196C628.553 58.8196 628.785 59.1164 628.785 59.6507V61.402H629.481V59.6573C629.467 59.5496 629.477 59.4401 629.51 59.3365C629.543 59.233 629.598 59.1379 629.672 59.058C629.746 58.9781 629.837 58.9153 629.938 58.8741C630.039 58.833 630.148 58.8143 630.257 58.8196C630.727 58.8196 630.953 59.1164 630.953 59.6507V61.402H631.646ZM635.524 59.8288V58.2556H634.828V58.6382C634.711 58.4881 634.56 58.3679 634.387 58.2876C634.214 58.2073 634.024 58.1692 633.833 58.1765C633.394 58.1765 632.972 58.3502 632.661 58.6595C632.351 58.9687 632.176 59.3882 632.176 59.8255C632.176 60.2629 632.351 60.6823 632.661 60.9916C632.972 61.3008 633.394 61.4746 633.833 61.4746C634.024 61.4819 634.214 61.4438 634.387 61.3634C634.56 61.2831 634.711 61.1629 634.828 61.0128V61.3954H635.517L635.524 59.8288ZM632.962 59.8288C632.973 59.6432 633.038 59.4649 633.149 59.3158C633.261 59.1666 633.414 59.0532 633.589 58.9895C633.765 58.9258 633.955 58.9145 634.137 58.9571C634.319 58.9997 634.485 59.0943 634.613 59.2292C634.742 59.3642 634.828 59.5336 634.861 59.7166C634.894 59.8996 634.872 60.0882 634.799 60.2592C634.725 60.4302 634.603 60.5761 634.448 60.6789C634.292 60.7818 634.11 60.8371 633.923 60.838C633.791 60.8411 633.66 60.8168 633.538 60.7665C633.416 60.7163 633.306 60.6412 633.215 60.5462C633.124 60.4512 633.053 60.3383 633.009 60.2148C632.964 60.0913 632.946 59.9598 632.955 59.8288H632.962ZM650.254 58.1798C650.481 58.1792 650.706 58.2217 650.917 58.3051C651.118 58.3853 651.302 58.5041 651.457 58.6547C651.61 58.8039 651.732 58.9822 651.815 59.1791C651.988 59.602 651.988 60.0755 651.815 60.4983C651.732 60.6952 651.61 60.8736 651.457 61.0227C651.302 61.1733 651.118 61.2921 650.917 61.3723C650.48 61.5413 649.995 61.5413 649.558 61.3723C649.357 61.2922 649.175 61.1734 649.021 61.0227C648.869 60.873 648.748 60.6947 648.666 60.4983C648.493 60.0754 648.493 59.602 648.666 59.1791C648.748 58.9827 648.869 58.8044 649.021 58.6547C649.175 58.5041 649.357 58.3852 649.558 58.3051C649.776 58.215 650.011 58.169 650.247 58.1699L650.254 58.1798ZM650.254 58.8394C650.119 58.8376 649.985 58.8622 649.859 58.9119C649.741 58.9591 649.634 59.0298 649.544 59.1197C649.453 59.2144 649.382 59.3266 649.336 59.4495C649.234 59.7129 649.234 60.0041 649.336 60.2675C649.382 60.3904 649.453 60.5027 649.544 60.5973C649.634 60.6873 649.741 60.758 649.859 60.8051C650.112 60.9034 650.392 60.9034 650.645 60.8051C650.769 60.7595 650.882 60.6888 650.976 60.5973C651.068 60.5028 651.139 60.3905 651.185 60.2675C651.286 60.0041 651.286 59.7129 651.185 59.4495C651.139 59.3265 651.068 59.2142 650.976 59.1197C650.882 59.0283 650.769 58.9575 650.645 58.9119C650.52 58.855 650.385 58.8236 650.247 58.8196L650.254 58.8394ZM639.269 59.8288C639.269 58.8394 638.653 58.1798 637.768 58.1798C637.328 58.1859 636.909 58.3655 636.603 58.6791C636.296 58.9927 636.127 59.4145 636.134 59.8519C636.14 60.2893 636.32 60.7063 636.635 61.0112C636.951 61.3161 637.375 61.484 637.814 61.4779C638.286 61.4939 638.747 61.3366 639.11 61.0359L638.779 60.528C638.517 60.7369 638.193 60.8529 637.857 60.8578C637.629 60.8773 637.403 60.8076 637.226 60.6635C637.049 60.5194 636.935 60.3122 636.909 60.0861H639.259C639.269 60.0036 639.269 59.9212 639.269 59.8288ZM636.913 59.5518C636.925 59.3424 637.019 59.1461 637.174 59.0041C637.329 58.862 637.534 58.7853 637.744 58.7899C637.848 58.7877 637.95 58.8058 638.046 58.8431C638.143 58.8803 638.23 58.9361 638.305 59.0071C638.379 59.0782 638.439 59.1632 638.481 59.2572C638.522 59.3512 638.544 59.4524 638.547 59.5551L636.913 59.5518ZM642.169 59.0571C641.867 58.8836 641.524 58.7905 641.175 58.7866C640.797 58.7866 640.572 58.9251 640.572 59.156C640.572 59.3869 640.81 59.4264 641.109 59.466L641.44 59.5122C642.13 59.6111 642.547 59.9014 642.547 60.4555C642.547 61.0095 642.017 61.4845 641.106 61.4845C640.617 61.4974 640.137 61.3541 639.737 61.0755L640.068 60.5412C640.372 60.7658 640.743 60.8819 641.122 60.871C641.593 60.871 641.845 60.7325 641.845 60.4884C641.845 60.3103 641.666 60.2114 641.288 60.1586L640.956 60.1125C640.247 60.0135 639.863 59.6969 639.863 59.1824C639.863 58.5557 640.38 58.1732 641.188 58.1732C641.641 58.1581 642.089 58.2725 642.478 58.503L642.169 59.0571ZM645.484 58.879H644.36V60.3004C644.36 60.6303 644.473 60.8281 644.818 60.8281C645.033 60.8211 645.243 60.7598 645.428 60.6501L645.627 61.2371C645.368 61.3976 645.069 61.4822 644.765 61.4812C643.949 61.4812 643.664 61.0458 643.664 60.3136V58.879H643.021V58.2523H643.664V57.2959H644.36V58.2523H645.484V58.879ZM647.867 58.1732C648.035 58.1738 648.2 58.2028 648.358 58.2589L648.146 58.9185C648.009 58.8642 647.862 58.8373 647.715 58.8394C647.264 58.8394 647.052 59.1296 647.052 59.6507V61.4152H646.362V58.2655H647.045V58.6481C647.13 58.5035 647.252 58.3843 647.399 58.303C647.546 58.2217 647.712 58.1814 647.881 58.1864L647.867 58.1732ZM652.634 60.9436C652.677 60.9431 652.72 60.9509 652.76 60.9667C652.798 60.9821 652.833 61.0045 652.862 61.0326C652.892 61.0611 652.915 61.0946 652.932 61.1316C652.949 61.1701 652.957 61.2116 652.957 61.2536C652.957 61.2956 652.949 61.3371 652.932 61.3756C652.915 61.4126 652.892 61.4461 652.862 61.4746C652.833 61.5027 652.798 61.5251 652.76 61.5405C652.72 61.558 652.677 61.567 652.634 61.5669C652.571 61.5665 652.509 61.5482 652.457 61.5144C652.404 61.4805 652.362 61.4324 652.335 61.3756C652.319 61.3371 652.31 61.2956 652.31 61.2536C652.31 61.2117 652.319 61.1701 652.335 61.1316C652.352 61.0946 652.376 61.0611 652.405 61.0326C652.435 61.0045 652.47 60.9821 652.508 60.9667C652.543 60.9529 652.58 60.9451 652.617 60.9436H652.634ZM652.634 61.501C652.667 61.5012 652.7 61.4944 652.73 61.4812C652.758 61.4685 652.784 61.4506 652.806 61.4284C652.834 61.4002 652.855 61.3657 652.867 61.3277C652.878 61.2897 652.88 61.2495 652.873 61.2105C652.865 61.1715 652.848 61.1349 652.824 61.1039C652.799 61.0729 652.766 61.0485 652.73 61.0326C652.7 61.0195 652.667 61.0127 652.634 61.0128C652.601 61.013 652.568 61.0197 652.538 61.0326C652.508 61.0448 652.481 61.0627 652.458 61.0854C652.417 61.1304 652.394 61.1892 652.394 61.2503C652.394 61.3114 652.417 61.3702 652.458 61.4152C652.481 61.4383 652.508 61.4567 652.539 61.4691C652.569 61.4816 652.601 61.4879 652.634 61.4878V61.501ZM652.654 61.1085C652.685 61.107 652.715 61.1163 652.74 61.1349C652.75 61.1432 652.758 61.1539 652.763 61.1659C652.768 61.178 652.771 61.1911 652.77 61.2041C652.77 61.2151 652.768 61.226 652.764 61.2362C652.76 61.2465 652.754 61.2557 652.746 61.2635C652.727 61.2809 652.703 61.2913 652.677 61.2932L652.773 61.402H652.697L652.607 61.2932H652.577V61.402H652.514V61.0986L652.654 61.1085ZM652.581 61.1646V61.2437H652.654C652.667 61.2476 652.68 61.2476 652.693 61.2437C652.696 61.2391 652.697 61.234 652.697 61.2289C652.697 61.2237 652.696 61.2186 652.693 61.214C652.696 61.2094 652.697 61.2043 652.697 61.1992C652.697 61.194 652.696 61.1889 652.693 61.1843C652.68 61.1805 652.667 61.1805 652.654 61.1843L652.581 61.1646Z" fill="#000008"/>
<path d="M644.49 34.2223H634.049V52.8929H644.49V34.2223Z" fill="#7673C0"/>
<path d="M634.712 43.5592C634.71 41.7609 635.119 39.9856 635.909 38.368C636.698 36.7503 637.847 35.3326 639.269 34.2223C637.509 32.8457 635.395 31.9897 633.169 31.7521C630.943 31.5145 628.694 31.9049 626.68 32.8786C624.667 33.8523 622.969 35.3702 621.781 37.2586C620.593 39.147 619.963 41.3298 619.963 43.5576C619.963 45.7854 620.593 47.9682 621.781 49.8566C622.969 51.745 624.667 53.2629 626.68 54.2366C628.694 55.2103 630.943 55.6007 633.169 55.3631C635.395 55.1255 637.509 54.2695 639.269 52.8929C637.848 51.7829 636.699 50.3657 635.909 48.7487C635.12 47.1316 634.71 45.3571 634.712 43.5592Z" fill="#EB001B"/>
<path d="M657.437 50.914V50.5446H657.592V50.4655H657.198V50.5446H657.354V50.9272L657.437 50.914ZM658.202 50.914V50.4523H658.083L657.944 50.7821L657.804 50.4523H657.682V50.914H657.768V50.5677L657.897 50.8678H657.987L658.116 50.5677V50.9173L658.202 50.914Z" fill="#00A1DF"/>
<path d="M658.573 43.5592C658.573 45.7866 657.943 47.9689 656.755 49.8568C655.567 51.7447 653.869 53.2621 651.856 54.2355C649.843 55.209 647.595 55.5993 645.369 55.3619C643.143 55.1245 641.029 54.2689 639.269 52.8929C640.69 51.7819 641.839 50.3644 642.628 48.7472C643.418 47.1301 643.829 45.3556 643.829 43.5576C643.829 41.7596 643.418 39.9851 642.628 38.3679C641.839 36.7508 640.69 35.3333 639.269 34.2223C641.029 32.8453 643.144 31.9889 645.37 31.7509C647.596 31.513 649.845 31.9031 651.859 32.8767C653.873 33.8503 655.571 35.368 656.759 37.2565C657.947 39.145 658.577 41.328 658.577 43.5559L658.573 43.5592Z" fill="#00A1DF"/>
</g>
<defs>
<filter id="filter0_dd_1463_1215" x="0" y="0.59729" width="160.587" height="132.056" filterUnits="userSpaceOnUse" color-interpolation-filters="sRGB">
<feFlood flood-opacity="0" result="BackgroundImageFix"/>
<feColorMatrix in="SourceAlpha" type="matrix" values="0 0 0 0 0 0 0 0 0 0 0 0 0 0 0 0 0 0 127 0" result="hardAlpha"/>
<feOffset dy="2"/>
<feGaussianBlur stdDeviation="10"/>
<feColorMatrix type="matrix" values="0 0 0 0 0.717647 0 0 0 0 0.717647 0 0 0 0 0.717647 0 0 0 0.08 0"/>
<feBlend mode="normal" in2="BackgroundImageFix" result="effect1_dropShadow_1463_1215"/>
<feColorMatrix in="SourceAlpha" type="matrix" values="0 0 0 0 0 0 0 0 0 0 0 0 0 0 0 0 0 0 127 0" result="hardAlpha"/>
<feOffset dy="20"/>
<feGaussianBlur stdDeviation="20"/>
<feColorMatrix type="matrix" values="0 0 0 0 0.717647 0 0 0 0 0.717647 0 0 0 0 0.717647 0 0 0 0.08 0"/>
<feBlend mode="normal" in2="effect1_dropShadow_1463_1215" result="effect2_dropShadow_1463_1215"/>
<feBlend mode="normal" in="SourceGraphic" in2="effect2_dropShadow_1463_1215" result="shape"/>
</filter>
<filter id="filter1_dd_1463_1215" x="164.717" y="0.59729" width="160.587" height="132.056" filterUnits="userSpaceOnUse" color-interpolation-filters="sRGB">
<feFlood flood-opacity="0" result="BackgroundImageFix"/>
<feColorMatrix in="SourceAlpha" type="matrix" values="0 0 0 0 0 0 0 0 0 0 0 0 0 0 0 0 0 0 127 0" result="hardAlpha"/>
<feOffset dy="2"/>
<feGaussianBlur stdDeviation="10"/>
<feColorMatrix type="matrix" values="0 0 0 0 0.717647 0 0 0 0 0.717647 0 0 0 0 0.717647 0 0 0 0.08 0"/>
<feBlend mode="normal" in2="BackgroundImageFix" result="effect1_dropShadow_1463_1215"/>
<feColorMatrix in="SourceAlpha" type="matrix" values="0 0 0 0 0 0 0 0 0 0 0 0 0 0 0 0 0 0 127 0" result="hardAlpha"/>
<feOffset dy="20"/>
<feGaussianBlur stdDeviation="20"/>
<feColorMatrix type="matrix" values="0 0 0 0 0.717647 0 0 0 0 0.717647 0 0 0 0 0.717647 0 0 0 0.08 0"/>
<feBlend mode="normal" in2="effect1_dropShadow_1463_1215" result="effect2_dropShadow_1463_1215"/>
<feBlend mode="normal" in="SourceGraphic" in2="effect2_dropShadow_1463_1215" result="shape"/>
</filter>
<filter id="filter2_dd_1463_1215" x="263.304" y="0.59729" width="160.587" height="132.056" filterUnits="userSpaceOnUse" color-interpolation-filters="sRGB">
<feFlood flood-opacity="0" result="BackgroundImageFix"/>
<feColorMatrix in="SourceAlpha" type="matrix" values="0 0 0 0 0 0 0 0 0 0 0 0 0 0 0 0 0 0 127 0" result="hardAlpha"/>
<feOffset dy="2"/>
<feGaussianBlur stdDeviation="10"/>
<feColorMatrix type="matrix" values="0 0 0 0 0.717647 0 0 0 0 0.717647 0 0 0 0 0.717647 0 0 0 0.08 0"/>
<feBlend mode="normal" in2="BackgroundImageFix" result="effect1_dropShadow_1463_1215"/>
<feColorMatrix in="SourceAlpha" type="matrix" values="0 0 0 0 0 0 0 0 0 0 0 0 0 0 0 0 0 0 127 0" result="hardAlpha"/>
<feOffset dy="20"/>
<feGaussianBlur stdDeviation="20"/>
<feColorMatrix type="matrix" values="0 0 0 0 0.717647 0 0 0 0 0.717647 0 0 0 0 0.717647 0 0 0 0.08 0"/>
<feBlend mode="normal" in2="effect1_dropShadow_1463_1215" result="effect2_dropShadow_1463_1215"/>
<feBlend mode="normal" in="SourceGraphic" in2="effect2_dropShadow_1463_1215" result="shape"/>
</filter>
<filter id="filter3_dd_1463_1215" x="361.892" y="0.59729" width="160.587" height="132.056" filterUnits="userSpaceOnUse" color-interpolation-filters="sRGB">
<feFlood flood-opacity="0" result="BackgroundImageFix"/>
<feColorMatrix in="SourceAlpha" type="matrix" values="0 0 0 0 0 0 0 0 0 0 0 0 0 0 0 0 0 0 127 0" result="hardAlpha"/>
<feOffset dy="2"/>
<feGaussianBlur stdDeviation="10"/>
<feColorMatrix type="matrix" values="0 0 0 0 0.717647 0 0 0 0 0.717647 0 0 0 0 0.717647 0 0 0 0.08 0"/>
<feBlend mode="normal" in2="BackgroundImageFix" result="effect1_dropShadow_1463_1215"/>
<feColorMatrix in="SourceAlpha" type="matrix" values="0 0 0 0 0 0 0 0 0 0 0 0 0 0 0 0 0 0 127 0" result="hardAlpha"/>
<feOffset dy="20"/>
<feGaussianBlur stdDeviation="20"/>
<feColorMatrix type="matrix" values="0 0 0 0 0.717647 0 0 0 0 0.717647 0 0 0 0 0.717647 0 0 0 0.08 0"/>
<feBlend mode="normal" in2="effect1_dropShadow_1463_1215" result="effect2_dropShadow_1463_1215"/>
<feBlend mode="normal" in="SourceGraphic" in2="effect2_dropShadow_1463_1215" result="shape"/>
</filter>
<filter id="filter4_dd_1463_1215" x="460.479" y="0.59729" width="160.587" height="132.056" filterUnits="userSpaceOnUse" color-interpolation-filters="sRGB">
<feFlood flood-opacity="0" result="BackgroundImageFix"/>
<feColorMatrix in="SourceAlpha" type="matrix" values="0 0 0 0 0 0 0 0 0 0 0 0 0 0 0 0 0 0 127 0" result="hardAlpha"/>
<feOffset dy="2"/>
<feGaussianBlur stdDeviation="10"/>
<feColorMatrix type="matrix" values="0 0 0 0 0.717647 0 0 0 0 0.717647 0 0 0 0 0.717647 0 0 0 0.08 0"/>
<feBlend mode="normal" in2="BackgroundImageFix" result="effect1_dropShadow_1463_1215"/>
<feColorMatrix in="SourceAlpha" type="matrix" values="0 0 0 0 0 0 0 0 0 0 0 0 0 0 0 0 0 0 127 0" result="hardAlpha"/>
<feOffset dy="20"/>
<feGaussianBlur stdDeviation="20"/>
<feColorMatrix type="matrix" values="0 0 0 0 0.717647 0 0 0 0 0.717647 0 0 0 0 0.717647 0 0 0 0.08 0"/>
<feBlend mode="normal" in2="effect1_dropShadow_1463_1215" result="effect2_dropShadow_1463_1215"/>
<feBlend mode="normal" in="SourceGraphic" in2="effect2_dropShadow_1463_1215" result="shape"/>
</filter>
<filter id="filter5_dd_1463_1215" x="559.066" y="0.59729" width="160.087" height="132.056" filterUnits="userSpaceOnUse" color-interpolation-filters="sRGB">
<feFlood flood-opacity="0" result="BackgroundImageFix"/>
<feColorMatrix in="SourceAlpha" type="matrix" values="0 0 0 0 0 0 0 0 0 0 0 0 0 0 0 0 0 0 127 0" result="hardAlpha"/>
<feOffset dy="2"/>
<feGaussianBlur stdDeviation="10"/>
<feColorMatrix type="matrix" values="0 0 0 0 0.717647 0 0 0 0 0.717647 0 0 0 0 0.717647 0 0 0 0.08 0"/>
<feBlend mode="normal" in2="BackgroundImageFix" result="effect1_dropShadow_1463_1215"/>
<feColorMatrix in="SourceAlpha" type="matrix" values="0 0 0 0 0 0 0 0 0 0 0 0 0 0 0 0 0 0 127 0" result="hardAlpha"/>
<feOffset dy="20"/>
<feGaussianBlur stdDeviation="20"/>
<feColorMatrix type="matrix" values="0 0 0 0 0.717647 0 0 0 0 0.717647 0 0 0 0 0.717647 0 0 0 0.08 0"/>
<feBlend mode="normal" in2="effect1_dropShadow_1463_1215" result="effect2_dropShadow_1463_1215"/>
<feBlend mode="normal" in="SourceGraphic" in2="effect2_dropShadow_1463_1215" result="shape"/>
</filter>
</defs>
</svg>
