<svg width="48" height="48" viewBox="0 0 48 48" fill="none" xmlns="http://www.w3.org/2000/svg">
<path d="M37.7211 18.4001C37.7211 18.4001 37.4477 16.4696 36.6055 15.622C35.5391 14.5063 34.3469 14.5009 33.8 14.4353C29.8844 14.1509 24.0055 14.1509 24.0055 14.1509H23.9945C23.9945 14.1509 18.1156 14.1509 14.2 14.4353C13.6531 14.5009 12.4609 14.5063 11.3945 15.622C10.5523 16.4696 10.2844 18.4001 10.2844 18.4001C10.2844 18.4001 10 20.6696 10 22.9337V25.0556C10 27.3196 10.2789 29.5892 10.2789 29.5892C10.2789 29.5892 10.5523 31.5196 11.3891 32.3673C12.4555 33.4829 13.8555 33.4446 14.4789 33.5649C16.7211 33.7782 24 33.8438 24 33.8438C24 33.8438 29.8844 33.8329 33.8 33.554C34.3469 33.4884 35.5391 33.4829 36.6055 32.3673C37.4477 31.5196 37.7211 29.5892 37.7211 29.5892C37.7211 29.5892 38 27.3251 38 25.0556V22.9337C38 20.6696 37.7211 18.4001 37.7211 18.4001ZM21.107 27.6313V19.7618L28.6703 23.7103L21.107 27.6313Z" fill="white"/>
</svg>
