<svg width="48" height="48" viewBox="0 0 48 48" fill="none" xmlns="http://www.w3.org/2000/svg">
<g clip-path="url(#clip0_1275_1038)">
<path d="M24 12.5211C27.7406 12.5211 28.1836 12.5375 29.6547 12.6031C31.0219 12.6633 31.7602 12.893 32.2523 13.0844C32.9031 13.3359 33.3734 13.6422 33.8602 14.1289C34.3523 14.6211 34.6531 15.0859 34.9047 15.7367C35.0961 16.2289 35.3258 16.9727 35.3859 18.3344C35.4516 19.8109 35.468 20.2539 35.468 23.9891C35.468 27.7297 35.4516 28.1727 35.3859 29.6438C35.3258 31.0109 35.0961 31.7492 34.9047 32.2414C34.6531 32.8922 34.3469 33.3625 33.8602 33.8492C33.368 34.3414 32.9031 34.6422 32.2523 34.8938C31.7602 35.0852 31.0164 35.3148 29.6547 35.375C28.1781 35.4406 27.7352 35.457 24 35.457C20.2594 35.457 19.8164 35.4406 18.3453 35.375C16.9781 35.3148 16.2398 35.0852 15.7477 34.8938C15.0969 34.6422 14.6266 34.3359 14.1398 33.8492C13.6477 33.357 13.3469 32.8922 13.0953 32.2414C12.9039 31.7492 12.6742 31.0055 12.6141 29.6438C12.5484 28.1672 12.532 27.7242 12.532 23.9891C12.532 20.2484 12.5484 19.8055 12.6141 18.3344C12.6742 16.9672 12.9039 16.2289 13.0953 15.7367C13.3469 15.0859 13.6531 14.6156 14.1398 14.1289C14.632 13.6367 15.0969 13.3359 15.7477 13.0844C16.2398 12.893 16.9836 12.6633 18.3453 12.6031C19.8164 12.5375 20.2594 12.5211 24 12.5211ZM24 10C20.1992 10 19.7234 10.0164 18.2305 10.082C16.743 10.1477 15.7203 10.3883 14.8344 10.7328C13.9102 11.0937 13.1281 11.5695 12.3516 12.3516C11.5695 13.1281 11.0938 13.9102 10.7328 14.8289C10.3883 15.7203 10.1477 16.7375 10.082 18.225C10.0164 19.7234 10 20.1992 10 24C10 27.8008 10.0164 28.2766 10.082 29.7695C10.1477 31.257 10.3883 32.2797 10.7328 33.1656C11.0938 34.0898 11.5695 34.8719 12.3516 35.6484C13.1281 36.425 13.9102 36.9062 14.8289 37.2617C15.7203 37.6062 16.7375 37.8469 18.225 37.9125C19.718 37.9781 20.1937 37.9945 23.9945 37.9945C27.7953 37.9945 28.2711 37.9781 29.7641 37.9125C31.2516 37.8469 32.2742 37.6062 33.1602 37.2617C34.0789 36.9062 34.8609 36.425 35.6375 35.6484C36.4141 34.8719 36.8953 34.0898 37.2508 33.1711C37.5953 32.2797 37.8359 31.2625 37.9016 29.775C37.9672 28.282 37.9836 27.8062 37.9836 24.0055C37.9836 20.2047 37.9672 19.7289 37.9016 18.2359C37.8359 16.7484 37.5953 15.7258 37.2508 14.8398C36.9062 13.9102 36.4305 13.1281 35.6484 12.3516C34.8719 11.575 34.0898 11.0938 33.1711 10.7383C32.2797 10.3937 31.2625 10.1531 29.775 10.0875C28.2766 10.0164 27.8008 10 24 10Z" fill="white"/>
<path d="M24 16.8086C20.0297 16.8086 16.8086 20.0297 16.8086 24C16.8086 27.9703 20.0297 31.1914 24 31.1914C27.9703 31.1914 31.1914 27.9703 31.1914 24C31.1914 20.0297 27.9703 16.8086 24 16.8086ZM24 28.6648C21.4242 28.6648 19.3352 26.5758 19.3352 24C19.3352 21.4242 21.4242 19.3352 24 19.3352C26.5758 19.3352 28.6648 21.4242 28.6648 24C28.6648 26.5758 26.5758 28.6648 24 28.6648Z" fill="white"/>
<path d="M33.1547 16.5241C33.1547 17.4538 32.4 18.203 31.4758 18.203C30.5461 18.203 29.7969 17.4483 29.7969 16.5241C29.7969 15.5944 30.5516 14.8452 31.4758 14.8452C32.4 14.8452 33.1547 15.5999 33.1547 16.5241Z" fill="white"/>
</g>
<defs>
<clipPath id="clip0_1275_1038">
<rect width="28" height="28" fill="white" transform="translate(10 10)"/>
</clipPath>
</defs>
</svg>
