<svg width="653" height="207" viewBox="0 0 653 207" fill="none" xmlns="http://www.w3.org/2000/svg">
<rect x="0.5" y="21.2936" width="78.9851" height="51" fill="white"/>
<rect x="0.5" y="21.2936" width="78.9851" height="51" stroke="#D6DCE5"/>
<path d="M30.3144 56.6666L33.6497 37.0906H38.9845L35.6467 56.6666H30.3144ZM54.9207 37.5126C53.864 37.116 52.2077 36.6904 50.1395 36.6904C44.868 36.6904 41.155 39.3455 41.1232 43.1508C41.0935 45.9637 43.7742 47.533 45.7977 48.4693C47.8744 49.4291 48.5723 50.0409 48.5623 50.8976C48.549 52.2099 46.9041 52.8091 45.3706 52.8091C43.2355 52.8091 42.1011 52.5124 40.349 51.7818L39.6613 51.4707L38.9128 55.8529C40.1589 56.3996 42.4629 56.8728 44.8555 56.8974C50.4634 56.8974 54.1039 54.2726 54.1453 50.2089C54.1652 47.9819 52.7439 46.2874 49.666 44.8901C47.8014 43.9845 46.6594 43.3802 46.6715 42.4632C46.6715 41.6495 47.6381 40.7794 49.7269 40.7794C51.4712 40.7523 52.7351 41.1328 53.7198 41.5294L54.1978 41.7553L54.9207 37.5126ZM68.6491 37.0903H64.5269C63.2499 37.0903 62.2941 37.4389 61.7334 38.7137L53.8104 56.6537H59.4125C59.4125 56.6537 60.3282 54.2416 60.5354 53.7119C61.1475 53.7119 66.5897 53.7203 67.3676 53.7203C67.5272 54.4057 68.0167 56.6537 68.0167 56.6537H72.967L68.6491 37.0897V37.0903ZM62.1087 49.7313C62.55 48.6034 64.2342 44.2589 64.2342 44.2589C64.2029 44.311 64.6723 43.1255 64.9415 42.3905L65.302 44.0783C65.302 44.0783 66.3235 48.7512 66.5371 49.731H62.1087V49.7313ZM25.7856 37.0903L20.5627 50.4403L20.0063 47.7274C19.0339 44.6 16.0046 41.2117 12.6179 39.5154L17.3937 56.6354L23.0381 56.6291L31.4369 37.0901L25.7856 37.09" fill="#0E4595"/>
<path d="M15.6892 37.0896H7.08674L7.01855 37.4969C13.7112 39.1173 18.1394 43.0332 19.9781 47.7389L18.1075 38.7429C17.7847 37.5033 16.8481 37.1333 15.6894 37.0901" fill="#F2AE14"/>
<path d="M141.064 21.7936H94.9851V71.7936H141.064V21.7936Z" fill="#1C3378"/>
<path d="M139.91 54.264H96.1382V22.9485H139.91V54.264Z" fill="white"/>
<path d="M129.096 28.6328L120.508 49.1673H114.897L110.67 32.776C110.415 31.7687 110.19 31.3994 109.413 30.9696C108.132 30.2813 106.027 29.63 104.177 29.2237L104.301 28.6328H113.325C114.474 28.6328 115.51 29.3983 115.772 30.7212L118.008 42.6034L123.525 28.6328H129.096Z" fill="#1C3378"/>
<path d="M108.337 62.2885C108.541 62.3456 108.813 62.3623 109.151 62.3623C110.398 62.3623 111.159 61.721 111.159 60.603C111.159 59.542 110.455 58.9746 109.299 58.9746C108.843 58.9746 108.514 59.0183 108.337 59.0619V62.2885ZM106.684 57.8431C107.281 57.729 108.109 57.6451 109.235 57.6451C110.455 57.6451 111.347 57.9136 111.93 58.424C112.473 58.8907 112.825 59.6394 112.825 60.5359C112.825 61.439 112.554 62.1878 112.037 62.7015C111.374 63.3931 110.331 63.7188 109.151 63.7188C108.843 63.7188 108.555 63.7019 108.337 63.6617V67.261H106.684V57.8431Z" fill="white"/>
<path d="M119.1 63.2387L118.383 60.8884C118.205 60.3076 118.058 59.6562 117.92 59.1022H117.894C117.759 59.6562 117.622 60.3244 117.461 60.8884L116.757 63.2387H119.1ZM116.486 64.5548L115.698 67.261H113.978L116.905 57.7156H119.033L122.003 67.261H120.213L119.385 64.5548H116.486Z" fill="white"/>
<path d="M125.513 67.261V63.279L122.627 57.7156H124.521L125.62 60.1632C125.932 60.875 126.16 61.4088 126.408 62.0636H126.431C126.663 61.4525 126.924 60.8582 127.233 60.1632L128.332 57.7156H130.216L127.179 63.2387V67.261H125.513Z" fill="white"/>
<g filter="url(#filter0_dd_1167_759)">
<rect x="157.063" y="21.7936" width="78" height="50" rx="2" fill="white"/>
<rect x="156.563" y="21.2936" width="79" height="51" rx="2.5" stroke="#D6DCE5"/>
<path d="M183.883 61.4326V59.4295C183.883 58.6613 183.42 58.1607 182.661 58.1607C182.263 58.1607 181.836 58.2946 181.539 58.725C181.308 58.3574 180.981 58.1607 180.483 58.1607C180.298 58.1526 180.113 58.1911 179.946 58.2727C179.779 58.3543 179.635 58.4765 179.526 58.6283V58.2252H178.899V61.4302H179.526V59.5964C179.526 59.0321 179.856 58.7621 180.319 58.7621C180.781 58.7621 181.045 59.0627 181.045 59.5964V61.4326H181.672V59.5964C181.672 59.0321 182.002 58.7621 182.465 58.7621C182.927 58.7621 183.191 59.0627 183.191 59.5964V61.4326H183.883ZM194.184 58.2607H193.028V57.2934H192.402V58.2607H191.742V58.8249H192.402V60.3307C192.402 61.065 192.666 61.4995 193.458 61.4995C193.758 61.4932 194.052 61.4129 194.315 61.2657L194.117 60.7015C193.938 60.8141 193.732 60.872 193.522 60.8683C193.192 60.8683 193.027 60.6676 193.027 60.3339V58.7992H194.183V58.2647L194.184 58.2607ZM200.06 58.1607C199.889 58.1569 199.72 58.198 199.57 58.2799C199.419 58.3618 199.293 58.4819 199.202 58.6283V58.2252H198.574V61.4302H199.202V59.6302C199.202 59.0958 199.466 58.7621 199.895 58.7621C200.04 58.768 200.184 58.7905 200.324 58.829L200.523 58.2276C200.371 58.1891 200.216 58.1666 200.06 58.1607ZM191.179 58.4945C190.849 58.2607 190.387 58.1607 189.892 58.1607C189.099 58.1607 188.604 58.5283 188.604 59.1627C188.604 59.6971 188.968 59.997 189.661 60.0977L189.991 60.1308C190.354 60.1977 190.585 60.3315 190.585 60.4983C190.585 60.7321 190.321 60.9014 189.826 60.9014C189.447 60.9093 189.076 60.7921 188.769 60.5677L188.439 61.0682C188.902 61.402 189.463 61.4713 189.794 61.4713C190.719 61.4713 191.214 61.0376 191.214 60.4363C191.214 59.872 190.816 59.602 190.124 59.5012L189.794 59.4682C189.497 59.4351 189.236 59.3344 189.236 59.1345C189.236 58.9007 189.5 58.7314 189.864 58.7314C190.262 58.7314 190.656 58.8983 190.855 58.9983L191.179 58.4945ZM200.754 59.8301C200.754 60.7974 201.381 61.4995 202.405 61.4995C202.867 61.4995 203.197 61.3995 203.527 61.1319L203.197 60.6314C202.963 60.8227 202.673 60.9286 202.372 60.932C201.814 60.932 201.381 60.4983 201.381 59.864C201.381 59.2296 201.808 58.7992 202.372 58.7992C202.673 58.8025 202.963 58.9085 203.197 59.0998L203.527 58.5992C203.197 58.3324 202.867 58.2317 202.405 58.2317C201.414 58.1648 200.754 58.8661 200.754 59.8341V59.8301ZM196.33 58.1607C195.405 58.1607 194.777 58.8282 194.777 59.8301C194.777 60.8321 195.437 61.4995 196.395 61.4995C196.861 61.5094 197.315 61.3562 197.682 61.0658L197.352 60.5983C197.087 60.8062 196.763 60.9231 196.428 60.932C195.999 60.932 195.536 60.6652 195.471 60.0977H197.815V59.8309C197.815 58.829 197.221 58.1615 196.33 58.1615V58.1607ZM196.297 58.7621C196.759 58.7621 197.089 59.0627 197.122 59.5633H195.406C195.504 59.0958 195.804 58.7621 196.297 58.7621ZM187.746 59.8301V58.2276H187.118V58.6307C186.887 58.33 186.56 58.1632 186.095 58.1632C185.204 58.1632 184.543 58.8644 184.543 59.8325C184.543 60.8006 185.203 61.5019 186.095 61.5019C186.557 61.5019 186.887 61.3351 187.118 61.0344V61.4374H187.746V59.8301ZM185.204 59.8301C185.204 59.2288 185.567 58.7621 186.194 58.7621C186.789 58.7621 187.151 59.2296 187.151 59.8301C187.151 60.4645 186.752 60.8982 186.194 60.8982C185.567 60.9312 185.204 60.4306 185.204 59.8301ZM209.603 58.1607C209.432 58.1569 209.263 58.198 209.113 58.2799C208.962 58.3618 208.835 58.4819 208.744 58.6283V58.2252H208.117V61.4302H208.744V59.6302C208.744 59.0958 209.007 58.7621 209.437 58.7621C209.582 58.768 209.726 58.7905 209.866 58.829L210.064 58.2276C209.913 58.1891 209.758 58.1666 209.602 58.1607H209.603ZM207.16 59.8301V58.2276H206.532V58.6307C206.301 58.33 205.974 58.1632 205.509 58.1632C204.618 58.1632 203.957 58.8644 203.957 59.8325C203.957 60.8006 204.617 61.5019 205.509 61.5019C205.971 61.5019 206.301 61.3351 206.532 61.0344V61.4374H207.16V59.8301ZM204.618 59.8301C204.618 59.2288 204.981 58.7621 205.608 58.7621C206.203 58.7621 206.565 59.2296 206.565 59.8301C206.565 60.4645 206.166 60.8982 205.608 60.8982C204.981 60.9312 204.618 60.4306 204.618 59.8301ZM213.532 59.8301V56.9589H212.905V58.6283C212.674 58.3276 212.347 58.1607 211.881 58.1607C210.99 58.1607 210.329 58.862 210.329 59.8301C210.329 60.7982 210.989 61.4995 211.881 61.4995C212.344 61.4995 212.674 61.3326 212.905 61.032V61.435H213.532V59.8301ZM210.99 59.8301C210.99 59.2288 211.353 58.7621 211.981 58.7621C212.576 58.7621 212.937 59.2296 212.937 59.8301C212.937 60.4645 212.539 60.8982 211.981 60.8982C211.353 60.932 210.989 60.4314 210.989 59.8301H210.99Z" fill="black"/>
<path d="M190.453 33.923H201.91V52.8189H190.453V33.923Z" fill="#FF5F00"/>
<path d="M191.609 43.3709C191.609 41.5531 192.016 39.759 192.799 38.1228C193.583 36.4867 194.722 35.0509 196.132 33.923C194.378 32.5291 192.273 31.6621 190.055 31.4212C187.838 31.1803 185.598 31.5752 183.592 32.5607C181.585 33.5462 179.894 35.0826 178.711 36.9943C177.527 38.9059 176.9 41.1157 176.9 43.3709C176.9 45.6262 177.527 47.836 178.711 49.7476C179.894 51.6593 181.585 53.1957 183.592 54.1812C185.598 55.1667 187.838 55.5616 190.055 55.3207C192.273 55.0798 194.378 54.2128 196.132 52.8189C194.722 51.691 193.583 50.2552 192.799 48.6191C192.016 46.9829 191.609 45.1887 191.609 43.3709Z" fill="#EB001B"/>
<path d="M215.381 43.371C215.382 45.6246 214.757 47.8332 213.575 49.7441C212.394 51.6551 210.704 53.1912 208.7 54.1769C206.696 55.1625 204.458 55.5579 202.242 55.3177C200.026 55.0776 197.921 54.2116 196.169 52.8189C197.579 51.6913 198.719 50.2556 199.502 48.6194C200.285 46.9832 200.692 45.1889 200.692 43.371C200.692 41.5531 200.285 39.7588 199.502 38.1226C198.719 36.4863 197.579 35.0506 196.169 33.923C197.921 32.5303 200.026 31.6643 202.242 31.4242C204.458 31.1841 206.696 31.5794 208.7 32.5651C210.704 33.5507 212.394 35.0869 213.575 36.9978C214.757 38.9088 215.382 41.1174 215.381 43.371Z" fill="#F79E1B"/>
</g>
<g filter="url(#filter1_dd_1167_759)">
<rect x="251.063" y="21.7936" width="78" height="50" rx="2" fill="white"/>
<rect x="250.563" y="21.2936" width="79" height="51" rx="2.5" stroke="#D6DCE5"/>
<path d="M282.608 61.5541V59.5775C282.619 59.4116 282.595 59.2453 282.537 59.0895C282.479 58.9336 282.388 58.7919 282.271 58.6738C282.153 58.5556 282.012 58.4638 281.856 58.4043C281.7 58.3448 281.533 58.3191 281.366 58.3289C281.147 58.3146 280.929 58.359 280.733 58.4575C280.537 58.556 280.372 58.705 280.254 58.8889C280.146 58.7105 279.992 58.5644 279.808 58.4658C279.624 58.3672 279.416 58.3199 279.207 58.3289C279.025 58.3197 278.844 58.358 278.681 58.4401C278.519 58.5222 278.381 58.6451 278.28 58.7967V58.4079H277.592V61.5541H278.287V59.8114C278.272 59.7036 278.28 59.5937 278.313 59.4897C278.345 59.3857 278.401 59.2902 278.475 59.2102C278.549 59.1301 278.64 59.0674 278.742 59.0266C278.843 58.9859 278.953 58.9681 279.062 58.9746C279.519 58.9746 279.75 59.2711 279.75 59.8048V61.5541H280.446V59.8114C280.432 59.7038 280.441 59.5944 280.474 59.4909C280.507 59.3875 280.563 59.2925 280.636 59.2127C280.71 59.1329 280.801 59.0702 280.902 59.0291C281.003 58.9879 281.112 58.9693 281.22 58.9746C281.691 58.9746 281.916 59.2711 281.916 59.8048V61.5541H282.608ZM286.482 59.9827V58.4112H285.786V58.7934C285.669 58.6434 285.518 58.5234 285.346 58.4432C285.173 58.3629 284.983 58.3249 284.793 58.3322C284.354 58.3322 283.933 58.5057 283.622 58.8146C283.312 59.1235 283.137 59.5425 283.137 59.9794C283.137 60.4162 283.312 60.8352 283.622 61.1441C283.933 61.4531 284.354 61.6266 284.793 61.6266C284.983 61.6339 285.173 61.5958 285.346 61.5156C285.518 61.4354 285.669 61.3153 285.786 61.1654V61.5475H286.475L286.482 59.9827ZM283.922 59.9827C283.933 59.7973 283.998 59.6191 284.11 59.4702C284.221 59.3212 284.374 59.2079 284.549 59.1443C284.725 59.0806 284.915 59.0694 285.097 59.1119C285.278 59.1545 285.444 59.249 285.572 59.3838C285.7 59.5186 285.786 59.6878 285.819 59.8706C285.852 60.0533 285.831 60.2417 285.757 60.4125C285.684 60.5833 285.562 60.7291 285.407 60.8318C285.251 60.9346 285.069 60.9898 284.882 60.9908C284.751 60.9938 284.62 60.9695 284.498 60.9193C284.376 60.8691 284.266 60.7942 284.175 60.6993C284.084 60.6044 284.014 60.4916 283.969 60.3682C283.925 60.2448 283.906 60.1135 283.916 59.9827H283.922ZM301.195 58.3354C301.422 58.3349 301.647 58.3773 301.857 58.4606C302.059 58.5408 302.242 58.6594 302.397 58.8098C302.55 58.9589 302.672 59.137 302.755 59.3337C302.928 59.7561 302.928 60.229 302.755 60.6514C302.672 60.8481 302.55 61.0262 302.397 61.1753C302.242 61.3257 302.059 61.4443 301.857 61.5245C301.421 61.6933 300.937 61.6933 300.5 61.5245C300.3 61.4444 300.117 61.3257 299.964 61.1753C299.812 61.0257 299.691 60.8476 299.609 60.6514C299.437 60.229 299.437 59.7561 299.609 59.3337C299.691 59.1375 299.812 58.9594 299.964 58.8098C300.117 58.6594 300.3 58.5407 300.5 58.4606C300.718 58.3706 300.952 58.3247 301.189 58.3256L301.195 58.3354ZM301.195 58.9943C301.06 58.9925 300.927 59.0171 300.801 59.0668C300.683 59.1139 300.576 59.1845 300.487 59.2744C300.395 59.3689 300.324 59.481 300.278 59.6038C300.177 59.8668 300.177 60.1578 300.278 60.4208C300.324 60.5436 300.395 60.6558 300.487 60.7503C300.576 60.8402 300.683 60.9108 300.801 60.9578C301.054 61.0561 301.334 61.0561 301.586 60.9578C301.71 60.9123 301.822 60.8416 301.917 60.7503C302.009 60.6559 302.08 60.5437 302.126 60.4208C302.227 60.1578 302.227 59.8668 302.126 59.6038C302.08 59.4809 302.009 59.3688 301.917 59.2744C301.822 59.183 301.71 59.1123 301.586 59.0668C301.461 59.0099 301.326 58.9786 301.189 58.9746L301.195 58.9943ZM290.223 59.9827C290.223 58.9943 289.607 58.3354 288.723 58.3354C288.284 58.3416 287.865 58.521 287.559 58.8342C287.253 59.1475 287.085 59.5689 287.091 60.0057C287.097 60.4426 287.277 60.8592 287.592 61.1637C287.907 61.4683 288.33 61.636 288.769 61.6299C289.241 61.6459 289.702 61.4888 290.064 61.1884L289.733 60.6811C289.471 60.8897 289.148 61.0056 288.812 61.0105C288.585 61.03 288.358 60.9604 288.182 60.8164C288.005 60.6724 287.891 60.4655 287.865 60.2396H290.213C290.223 60.1573 290.223 60.0749 290.223 59.9827ZM287.869 59.7059C287.882 59.4968 287.975 59.3007 288.13 59.1588C288.285 59.0169 288.489 58.9403 288.7 58.9449C288.803 58.9427 288.905 58.9608 289.001 58.998C289.097 59.0352 289.185 59.0909 289.26 59.1619C289.334 59.2329 289.394 59.3177 289.435 59.4117C289.476 59.5056 289.499 59.6067 289.501 59.7092L287.869 59.7059ZM293.12 59.2118C292.818 59.0385 292.476 58.9455 292.127 58.9416C291.749 58.9416 291.524 59.08 291.524 59.3106C291.524 59.5412 291.762 59.5807 292.06 59.6203L292.392 59.6664C293.08 59.7652 293.497 60.0551 293.497 60.6086C293.497 61.1621 292.968 61.6365 292.057 61.6365C291.569 61.6494 291.09 61.5062 290.69 61.228L291.021 60.6943C291.325 60.9186 291.695 61.0346 292.074 61.0237C292.544 61.0237 292.795 60.8853 292.795 60.6416C292.795 60.4637 292.617 60.3648 292.239 60.3121L291.908 60.266C291.2 60.1672 290.816 59.8509 290.816 59.337C290.816 58.711 291.332 58.3289 292.14 58.3289C292.592 58.3138 293.039 58.4281 293.428 58.6583L293.12 59.2118ZM296.431 59.0339H295.308V60.4538C295.308 60.7832 295.421 60.9809 295.765 60.9809C295.98 60.9738 296.19 60.9126 296.375 60.803L296.573 61.3894C296.315 61.5497 296.017 61.6342 295.712 61.6332C294.898 61.6332 294.613 61.1983 294.613 60.4669V59.0339H293.971V58.4079H294.613V57.4525H295.308V58.4079H296.431V59.0339ZM298.811 58.3289C298.978 58.3295 299.144 58.3585 299.301 58.4145L299.09 59.0734C298.953 59.0191 298.806 58.9922 298.659 58.9943C298.209 58.9943 297.997 59.2842 297.997 59.8048V61.5673H297.308V58.4211H297.99V58.8033C298.075 58.6588 298.197 58.5397 298.344 58.4585C298.491 58.3774 298.657 58.3371 298.825 58.342L298.811 58.3289ZM303.573 61.0962C303.616 61.0957 303.658 61.1035 303.698 61.1193C303.736 61.1347 303.771 61.157 303.801 61.1851C303.83 61.2135 303.854 61.2471 303.87 61.284C303.887 61.3225 303.896 61.3639 303.896 61.4059C303.896 61.4478 303.887 61.4893 303.87 61.5278C303.854 61.5647 303.83 61.5982 303.801 61.6266C303.771 61.6547 303.736 61.677 303.698 61.6925C303.659 61.7099 303.616 61.7189 303.573 61.7188C303.51 61.7184 303.448 61.7002 303.396 61.6663C303.343 61.6325 303.301 61.5844 303.275 61.5278C303.258 61.4892 303.249 61.4478 303.249 61.4059C303.249 61.364 303.258 61.3225 303.275 61.284C303.291 61.2471 303.315 61.2135 303.344 61.1851C303.374 61.157 303.409 61.1347 303.447 61.1193C303.482 61.1055 303.518 61.0977 303.556 61.0962H303.573ZM303.573 61.653C303.606 61.6532 303.638 61.6464 303.669 61.6332C303.697 61.6205 303.723 61.6026 303.745 61.5805C303.773 61.5523 303.794 61.5178 303.805 61.4799C303.817 61.4419 303.819 61.4018 303.811 61.3628C303.804 61.3239 303.787 61.2873 303.762 61.2564C303.737 61.2254 303.705 61.201 303.669 61.1851C303.638 61.172 303.606 61.1653 303.573 61.1654C303.54 61.1655 303.507 61.1723 303.476 61.1851C303.447 61.1973 303.42 61.2152 303.397 61.2379C303.356 61.2828 303.333 61.3416 303.333 61.4026C303.333 61.4636 303.356 61.5223 303.397 61.5673C303.42 61.5904 303.447 61.6087 303.477 61.6212C303.508 61.6336 303.54 61.6399 303.573 61.6398V61.653ZM303.592 61.2609C303.623 61.2594 303.654 61.2687 303.678 61.2873C303.689 61.2956 303.697 61.3062 303.702 61.3183C303.707 61.3303 303.709 61.3434 303.708 61.3565C303.709 61.3674 303.707 61.3783 303.703 61.3885C303.699 61.3987 303.693 61.408 303.685 61.4158C303.666 61.4331 303.641 61.4435 303.616 61.4454L303.712 61.5541H303.635L303.546 61.4454H303.516V61.5541H303.453V61.251L303.592 61.2609ZM303.52 61.3169V61.396H303.592C303.605 61.3998 303.619 61.3998 303.632 61.396C303.634 61.3914 303.636 61.3863 303.636 61.3812C303.636 61.376 303.634 61.3709 303.632 61.3663C303.634 61.3617 303.636 61.3567 303.636 61.3515C303.636 61.3464 303.634 61.3413 303.632 61.3367C303.619 61.3328 303.605 61.3328 303.592 61.3367L303.52 61.3169Z" fill="#000008"/>
<path d="M295.438 34.4046H285.008V53.0544H295.438V34.4046Z" fill="#7673C0"/>
<path d="M285.67 43.7312C285.668 41.9348 286.077 40.1615 286.866 38.5457C287.655 36.9298 288.803 35.5137 290.223 34.4046C288.464 33.0296 286.353 32.1745 284.129 31.9372C281.905 31.6998 279.66 32.0897 277.648 33.0624C275.637 34.035 273.941 35.5512 272.754 37.4375C271.568 39.3238 270.938 41.5042 270.938 43.7295C270.938 45.9548 271.568 48.1352 272.754 50.0216C273.941 51.9079 275.637 53.424 277.648 54.3967C279.66 55.3693 281.905 55.7592 284.129 55.5219C286.353 55.2845 288.464 54.4295 290.223 53.0545C288.803 51.9457 287.655 50.5301 286.867 48.9149C286.078 47.2996 285.669 45.527 285.67 43.7312Z" fill="#EB001B"/>
<path d="M308.37 51.0778V50.7088H308.526V50.6297H308.132V50.7088H308.287V51.0909L308.37 51.0778ZM309.135 51.0778V50.6165H309.016L308.877 50.946L308.738 50.6165H308.615V51.0778H308.701V50.7319L308.83 51.0317H308.92L309.049 50.7319V51.0811L309.135 51.0778Z" fill="#00A1DF"/>
<path d="M309.506 43.7311C309.505 45.956 308.876 48.1359 307.689 50.0217C306.503 51.9075 304.807 53.4232 302.796 54.3956C300.785 55.368 298.539 55.7579 296.316 55.5207C294.093 55.2836 291.981 54.4289 290.223 53.0545C291.642 51.9447 292.789 50.5287 293.578 48.9134C294.367 47.298 294.777 45.5255 294.777 43.7295C294.777 41.9335 294.367 40.161 293.578 38.5456C292.789 36.9303 291.642 35.5143 290.223 34.4046C291.981 33.0291 294.093 32.1736 296.317 31.9359C298.54 31.6983 300.787 32.0879 302.798 33.0605C304.81 34.033 306.506 35.5491 307.693 37.4354C308.88 39.3218 309.509 41.5024 309.509 43.7279L309.506 43.7311Z" fill="#00A1DF"/>
</g>
<g clip-path="url(#clip0_1167_759)">
<path d="M349.063 21.7937H419.063C421.273 21.7937 423.063 23.5846 423.063 25.7937V67.7937C423.063 70.0029 421.273 71.7937 419.063 71.7937H349.063C346.854 71.7937 345.063 70.0029 345.063 67.7937V25.7937C345.063 23.5846 346.854 21.7937 349.063 21.7937Z" fill="#2557D6"/>
<path d="M345.089 45.3626H348.833L349.677 43.4116H351.567L352.409 45.3626H359.776V43.8711L360.434 45.3691H364.258L364.915 43.8489V45.3627H383.223L383.215 42.1601H383.569C383.817 42.1684 383.89 42.1903 383.89 42.5827V45.3627H393.358V44.6172C394.122 45.0092 395.31 45.3627 396.873 45.3627H400.857L401.709 43.4117H403.599L404.433 45.3627H412.11V43.5095L413.272 45.3627H419.424V33.1117H413.336V34.5585L412.483 33.1117H406.236V34.5585L405.454 33.1117H397.016C395.603 33.1117 394.362 33.3006 393.359 33.827V33.1117H387.536V33.827C386.897 33.2844 386.028 33.1117 385.061 33.1117H363.787L362.359 36.2758L360.893 33.1117H354.193V34.5585L353.457 33.1117H347.742L345.088 38.9363V45.3624H345.089L345.089 45.3626ZM368.723 43.5956H366.476L366.468 36.7162L363.291 43.5955H361.367L358.181 36.7101V43.5955H353.724L352.882 41.6363H348.319L347.469 43.5955H345.089L349.013 34.8118H352.269L355.995 43.1282V34.8118H359.572L362.44 40.7705L365.074 34.8118H368.723L368.723 43.5956ZM352.133 39.8133L350.633 36.3116L349.142 39.8133H352.133ZM377.663 43.5954H370.343V34.8117H377.663V36.6408H372.534V38.2241H377.54V40.0246H372.534V41.7788H377.663L377.663 43.5954ZM387.979 37.1774C387.979 38.5778 387.003 39.3014 386.435 39.5186C386.914 39.6934 387.324 40.0024 387.519 40.2583C387.828 40.6952 387.882 41.0854 387.882 41.8699V43.5954H385.671L385.663 42.4877C385.663 41.9592 385.716 41.1991 385.317 40.7765C384.997 40.4675 384.509 40.4005 383.72 40.4005H381.368V43.5955H379.176V34.8117H384.216C385.336 34.8117 386.161 34.84 386.87 35.2324C387.563 35.6248 387.979 36.1976 387.979 37.1774ZM385.209 38.4816C384.908 38.6568 384.552 38.6626 384.125 38.6626H381.463V36.7116H384.161C384.543 36.7116 384.941 36.728 385.2 36.87C385.485 36.998 385.66 37.2703 385.66 37.6465C385.66 38.0305 385.493 38.3394 385.209 38.4816ZM391.493 43.5954H389.258V34.8117H391.493V43.5954ZM417.449 43.5954H414.344L410.191 37.0027V43.5954H405.728L404.875 41.6362H400.323L399.496 43.5954H396.931C395.866 43.5954 394.517 43.3697 393.754 42.6239C392.984 41.8781 392.583 40.8679 392.583 39.2706C392.583 37.9679 392.822 36.777 393.764 35.8359C394.473 35.1349 395.582 34.8117 397.092 34.8117H399.214V36.6938H397.137C396.337 36.6938 395.885 36.8078 395.45 37.2141C395.077 37.584 394.821 38.2831 394.821 39.2038C394.821 40.1448 395.016 40.8234 395.423 41.2666C395.76 41.6142 396.373 41.7196 396.95 41.7196H397.934L401.023 34.812H404.306L408.016 43.1201V34.8121H411.353L415.205 40.9295V34.8121H417.449V43.5954ZM404.129 39.8134L402.613 36.3117L401.105 39.8134H404.129ZM423.033 57.6214C422.501 58.3671 421.464 58.7452 420.06 58.7452H415.828V56.8612H420.043C420.461 56.8612 420.753 56.8085 420.929 56.6437C421.096 56.4963 421.19 56.2883 421.188 56.0708C421.188 55.8147 421.082 55.6115 420.921 55.4897C420.762 55.3555 420.53 55.2947 420.149 55.2947C418.091 55.2277 415.524 55.3555 415.524 52.5753C415.524 51.3011 416.368 49.9597 418.668 49.9597H423.033V48.2118H418.977C417.754 48.2118 416.864 48.4928 416.235 48.9292V48.2117H410.236C409.277 48.2117 408.151 48.4396 407.618 48.9292V48.2117H396.906V48.9292C396.054 48.34 394.616 48.2117 393.951 48.2117H386.886V48.9292C386.211 48.3034 384.712 48.2117 383.797 48.2117H375.89L374.08 50.0881L372.385 48.2117H360.572V60.4707H372.162L374.027 58.5645L375.783 60.4707L382.928 60.4768V57.593H383.63C384.578 57.607 385.696 57.5702 386.682 57.1618V60.4703H392.575V57.2751H392.859C393.222 57.2751 393.257 57.2895 393.257 57.6366V60.4699H411.158C412.295 60.4699 413.483 60.1913 414.141 59.6854V60.4699H419.819C421 60.4699 422.154 60.3112 423.032 59.905L423.032 57.621L423.033 57.6214ZM387.539 52.9059C387.539 55.3465 385.639 55.8504 383.723 55.8504H380.989V58.7973H376.73L374.032 55.8887L371.227 58.7973H362.547V50.0114H371.361L374.057 52.8913L376.844 50.0114H383.846C385.585 50.0114 387.539 50.4727 387.539 52.9059ZM370.117 56.9493H364.73V55.2013H369.541V53.4087H364.73V51.8113H370.223L372.62 54.3717L370.117 56.9493ZM378.798 57.9553L375.434 54.3764L378.798 50.9114V57.9553ZM383.774 54.0487H380.942V51.8113H383.799C384.591 51.8113 385.14 52.1203 385.14 52.8885C385.14 53.6484 384.616 54.0487 383.774 54.0487ZM398.61 50.0114H405.924V51.8284H400.792V53.4257H405.799V55.2183H400.792V56.9663L405.924 56.9743V58.7973H398.61L398.61 50.0114ZM395.798 54.7143C396.286 54.8868 396.685 55.1959 396.872 55.4518C397.181 55.8809 397.226 56.2812 397.235 57.0555V58.7973H395.034V57.6981C395.034 57.1695 395.088 56.3869 394.68 55.9783C394.36 55.6636 393.872 55.5884 393.073 55.5884H390.731V58.7974H388.529V50.0115H393.588C394.697 50.0115 395.505 50.0585 396.225 50.4261C396.916 50.8265 397.351 51.3748 397.351 52.3772C397.351 53.7794 396.375 54.495 395.798 54.7143ZM394.56 53.6036C394.266 53.7703 393.904 53.7847 393.478 53.7847H390.816V51.8115H393.514C393.904 51.8115 394.295 51.8195 394.56 51.9702C394.844 52.1125 395.013 52.3848 395.013 52.7605C395.013 53.1363 394.844 53.4391 394.56 53.6036ZM414.342 54.1633C414.769 54.5862 414.997 55.1204 414.997 56.0246C414.997 57.9146 413.765 58.7969 411.555 58.7969H407.287V56.9129H411.538C411.953 56.9129 412.248 56.8604 412.433 56.6954C412.583 56.5596 412.691 56.3621 412.691 56.1225C412.691 55.8664 412.574 55.6633 412.424 55.5414C412.256 55.4074 412.025 55.3465 411.644 55.3465C409.594 55.2795 407.028 55.4074 407.028 52.6273C407.028 51.3529 407.863 50.0115 410.161 50.0115H414.554V51.8815H410.534C410.136 51.8815 409.877 51.896 409.656 52.0402C409.416 52.1824 409.327 52.3936 409.327 52.6721C409.327 53.0035 409.531 53.2291 409.807 53.3267C410.038 53.4037 410.286 53.4262 410.66 53.4262L411.839 53.4568C413.029 53.4844 413.845 53.6816 414.342 54.1633ZM423.037 51.8113H419.043C418.645 51.8113 418.38 51.8257 418.157 51.97C417.925 52.1123 417.836 52.3234 417.836 52.6022C417.836 52.9336 418.032 53.159 418.316 53.2566C418.547 53.3337 418.795 53.3562 419.16 53.3562L420.348 53.3866C421.546 53.415 422.346 53.6124 422.834 54.0938C422.923 54.1608 422.976 54.236 423.037 54.3113V51.8113H423.037Z" fill="white"/>
</g>
<g clip-path="url(#clip1_1167_759)">
<path d="M460.685 28.7727H474.912C476.898 28.7727 478.138 30.4133 477.673 32.4197L471.045 61.1677C470.58 63.174 468.584 64.8147 466.599 64.8147H452.372C450.387 64.8147 449.146 63.1741 449.611 61.1677L456.239 32.4197C456.704 30.4029 458.689 28.7727 460.675 28.7727H460.685Z" fill="#D10429"/>
<path d="M473.668 28.7727H490.036C492.021 28.7727 491.122 30.4133 490.657 32.4197L484.029 61.1677C483.564 63.174 483.708 64.8147 481.723 64.8147H465.356C463.36 64.8147 462.13 63.1741 462.606 61.1677L469.233 32.4197C469.699 30.4029 471.684 28.7727 473.679 28.7727H473.669H473.668Z" fill="#022E64"/>
<path d="M489.462 28.7727H503.689C505.674 28.7727 506.915 30.4133 506.45 32.4197L499.822 61.1677C499.357 63.174 497.361 64.8147 495.376 64.8147H481.149C479.153 64.8147 477.923 63.1741 478.388 61.1677L485.016 32.4197C485.481 30.4029 487.466 28.7727 489.451 28.7727H489.462Z" fill="#076F74"/>
<path d="M487.073 55.8746H488.417L488.8 54.5683H487.466L487.073 55.8746ZM488.148 52.2796L487.683 53.8263C487.683 53.8263 488.19 53.565 488.469 53.4814C488.748 53.4187 489.161 53.3664 489.161 53.3664L489.482 52.2901H488.138L488.148 52.2796ZM488.82 50.0643L488.376 51.5482C488.376 51.5482 488.872 51.3182 489.151 51.2453C489.43 51.1721 489.844 51.1512 489.844 51.1512L490.164 50.0748H488.831L488.82 50.0643ZM491.788 50.0643L490.051 55.864H490.516L490.154 57.0658H489.689L489.575 57.4315H487.921L488.034 57.0658H484.684L485.015 55.9582H485.356L487.114 50.0644L487.466 48.8731H489.151L488.975 49.4687C488.975 49.4687 489.42 49.1448 489.854 49.0297C490.278 48.9149 492.718 48.8731 492.718 48.8731L492.356 50.054H491.777L491.788 50.0643Z" fill="#FEFEFE"/>
<path d="M492.477 48.8726H494.276L494.297 49.5518C494.287 49.6667 494.38 49.719 494.597 49.719H494.959L494.628 50.8373H493.656C492.818 50.9 492.498 50.5343 492.519 50.1267L492.487 48.883L492.477 48.8726ZM492.699 54.1926H490.982L491.272 53.1999H493.236L493.515 52.2907H491.582L491.913 51.1725H497.29L496.959 52.2907H495.149L494.87 53.1999H496.68L496.38 54.1926H494.425L494.074 54.6106H494.87L495.066 55.8646C495.087 55.99 495.087 56.0736 495.128 56.1259C495.17 56.1677 495.408 56.1886 495.542 56.1886H495.78L495.408 57.4113H494.798C494.705 57.4113 494.56 57.4009 494.363 57.4009C494.177 57.3799 494.053 57.2754 493.929 57.2127C493.815 57.1605 493.65 57.0246 493.609 56.7843L493.422 55.5303L492.533 56.7634C492.254 57.15 491.872 57.4531 491.22 57.4531H489.979L490.31 56.3662H490.786C490.92 56.3662 491.045 56.3141 491.138 56.2617C491.231 56.2199 491.313 56.1781 491.396 56.0424L492.699 54.1926ZM473.925 51.4726H478.464L478.133 52.5699H476.323L476.044 53.4998H477.905L477.564 54.6285H475.713L475.258 56.1437C475.207 56.3109 475.703 56.3318 475.879 56.3318L476.809 56.2064L476.437 57.4604H474.348C474.183 57.4604 474.059 57.4395 473.873 57.3977C473.697 57.3559 473.614 57.2723 473.542 57.1574C473.469 57.032 473.345 56.9379 473.428 56.6662L474.028 54.6599H472.994L473.335 53.5104H474.369L474.648 52.5804H473.614L473.945 51.483L473.925 51.4726ZM477.061 49.4891H478.922L478.581 50.6281H476.037L475.758 50.8685C475.634 50.9835 475.603 50.9417 475.448 51.0253C475.303 51.0983 475.003 51.2446 474.61 51.2446H473.793L474.124 50.1474H474.372C474.579 50.1474 474.724 50.1264 474.796 50.0847C474.879 50.0325 474.972 49.9175 475.065 49.7293L475.53 48.8725H477.381L477.061 49.4995V49.4891ZM480.568 51.3701C480.568 51.3701 481.075 50.9 481.944 50.7537C482.14 50.7119 483.381 50.7326 483.381 50.7326L483.567 50.1056H480.951L480.568 51.3806V51.3701ZM483.029 51.8508H480.434L480.279 52.3837H482.533C482.802 52.3524 482.853 52.3941 482.874 52.3733L483.039 51.8508H483.029ZM479.659 48.883H481.24L481.013 49.6877C481.013 49.6877 481.509 49.2802 481.861 49.1338C482.213 49.0084 482.998 48.883 482.998 48.883L485.562 48.8726L484.684 51.8195C484.539 52.3211 484.363 52.6451 484.26 52.8018C484.167 52.9481 484.053 53.0839 483.825 53.2093C483.608 53.3243 483.412 53.3974 483.226 53.4079C483.06 53.4183 482.791 53.4288 482.44 53.4288H479.969L479.276 55.7591C479.214 55.989 479.183 56.1038 479.224 56.1665C479.255 56.2188 479.348 56.2815 479.462 56.2815L480.548 56.177L480.175 57.4519H478.955C478.562 57.4519 478.283 57.4415 478.087 57.4309C477.901 57.4101 477.704 57.4309 477.57 57.3265C477.456 57.222 477.28 57.0862 477.291 56.9502C477.301 56.8248 477.353 56.6158 477.436 56.3232L479.659 48.883Z" fill="#FEFEFE"/>
<path d="M484.268 53.5727L484.124 54.2832C484.062 54.5026 484.01 54.6699 483.844 54.8162C483.669 54.9625 483.472 55.1192 482.997 55.1192L482.118 55.161L482.107 55.9552C482.097 56.1745 482.159 56.1536 482.19 56.1954C482.232 56.2372 482.262 56.2477 482.304 56.2686L482.583 56.2476L483.421 56.2059L483.069 57.3763H482.107C481.435 57.3763 480.929 57.3553 480.774 57.23C480.608 57.1254 480.587 57 480.587 56.7701L480.649 53.656H482.19L482.169 54.2934H482.542C482.666 54.2934 482.759 54.283 482.811 54.2516C482.862 54.2203 482.893 54.168 482.914 54.0949L483.069 53.5933H484.279L484.268 53.5727ZM462.35 37.9727C462.298 38.2235 461.306 42.8319 461.306 42.8319C461.088 43.7619 460.933 44.4308 460.416 44.8592C460.116 45.11 459.765 45.2249 459.362 45.2249C458.71 45.2249 458.338 44.901 458.276 44.2845L458.266 44.0755C458.266 44.0755 458.462 42.8319 458.462 42.8215C458.462 42.8215 459.496 38.6206 459.682 38.0667C459.693 38.0354 459.693 38.0145 459.693 38.004C457.676 38.025 457.314 38.004 457.294 37.9727C457.283 38.0145 457.232 38.2757 457.232 38.2757L456.177 43.0097L456.084 43.4067L455.908 44.7235C455.908 45.1101 455.981 45.434 456.136 45.6953C456.622 46.5522 457.997 46.6776 458.772 46.6776C459.775 46.6776 460.716 46.4581 461.347 46.0715C462.453 45.4131 462.743 44.3786 462.991 43.4695L463.115 42.9992C463.115 42.9992 464.18 38.6416 464.366 38.0773C464.376 38.0459 464.376 38.025 464.387 38.0146C462.918 38.025 462.495 38.0146 462.35 37.9832V37.9727ZM468.248 46.635C467.534 46.6245 467.276 46.6245 466.438 46.6663L466.407 46.6036C466.479 46.2796 466.562 45.9662 466.624 45.6422L466.728 45.2033C466.883 44.5241 467.028 43.7194 467.048 43.4791C467.069 43.3328 467.11 42.9671 466.697 42.9671C466.521 42.9671 466.345 43.0506 466.159 43.1342C466.056 43.5 465.859 44.5241 465.756 44.9839C465.549 45.9662 465.539 46.0811 465.446 46.5619L465.384 46.6245C464.649 46.6141 464.391 46.6141 463.543 46.6559L463.502 46.5827C463.646 45.9975 463.781 45.4123 463.915 44.8271C464.267 43.2491 464.36 42.6431 464.453 41.8384L464.525 41.7966C465.353 41.6817 465.549 41.6503 466.449 41.4727L466.521 41.5563L466.386 42.0579C466.542 41.9639 466.686 41.8698 466.841 41.7966C467.265 41.5876 467.731 41.5249 467.989 41.5249C468.382 41.5249 468.816 41.6399 468.992 42.0997C469.158 42.5072 469.054 43.0088 468.827 44.0016L468.713 44.5032C468.485 45.6109 468.444 45.8094 468.32 46.5618L468.237 46.6245L468.248 46.635ZM471.151 46.6377C470.717 46.6377 470.438 46.6273 470.169 46.6377C469.9 46.6377 469.642 46.6587 469.238 46.6691L469.218 46.6377L469.197 46.5959C469.311 46.1779 469.362 46.0316 469.424 45.8853C469.476 45.739 469.528 45.5927 469.631 45.1643C469.755 44.6104 469.838 44.2238 469.89 43.8789C469.952 43.5549 469.983 43.2729 470.024 42.9489L470.055 42.928L470.086 42.8967C470.52 42.834 470.789 42.7922 471.068 42.7504C471.348 42.7086 471.637 42.6564 472.082 42.5728L472.102 42.6146L472.113 42.6564L471.865 43.6909C471.782 44.0358 471.699 44.3806 471.627 44.7255C471.472 45.457 471.399 45.7287 471.368 45.9272C471.327 46.1153 471.317 46.2094 471.254 46.5856L471.213 46.6169L471.172 46.6483L471.151 46.6377ZM475.741 44.0702C475.71 44.2583 475.545 44.9585 475.328 45.2511C475.173 45.4705 474.997 45.6064 474.79 45.6064C474.728 45.6064 474.376 45.6064 474.366 45.0734C474.366 44.8122 474.418 44.5404 474.48 44.2479C474.666 43.4014 474.893 42.7013 475.462 42.7013C475.907 42.7013 475.938 43.2238 475.741 44.0702ZM477.613 44.1538C477.861 43.0461 477.665 42.5236 477.427 42.2101C477.054 41.7294 476.393 41.5727 475.71 41.5727C475.297 41.5727 474.325 41.6145 473.56 42.3251C473.012 42.8371 472.753 43.5373 472.609 44.2061C472.453 44.8853 472.278 46.108 473.394 46.5678C473.735 46.7141 474.232 46.7558 474.552 46.7558C475.369 46.7558 476.207 46.526 476.837 45.8572C477.323 45.3138 477.54 44.4987 477.623 44.1538H477.613ZM495.041 46.7618C494.173 46.7514 493.924 46.7514 493.128 46.7932L493.076 46.7305C493.294 45.9049 493.511 45.0689 493.707 44.2329C493.955 43.1461 494.017 42.6863 494.1 42.0489L494.162 41.9967C495.02 41.8713 495.258 41.84 496.158 41.6728L496.178 41.7459C496.013 42.4356 495.858 43.1149 495.692 43.7941C495.362 45.2258 495.248 45.9573 495.124 46.7097L495.041 46.7724V46.7618Z" fill="#FEFEFE"/>
<path d="M493.792 44.2096C493.751 44.3872 493.585 45.0978 493.368 45.3904C493.224 45.5994 492.872 45.7353 492.676 45.7353C492.614 45.7353 492.272 45.7353 492.252 45.2128C492.252 44.9515 492.303 44.6798 492.365 44.3872C492.552 43.5617 492.779 42.8615 493.348 42.8615C493.792 42.8615 493.989 43.3735 493.792 44.22V44.2096ZM495.498 44.2932C495.746 43.1855 494.733 44.1992 494.578 43.8334C494.33 43.2586 494.485 42.1091 493.493 41.7225C493.11 41.5657 492.21 41.7643 491.445 42.4749C490.908 42.9765 490.639 43.6766 490.494 44.3454C490.339 45.0142 490.163 46.2474 491.269 46.6758C491.621 46.8325 491.942 46.8743 492.262 46.8534C493.379 46.7907 494.227 45.0873 494.857 44.4185C495.343 43.8856 495.426 44.6171 495.498 44.2932ZM482.515 46.6345C481.802 46.624 481.554 46.624 480.716 46.6658L480.685 46.6031C480.758 46.2791 480.84 45.9657 480.913 45.6417L481.006 45.2028C481.161 44.5236 481.316 43.7189 481.326 43.4786C481.347 43.3323 481.388 42.9666 480.985 42.9666C480.809 42.9666 480.623 43.0501 480.447 43.1337C480.354 43.4995 480.147 44.5236 480.044 44.9834C479.848 45.9657 479.827 46.0806 479.734 46.5614L479.672 46.624C478.938 46.6136 478.679 46.6136 477.831 46.6554L477.79 46.5822C477.935 45.997 478.069 45.4118 478.204 44.8266C478.555 43.2486 478.638 42.6426 478.741 41.8379L478.803 41.7961C479.631 41.6812 479.837 41.6498 480.726 41.4722L480.799 41.5558L480.675 42.0574C480.82 41.9634 480.975 41.8693 481.119 41.7961C481.544 41.5871 482.009 41.5244 482.267 41.5244C482.66 41.5244 483.084 41.6394 483.27 42.0992C483.435 42.5067 483.322 43.0083 483.094 44.0011L482.981 44.5027C482.743 45.6104 482.712 45.8089 482.587 46.5613L482.505 46.624L482.515 46.6345ZM488.71 37.9826L488.11 37.9931C486.559 38.014 485.939 38.0035 485.691 37.9722C485.67 38.0872 485.629 38.2857 485.629 38.2857C485.629 38.2857 485.071 40.8773 485.071 40.8877C485.071 40.8877 483.747 46.4053 483.685 46.6665C485.04 46.6456 485.588 46.6456 485.826 46.677C485.877 46.4157 486.187 44.8796 486.198 44.8796C486.198 44.8796 486.467 43.751 486.477 43.7092C486.477 43.7092 486.559 43.5942 486.642 43.542H486.766C487.935 43.542 489.248 43.542 490.282 42.7792C490.985 42.2567 491.461 41.4729 491.678 40.5324C491.729 40.3025 491.771 40.0308 491.771 39.7487C491.771 39.3829 491.699 39.0277 491.492 38.7455C490.964 38.0035 489.92 37.9931 488.71 37.9826ZM489.486 40.6892C489.362 41.2639 488.989 41.7551 488.514 41.985C488.121 42.1835 487.645 42.2044 487.149 42.2044H486.828L486.849 42.079C486.849 42.079 487.439 39.4874 487.439 39.4979L487.459 39.362L487.469 39.2575L487.707 39.2785C487.707 39.2785 488.927 39.3829 488.948 39.3829C489.424 39.571 489.63 40.0517 489.486 40.6892ZM502.196 41.5558L502.124 41.4722C501.245 41.6498 501.079 41.6812 500.273 41.7962L500.211 41.8588C500.211 41.8693 500.2 41.8798 500.2 41.9006V41.8902C499.601 43.3009 499.611 42.9979 499.125 44.1056C499.125 44.0533 499.125 44.022 499.115 43.9697L498.991 41.5662L498.918 41.4826C497.988 41.6603 497.967 41.6916 497.119 41.8066L497.057 41.8693C497.047 41.9006 497.047 41.932 497.047 41.9633L497.057 41.9738C497.16 42.5276 497.14 42.4022 497.243 43.2696C497.295 43.698 497.357 44.1265 497.408 44.5445C497.491 45.2551 497.543 45.5999 497.646 46.6763C497.067 47.6376 496.933 48.0034 496.375 48.8497L496.406 48.9333C497.243 48.9021 497.429 48.9021 498.049 48.9021L498.184 48.7453C498.649 47.7318 502.206 41.5663 502.206 41.5663L502.196 41.5558ZM471.95 42.248C472.425 41.9136 472.487 41.4538 472.084 41.2135C471.681 40.9731 470.967 41.0463 470.492 41.3807C470.016 41.7047 469.964 42.1644 470.368 42.4152C470.76 42.6452 471.474 42.5824 471.95 42.248Z" fill="#FEFEFE"/>
<path d="M498.047 48.8836L497.354 50.0855C497.137 50.493 496.723 50.8065 496.082 50.8065L494.976 50.7856L495.296 49.6988H495.513C495.627 49.6988 495.71 49.6884 495.772 49.657C495.834 49.6361 495.865 49.5943 495.917 49.5316L496.33 48.8733H498.057L498.047 48.8836Z" fill="#FEFEFE"/>
</g>
<g filter="url(#filter2_dd_1167_759)">
<rect x="532.998" y="21.7936" width="78.5" height="50" rx="2" fill="white"/>
<rect x="532.498" y="21.2936" width="79.5" height="51" rx="2.5" stroke="#D6DCE5"/>
<path d="M595.611 41.5174C595.042 38.2511 593.447 35.278 590.657 33.1005C587.696 31.0486 583.654 29.8761 579.212 29.4573C574.942 29.0386 572.038 29.1642 572.038 29.1642C572.038 29.1642 569.134 29.0805 564.863 29.4573C560.422 29.8761 556.379 31.0486 553.418 33.1005C550.628 35.278 549.034 38.2511 548.464 41.5174C547.895 44.658 548.009 46.7937 548.009 46.7937C548.009 46.7937 547.895 48.9293 548.407 52.0699C548.977 55.3358 550.571 58.3093 553.361 60.4869C556.322 62.5387 560.365 63.7108 564.806 64.1296C569.077 64.5483 571.981 64.4231 571.981 64.4231C571.981 64.4231 574.885 64.5065 579.155 64.1296C583.597 63.7108 587.639 62.5387 590.6 60.4869C593.39 58.3098 594.985 55.3358 595.554 52.0699C596.124 48.9293 595.953 46.7937 595.953 46.7937C595.953 46.7937 596.181 44.658 595.611 41.5174Z" fill="#1E4BC6"/>
<path d="M560.939 41.6465V50.9008H562.655V48.2632H564.079C564.582 48.2632 565.043 48.1788 565.419 48.0113C565.796 47.8446 566.173 47.5924 566.466 47.2997C566.759 47.007 567.01 46.6716 567.178 46.2528C567.345 45.8341 567.429 45.4155 567.429 44.9549C567.429 44.4942 567.345 44.0756 567.178 43.6569C567.01 43.2381 566.759 42.9031 566.466 42.61C566.173 42.3169 565.838 42.0651 565.419 41.8976C565.001 41.7301 564.582 41.6465 564.079 41.6465L560.939 41.6465ZM562.614 43.1964H563.954C564.205 43.1964 564.456 43.2386 564.665 43.3224C564.875 43.4061 565.043 43.5311 565.21 43.6986C565.336 43.8661 565.461 44.0339 565.544 44.2433C565.628 44.4527 565.67 44.6619 565.67 44.9131C565.67 45.1644 565.628 45.3736 565.544 45.583C565.461 45.7924 565.377 45.9602 565.21 46.1277C565.043 46.2952 564.875 46.421 564.665 46.5047C564.456 46.5885 564.205 46.6299 563.954 46.6299H562.614V43.2381V43.1964ZM571.406 43.4475C570.904 43.4475 570.485 43.5311 570.025 43.6986C569.606 43.8661 569.187 44.0751 568.852 44.4101C568.517 44.7451 568.224 45.1224 568.015 45.583C567.806 46.0436 567.722 46.5883 567.722 47.1746C567.722 47.7608 567.847 48.3047 568.057 48.7653C568.266 49.226 568.559 49.6027 568.894 49.9382C569.229 50.2309 569.648 50.4822 570.067 50.6497C570.527 50.8176 570.945 50.9008 571.406 50.9008C571.908 50.9008 572.328 50.8181 572.746 50.6497C573.165 50.4403 573.542 50.1893 573.793 49.8539V50.9008H575.509V43.4475H573.793V44.4101C573.5 44.117 573.165 43.8661 572.746 43.6986C572.37 43.5311 571.908 43.4475 571.406 43.4475ZM576.096 43.4892L579.11 50.5663L577.561 54.2933H579.319L583.715 43.4892H581.915L579.989 48.556L577.896 43.4892H576.096ZM571.7 45.0391C571.993 45.0391 572.286 45.081 572.579 45.2485C572.872 45.3741 573.081 45.4996 573.29 45.7089C573.499 45.8764 573.625 46.1275 573.751 46.3788C573.876 46.6296 573.918 46.9227 573.918 47.2163C573.918 47.509 573.876 47.8017 573.751 48.0538C573.625 48.305 573.499 48.5142 573.29 48.7236C573.081 48.933 572.83 49.0593 572.579 49.1849C572.327 49.3105 572.035 49.3517 571.7 49.3517C571.365 49.3517 571.071 49.2682 570.82 49.1849C570.569 49.0589 570.318 48.933 570.108 48.7236C569.941 48.5142 569.774 48.2642 569.648 48.0121C569.522 47.7608 569.48 47.4677 569.48 47.1746C569.48 46.8814 569.522 46.5883 569.648 46.3371C569.732 46.0858 569.899 45.8766 570.108 45.6672C570.318 45.4578 570.527 45.3324 570.82 45.2068C571.113 45.0811 571.407 45.0391 571.7 45.0391Z" fill="white"/>
</g>
<g clip-path="url(#clip2_1167_759)">
<path d="M38.2108 145.741C51.8703 145.807 64.339 134.675 64.339 121.131C64.339 106.322 51.8703 96.0853 38.2108 96.0895H26.4556C12.6325 96.0853 1.25452 106.324 1.25452 121.131C1.25452 134.678 12.6325 145.807 26.4556 145.741H38.2108Z" fill="#006095"/>
<path d="M31.6987 134.319V107.426C37.1396 109.5 41.002 114.733 41.0112 120.871C41.002 127.011 37.1396 132.241 31.6987 134.319ZM12.0142 120.871C12.0264 114.737 15.8827 109.506 21.3206 107.427V134.313C15.8827 132.235 12.0264 127.008 12.0142 120.871ZM26.5106 98.1419C13.8795 98.1462 3.64417 108.318 3.64111 120.871C3.64417 133.423 13.8795 143.594 26.5106 143.597C39.1459 143.594 49.3831 133.423 49.3849 120.871C49.3831 108.318 39.1459 98.1462 26.5106 98.1419Z" fill="white"/>
<path d="M72.3495 106.772C72.3495 104.423 71.1159 104.577 69.9342 104.553V103.874C70.9584 103.924 72.0089 103.924 73.0355 103.924C74.1385 103.924 75.6369 103.874 77.5828 103.874C84.3878 103.874 88.0928 108.39 88.0928 113.014C88.0928 115.6 86.5699 122.101 77.266 122.101C75.9268 122.101 74.6896 122.05 73.4554 122.05C72.2738 122.05 71.1159 122.075 69.9342 122.101V121.422C71.5096 121.265 72.2738 121.213 72.3495 119.437V106.772ZM74.9252 119.02C74.9252 121.03 76.3724 121.265 77.6591 121.265C83.3368 121.265 85.2015 117.009 85.2015 113.117C85.2015 108.236 82.0477 104.711 76.9761 104.711C75.8969 104.711 75.4007 104.787 74.9252 104.815V119.02ZM89.0145 121.423H89.5131C90.248 121.423 90.7742 121.423 90.7742 120.559V113.484C90.7742 112.336 90.3805 112.176 89.4069 111.657V111.239C90.6423 110.871 92.1151 110.377 92.2189 110.299C92.4039 110.195 92.5607 110.167 92.6926 110.167C92.8226 110.167 92.8769 110.324 92.8769 110.534V120.559C92.8769 121.423 93.4549 121.423 94.1916 121.423H94.6372V122.102C93.743 122.102 92.8226 122.05 91.8789 122.05C90.9322 122.05 89.9856 122.075 89.0145 122.102V121.423ZM91.8264 106.146C91.1416 106.146 90.5386 105.52 90.5386 104.841C90.5386 104.187 91.1703 103.585 91.8264 103.585C92.5076 103.585 93.1137 104.135 93.1137 104.841C93.1137 105.547 92.5345 106.146 91.8264 106.146ZM97.1342 113.64C97.1342 112.674 96.8437 112.414 95.6114 111.918V111.422C96.7399 111.057 97.8166 110.716 99.0795 110.167C99.1576 110.167 99.2345 110.22 99.2345 110.428V112.126C100.735 111.057 102.023 110.167 103.786 110.167C106.018 110.167 106.806 111.786 106.806 113.823V120.559C106.806 121.423 107.384 121.423 108.12 121.423H108.593V122.102C107.672 122.102 106.752 122.05 105.808 122.05C104.861 122.05 103.914 122.075 102.969 122.102V121.423H103.441C104.179 121.423 104.702 121.423 104.702 120.559V113.798C104.702 112.308 103.786 111.578 102.286 111.578C101.445 111.578 100.105 112.256 99.2345 112.831V120.559C99.2345 121.423 99.8162 121.423 100.552 121.423H101.025V122.102C100.105 122.102 99.1839 122.05 98.2378 122.05C97.2929 122.05 96.345 122.075 95.4002 122.102V121.423H95.8744C96.6099 121.423 97.1342 121.423 97.1342 120.559V113.64ZM110.592 114.895C110.537 115.13 110.537 115.521 110.592 116.409C110.746 118.889 112.354 120.925 114.453 120.925C115.901 120.925 117.032 120.142 118.002 119.177L118.37 119.543C117.161 121.136 115.662 122.493 113.509 122.493C109.329 122.493 108.489 118.471 108.489 116.801C108.489 111.682 111.957 110.167 113.795 110.167C115.926 110.167 118.214 111.498 118.237 114.266C118.237 114.425 118.237 114.58 118.214 114.738L117.975 114.895H110.592ZM115.244 114.059C115.901 114.059 115.977 113.718 115.977 113.405C115.977 112.074 115.163 111.004 113.691 111.004C112.088 111.004 110.985 112.176 110.67 114.059H115.244ZM118.843 121.423H119.553C120.286 121.423 120.812 121.423 120.812 120.559V113.223C120.812 112.414 119.841 112.256 119.446 112.048V111.657C121.365 110.847 122.416 110.167 122.656 110.167C122.811 110.167 122.889 110.245 122.889 110.508V112.857H122.945C123.599 111.839 124.705 110.167 126.308 110.167C126.965 110.167 127.805 110.61 127.805 111.551C127.805 112.256 127.307 112.885 126.571 112.885C125.753 112.885 125.753 112.256 124.835 112.256C124.387 112.256 122.916 112.857 122.916 114.425V120.559C122.916 121.423 123.441 121.423 124.177 121.423H125.648V122.102C124.202 122.075 123.103 122.05 121.971 122.05C120.894 122.05 119.789 122.075 118.843 122.102V121.423ZM128.961 118.471C129.303 120.194 130.354 121.657 132.273 121.657C133.821 121.657 134.399 120.717 134.399 119.804C134.399 116.722 128.672 117.713 128.672 113.51C128.672 112.047 129.856 110.167 132.746 110.167C133.586 110.167 134.715 110.403 135.74 110.926L135.925 113.587H135.32C135.058 111.943 134.139 111.003 132.456 111.003C131.404 111.003 130.406 111.604 130.406 112.726C130.406 115.784 136.503 114.842 136.503 118.941C136.503 120.664 135.11 122.494 131.982 122.494C130.931 122.494 129.696 122.127 128.777 121.606L128.487 118.603L128.961 118.471ZM160.234 108.6H159.578C159.078 105.547 156.896 104.318 153.954 104.318C150.931 104.318 146.541 106.328 146.541 112.595C146.541 117.872 150.328 121.657 154.374 121.657C156.975 121.657 159.132 119.882 159.658 117.139L160.261 117.296L159.658 121.108C158.554 121.789 155.584 122.493 153.848 122.493C147.7 122.493 143.811 118.55 143.811 112.674C143.811 107.321 148.619 103.481 153.77 103.481C155.898 103.481 157.949 104.162 159.971 104.867L160.234 108.6ZM161.182 121.423H161.679C162.417 121.423 162.943 121.423 162.943 120.559V106.017C162.943 104.318 162.548 104.266 161.55 103.979V103.561C162.6 103.222 163.705 102.752 164.256 102.437C164.543 102.282 164.755 102.149 164.832 102.149C164.992 102.149 165.046 102.307 165.046 102.517V120.559C165.046 121.423 165.623 121.423 166.36 121.423H166.803V122.102C165.913 122.102 164.992 122.05 164.046 122.05C163.101 122.05 162.155 122.075 161.182 122.102V121.423ZM178.056 120.664C178.056 121.136 178.344 121.161 178.79 121.161C179.106 121.161 179.499 121.136 179.842 121.136V121.685C178.71 121.789 176.556 122.337 176.056 122.494L175.924 122.415V120.301C174.349 121.58 173.138 122.494 171.271 122.494C169.853 122.494 168.381 121.58 168.381 119.387V112.701C168.381 112.021 168.277 111.368 166.806 111.239V110.742C167.754 110.716 169.853 110.56 170.196 110.56C170.487 110.56 170.487 110.742 170.487 111.317V118.052C170.487 118.837 170.487 121.082 172.772 121.082C173.665 121.082 174.847 120.404 175.95 119.492V112.464C175.95 111.943 174.689 111.657 173.745 111.396V110.926C176.108 110.768 177.582 110.56 177.843 110.56C178.056 110.56 178.056 110.742 178.056 111.03V120.664ZM183.285 112.048C184.335 111.16 185.754 110.167 187.201 110.167C190.25 110.167 192.087 112.806 192.087 115.651C192.087 119.072 189.565 122.494 185.805 122.494C183.862 122.494 182.837 121.866 182.153 121.58L181.366 122.179L180.816 121.893C181.048 120.352 181.183 118.837 181.183 117.245V106.017C181.183 104.318 180.786 104.266 179.788 103.979V103.561C180.842 103.222 181.943 102.752 182.496 102.437C182.785 102.282 182.994 102.149 183.075 102.149C183.233 102.149 183.285 102.307 183.285 102.517V112.048ZM183.285 119.15C183.285 120.142 184.23 121.815 185.991 121.815C188.804 121.815 189.985 119.072 189.985 116.747C189.985 113.927 187.833 111.578 185.782 111.578C184.807 111.578 183.994 112.205 183.285 112.806V119.15ZM69.9043 137.284H70.1057C70.6197 137.284 71.1629 137.215 71.1629 136.475V129.032C71.1629 128.291 70.6197 128.22 70.1057 128.22H69.9043V127.794C70.4622 127.794 71.3204 127.85 72.0229 127.85C72.737 127.85 73.594 127.794 74.266 127.794V128.22H74.0652C73.5525 128.22 73.008 128.291 73.008 129.032V136.475C73.008 137.215 73.5525 137.284 74.0652 137.284H74.266V137.712C73.58 137.712 72.72 137.657 72.0076 137.657C71.3063 137.657 70.4622 137.712 69.9043 137.712V137.284ZM84.0906 134.912L84.1193 134.884V129.556C84.1193 128.391 83.3032 128.22 82.8747 128.22H82.5598V127.794C83.2324 127.794 83.8904 127.85 84.5618 127.85C85.1477 127.85 85.7361 127.794 86.3209 127.794V128.22H86.1079C85.5054 128.22 84.8334 128.334 84.8334 130.025V136.491C84.8334 136.988 84.8481 137.484 84.9182 137.925H84.375L77.0115 129.768V135.623C77.0115 136.859 77.2526 137.284 78.3549 137.284H78.5972V137.712C77.9832 137.712 77.3692 137.657 76.7533 137.657C76.1118 137.657 75.4532 137.712 74.8093 137.712V137.284H75.0095C75.9958 137.284 76.2955 136.618 76.2955 135.482V129.498C76.2955 128.703 75.6363 128.22 74.9954 128.22H74.8093V127.794C75.3519 127.794 75.9098 127.85 76.4518 127.85C76.8815 127.85 77.2971 127.794 77.7256 127.794L84.0906 134.912ZM88.4627 128.504C87.3884 128.504 87.3481 128.76 87.1333 129.796H86.7048C86.7603 129.399 86.833 129.001 86.8763 128.588C86.9343 128.19 86.9618 127.794 86.9618 127.382H87.3048C87.4202 127.809 87.7772 127.794 88.1654 127.794H95.5418C95.9288 127.794 96.2852 127.78 96.3151 127.353L96.6563 127.41C96.6008 127.794 96.5428 128.177 96.4995 128.561C96.4732 128.945 96.4732 129.329 96.4732 129.712L96.0435 129.869C96.0142 129.344 95.9422 128.504 94.9851 128.504H92.6401V136.063C92.6401 137.159 93.1412 137.284 93.826 137.284H94.0976V137.712C93.5404 137.712 92.5387 137.657 91.7678 137.657C90.9097 137.657 89.908 137.712 89.3496 137.712V137.284H89.6212C90.4104 137.284 90.8083 137.215 90.8083 136.093V128.504H88.4627ZM97.1135 137.284H97.3143C97.8288 137.284 98.3727 137.215 98.3727 136.475V129.032C98.3727 128.291 97.8288 128.22 97.3143 128.22H97.1135V127.794C97.9839 127.794 99.4744 127.85 100.673 127.85C101.876 127.85 103.361 127.794 104.333 127.794C104.309 128.404 104.323 129.343 104.364 129.968L103.933 130.082C103.864 129.159 103.693 128.42 102.191 128.42H100.205V132.142H101.904C102.762 132.142 102.949 131.66 103.034 130.891H103.462C103.434 131.447 103.419 132.001 103.419 132.554C103.419 133.095 103.434 133.634 103.462 134.174L103.034 134.258C102.949 133.407 102.906 132.853 101.918 132.853H100.205V136.163C100.205 137.087 101.031 137.087 101.946 137.087C103.663 137.087 104.42 136.972 104.85 135.354L105.25 135.452C105.063 136.207 104.892 136.958 104.765 137.712C103.848 137.712 102.204 137.657 100.919 137.657C99.6301 137.657 97.9283 137.712 97.1135 137.712V137.284ZM107.18 129.299C107.18 128.263 106.608 128.22 106.163 128.22H105.906V127.793C106.364 127.793 107.25 127.85 108.123 127.85C108.98 127.85 109.667 127.793 110.424 127.793C112.225 127.793 113.829 128.276 113.829 130.296C113.829 131.572 112.971 132.354 111.841 132.797L114.286 136.432C114.687 137.033 114.971 137.201 115.673 137.284V137.712C115.201 137.712 114.743 137.657 114.272 137.657C113.829 137.657 113.37 137.712 112.928 137.712C111.827 136.278 110.881 134.743 109.953 133.107H109.011V136.149C109.011 137.244 109.524 137.284 110.181 137.284H110.439V137.712C109.622 137.712 108.796 137.657 107.98 137.657C107.293 137.657 106.621 137.712 105.906 137.712V137.284H106.163C106.695 137.284 107.18 137.045 107.18 136.519V129.299ZM109.011 132.595H109.709C111.14 132.595 111.911 132.056 111.911 130.379C111.911 129.116 111.097 128.306 109.823 128.306C109.393 128.306 109.21 128.349 109.011 128.362V132.595ZM125.382 134.912L125.407 134.884V129.556C125.407 128.391 124.594 128.22 124.165 128.22H123.851V127.794C124.523 127.794 125.179 127.85 125.853 127.85C126.44 127.85 127.024 127.794 127.614 127.794V128.22H127.398C126.798 128.22 126.126 128.334 126.126 130.025V136.491C126.126 136.988 126.139 137.484 126.21 137.925H125.668L118.304 129.768V135.623C118.304 136.859 118.546 137.284 119.647 137.284H119.89V137.712C119.276 137.712 118.661 137.657 118.047 137.657C117.401 137.657 116.744 137.712 116.101 137.712V137.284H116.299C117.288 137.284 117.588 136.618 117.588 135.482V129.498C117.588 128.703 116.93 128.22 116.287 128.22H116.101V127.794C116.642 127.794 117.203 127.85 117.746 127.85C118.171 127.85 118.588 127.794 119.018 127.794L125.382 134.912ZM129.914 135.681C129.768 136.163 129.596 136.535 129.596 136.788C129.596 137.215 130.198 137.284 130.668 137.284H130.828V137.712C130.255 137.682 129.671 137.657 129.095 137.657C128.581 137.657 128.069 137.682 127.552 137.712V137.284H127.639C128.196 137.284 128.669 136.958 128.88 136.36L131.171 129.841C131.355 129.315 131.615 128.604 131.701 128.077C132.156 127.922 132.729 127.639 133.001 127.468C133.045 127.452 133.07 127.438 133.115 127.438C133.158 127.438 133.184 127.438 133.216 127.482C133.259 127.595 133.299 127.723 133.346 127.836L135.977 135.268C136.147 135.765 136.318 136.29 136.503 136.718C136.676 137.116 136.976 137.284 137.449 137.284H137.534V137.712C136.891 137.682 136.246 137.657 135.561 137.657C134.861 137.657 134.144 137.682 133.415 137.712V137.284H133.573C133.901 137.284 134.46 137.229 134.46 136.873C134.46 136.689 134.332 136.306 134.172 135.85L133.616 134.202H130.37L129.914 135.681ZM132.001 129.385H131.971L130.641 133.407H133.313L132.001 129.385ZM138.163 128.504C137.09 128.504 137.048 128.76 136.833 129.796H136.403C136.459 129.399 136.532 129.001 136.577 128.588C136.633 128.19 136.66 127.794 136.66 127.382H137.005C137.119 127.809 137.477 127.794 137.862 127.794H145.242C145.627 127.794 145.984 127.78 146.013 127.353L146.355 127.41C146.3 127.794 146.243 128.177 146.2 128.561C146.169 128.945 146.169 129.329 146.169 129.712L145.741 129.869C145.714 129.344 145.642 128.504 144.684 128.504H142.338V136.063C142.338 137.159 142.84 137.284 143.525 137.284H143.797V137.712C143.239 137.712 142.239 137.657 141.466 137.657C140.61 137.657 139.606 137.712 139.049 137.712V137.284H139.321C140.109 137.284 140.509 137.215 140.509 136.093V128.504H138.163ZM146.883 137.284H147.083C147.599 137.284 148.14 137.215 148.14 136.475V129.032C148.14 128.291 147.599 128.22 147.083 128.22H146.883V127.794C147.442 127.794 148.298 127.85 148.998 127.85C149.715 127.85 150.572 127.794 151.246 127.794V128.22H151.045C150.53 128.22 149.985 128.291 149.985 129.032V136.475C149.985 137.215 150.53 137.284 151.045 137.284H151.246V137.712C150.558 137.712 149.7 137.657 148.986 137.657C148.284 137.657 147.442 137.712 146.883 137.712V137.284ZM156.948 127.582C159.997 127.582 162.426 129.458 162.426 132.485C162.426 135.753 160.067 137.925 157.022 137.925C153.988 137.925 151.673 135.88 151.673 132.825C151.673 129.87 153.975 127.582 156.948 127.582ZM157.164 137.3C159.939 137.3 160.422 134.869 160.422 132.797C160.422 130.72 159.296 128.206 156.921 128.206C154.418 128.206 153.675 130.423 153.675 132.325C153.675 134.869 154.847 137.3 157.164 137.3ZM172.062 134.912L172.092 134.884V129.556C172.092 128.391 171.274 128.22 170.845 128.22H170.535V127.794C171.205 127.794 171.863 127.85 172.533 127.85C173.122 127.85 173.708 127.794 174.295 127.794V128.22H174.079C173.48 128.22 172.806 128.334 172.806 130.025V136.491C172.806 136.988 172.82 137.484 172.892 137.925H172.35L164.984 129.768V135.623C164.984 136.859 165.227 137.284 166.327 137.284H166.571V137.712C165.956 137.712 165.343 137.657 164.728 137.657C164.084 137.657 163.424 137.712 162.78 137.712V137.284H162.982C163.971 137.284 164.268 136.618 164.268 135.482V129.498C164.268 128.703 163.614 128.22 162.967 128.22H162.78V127.794C163.325 127.794 163.883 127.85 164.425 127.85C164.854 127.85 165.268 127.794 165.698 127.794L172.062 134.912ZM176.593 135.681C176.452 136.163 176.279 136.535 176.279 136.788C176.279 137.215 176.881 137.284 177.35 137.284H177.51V137.712C176.937 137.682 176.35 137.657 175.778 137.657C175.262 137.657 174.749 137.682 174.237 137.712V137.284H174.318C174.877 137.284 175.351 136.958 175.562 136.36L177.854 129.841C178.039 129.315 178.297 128.604 178.38 128.077C178.839 127.922 179.41 127.639 179.684 127.468C179.725 127.452 179.754 127.438 179.797 127.438C179.84 127.438 179.867 127.438 179.896 127.482C179.939 127.595 179.983 127.723 180.027 127.836L182.656 135.268C182.828 135.765 182.998 136.29 183.186 136.718C183.358 137.116 183.659 137.284 184.13 137.284H184.217V137.712C183.573 137.682 182.929 137.657 182.242 137.657C181.543 137.657 180.826 137.682 180.097 137.712V137.284H180.255C180.581 137.284 181.143 137.229 181.143 136.873C181.143 136.689 181.013 136.306 180.854 135.85L180.298 134.202H177.052L176.593 135.681ZM178.682 129.385H178.654L177.322 133.407H179.998L178.682 129.385ZM187.82 136.319C187.82 136.889 188.218 137.058 188.675 137.116C189.262 137.159 189.905 137.159 190.565 137.087C191.165 137.016 191.679 136.675 191.936 136.319C192.164 136.006 192.293 135.609 192.38 135.296H192.794C192.637 136.106 192.437 136.903 192.264 137.712C191.009 137.712 189.746 137.657 188.491 137.657C187.231 137.657 185.974 137.712 184.715 137.712V137.284H184.913C185.43 137.284 185.989 137.215 185.989 136.333V129.031C185.989 128.291 185.43 128.22 184.913 128.22H184.715V127.794C185.472 127.794 186.216 127.85 186.973 127.85C187.705 127.85 188.419 127.794 189.149 127.794V128.22H188.789C188.247 128.22 187.82 128.236 187.82 128.987V136.319Z" fill="#1A1918"/>
</g>
<g filter="url(#filter3_dd_1167_759)">
<rect x="208.892" y="95.7936" width="78.5" height="50" rx="2" fill="white"/>
<rect x="208.392" y="95.2936" width="79.5" height="51" rx="2.5" stroke="#D6DCE5"/>
<path d="M234.282 114.244C234.806 113.597 235.161 112.727 235.068 111.838C234.301 111.876 233.365 112.338 232.824 112.987C232.337 113.542 231.907 114.448 232.019 115.299C232.88 115.373 233.74 114.874 234.282 114.244Z" fill="#000008"/>
<path d="M235.058 115.465C233.808 115.392 232.745 116.167 232.149 116.167C231.551 116.167 230.637 115.502 229.649 115.52C228.362 115.539 227.168 116.258 226.515 117.402C225.173 119.691 226.161 123.085 227.467 124.949C228.101 125.871 228.865 126.886 229.873 126.85C230.824 126.813 231.197 126.241 232.354 126.241C233.509 126.241 233.845 126.85 234.853 126.831C235.897 126.813 236.55 125.909 237.184 124.986C237.912 123.935 238.21 122.92 238.229 122.864C238.21 122.846 236.214 122.089 236.196 119.819C236.177 117.919 237.762 117.015 237.837 116.959C236.942 115.65 235.543 115.502 235.058 115.465Z" fill="#000008"/>
<path d="M245.94 112.894C248.657 112.894 250.548 114.745 250.548 117.44C250.548 120.145 248.618 122.006 245.872 122.006H242.864V126.735H240.691V112.894L245.94 112.894ZM242.864 120.203H245.358C247.25 120.203 248.326 119.196 248.326 117.45C248.326 115.704 247.25 114.707 245.368 114.707H242.864V120.203Z" fill="#000008"/>
<path d="M251.116 123.867C251.116 122.102 252.484 121.018 254.909 120.884L257.703 120.721V119.944C257.703 118.822 256.937 118.15 255.656 118.15C254.443 118.15 253.687 118.726 253.503 119.627H251.523C251.64 117.805 253.211 116.462 255.734 116.462C258.208 116.462 259.789 117.757 259.789 119.781V126.735H257.781V125.076H257.733C257.141 126.198 255.85 126.908 254.512 126.908C252.513 126.908 251.116 125.68 251.116 123.867ZM257.703 122.956V122.16L255.191 122.313C253.939 122.399 253.231 122.946 253.231 123.809C253.231 124.692 253.968 125.267 255.094 125.267C256.558 125.267 257.703 124.27 257.703 122.956Z" fill="#000008"/>
<path d="M261.685 130.447V128.768C261.84 128.807 262.189 128.807 262.364 128.807C263.334 128.807 263.858 128.404 264.178 127.368C264.178 127.349 264.363 126.754 264.363 126.745L260.676 116.644H262.946L265.527 124.855H265.566L268.147 116.644H270.358L266.536 127.262C265.663 129.709 264.654 130.495 262.539 130.495C262.364 130.495 261.84 130.476 261.685 130.447Z" fill="#000008"/>
</g>
<g filter="url(#filter4_dd_1167_759)">
<rect x="303.392" y="95.7936" width="78.5" height="50" rx="2" fill="white"/>
<rect x="302.892" y="95.2936" width="79.5" height="51" rx="2.5" stroke="#D6DCE5"/>
<path d="M340.935 126.786H339.17V113.202H343.851C345.037 113.202 346.048 113.593 346.876 114.375C347.722 115.157 348.145 116.112 348.145 117.239C348.145 118.394 347.722 119.349 346.876 120.121C346.058 120.894 345.046 121.276 343.851 121.276H340.935V126.786ZM340.935 114.875V119.612H343.887C344.586 119.612 345.175 119.376 345.635 118.912C346.104 118.448 346.343 117.885 346.343 117.248C346.343 116.621 346.104 116.066 345.635 115.603C345.175 115.121 344.595 114.884 343.887 114.884H340.935V114.875Z" fill="#3C4043"/>
<path d="M352.761 117.185C354.067 117.185 355.097 117.53 355.851 118.221C356.605 118.912 356.982 119.858 356.982 121.058V126.786H355.299V125.495H355.226C354.499 126.558 353.525 127.086 352.311 127.086C351.272 127.086 350.407 126.786 349.708 126.177C349.009 125.567 348.66 124.813 348.66 123.904C348.66 122.94 349.028 122.176 349.763 121.612C350.499 121.04 351.483 120.758 352.706 120.758C353.754 120.758 354.619 120.949 355.29 121.331V120.931C355.29 120.321 355.051 119.812 354.564 119.385C354.076 118.958 353.506 118.748 352.853 118.748C351.869 118.748 351.088 119.158 350.517 119.985L348.963 119.021C349.819 117.794 351.088 117.185 352.761 117.185ZM350.481 123.931C350.481 124.385 350.674 124.767 351.069 125.067C351.455 125.367 351.915 125.522 352.439 125.522C353.184 125.522 353.846 125.249 354.426 124.704C355.005 124.158 355.299 123.522 355.299 122.785C354.748 122.358 353.984 122.14 353 122.14C352.283 122.14 351.685 122.313 351.207 122.649C350.72 123.004 350.481 123.431 350.481 123.931Z" fill="#3C4043"/>
<path d="M366.583 117.485L360.697 130.868H358.877L361.065 126.186L357.185 117.485H359.107L361.902 124.158H361.939L364.661 117.485H366.583Z" fill="#3C4043"/>
<path d="M333.912 120.176C333.912 119.607 333.861 119.062 333.765 118.538H326.364V121.539L330.627 121.54C330.454 122.538 329.898 123.389 329.045 123.956V125.903H331.582C333.064 124.547 333.912 122.543 333.912 120.176Z" fill="#4285F4"/>
<path d="M329.046 123.956C328.34 124.427 327.43 124.703 326.366 124.703C324.311 124.703 322.567 123.334 321.943 121.488H319.326V123.495C320.622 126.039 323.287 127.785 326.366 127.785C328.494 127.785 330.282 127.093 331.583 125.902L329.046 123.956Z" fill="#34A853"/>
<path d="M321.696 119.999C321.696 119.48 321.784 118.979 321.943 118.508V116.501H319.326C318.79 117.553 318.488 118.74 318.488 119.999C318.488 121.257 318.791 122.444 319.326 123.496L321.943 121.489C321.784 121.018 321.696 120.517 321.696 119.999Z" fill="#FABB05"/>
<path d="M326.366 115.294C327.528 115.294 328.568 115.689 329.389 116.462L331.637 114.241C330.272 112.983 328.491 112.211 326.366 112.211C323.288 112.211 320.622 113.957 319.326 116.501L321.943 118.508C322.567 116.663 324.311 115.294 326.366 115.294Z" fill="#E94235"/>
</g>
<rect x="397.392" y="95.2936" width="148.794" height="51" fill="white"/>
<rect x="397.392" y="95.2936" width="148.794" height="51" stroke="#D6DCE5"/>
<path d="M475.26 110.499C481.163 110.499 485.948 115.016 485.948 120.596V120.602C485.948 126.182 481.163 130.705 475.26 130.705C469.357 130.705 464.572 126.182 464.572 120.602V120.596C464.572 115.016 469.357 110.499 475.26 110.499Z" fill="#F47216"/>
<path d="M458.475 110.63C460.161 110.63 461.575 110.972 463.296 111.796V116.155C461.666 114.649 460.252 114.018 458.382 114.018C454.707 114.018 451.817 116.894 451.817 120.541C451.817 124.386 454.618 127.091 458.564 127.091C460.341 127.091 461.729 126.493 463.296 125.011V129.372C461.514 130.165 460.07 130.478 458.382 130.478C452.415 130.478 447.778 126.15 447.778 120.568C447.778 115.045 452.538 110.63 458.475 110.63ZM439.948 110.75C442.15 110.75 444.166 111.462 445.851 112.856L443.8 115.393C442.779 114.312 441.814 113.856 440.64 113.856C438.951 113.856 437.721 114.764 437.721 115.96C437.721 116.986 438.411 117.529 440.763 118.351C445.22 119.892 446.542 121.258 446.542 124.275C446.542 127.952 443.684 130.511 439.613 130.511C436.63 130.511 434.463 129.401 432.657 126.896L435.188 124.592C436.091 126.241 437.597 127.125 439.466 127.125C441.214 127.125 442.508 125.985 442.508 124.446C442.508 123.649 442.116 122.965 441.333 122.481C440.939 122.252 440.159 121.911 438.624 121.4C434.944 120.147 433.681 118.809 433.681 116.192C433.681 113.084 436.393 110.75 439.948 110.75ZM484.728 111.081H489.009L494.366 123.837L499.794 111.081H504.042L495.363 130.56H493.254L484.728 111.081ZM427.262 111.11H431.181V130.101H427.262V111.11ZM505.813 111.11H516.927V114.328H509.73V118.543H516.662V121.76H509.73V126.886H516.927V130.101H505.813V111.11ZM527.866 122.101C530.818 121.533 532.442 119.625 532.442 116.717C532.442 113.161 529.852 111.11 525.332 111.11H519.522V130.102H523.436V122.472H523.947L529.371 130.101H534.19L527.866 122.101ZM524.581 119.853H523.436V114.101H524.643C527.083 114.101 528.41 115.068 528.41 116.917C528.41 118.826 527.084 119.853 524.581 119.853ZM414.673 111.11H408.921V130.101H414.643C417.685 130.101 419.883 129.422 421.811 127.909C424.103 126.116 425.459 123.414 425.459 120.619C425.459 115.014 421.028 111.11 414.673 111.11ZM419.251 125.377C418.02 126.427 416.421 126.886 413.889 126.886H412.837V114.328H413.889C416.42 114.328 417.957 114.757 419.251 115.864C420.606 117.005 421.422 118.772 421.422 120.592C421.422 122.414 420.606 124.236 419.251 125.377Z" fill="black"/>
<defs>
<filter id="filter0_dd_1167_759" x="116.063" y="0.793579" width="160" height="132" filterUnits="userSpaceOnUse" color-interpolation-filters="sRGB">
<feFlood flood-opacity="0" result="BackgroundImageFix"/>
<feColorMatrix in="SourceAlpha" type="matrix" values="0 0 0 0 0 0 0 0 0 0 0 0 0 0 0 0 0 0 127 0" result="hardAlpha"/>
<feOffset dy="2"/>
<feGaussianBlur stdDeviation="10"/>
<feColorMatrix type="matrix" values="0 0 0 0 0.717647 0 0 0 0 0.717647 0 0 0 0 0.717647 0 0 0 0.08 0"/>
<feBlend mode="normal" in2="BackgroundImageFix" result="effect1_dropShadow_1167_759"/>
<feColorMatrix in="SourceAlpha" type="matrix" values="0 0 0 0 0 0 0 0 0 0 0 0 0 0 0 0 0 0 127 0" result="hardAlpha"/>
<feOffset dy="20"/>
<feGaussianBlur stdDeviation="20"/>
<feColorMatrix type="matrix" values="0 0 0 0 0.717647 0 0 0 0 0.717647 0 0 0 0 0.717647 0 0 0 0.08 0"/>
<feBlend mode="normal" in2="effect1_dropShadow_1167_759" result="effect2_dropShadow_1167_759"/>
<feBlend mode="normal" in="SourceGraphic" in2="effect2_dropShadow_1167_759" result="shape"/>
</filter>
<filter id="filter1_dd_1167_759" x="210.063" y="0.793579" width="160" height="132" filterUnits="userSpaceOnUse" color-interpolation-filters="sRGB">
<feFlood flood-opacity="0" result="BackgroundImageFix"/>
<feColorMatrix in="SourceAlpha" type="matrix" values="0 0 0 0 0 0 0 0 0 0 0 0 0 0 0 0 0 0 127 0" result="hardAlpha"/>
<feOffset dy="2"/>
<feGaussianBlur stdDeviation="10"/>
<feColorMatrix type="matrix" values="0 0 0 0 0.717647 0 0 0 0 0.717647 0 0 0 0 0.717647 0 0 0 0.08 0"/>
<feBlend mode="normal" in2="BackgroundImageFix" result="effect1_dropShadow_1167_759"/>
<feColorMatrix in="SourceAlpha" type="matrix" values="0 0 0 0 0 0 0 0 0 0 0 0 0 0 0 0 0 0 127 0" result="hardAlpha"/>
<feOffset dy="20"/>
<feGaussianBlur stdDeviation="20"/>
<feColorMatrix type="matrix" values="0 0 0 0 0.717647 0 0 0 0 0.717647 0 0 0 0 0.717647 0 0 0 0.08 0"/>
<feBlend mode="normal" in2="effect1_dropShadow_1167_759" result="effect2_dropShadow_1167_759"/>
<feBlend mode="normal" in="SourceGraphic" in2="effect2_dropShadow_1167_759" result="shape"/>
</filter>
<filter id="filter2_dd_1167_759" x="491.998" y="0.793579" width="160.5" height="132" filterUnits="userSpaceOnUse" color-interpolation-filters="sRGB">
<feFlood flood-opacity="0" result="BackgroundImageFix"/>
<feColorMatrix in="SourceAlpha" type="matrix" values="0 0 0 0 0 0 0 0 0 0 0 0 0 0 0 0 0 0 127 0" result="hardAlpha"/>
<feOffset dy="2"/>
<feGaussianBlur stdDeviation="10"/>
<feColorMatrix type="matrix" values="0 0 0 0 0.717647 0 0 0 0 0.717647 0 0 0 0 0.717647 0 0 0 0.08 0"/>
<feBlend mode="normal" in2="BackgroundImageFix" result="effect1_dropShadow_1167_759"/>
<feColorMatrix in="SourceAlpha" type="matrix" values="0 0 0 0 0 0 0 0 0 0 0 0 0 0 0 0 0 0 127 0" result="hardAlpha"/>
<feOffset dy="20"/>
<feGaussianBlur stdDeviation="20"/>
<feColorMatrix type="matrix" values="0 0 0 0 0.717647 0 0 0 0 0.717647 0 0 0 0 0.717647 0 0 0 0.08 0"/>
<feBlend mode="normal" in2="effect1_dropShadow_1167_759" result="effect2_dropShadow_1167_759"/>
<feBlend mode="normal" in="SourceGraphic" in2="effect2_dropShadow_1167_759" result="shape"/>
</filter>
<filter id="filter3_dd_1167_759" x="167.892" y="74.7936" width="160.5" height="132" filterUnits="userSpaceOnUse" color-interpolation-filters="sRGB">
<feFlood flood-opacity="0" result="BackgroundImageFix"/>
<feColorMatrix in="SourceAlpha" type="matrix" values="0 0 0 0 0 0 0 0 0 0 0 0 0 0 0 0 0 0 127 0" result="hardAlpha"/>
<feOffset dy="2"/>
<feGaussianBlur stdDeviation="10"/>
<feColorMatrix type="matrix" values="0 0 0 0 0.717647 0 0 0 0 0.717647 0 0 0 0 0.717647 0 0 0 0.08 0"/>
<feBlend mode="normal" in2="BackgroundImageFix" result="effect1_dropShadow_1167_759"/>
<feColorMatrix in="SourceAlpha" type="matrix" values="0 0 0 0 0 0 0 0 0 0 0 0 0 0 0 0 0 0 127 0" result="hardAlpha"/>
<feOffset dy="20"/>
<feGaussianBlur stdDeviation="20"/>
<feColorMatrix type="matrix" values="0 0 0 0 0.717647 0 0 0 0 0.717647 0 0 0 0 0.717647 0 0 0 0.08 0"/>
<feBlend mode="normal" in2="effect1_dropShadow_1167_759" result="effect2_dropShadow_1167_759"/>
<feBlend mode="normal" in="SourceGraphic" in2="effect2_dropShadow_1167_759" result="shape"/>
</filter>
<filter id="filter4_dd_1167_759" x="262.392" y="74.7936" width="160.5" height="132" filterUnits="userSpaceOnUse" color-interpolation-filters="sRGB">
<feFlood flood-opacity="0" result="BackgroundImageFix"/>
<feColorMatrix in="SourceAlpha" type="matrix" values="0 0 0 0 0 0 0 0 0 0 0 0 0 0 0 0 0 0 127 0" result="hardAlpha"/>
<feOffset dy="2"/>
<feGaussianBlur stdDeviation="10"/>
<feColorMatrix type="matrix" values="0 0 0 0 0.717647 0 0 0 0 0.717647 0 0 0 0 0.717647 0 0 0 0.08 0"/>
<feBlend mode="normal" in2="BackgroundImageFix" result="effect1_dropShadow_1167_759"/>
<feColorMatrix in="SourceAlpha" type="matrix" values="0 0 0 0 0 0 0 0 0 0 0 0 0 0 0 0 0 0 127 0" result="hardAlpha"/>
<feOffset dy="20"/>
<feGaussianBlur stdDeviation="20"/>
<feColorMatrix type="matrix" values="0 0 0 0 0.717647 0 0 0 0 0.717647 0 0 0 0 0.717647 0 0 0 0.08 0"/>
<feBlend mode="normal" in2="effect1_dropShadow_1167_759" result="effect2_dropShadow_1167_759"/>
<feBlend mode="normal" in="SourceGraphic" in2="effect2_dropShadow_1167_759" result="shape"/>
</filter>
<clipPath id="clip0_1167_759">
<rect width="78" height="50" fill="white" transform="translate(345.063 21.7936)"/>
</clipPath>
<clipPath id="clip1_1167_759">
<rect width="77.9343" height="50" fill="white" transform="translate(439.063 21.7936)"/>
</clipPath>
<clipPath id="clip2_1167_759">
<rect width="191.892" height="50" fill="white" transform="translate(1 95.7936)"/>
</clipPath>
</defs>
</svg>
