<svg width="154" height="33" viewBox="0 0 154 33" fill="none" xmlns="http://www.w3.org/2000/svg">
<path d="M108.585 5.75839H94.1645C93.7296 5.75839 93.4619 6.02416 93.4619 6.45604V7.5745C93.4619 8.00637 93.7296 8.27215 94.1645 8.27215H100.031V27.6181C100.031 28.0279 100.299 28.2825 100.734 28.2825H102.016C102.429 28.2825 102.685 28.0279 102.685 27.6181V8.26107H108.585C108.998 8.26107 109.254 7.9953 109.254 7.56342V6.44497C109.254 6.01309 108.998 5.74731 108.585 5.74731V5.75839Z" fill="black"/>
<path d="M18.8262 18.1167C18.0455 17.2529 16.8856 16.5996 15.3465 16.1566L10.8742 14.8831C10.3835 14.7392 9.91503 14.5841 9.49122 14.3959C9.08972 14.2298 8.75513 14.0194 8.48746 13.7758C8.21979 13.5432 8.01903 13.2553 7.87404 12.912C7.72906 12.5687 7.66214 12.1368 7.66214 11.6274V11.3063C7.66214 10.3207 7.96327 9.5677 8.57668 9.01401C9.19009 8.44924 10.0823 8.1724 11.2199 8.1724H18.0455C18.4805 8.1724 18.7482 7.9177 18.7482 7.50797V6.42273C18.7482 6.013 18.4805 5.7583 18.0455 5.7583H10.8073C9.95965 5.7583 9.17894 5.89119 8.4763 6.14588C7.77367 6.40058 7.16026 6.77709 6.63607 7.24219C6.11188 7.71837 5.69922 8.29421 5.42039 8.94756C5.14157 9.60092 4.99658 10.3429 4.99658 11.1513V11.9153C4.99658 13.2664 5.38694 14.3959 6.14534 15.2929C6.90374 16.1788 7.97442 16.8211 9.33508 17.1976L13.7182 18.4489C14.3093 18.615 14.8446 18.8033 15.3131 18.9915C15.7592 19.1798 16.1384 19.4123 16.4507 19.6892C16.7518 19.9549 16.986 20.2872 17.1421 20.6637C17.3094 21.0513 17.3875 21.5385 17.3875 22.1143V22.7898C17.3875 23.7533 17.0975 24.4952 16.5064 25.0378C15.9153 25.5915 15.0342 25.8684 13.9078 25.8684H6.63607C6.2011 25.8684 5.93343 26.1231 5.93343 26.5328V27.618C5.93343 28.0278 6.2011 28.2825 6.63607 28.2825H14.2981C16.0269 28.2825 17.421 27.7841 18.4582 26.7875C19.4954 25.7909 20.0196 24.4841 20.0196 22.8895V21.8375C20.0196 20.2539 19.6181 19.0026 18.8262 18.1278V18.1167Z" fill="black"/>
<path d="M59.7128 5.75839H58.4302C57.9952 5.75839 57.7275 6.02416 57.7275 6.45604V27.6181C57.7275 28.0279 57.9952 28.2825 58.4302 28.2825H59.7128C60.1254 28.2825 60.3819 28.0279 60.3819 27.6181V6.44497C60.3819 6.01309 60.1254 5.74731 59.7128 5.74731V5.75839Z" fill="black"/>
<path d="M44.1437 5.75839H42.8611C42.4261 5.75839 42.1584 6.02416 42.1584 6.45604V16.057C42.1138 16.057 42.0804 16.0349 42.0358 16.0349H33.8941C33.8606 16.0349 33.8383 16.0349 33.816 16.0349V6.44497C33.816 6.01309 33.5595 5.74731 33.1468 5.74731H31.8643C31.4293 5.74731 31.1616 6.01309 31.1616 6.44497V27.607C31.1616 28.0168 31.4293 28.2715 31.8643 28.2715H33.1468C33.5595 28.2715 33.816 28.0168 33.816 27.607V18.4047H42.0358C42.0804 18.4047 42.1138 18.3936 42.1584 18.3826V27.607C42.1584 28.0168 42.4261 28.2715 42.8611 28.2715H44.1437C44.5563 28.2715 44.8128 28.0168 44.8128 27.607V6.44497C44.8128 6.01309 44.5563 5.74731 44.1437 5.74731V5.75839Z" fill="black"/>
<path d="M83.1009 5.7583H73.922C73.487 5.7583 73.3309 6.13481 73.3309 6.55562L73.3086 27.607C73.3086 28.0167 73.5763 28.2714 74.0112 28.2714H75.2938C75.7065 28.2714 75.963 28.0167 75.963 27.607V18.4046H82.2756C82.6325 18.4046 82.8555 18.1499 82.8555 17.7513V16.6882C82.8555 16.2784 82.6325 16.0348 82.2756 16.0348H75.963V8.27206H83.112C83.5247 8.27206 83.7812 8.00629 83.7812 7.57441V6.45595C83.7812 6.02407 83.5247 5.7583 83.112 5.7583H83.1009Z" fill="black"/>
<path d="M133.735 8.62643L125.56 19.0358C125.527 19.0801 125.504 19.1355 125.504 19.1909V20.3868C125.504 20.5197 125.616 20.6305 125.75 20.6305H133.055C133.189 20.6305 133.3 20.7412 133.3 20.8741V25.0821C133.3 25.215 133.412 25.3258 133.546 25.3258H135.107C135.241 25.3258 135.352 25.215 135.352 25.0821V8.78147C135.352 8.64858 135.241 8.53784 135.107 8.53784H133.914C133.836 8.53784 133.769 8.57106 133.713 8.63751L133.735 8.62643ZM128.259 18.3825L132.854 12.5576C132.999 12.3694 133.3 12.4801 133.3 12.7127V18.5375C133.3 18.6704 133.189 18.7811 133.055 18.7811H128.46C128.248 18.7811 128.136 18.5375 128.259 18.3825Z" fill="black"/>
<path d="M131.984 2.34766C123.843 2.34766 117.207 8.92551 117.207 17.0205C117.207 25.1154 123.831 31.6933 131.984 31.6933C140.137 31.6933 146.762 25.1154 146.762 17.0205C146.762 8.92551 140.137 2.34766 131.984 2.34766ZM144.654 17.0094C144.654 23.9527 138.966 29.5893 131.984 29.5893C125.002 29.5893 119.314 23.9416 119.314 17.0094C119.314 10.0772 125.002 4.42954 131.984 4.42954C138.966 4.42954 144.654 10.0772 144.654 17.0094Z" fill="#136EF6"/>
<path d="M149.505 7.08722C149.505 7.96205 148.803 8.67078 147.922 8.67078C147.041 8.67078 146.349 7.96205 146.349 7.08722C146.349 6.21239 147.041 5.50366 147.922 5.50366C148.803 5.50366 149.505 6.21239 149.505 7.08722ZM149.227 7.08722C149.227 6.36742 148.658 5.78051 147.922 5.78051C147.186 5.78051 146.617 6.36742 146.617 7.08722C146.617 7.80702 147.197 8.39393 147.922 8.39393C148.647 8.39393 149.227 7.80702 149.227 7.08722ZM148.189 7.33084L148.569 7.86239H148.178L147.821 7.35299H147.732V7.86239H147.386V6.3342H148.011C148.368 6.3342 148.535 6.57782 148.535 6.83252C148.535 7.08722 148.39 7.28655 148.178 7.33084H148.189ZM147.732 6.63319V7.06507H147.966C148.134 7.06507 148.189 6.94326 148.189 6.84359C148.189 6.74393 148.134 6.63319 147.977 6.63319H147.743H147.732Z" fill="black"/>
</svg>
