<svg width="162" height="48" viewBox="0 0 162 48" fill="none" xmlns="http://www.w3.org/2000/svg">
<mask id="mask0_332_3712" style="mask-type:luminance" maskUnits="userSpaceOnUse" x="0" y="0" width="162" height="48">
<path d="M161.998 0H0V48H161.998V0Z" fill="white"/>
</mask>
<g mask="url(#mask0_332_3712)">
<mask id="mask1_332_3712" style="mask-type:luminance" maskUnits="userSpaceOnUse" x="0" y="0" width="162" height="48">
<path d="M161.998 0H0V48H161.998V0Z" fill="white"/>
</mask>
<g mask="url(#mask1_332_3712)">
<path d="M155.997 48H6.00094C2.7008 48 0 45.2992 0 41.9991V6.00094C0 2.7008 2.7008 0 6.00094 0H155.999C159.3 0 162 2.7008 162 6.00094V42.0016C162 45.3017 159.3 48.0025 155.999 48.0025" fill="black"/>
<path d="M155.997 0.960451C158.775 0.960451 161.037 3.2224 161.037 6.00094V42.0016C161.037 44.7801 158.775 47.0421 155.997 47.0421H6.00094C3.2224 47.0421 0.960451 44.7801 0.960451 42.0016V6.00094C0.960451 3.21989 3.21989 0.960451 6.00094 0.960451H155.999H155.997ZM155.997 0H6.00094C2.7008 0 0 2.7008 0 6.00094V42.0016C0 45.3017 2.7008 48.0025 6.00094 48.0025H155.999C159.3 48.0025 162 45.3017 162 42.0016V6.00094C161.998 2.7008 159.297 0 155.997 0Z" fill="#A6A5A5"/>
<path d="M81.7612 26.1002C78.9401 26.1002 76.638 28.2468 76.638 31.2059C76.638 34.165 78.9376 36.3091 81.7612 36.3091C84.5849 36.3091 86.8845 34.1424 86.8845 31.2059C86.8845 28.2694 84.5849 26.1002 81.7612 26.1002ZM81.7612 34.2979C80.214 34.2979 78.8799 33.0215 78.8799 31.2059C78.8799 29.3903 80.214 28.1114 81.7612 28.1114C83.3085 28.1114 84.6401 29.3677 84.6401 31.2059C84.6401 33.044 83.306 34.2979 81.7612 34.2979ZM70.5844 26.1002C67.7632 26.1002 65.4612 28.2468 65.4612 31.2059C65.4612 34.165 67.7607 36.3091 70.5844 36.3091C73.4081 36.3091 75.7076 34.1424 75.7076 31.2059C75.7076 28.2694 73.4056 26.1002 70.5844 26.1002ZM70.5844 34.2979C69.0397 34.2979 67.7056 33.0215 67.7056 31.2059C67.7056 29.3903 69.0397 28.1114 70.5844 28.1114C72.1292 28.1114 73.4658 29.3677 73.4658 31.2059C73.4658 33.044 72.1317 34.2979 70.5844 34.2979ZM57.2911 27.6675V29.8317H62.472C62.3165 31.0504 61.9128 31.9381 61.2934 32.5575C60.5385 33.3124 59.3599 34.1424 57.2911 34.1424C54.1013 34.1424 51.6061 31.572 51.6061 28.3822C51.6061 25.1924 54.0987 22.622 57.2911 22.622C59.0113 22.622 60.2677 23.2966 61.1956 24.1668L62.7227 22.6396C61.4263 21.4033 59.706 20.4554 57.2911 20.4554C52.9226 20.4554 49.2488 24.0138 49.2488 28.3822C49.2488 32.7506 52.9226 36.3091 57.2911 36.3091C59.6483 36.3091 61.4263 35.5342 62.8205 34.0847C64.2499 32.6553 64.6963 30.6442 64.6963 29.0192C64.6963 28.5176 64.6587 28.0537 64.581 27.6675H57.2936H57.2911ZM111.661 29.3502C111.234 28.2092 109.94 26.1027 107.292 26.1027C104.644 26.1027 102.48 28.1716 102.48 31.2084C102.48 34.0697 104.644 36.3116 107.543 36.3116C109.883 36.3116 111.234 34.8822 111.796 34.0496L110.056 32.8886C109.474 33.7387 108.684 34.3004 107.543 34.3004C106.402 34.3004 105.589 33.7788 105.068 32.7556L111.891 29.932L111.661 29.3527V29.3502ZM104.702 31.0504C104.644 29.0768 106.229 28.0738 107.37 28.0738C108.26 28.0738 109.015 28.5176 109.266 29.1571L104.704 31.0529L104.702 31.0504ZM99.1522 36.0006H101.394V20.9995H99.1522V36.0006ZM95.4784 27.2412H95.4007C94.8991 26.6419 93.9311 26.1002 92.7149 26.1002C90.1621 26.1002 87.8249 28.3421 87.8249 31.2234C87.8249 34.1048 90.1646 36.3066 92.7149 36.3066C93.9337 36.3066 94.8991 35.7649 95.4007 35.1455H95.4784V35.8803C95.4784 37.8338 94.4352 38.877 92.7525 38.877C91.3808 38.877 90.5282 37.8914 90.1821 37.0614L88.2286 37.8739C88.7878 39.228 90.2774 40.8906 92.7525 40.8906C95.3806 40.8906 97.6049 39.3434 97.6049 35.5743V26.4112H95.4784V27.2437V27.2412ZM92.908 34.2979C91.3607 34.2979 90.0668 33.0039 90.0668 31.2259C90.0668 29.448 91.3607 28.1139 92.908 28.1139C94.4553 28.1139 95.6339 29.4279 95.6339 31.2259C95.6339 33.024 94.4352 34.2979 92.908 34.2979ZM122.165 20.9995H116.801V36.0006H119.038V30.3182H122.165C124.648 30.3182 127.086 28.5201 127.086 25.6588C127.086 22.7976 124.646 20.9995 122.165 20.9995ZM122.223 28.2292H119.038V23.0859H122.223C123.898 23.0859 124.849 24.4727 124.849 25.6563C124.849 26.84 123.898 28.2267 122.223 28.2267M136.061 26.0751C134.441 26.0751 132.76 26.7898 132.066 28.3697L134.054 29.1997C134.478 28.3697 135.271 28.0988 136.101 28.0988C137.259 28.0988 138.435 28.7935 138.455 30.0273V30.1827C138.049 29.952 137.182 29.6035 136.121 29.6035C133.979 29.6035 131.798 30.7796 131.798 32.9813C131.798 34.99 133.555 36.2815 135.521 36.2815C137.029 36.2815 137.856 35.6069 138.378 34.8145H138.455V35.973H140.617V30.2204C140.617 27.5572 138.631 26.0726 136.063 26.0726M135.792 34.2954C135.058 34.2954 134.034 33.9293 134.034 33.0215C134.034 31.8629 135.308 31.4216 136.409 31.4216C137.392 31.4216 137.856 31.6347 138.455 31.9231C138.282 33.3124 137.086 34.2979 135.792 34.2979M148.489 26.4011L145.921 32.9061H145.843L143.18 26.4011H140.768L144.762 35.4916L142.485 40.5471H144.82L150.976 26.4011H148.486H148.489ZM128.322 36.0006H130.561V20.9995H128.322V36.0006Z" fill="white"/>
<path d="M24.8614 23.3091L12.0847 36.8683C12.0847 36.8683 12.0847 36.8733 12.0847 36.8758C12.4759 38.3478 13.82 39.4312 15.4174 39.4312C16.0569 39.4312 16.6537 39.2581 17.1678 38.9572L17.2079 38.9321L31.5896 30.6341L24.8589 23.3066L24.8614 23.3091Z" fill="#EA4435"/>
<path d="M37.7861 20.9995L37.7736 20.992L31.5645 17.3934L24.5705 23.6176L31.5896 30.6341L37.7635 27.0707C38.8469 26.4839 39.5816 25.3429 39.5816 24.0288C39.5816 22.7148 38.8569 21.5863 37.7836 20.9995" fill="#F9BC15"/>
<path d="M12.0846 11.1317C12.0069 11.4151 11.9667 11.7135 11.9667 12.0194V35.9806C11.9667 36.289 12.0069 36.5849 12.0846 36.8683L25.2977 23.6552L12.0821 11.1317H12.0846Z" fill="#547DBF"/>
<path d="M24.9542 24.0012L31.567 17.3909L17.2029 9.06284C16.6813 8.74937 16.0719 8.56882 15.4199 8.56882C13.825 8.56882 12.4784 9.65465 12.0847 11.1292C12.0847 11.1292 12.0847 11.1292 12.0847 11.1317L24.9567 24.0012H24.9542Z" fill="#33A851"/>
</g>
<path d="M50.1416 8.28547H52.5314C53.3038 8.28547 53.9784 8.44094 54.5527 8.75441C55.1269 9.06787 55.5683 9.50672 55.8792 10.076C56.1902 10.6427 56.3432 11.2922 56.3432 12.0219C56.3432 12.7517 56.1877 13.4012 55.8792 13.9679C55.5683 14.5347 55.1269 14.976 54.5527 15.2895C53.9784 15.603 53.3063 15.7584 52.5314 15.7584H50.1416V8.28296V8.28547ZM52.4988 14.6751C53.349 14.6751 54.0085 14.4394 54.4774 13.9704C54.9464 13.5015 55.1821 12.852 55.1821 12.0245C55.1821 11.1969 54.9464 10.5474 54.4774 10.0785C54.0085 9.60954 53.349 9.37381 52.4988 9.37381H51.2876V14.6776H52.4988V14.6751Z" fill="white"/>
<path d="M57.8352 8.28546H58.9837V15.7609H57.8352V8.28546Z" fill="white"/>
<path d="M61.3836 15.3848C60.8896 15.0237 60.5461 14.5146 60.3505 13.8601L61.4363 13.4212C61.5466 13.8375 61.7473 14.1811 62.0306 14.4444C62.3165 14.7102 62.6601 14.8406 63.0638 14.8406C63.44 14.8406 63.7584 14.7428 64.0192 14.5472C64.28 14.3516 64.4104 14.0833 64.4104 13.7422C64.4104 13.4288 64.2951 13.1705 64.0669 12.9648C63.8362 12.7592 63.44 12.5586 62.8757 12.3655L62.4068 12.1975C61.8977 12.0169 61.4764 11.7636 61.1379 11.4401C60.7993 11.1167 60.6313 10.6878 60.6313 10.1512C60.6313 9.78255 60.7316 9.44151 60.9297 9.12804C61.1279 8.81458 61.4062 8.56882 61.7648 8.38576C62.1234 8.20521 62.5297 8.11493 62.981 8.11493C63.628 8.11493 64.1471 8.27291 64.5358 8.58889C64.9245 8.90486 65.1903 9.26095 65.3283 9.65968L64.2951 10.0985C64.2249 9.84775 64.0794 9.63209 63.8562 9.45154C63.633 9.27098 63.3447 9.1807 62.9886 9.1807C62.6325 9.1807 62.3591 9.27098 62.1209 9.45154C61.8852 9.63209 61.7673 9.8628 61.7673 10.1412C61.7673 10.3994 61.8726 10.6126 62.0858 10.7831C62.299 10.9537 62.6275 11.1167 63.0713 11.2696L63.5528 11.4376C64.1923 11.6608 64.6863 11.9492 65.0349 12.3053C65.3834 12.6614 65.5565 13.1328 65.5565 13.7247C65.5565 14.2112 65.4336 14.6199 65.1853 14.9509C64.9371 15.282 64.6211 15.5277 64.2349 15.6882C63.8487 15.8487 63.4525 15.9289 63.0488 15.9289C62.4294 15.9289 61.8726 15.7484 61.3786 15.3873L61.3836 15.3848Z" fill="white"/>
<path d="M67.0636 8.28546H69.6315C70.0779 8.28546 70.4866 8.38326 70.8578 8.57886C71.2289 8.77446 71.5248 9.0453 71.7455 9.39387C71.9637 9.74244 72.074 10.1361 72.074 10.5725C72.074 11.0088 71.9637 11.405 71.7455 11.7511C71.5248 12.0997 71.2314 12.3705 70.8578 12.5661C70.4841 12.7617 70.0754 12.8595 69.6315 12.8595H68.2121V15.7609H67.0636V8.28546ZM69.6641 11.7712C70.0478 11.7712 70.3537 11.6508 70.5869 11.4101C70.8201 11.1693 70.9355 10.891 70.9355 10.57C70.9355 10.249 70.8201 9.97064 70.5869 9.7299C70.3537 9.48916 70.0453 9.36879 69.6641 9.36879H68.2121V11.7687H69.6641V11.7712Z" fill="white"/>
<path d="M74.9453 15.4048C74.3535 15.0563 73.8896 14.5848 73.551 13.9905C73.2125 13.3962 73.0445 12.7391 73.0445 12.0219C73.0445 11.3047 73.2125 10.6502 73.551 10.0534C73.8896 9.45905 74.3535 8.98761 74.9453 8.63903C75.5372 8.29046 76.1942 8.11743 76.9189 8.11743C77.6436 8.11743 78.2981 8.29046 78.8874 8.63903C79.4742 8.98761 79.9382 9.45905 80.2767 10.0534C80.6153 10.6477 80.7833 11.3047 80.7833 12.0219C80.7833 12.7391 80.6153 13.3936 80.2767 13.9905C79.9382 14.5848 79.4768 15.0563 78.8874 15.4048C78.2981 15.7534 77.6436 15.9264 76.9189 15.9264C76.1942 15.9264 75.5372 15.7534 74.9453 15.4048ZM78.2906 14.482C78.7044 14.2413 79.0329 13.9077 79.2711 13.4789C79.5119 13.0501 79.6322 12.5661 79.6322 12.0219C79.6322 11.4778 79.5119 10.9938 79.2711 10.565C79.0304 10.1361 78.7044 9.80261 78.2906 9.56187C77.8768 9.32113 77.4179 9.20076 76.9189 9.20076C76.4199 9.20076 75.961 9.32113 75.5472 9.56187C75.1334 9.80261 74.8049 10.1361 74.5667 10.565C74.3259 10.9938 74.2056 11.4778 74.2056 12.0219C74.2056 12.5661 74.3259 13.0501 74.5667 13.4789C74.8074 13.9077 75.1334 14.2413 75.5472 14.482C75.961 14.7227 76.4199 14.8431 76.9189 14.8431C77.4179 14.8431 77.8768 14.7227 78.2906 14.482Z" fill="white"/>
<path d="M82.2628 8.28546H83.6195L87.0024 13.7773H87.0651L87.0024 12.3354V8.28546H88.1409V15.7609H86.9497L83.4013 9.98819H83.3386L83.4013 11.4301V15.7634H82.2628V8.28797V8.28546Z" fill="white"/>
<path d="M90.0317 8.28546H91.1802V15.7609H90.0317V8.28546Z" fill="white"/>
<path d="M93.0585 8.28546H95.8571C96.2533 8.28546 96.6219 8.37323 96.963 8.54626C97.304 8.71929 97.5749 8.95753 97.773 9.26096C97.9711 9.56439 98.0714 9.90042 98.0714 10.2691C98.0714 10.6377 97.9786 10.9587 97.7955 11.2345C97.61 11.5104 97.3667 11.721 97.0583 11.8665V11.9191C97.447 12.052 97.7579 12.2702 97.9886 12.5761C98.2168 12.8821 98.3322 13.2432 98.3322 13.662C98.3322 14.0808 98.2269 14.4369 98.0137 14.7528C97.8005 15.0688 97.5172 15.3171 97.1586 15.4951C96.8 15.6732 96.4088 15.7609 95.985 15.7609H93.061V8.28546H93.0585ZM95.8044 11.4276C96.153 11.4276 96.4313 11.3223 96.6395 11.1091C96.8476 10.896 96.9529 10.6527 96.9529 10.3744C96.9529 10.096 96.8501 9.85529 96.6445 9.64965C96.4389 9.44402 96.173 9.34121 95.8445 9.34121H94.2045V11.4301H95.8019L95.8044 11.4276ZM95.9825 14.6952C96.3436 14.6952 96.6345 14.5848 96.8551 14.3666C97.0733 14.1485 97.1837 13.8852 97.1837 13.5792C97.1837 13.2733 97.0708 13.0075 96.8451 12.7868C96.6194 12.5636 96.3185 12.4533 95.9423 12.4533H94.2095V14.6977H95.985L95.9825 14.6952Z" fill="white"/>
<path d="M99.8443 8.28546H100.993V14.6751H104.208V15.7609H99.8443V8.28546Z" fill="white"/>
<path d="M105.419 8.28546H109.95V9.3713H106.567V11.4803H109.617V12.5661H106.567V14.6751H109.95V15.7609H105.419V8.28546Z" fill="white"/>
<path d="M114.324 15.3848C113.83 15.0237 113.486 14.5146 113.291 13.8601L114.376 13.4212C114.487 13.8375 114.687 14.1811 114.971 14.4444C115.257 14.7102 115.6 14.8406 116.004 14.8406C116.38 14.8406 116.699 14.7428 116.959 14.5472C117.22 14.3516 117.351 14.0833 117.351 13.7422C117.351 13.4288 117.235 13.1705 117.007 12.9648C116.776 12.7592 116.38 12.5586 115.816 12.3655L115.347 12.1975C114.838 12.0169 114.417 11.7636 114.078 11.4401C113.74 11.1167 113.572 10.6878 113.572 10.1512C113.572 9.78255 113.672 9.44151 113.87 9.12804C114.068 8.81458 114.346 8.56882 114.705 8.38576C115.064 8.20521 115.47 8.11493 115.921 8.11493C116.568 8.11493 117.087 8.27291 117.476 8.58889C117.865 8.90486 118.131 9.26095 118.268 9.65968L117.235 10.0985C117.165 9.84775 117.02 9.63209 116.796 9.45154C116.573 9.27098 116.285 9.1807 115.929 9.1807C115.573 9.1807 115.299 9.27098 115.061 9.45154C114.825 9.63209 114.705 9.8628 114.705 10.1412C114.705 10.3994 114.81 10.6126 115.023 10.7831C115.237 10.9537 115.565 11.1167 116.009 11.2696L116.488 11.4376C117.127 11.6608 117.621 11.9492 117.97 12.3053C118.319 12.6614 118.492 13.1328 118.492 13.7247C118.492 14.2112 118.369 14.6199 118.12 14.9509C117.872 15.282 117.556 15.5277 117.17 15.6882C116.784 15.8487 116.388 15.9289 115.984 15.9289C115.365 15.9289 114.808 15.7484 114.314 15.3873L114.324 15.3848Z" fill="white"/>
<path d="M121.177 15.5503C120.749 15.2995 120.418 14.9459 120.184 14.4845C119.951 14.0256 119.836 13.4915 119.836 12.8871V8.28296H120.974V12.9498C120.974 13.514 121.12 13.9704 121.413 14.3165C121.707 14.6651 122.12 14.8381 122.654 14.8381C123.189 14.8381 123.615 14.6651 123.908 14.3165C124.202 13.9679 124.347 13.5115 124.347 12.9498V8.28296H125.486V12.8871C125.486 13.4864 125.37 14.0156 125.142 14.4745C124.911 14.9334 124.585 15.2895 124.162 15.5453C123.738 15.7986 123.236 15.9264 122.657 15.9264C122.078 15.9264 121.609 15.8011 121.18 15.5503H121.177Z" fill="white"/>
<path d="M127.269 8.28546H129.889C130.34 8.28546 130.749 8.38326 131.115 8.57886C131.481 8.77446 131.77 9.0453 131.983 9.39387C132.196 9.74244 132.302 10.1361 132.302 10.5725C132.302 11.074 132.139 11.5179 131.815 11.9041C131.492 12.2903 131.085 12.5486 130.599 12.6815L130.589 12.7341L132.645 15.6982V15.7609H131.318L129.325 12.8269H128.417V15.7609H127.269V8.28546ZM129.859 11.7712C130.22 11.7712 130.526 11.6558 130.772 11.4276C131.018 11.1969 131.143 10.9085 131.143 10.56C131.143 10.239 131.03 9.96061 130.804 9.71987C130.579 9.47913 130.278 9.35876 129.902 9.35876H128.42V11.7712H129.862H129.859Z" fill="white"/>
</g>
</svg>
