<svg width="162" height="48" viewBox="0 0 162 48" fill="none" xmlns="http://www.w3.org/2000/svg">
<path d="M156 0H6C2.68629 0 0 2.68629 0 6V42C0 45.3137 2.68629 48 6 48H156C159.314 48 162 45.3137 162 42V6C162 2.68629 159.314 0 156 0Z" fill="black"/>
<path d="M156 0.96C158.784 0.96 161.04 3.216 161.04 6V42C161.04 44.784 158.784 47.04 156 47.04H6C3.216 47.04 0.96 44.784 0.96 42V6C0.96 3.216 3.216 0.96 6 0.96H156ZM156 0H6C2.7 0 0 2.7 0 6V42C0 45.3 2.7 48 6 48H156C159.3 48 162 45.3 162 42V6C162 2.7 159.3 0 156 0Z" fill="#A6A6A6"/>
<path d="M51.564 15.264C50.988 14.94 50.544 14.484 50.208 13.908C49.872 13.332 49.704 12.696 49.704 12C49.704 11.304 49.872 10.668 50.208 10.092C50.544 9.51602 51 9.06002 51.564 8.73602C52.128 8.41202 52.752 8.24402 53.436 8.24402C53.964 8.24402 54.468 8.34002 54.924 8.52002C55.38 8.70002 55.776 8.97602 56.076 9.31202L55.464 9.92402C55.236 9.64802 54.948 9.43202 54.588 9.27602C54.228 9.12002 53.844 9.04802 53.436 9.04802C52.932 9.04802 52.452 9.16802 52.008 9.42002C51.564 9.67202 51.216 10.008 50.952 10.452C50.688 10.896 50.556 11.412 50.556 12C50.556 12.588 50.688 13.104 50.952 13.548C51.216 13.992 51.576 14.34 52.008 14.58C52.452 14.82 52.92 14.952 53.424 14.952C53.928 14.952 54.312 14.88 54.636 14.724C54.96 14.568 55.236 14.376 55.476 14.124C55.656 13.932 55.788 13.716 55.896 13.44C56.004 13.176 56.076 12.888 56.1 12.564H53.436V11.772H56.892C56.928 11.964 56.94 12.132 56.94 12.3C56.94 12.744 56.868 13.176 56.724 13.596C56.58 14.016 56.364 14.376 56.052 14.7C55.392 15.42 54.504 15.78 53.412 15.78C52.74 15.78 52.116 15.612 51.54 15.288L51.564 15.264Z" fill="white" stroke="white" stroke-width="0.2" stroke-miterlimit="10"/>
<path d="M58.428 8.40001H62.592V9.21601H59.268V11.604H62.268V12.408H59.268V14.796H62.592V15.612H58.428V8.41201V8.40001Z" fill="white" stroke="white" stroke-width="0.2" stroke-miterlimit="10"/>
<path d="M65.652 9.21601H63.636V8.40001H68.52V9.21601H66.504V15.6H65.652V9.21601Z" fill="white" stroke="white" stroke-width="0.2" stroke-miterlimit="10"/>
<path d="M72.324 8.40001H73.164V15.6H72.324V8.40001Z" fill="white" stroke="white" stroke-width="0.2" stroke-miterlimit="10"/>
<path d="M76.464 9.21601H74.448V8.40001H79.332V9.21601H77.316V15.6H76.464V9.21601Z" fill="white" stroke="white" stroke-width="0.2" stroke-miterlimit="10"/>
<path d="M84.396 15.252C83.832 14.916 83.388 14.46 83.064 13.884C82.74 13.308 82.584 12.684 82.584 11.988C82.584 11.292 82.74 10.68 83.064 10.092C83.388 9.50401 83.832 9.06001 84.396 8.72401C84.96 8.38801 85.584 8.22001 86.28 8.22001C86.976 8.22001 87.6 8.38801 88.164 8.72401C88.728 9.06001 89.172 9.51601 89.496 10.092C89.82 10.668 89.988 11.304 89.988 11.988C89.988 12.672 89.832 13.308 89.508 13.884C89.184 14.46 88.74 14.916 88.176 15.252C87.612 15.588 86.976 15.756 86.292 15.756C85.608 15.756 84.972 15.588 84.408 15.252H84.396ZM87.696 14.568C88.128 14.316 88.464 13.968 88.716 13.524C88.968 13.08 89.088 12.576 89.088 12C89.088 11.424 88.956 10.92 88.716 10.476C88.464 10.032 88.128 9.68401 87.696 9.43201C87.264 9.18001 86.784 9.06001 86.268 9.06001C85.752 9.06001 85.284 9.18001 84.852 9.43201C84.42 9.68401 84.084 10.032 83.832 10.488C83.58 10.932 83.448 11.448 83.448 12.012C83.448 12.576 83.58 13.08 83.832 13.536C84.084 13.98 84.432 14.34 84.852 14.592C85.284 14.844 85.752 14.964 86.268 14.964C86.784 14.964 87.264 14.844 87.696 14.592V14.568Z" fill="white" stroke="white" stroke-width="0.2" stroke-miterlimit="10"/>
<path d="M91.428 8.40001H92.472L96.084 14.136H96.12L96.084 12.744V8.40001H96.936V15.6H96.048L92.268 9.60001H92.232L92.268 10.992V15.612H91.428V8.41201V8.40001Z" fill="white" stroke="white" stroke-width="0.2" stroke-miterlimit="10"/>
<path d="M81.768 26.1C78.948 26.1 76.644 28.248 76.644 31.2C76.644 34.152 78.948 36.3 81.768 36.3C84.588 36.3 86.892 34.14 86.892 31.2C86.892 28.26 84.588 26.1 81.768 26.1ZM81.768 34.296C80.22 34.296 78.888 33.024 78.888 31.2C78.888 29.376 80.22 28.104 81.768 28.104C83.316 28.104 84.648 29.364 84.648 31.2C84.648 33.036 83.316 34.296 81.768 34.296ZM70.584 26.1C67.764 26.1 65.46 28.248 65.46 31.2C65.46 34.152 67.764 36.3 70.584 36.3C73.404 36.3 75.708 34.14 75.708 31.2C75.708 28.26 73.404 26.1 70.584 26.1ZM70.584 34.296C69.036 34.296 67.704 33.024 67.704 31.2C67.704 29.376 69.036 28.104 70.584 28.104C72.132 28.104 73.464 29.364 73.464 31.2C73.464 33.036 72.132 34.296 70.584 34.296ZM57.288 27.672V29.832H62.472C62.316 31.044 61.908 31.944 61.296 32.556C60.54 33.312 59.364 34.14 57.3 34.14C54.108 34.14 51.612 31.572 51.612 28.38C51.612 25.188 54.108 22.62 57.3 22.62C59.016 22.62 60.276 23.292 61.2 24.168L62.724 22.644C61.428 21.408 59.712 20.46 57.288 20.46C52.92 20.46 49.248 24.012 49.248 28.392C49.248 32.772 52.92 36.324 57.288 36.324C59.652 36.324 61.428 35.556 62.82 34.104C64.248 32.676 64.692 30.66 64.692 29.04C64.692 28.536 64.656 28.068 64.572 27.684H57.288V27.672ZM111.66 29.352C111.24 28.212 109.944 26.1 107.292 26.1C104.64 26.1 102.48 28.164 102.48 31.2C102.48 34.056 104.64 36.3 107.544 36.3C109.884 36.3 111.24 34.872 111.792 34.044L110.052 32.88C109.476 33.732 108.684 34.296 107.544 34.296C106.404 34.296 105.588 33.78 105.072 32.748L111.9 29.928L111.672 29.352H111.66ZM104.7 31.056C104.64 29.088 106.224 28.08 107.364 28.08C108.252 28.08 109.008 28.524 109.26 29.16L104.7 31.056ZM99.156 36H101.4V21H99.156V36ZM95.484 27.24H95.412C94.908 26.64 93.948 26.1 92.724 26.1C90.168 26.1 87.828 28.344 87.828 31.224C87.828 34.104 90.168 36.312 92.724 36.312C93.936 36.312 94.908 35.772 95.412 35.148H95.484V35.88C95.484 37.836 94.44 38.88 92.76 38.88C91.392 38.88 90.54 37.896 90.192 37.068L88.236 37.884C88.8 39.24 90.288 40.896 92.76 40.896C95.388 40.896 97.608 39.348 97.608 35.58V26.412H95.484V27.24ZM92.904 34.296C91.356 34.296 90.06 33 90.06 31.224C90.06 29.448 91.356 28.116 92.904 28.116C94.452 28.116 95.628 29.436 95.628 31.224C95.628 33.012 94.428 34.296 92.904 34.296ZM122.172 21H116.808V36H119.052V30.312H122.184C124.668 30.312 127.104 28.512 127.104 25.656C127.104 22.8 124.668 21 122.184 21H122.172ZM122.22 28.224H119.04V23.076H122.22C123.9 23.076 124.848 24.468 124.848 25.644C124.848 26.82 123.9 28.212 122.22 28.212V28.224ZM136.068 26.076C134.448 26.076 132.768 26.796 132.072 28.368L134.064 29.196C134.484 28.368 135.276 28.092 136.104 28.092C137.256 28.092 138.444 28.788 138.456 30.024V30.18C138.048 29.952 137.184 29.604 136.116 29.604C133.968 29.604 131.796 30.78 131.796 32.976C131.796 34.98 133.548 36.276 135.516 36.276C137.016 36.276 137.856 35.604 138.372 34.812H138.444V35.964H140.604V30.216C140.604 27.552 138.612 26.064 136.044 26.064L136.068 26.076ZM135.792 34.296C135.06 34.296 134.04 33.924 134.04 33.024C134.04 31.872 135.312 31.428 136.416 31.428C137.4 31.428 137.868 31.644 138.456 31.932C138.288 33.324 137.088 34.308 135.792 34.308V34.296ZM148.488 26.4L145.92 32.904H145.848L143.184 26.4H140.772L144.768 35.496L142.488 40.548H144.828L150.984 26.4H148.5H148.488ZM128.328 36H130.572V21H128.328V36Z" fill="white"/>
<path d="M24.864 23.304L12.084 36.864C12.48 38.34 13.824 39.42 15.42 39.42C16.056 39.42 16.656 39.252 17.172 38.94L17.208 38.916L31.584 30.624L24.852 23.292L24.864 23.304Z" fill="#EA4335"/>
<path d="M37.788 21H37.776L31.572 17.388L24.576 23.616L31.596 30.636L37.776 27.072C38.856 26.484 39.588 25.344 39.588 24.036C39.588 22.728 38.868 21.588 37.788 21.012V21Z" fill="#FBBC04"/>
<path d="M12.084 11.136C12.012 11.424 11.964 11.712 11.964 12.024V35.988C11.964 36.3 12 36.588 12.084 36.876L25.296 23.664L12.084 11.136Z" fill="#4285F4"/>
<path d="M24.96 24L31.572 17.388L17.208 9.06001C16.692 8.74801 16.08 8.56801 15.42 8.56801C13.824 8.56801 12.48 9.66001 12.084 11.124L24.96 23.988V24Z" fill="#34A853"/>
</svg>
