<svg width="408" height="201" viewBox="0 0 408 201" fill="none" xmlns="http://www.w3.org/2000/svg">
<rect x="0.5" y="20.5" width="76.9851" height="49" fill="white"/>
<rect x="0.5" y="20.5" width="76.9851" height="49" stroke="#D6DCE5"/>
<path d="M29.3144 54.8729L32.6497 35.2969H37.9845L34.6467 54.8729H29.3144ZM53.9207 35.7189C52.864 35.3223 51.2077 34.8967 49.1395 34.8967C43.868 34.8967 40.155 37.5518 40.1232 41.3571C40.0935 44.17 42.7742 45.7393 44.7977 46.6756C46.8744 47.6354 47.5723 48.2472 47.5623 49.1039C47.549 50.4162 45.9041 51.0154 44.3706 51.0154C42.2355 51.0154 41.1011 50.7187 39.349 49.9881L38.6613 49.677L37.9128 54.0592C39.1589 54.6059 41.4629 55.0791 43.8555 55.1037C49.4634 55.1037 53.1039 52.4789 53.1453 48.4152C53.1652 46.1882 51.7439 44.4937 48.666 43.0964C46.8014 42.1908 45.6594 41.5865 45.6715 40.6695C45.6715 39.8558 46.6381 38.9857 48.7269 38.9857C50.4712 38.9586 51.7351 39.3391 52.7198 39.7357L53.1978 39.9616L53.9207 35.7189ZM67.6491 35.2966H63.5269C62.2499 35.2966 61.2941 35.6452 60.7334 36.92L52.8104 54.86H58.4125C58.4125 54.86 59.3282 52.4479 59.5354 51.9182C60.1475 51.9182 65.5897 51.9266 66.3676 51.9266C66.5272 52.612 67.0167 54.86 67.0167 54.86H71.967L67.6491 35.296V35.2966ZM61.1087 47.9376C61.55 46.8097 63.2342 42.4652 63.2342 42.4652C63.2029 42.5173 63.6723 41.3318 63.9415 40.5968L64.302 42.2846C64.302 42.2846 65.3235 46.9575 65.5371 47.9373H61.1087V47.9376ZM24.7856 35.2966L19.5627 48.6466L19.0063 45.9337C18.0339 42.8063 15.0046 39.418 11.6179 37.7217L16.3937 54.8417L22.0381 54.8354L30.4369 35.2964L24.7856 35.2963" fill="#0E4595"/>
<path d="M14.6892 35.2959H6.08674L6.01855 35.7032C12.7112 37.3236 17.1394 41.2395 18.9781 45.9452L17.1075 36.9492C16.7847 35.7096 15.8481 35.3396 14.6894 35.2964" fill="#F2AE14"/>
<g filter="url(#filter0_dd_496_499)">
<rect x="97.9851" y="20" width="78" height="50" rx="2" fill="white"/>
<rect x="98.4851" y="20.5" width="77" height="49" rx="1.5" stroke="#D6DCE5"/>
<path d="M124.804 59.639V57.6359C124.804 56.8677 124.342 56.3671 123.583 56.3671C123.185 56.3671 122.758 56.5009 122.461 56.9314C122.23 56.5638 121.903 56.3671 121.405 56.3671C121.219 56.359 121.035 56.3975 120.868 56.4791C120.701 56.5607 120.557 56.6828 120.448 56.8347V56.4316H119.821V59.6366H120.448V57.8027C120.448 57.2385 120.778 56.9685 121.24 56.9685C121.703 56.9685 121.966 57.2691 121.966 57.8027V59.639H122.594V57.8027C122.594 57.2385 122.924 56.9685 123.386 56.9685C123.849 56.9685 124.112 57.2691 124.112 57.8027V59.639H124.804ZM135.105 56.4671H133.949V55.4998H133.324V56.4671H132.664V57.0313H133.324V58.5371C133.324 59.2714 133.587 59.7059 134.38 59.7059C134.68 59.6996 134.974 59.6193 135.237 59.4721L135.038 58.9079C134.86 59.0204 134.654 59.0784 134.444 59.0747C134.114 59.0747 133.949 58.874 133.949 58.5403V57.0055H135.104V56.4711L135.105 56.4671ZM140.982 56.3671C140.811 56.3633 140.642 56.4043 140.492 56.4863C140.341 56.5682 140.214 56.6883 140.123 56.8347V56.4316H139.496V59.6366H140.123V57.8366C140.123 57.3022 140.387 56.9685 140.817 56.9685C140.962 56.9744 141.106 56.9969 141.246 57.0354L141.444 56.434C141.293 56.3954 141.138 56.373 140.982 56.3671ZM132.101 56.7008C131.771 56.4671 131.308 56.3671 130.813 56.3671C130.021 56.3671 129.526 56.7347 129.526 57.3691C129.526 57.9035 129.889 58.2034 130.582 58.3041L130.912 58.3372C131.276 58.4041 131.507 58.5379 131.507 58.7047C131.507 58.9385 131.243 59.1078 130.747 59.1078C130.369 59.1157 129.998 58.9985 129.691 58.7741L129.361 59.2746C129.823 59.6083 130.384 59.6777 130.716 59.6777C131.641 59.6777 132.136 59.244 132.136 58.6427C132.136 58.0784 131.737 57.8084 131.046 57.7076L130.716 57.6746C130.419 57.6415 130.158 57.5408 130.158 57.3409C130.158 57.1071 130.422 56.9378 130.785 56.9378C131.184 56.9378 131.578 57.1047 131.776 57.2046L132.101 56.7008ZM141.675 58.0365C141.675 59.0038 142.303 59.7059 143.326 59.7059C143.789 59.7059 144.119 59.6059 144.449 59.3383L144.119 58.8377C143.885 59.0291 143.594 59.135 143.294 59.1384C142.736 59.1384 142.303 58.7047 142.303 58.0704C142.303 57.436 142.73 57.0055 143.294 57.0055C143.594 57.0089 143.885 57.1149 144.119 57.3062L144.449 56.8056C144.119 56.5388 143.789 56.4381 143.326 56.4381C142.335 56.3712 141.675 57.0724 141.675 58.0405V58.0365ZM137.251 56.3671C136.326 56.3671 135.699 57.0346 135.699 58.0365C135.699 59.0385 136.359 59.7059 137.316 59.7059C137.782 59.7158 138.237 59.5626 138.604 59.2722L138.274 58.8047C138.009 59.0126 137.685 59.1295 137.349 59.1384C136.92 59.1384 136.458 58.8716 136.393 58.3041H138.737V58.0373C138.737 57.0354 138.142 56.3679 137.251 56.3679V56.3671ZM137.218 56.9685C137.681 56.9685 138.011 57.2691 138.044 57.7697H136.327C136.426 57.3022 136.726 56.9685 137.218 56.9685ZM128.667 58.0365V56.434H128.04V56.8371C127.809 56.5364 127.482 56.3696 127.016 56.3696C126.125 56.3696 125.464 57.0708 125.464 58.0389C125.464 59.007 126.124 59.7083 127.016 59.7083C127.479 59.7083 127.809 59.5414 128.04 59.2408V59.6438H128.667V58.0365ZM126.125 58.0365C126.125 57.4352 126.489 56.9685 127.116 56.9685C127.711 56.9685 128.073 57.436 128.073 58.0365C128.073 58.6709 127.674 59.1046 127.116 59.1046C126.489 59.1376 126.125 58.637 126.125 58.0365ZM150.525 56.3671C150.354 56.3633 150.185 56.4043 150.034 56.4863C149.884 56.5682 149.757 56.6883 149.666 56.8347V56.4316H149.039V59.6366H149.665V57.8366C149.665 57.3022 149.929 56.9685 150.359 56.9685C150.504 56.9744 150.648 56.9969 150.788 57.0354L150.986 56.434C150.835 56.3954 150.68 56.373 150.524 56.3671H150.525ZM148.081 58.0365V56.434H147.454V56.8371C147.223 56.5364 146.896 56.3696 146.43 56.3696C145.539 56.3696 144.878 57.0708 144.878 58.0389C144.878 59.007 145.538 59.7083 146.43 59.7083C146.893 59.7083 147.223 59.5414 147.454 59.2408V59.6438H148.081V58.0365ZM145.539 58.0365C145.539 57.4352 145.903 56.9685 146.53 56.9685C147.125 56.9685 147.487 57.436 147.487 58.0365C147.487 58.6709 147.088 59.1046 146.53 59.1046C145.903 59.1376 145.539 58.637 145.539 58.0365ZM154.454 58.0365V55.1653H153.826V56.8347C153.595 56.534 153.268 56.3671 152.803 56.3671C151.912 56.3671 151.251 57.0684 151.251 58.0365C151.251 59.0046 151.911 59.7059 152.803 59.7059C153.265 59.7059 153.595 59.539 153.826 59.2384V59.6414H154.454V58.0365ZM151.912 58.0365C151.912 57.4352 152.275 56.9685 152.902 56.9685C153.497 56.9685 153.859 57.436 153.859 58.0365C153.859 58.6709 153.46 59.1046 152.902 59.1046C152.274 59.1384 151.911 58.6378 151.911 58.0365H151.912Z" fill="black"/>
<path d="M131.375 32.1294H142.831V51.0253H131.375V32.1294Z" fill="#FF5F00"/>
<path d="M132.53 41.5774C132.531 39.7596 132.938 37.9654 133.721 36.3292C134.504 34.6931 135.644 33.2573 137.053 32.1294C135.3 30.7355 133.194 29.8685 130.977 29.6276C128.759 29.3867 126.519 29.7816 124.513 30.7671C122.507 31.7526 120.816 33.289 119.632 35.2007C118.449 37.1123 117.822 39.3221 117.822 41.5774C117.822 43.8326 118.449 46.0424 119.632 47.954C120.816 49.8657 122.507 51.4021 124.513 52.3876C126.519 53.3731 128.759 53.768 130.977 53.5271C133.194 53.2862 135.3 52.4193 137.053 51.0253C135.644 49.8974 134.504 48.4617 133.721 46.8255C132.938 45.1893 132.531 43.3952 132.53 41.5774Z" fill="#EB001B"/>
<path d="M156.302 41.5774C156.304 43.831 155.678 46.0396 154.497 47.9505C153.315 49.8615 151.626 51.3976 149.622 52.3833C147.618 53.3689 145.379 53.7643 143.163 53.5242C140.947 53.284 138.843 52.4181 137.091 51.0254C138.501 49.8978 139.64 48.462 140.424 46.8258C141.207 45.1896 141.614 43.3953 141.614 41.5774C141.614 39.7595 141.207 37.9652 140.424 36.329C139.64 34.6927 138.501 33.257 137.091 32.1294C138.843 30.7367 140.947 29.8708 143.163 29.6306C145.379 29.3905 147.618 29.7858 149.622 30.7715C151.626 31.7572 153.315 33.2933 154.497 35.2042C155.678 37.1152 156.304 39.3238 156.302 41.5774Z" fill="#F79E1B"/>
</g>
<rect x="196.485" y="20.5" width="71.9167" height="49" rx="1.5" fill="white" stroke="#D9D9D9"/>
<path d="M261.596 42.0269L261.61 42.0117H259.431L258.054 46.7827H257.981L256.401 42.0117H253.811L256.927 49.8853L255.625 52.2853V52.3431H257.659L261.596 42.0269Z" fill="black"/>
<path d="M237.434 42.0117H235.123V49.8564H237.434V42.0117Z" fill="black"/>
<path d="M253.356 47.8946V44.617C253.356 42.8315 252.302 41.8506 250.444 41.8506C249.258 41.8506 248.439 42.0559 246.946 42.5091L247.355 44.3098C248.716 43.6953 249.315 43.4322 249.945 43.4322C250.706 43.4322 251.043 43.9736 251.043 44.8085V44.8664C248.394 45.3637 247.574 45.642 247.063 46.1545C246.683 46.5348 246.521 47.0762 246.521 47.7058C246.521 49.213 247.693 50.0176 248.789 50.0176C249.609 50.0176 250.267 49.7104 251.16 49.0367L251.321 49.8564H253.633L253.356 47.8946ZM251.044 47.9538C250.43 48.29 250.079 48.4222 249.67 48.4222C249.113 48.4222 248.762 48.0558 248.762 47.4716C248.762 47.2526 248.806 47.0321 248.981 46.8572C249.259 46.5789 249.8 46.3736 251.044 46.0815V47.9538Z" fill="black"/>
<path d="M243.186 41.8506C242.337 41.8506 241.679 42.173 240.932 42.7874V42.0118H238.62V52.3432H240.932V49.782C241.372 49.8991 241.781 49.9584 242.278 49.9584C244.342 49.9584 246.2 48.436 246.2 45.7288C246.2 43.2999 244.854 41.8506 243.186 41.8506ZM241.722 48.509C241.458 48.509 241.209 48.4801 240.931 48.3919V44.1486C241.414 43.8124 241.808 43.6512 242.306 43.6512C243.17 43.6512 243.857 44.3387 243.857 45.8032C243.858 47.6755 242.849 48.509 241.722 48.509Z" fill="black"/>
<path d="M215.526 37.9709H205.613C204.323 37.9709 203.277 39.0263 203.277 40.3268V50.3234C203.277 51.624 204.323 52.6793 205.613 52.6793H215.526C216.817 52.6793 217.861 51.624 217.861 50.3234V40.3268C217.863 39.0249 216.817 37.9709 215.526 37.9709Z" fill="#1677FF"/>
<path d="M215.285 47.2071C214.702 47.0101 213.918 46.7084 213.046 46.3901C213.57 45.4712 213.989 44.4255 214.264 43.2889H211.389V42.2446H214.91V41.6618H211.389V39.9204H209.952C209.7 39.9204 209.7 40.1712 209.7 40.1712V41.6604H206.138V42.2432H209.7V43.2875H206.758V43.8703H212.462C212.254 44.595 211.973 45.2769 211.641 45.8955C209.791 45.2797 207.815 44.7809 206.575 45.0882C205.782 45.2852 205.27 45.6365 204.97 46.0057C203.592 47.6962 204.58 50.2642 207.49 50.2642C209.211 50.2642 210.868 49.2971 212.152 47.7031C214.069 48.6316 217.861 50.227 217.861 50.227V47.9538C217.863 47.9538 217.386 47.9152 215.285 47.2071ZM207.219 49.2819C204.949 49.2819 204.279 47.4799 205.4 46.4934C205.775 46.16 206.458 45.9975 206.822 45.9616C208.169 45.828 209.417 46.346 210.89 47.0707C209.855 48.4319 208.537 49.2819 207.219 49.2819Z" fill="white"/>
<path d="M227.176 39.5388H224.073L220.606 49.8564H222.743L223.328 47.8367H227.001L227.558 49.8564H230.294L227.176 39.5388ZM223.81 46.1532L225.185 41.3973H225.243L226.545 46.1532H223.81Z" fill="black"/>
<path d="M233.541 39.1724H231.229V49.8551H233.541V39.1724Z" fill="black"/>
<path d="M234.946 40.1243C234.946 40.8848 235.503 41.3973 236.278 41.3973C237.054 41.3973 237.611 40.8848 237.611 40.1243C237.611 39.3776 237.054 38.8513 236.278 38.8513C235.503 38.8513 234.946 39.3776 234.946 40.1243Z" fill="#1677FF"/>
<g filter="url(#filter1_dd_496_499)">
<rect x="288.902" y="20" width="78.5873" height="50.0556" rx="2" fill="#006FCF"/>
<rect x="289.402" y="20.5" width="77.5873" height="49.0556" rx="1.5" stroke="#006FCF"/>
<path fill-rule="evenodd" clip-rule="evenodd" d="M367.519 29.4363H361.014L357.614 39.0831L354.066 29.4363H347.414V44.4571L340.613 29.4363H335.144L328.343 44.7831H333.074L334.404 41.714H341.5L342.831 44.7831H351.701V34.1133L355.692 44.7831H359.388L363.379 34.1133V44.7831H367.519V47.1216H362.049L357.614 51.945L353.031 47.1216H334.257V62.4685H352.884L357.466 57.4991L362.049 62.4685H367.519V64.3682H361.014L357.466 60.5683L353.918 64.3682H331.891V46.8293H324.795L333.665 27.0974H342.239L345.344 33.821V27.0974H355.988L357.762 32.2132L359.536 27.0974H367.519V29.4363ZM367.519 50.4832L363.528 54.7219L367.519 58.9605V62.4685L360.275 54.7219L367.519 47.1216V50.4832ZM347.414 62.4685V58.8145H338.544V56.476H347.266V52.9681H338.544V50.6296H347.414V47.1216L354.805 54.7219L347.414 62.4685ZM335.735 38.352L337.805 33.3826L339.874 38.352H335.735Z" fill="white"/>
</g>
<g filter="url(#filter2_dd_496_499)">
<rect x="45.9946" y="90.0557" width="78.5" height="50" rx="2" fill="white"/>
<rect x="46.4946" y="90.5557" width="77.5" height="49" rx="1.5" stroke="#D6DCE5"/>
<path d="M71.385 108.506C71.9087 107.859 72.2641 106.989 72.1703 106.1C71.4037 106.138 70.4681 106.6 69.9265 107.249C69.4402 107.804 69.0097 108.71 69.1219 109.561C69.9825 109.635 70.8424 109.136 71.385 108.506Z" fill="#000008"/>
<path d="M72.1606 109.727C70.9108 109.654 69.8481 110.429 69.2513 110.429C68.6541 110.429 67.7402 109.764 66.7516 109.782C65.465 109.801 64.2711 110.52 63.6182 111.664C62.2753 113.953 63.2638 117.347 64.5698 119.211C65.2039 120.133 65.9682 121.148 66.9753 121.112C67.9269 121.075 68.2998 120.503 69.4565 120.503C70.6122 120.503 70.9482 121.112 71.9554 121.093C73 121.075 73.653 120.171 74.2872 119.248C75.0147 118.197 75.3126 117.182 75.3313 117.126C75.3126 117.108 73.3171 116.351 73.2986 114.081C73.2798 112.181 74.8653 111.277 74.9399 111.221C74.0445 109.912 72.6456 109.764 72.1606 109.727Z" fill="#000008"/>
<path d="M83.0429 107.156C85.7594 107.156 87.6509 109.007 87.6509 111.702C87.6509 114.407 85.7204 116.268 82.9748 116.268H79.9672V120.997H77.7942V107.156L83.0429 107.156ZM79.9672 114.465H82.4606C84.3525 114.465 85.4293 113.458 85.4293 111.712C85.4293 109.966 84.3525 108.969 82.4703 108.969H79.9672V114.465Z" fill="#000008"/>
<path d="M88.2186 118.129C88.2186 116.364 89.5866 115.28 92.0122 115.146L94.8061 114.983V114.206C94.8061 113.084 94.0396 112.412 92.7593 112.412C91.5463 112.412 90.7895 112.988 90.6054 113.889H88.6262C88.7426 112.067 90.3142 110.724 92.8367 110.724C95.3106 110.724 96.8919 112.019 96.8919 114.043V120.997H94.8836V119.338H94.8353C94.2436 120.46 92.9531 121.17 91.6144 121.17C89.6158 121.17 88.2186 119.942 88.2186 118.129ZM94.8061 117.218V116.422L92.2933 116.575C91.0417 116.661 90.3336 117.208 90.3336 118.071C90.3336 118.954 91.0709 119.529 92.1964 119.529C93.6613 119.529 94.8061 118.532 94.8061 117.218Z" fill="#000008"/>
<path d="M98.788 124.709V123.03C98.9429 123.069 99.2921 123.069 99.4669 123.069C100.437 123.069 100.961 122.666 101.281 121.63C101.281 121.611 101.465 121.016 101.465 121.007L97.7789 110.906H100.049L102.63 119.117H102.668L105.249 110.906H107.461L103.638 121.524C102.766 123.971 101.757 124.757 99.6417 124.757C99.4669 124.757 98.9429 124.738 98.788 124.709Z" fill="#000008"/>
</g>
<g filter="url(#filter3_dd_496_499)">
<rect x="144.495" y="90.0557" width="78.5" height="50" rx="2" fill="white"/>
<rect x="144.995" y="90.5557" width="77.5" height="49" rx="1.5" stroke="#D6DCE5"/>
<path d="M182.038 121.048H180.273V107.464H184.953C186.14 107.464 187.151 107.855 187.979 108.637C188.825 109.419 189.248 110.374 189.248 111.501C189.248 112.656 188.825 113.611 187.979 114.383C187.16 115.156 186.149 115.538 184.953 115.538H182.038V121.048ZM182.038 109.137V113.874H184.99C185.689 113.874 186.278 113.638 186.737 113.174C187.206 112.71 187.445 112.147 187.445 111.51C187.445 110.883 187.206 110.328 186.737 109.865C186.278 109.383 185.698 109.146 184.99 109.146H182.038V109.137Z" fill="#3C4043"/>
<path d="M193.864 111.447C195.17 111.447 196.2 111.792 196.954 112.483C197.708 113.174 198.085 114.12 198.085 115.32V121.048H196.402V119.757H196.329C195.602 120.82 194.627 121.348 193.413 121.348C192.374 121.348 191.51 121.048 190.811 120.439C190.112 119.829 189.763 119.075 189.763 118.166C189.763 117.202 190.13 116.438 190.866 115.874C191.602 115.302 192.586 115.02 193.809 115.02C194.857 115.02 195.722 115.211 196.393 115.593V115.193C196.393 114.583 196.154 114.074 195.666 113.647C195.179 113.22 194.609 113.01 193.956 113.01C192.972 113.01 192.19 113.42 191.62 114.247L190.066 113.283C190.921 112.056 192.19 111.447 193.864 111.447ZM191.583 118.193C191.583 118.647 191.777 119.029 192.172 119.329C192.558 119.629 193.018 119.784 193.542 119.784C194.287 119.784 194.949 119.511 195.528 118.966C196.108 118.42 196.402 117.784 196.402 117.047C195.85 116.62 195.087 116.402 194.103 116.402C193.386 116.402 192.788 116.575 192.31 116.911C191.823 117.266 191.583 117.693 191.583 118.193Z" fill="#3C4043"/>
<path d="M207.686 111.747L201.8 125.13H199.979L202.168 120.448L198.287 111.747H200.209L203.005 118.42H203.042L205.764 111.747H207.686Z" fill="#3C4043"/>
<path d="M175.015 114.438C175.015 113.869 174.964 113.324 174.868 112.8H167.467V115.801L171.73 115.802C171.557 116.8 171 117.651 170.148 118.218V120.165H172.685C174.166 118.809 175.015 116.805 175.015 114.438Z" fill="#4285F4"/>
<path d="M170.149 118.218C169.442 118.689 168.533 118.965 167.469 118.965C165.414 118.965 163.67 117.596 163.046 115.75H160.429V117.757C161.725 120.301 164.39 122.047 167.469 122.047C169.597 122.047 171.385 121.355 172.686 120.164L170.149 118.218Z" fill="#34A853"/>
<path d="M162.799 114.261C162.799 113.742 162.887 113.241 163.046 112.77V110.763H160.429C159.892 111.815 159.591 113.002 159.591 114.261C159.591 115.519 159.893 116.706 160.429 117.758L163.046 115.751C162.887 115.28 162.799 114.779 162.799 114.261Z" fill="#FABB05"/>
<path d="M167.469 109.556C168.63 109.556 169.671 109.951 170.492 110.724L172.74 108.503C171.375 107.245 169.594 106.473 167.469 106.473C164.391 106.473 161.725 108.219 160.429 110.763L163.046 112.77C163.67 110.925 165.414 109.556 167.469 109.556Z" fill="#E94235"/>
</g>
<g filter="url(#filter4_dd_496_499)">
<rect x="242.995" y="90.0557" width="78.5" height="50" rx="2" fill="white"/>
<rect x="243.495" y="90.5557" width="77.5" height="49" rx="1.5" stroke="#D6DCE5"/>
<path d="M305.608 109.78C305.039 106.513 303.444 103.54 300.654 101.363C297.693 99.3107 293.65 98.1382 289.209 97.7195C284.938 97.3007 282.034 97.4264 282.034 97.4264C282.034 97.4264 279.13 97.3426 274.86 97.7195C270.419 98.1382 266.376 99.3107 263.415 101.363C260.625 103.54 259.03 106.513 258.461 109.78C257.892 112.92 258.005 115.056 258.005 115.056C258.005 115.056 257.892 117.191 258.404 120.332C258.973 123.598 260.568 126.571 263.358 128.749C266.319 130.801 270.362 131.973 274.803 132.392C279.074 132.81 281.978 132.685 281.978 132.685C281.978 132.685 284.882 132.769 289.152 132.392C293.593 131.973 297.636 130.801 300.597 128.749C303.387 126.572 304.982 123.598 305.551 120.332C306.12 117.191 305.95 115.056 305.95 115.056C305.95 115.056 306.177 112.92 305.608 109.78Z" fill="#1E4BC6"/>
<path d="M270.936 109.909V119.163H272.652V116.525H274.076C274.578 116.525 275.039 116.441 275.416 116.273C275.793 116.107 276.17 115.855 276.463 115.562C276.756 115.269 277.007 114.934 277.174 114.515C277.342 114.096 277.425 113.678 277.425 113.217C277.425 112.756 277.342 112.338 277.174 111.919C277.007 111.5 276.756 111.165 276.463 110.872C276.17 110.579 275.835 110.327 275.416 110.16C274.998 109.992 274.578 109.909 274.076 109.909L270.936 109.909ZM272.611 111.459H273.951C274.202 111.459 274.453 111.501 274.662 111.585C274.872 111.668 275.039 111.793 275.207 111.961C275.332 112.128 275.458 112.296 275.541 112.505C275.625 112.715 275.667 112.924 275.667 113.175C275.667 113.427 275.625 113.636 275.541 113.845C275.458 114.055 275.374 114.222 275.207 114.39C275.039 114.557 274.872 114.683 274.662 114.767C274.453 114.851 274.202 114.892 273.951 114.892H272.611V111.5V111.459ZM281.403 111.71C280.9 111.71 280.482 111.793 280.022 111.961C279.603 112.128 279.184 112.337 278.849 112.672C278.514 113.007 278.221 113.384 278.012 113.845C277.802 114.306 277.719 114.85 277.719 115.437C277.719 116.023 277.844 116.567 278.053 117.027C278.263 117.488 278.556 117.865 278.891 118.2C279.226 118.493 279.645 118.744 280.063 118.912C280.524 119.08 280.942 119.163 281.403 119.163C281.905 119.163 282.324 119.08 282.743 118.912C283.162 118.702 283.539 118.451 283.79 118.116V119.163H285.506V111.71H283.79V112.672C283.497 112.379 283.162 112.128 282.743 111.961C282.366 111.793 281.905 111.71 281.403 111.71ZM286.093 111.751L289.107 118.828L287.558 122.555H289.316L293.712 111.751H291.912L289.986 116.818L287.892 111.751H286.093ZM281.696 113.301C281.99 113.301 282.282 113.343 282.576 113.511C282.869 113.636 283.078 113.762 283.287 113.971C283.496 114.139 283.622 114.39 283.747 114.641C283.873 114.892 283.915 115.185 283.915 115.478C283.915 115.771 283.873 116.064 283.747 116.316C283.622 116.567 283.496 116.776 283.287 116.986C283.078 117.195 282.827 117.321 282.576 117.447C282.324 117.573 282.031 117.614 281.696 117.614C281.361 117.614 281.068 117.53 280.817 117.447C280.565 117.321 280.314 117.195 280.105 116.986C279.938 116.776 279.77 116.526 279.645 116.274C279.519 116.023 279.477 115.73 279.477 115.437C279.477 115.144 279.519 114.85 279.645 114.599C279.728 114.348 279.896 114.139 280.105 113.929C280.314 113.72 280.523 113.595 280.817 113.469C281.11 113.343 281.403 113.301 281.696 113.301Z" fill="white"/>
</g>
<defs>
<filter id="filter0_dd_496_499" x="57.9851" y="0" width="158" height="130" filterUnits="userSpaceOnUse" color-interpolation-filters="sRGB">
<feFlood flood-opacity="0" result="BackgroundImageFix"/>
<feColorMatrix in="SourceAlpha" type="matrix" values="0 0 0 0 0 0 0 0 0 0 0 0 0 0 0 0 0 0 127 0" result="hardAlpha"/>
<feOffset dy="2"/>
<feGaussianBlur stdDeviation="10"/>
<feColorMatrix type="matrix" values="0 0 0 0 0.717647 0 0 0 0 0.717647 0 0 0 0 0.717647 0 0 0 0.08 0"/>
<feBlend mode="normal" in2="BackgroundImageFix" result="effect1_dropShadow_496_499"/>
<feColorMatrix in="SourceAlpha" type="matrix" values="0 0 0 0 0 0 0 0 0 0 0 0 0 0 0 0 0 0 127 0" result="hardAlpha"/>
<feOffset dy="20"/>
<feGaussianBlur stdDeviation="20"/>
<feColorMatrix type="matrix" values="0 0 0 0 0.717647 0 0 0 0 0.717647 0 0 0 0 0.717647 0 0 0 0.08 0"/>
<feBlend mode="normal" in2="effect1_dropShadow_496_499" result="effect2_dropShadow_496_499"/>
<feBlend mode="normal" in="SourceGraphic" in2="effect2_dropShadow_496_499" result="shape"/>
</filter>
<filter id="filter1_dd_496_499" x="248.902" y="0" width="158.617" height="130.056" filterUnits="userSpaceOnUse" color-interpolation-filters="sRGB">
<feFlood flood-opacity="0" result="BackgroundImageFix"/>
<feColorMatrix in="SourceAlpha" type="matrix" values="0 0 0 0 0 0 0 0 0 0 0 0 0 0 0 0 0 0 127 0" result="hardAlpha"/>
<feOffset dy="2"/>
<feGaussianBlur stdDeviation="10"/>
<feColorMatrix type="matrix" values="0 0 0 0 0.717647 0 0 0 0 0.717647 0 0 0 0 0.717647 0 0 0 0.08 0"/>
<feBlend mode="normal" in2="BackgroundImageFix" result="effect1_dropShadow_496_499"/>
<feColorMatrix in="SourceAlpha" type="matrix" values="0 0 0 0 0 0 0 0 0 0 0 0 0 0 0 0 0 0 127 0" result="hardAlpha"/>
<feOffset dy="20"/>
<feGaussianBlur stdDeviation="20"/>
<feColorMatrix type="matrix" values="0 0 0 0 0.717647 0 0 0 0 0.717647 0 0 0 0 0.717647 0 0 0 0.08 0"/>
<feBlend mode="normal" in2="effect1_dropShadow_496_499" result="effect2_dropShadow_496_499"/>
<feBlend mode="normal" in="SourceGraphic" in2="effect2_dropShadow_496_499" result="shape"/>
</filter>
<filter id="filter2_dd_496_499" x="5.99463" y="70.0557" width="158.5" height="130" filterUnits="userSpaceOnUse" color-interpolation-filters="sRGB">
<feFlood flood-opacity="0" result="BackgroundImageFix"/>
<feColorMatrix in="SourceAlpha" type="matrix" values="0 0 0 0 0 0 0 0 0 0 0 0 0 0 0 0 0 0 127 0" result="hardAlpha"/>
<feOffset dy="2"/>
<feGaussianBlur stdDeviation="10"/>
<feColorMatrix type="matrix" values="0 0 0 0 0.717647 0 0 0 0 0.717647 0 0 0 0 0.717647 0 0 0 0.08 0"/>
<feBlend mode="normal" in2="BackgroundImageFix" result="effect1_dropShadow_496_499"/>
<feColorMatrix in="SourceAlpha" type="matrix" values="0 0 0 0 0 0 0 0 0 0 0 0 0 0 0 0 0 0 127 0" result="hardAlpha"/>
<feOffset dy="20"/>
<feGaussianBlur stdDeviation="20"/>
<feColorMatrix type="matrix" values="0 0 0 0 0.717647 0 0 0 0 0.717647 0 0 0 0 0.717647 0 0 0 0.08 0"/>
<feBlend mode="normal" in2="effect1_dropShadow_496_499" result="effect2_dropShadow_496_499"/>
<feBlend mode="normal" in="SourceGraphic" in2="effect2_dropShadow_496_499" result="shape"/>
</filter>
<filter id="filter3_dd_496_499" x="104.495" y="70.0557" width="158.5" height="130" filterUnits="userSpaceOnUse" color-interpolation-filters="sRGB">
<feFlood flood-opacity="0" result="BackgroundImageFix"/>
<feColorMatrix in="SourceAlpha" type="matrix" values="0 0 0 0 0 0 0 0 0 0 0 0 0 0 0 0 0 0 127 0" result="hardAlpha"/>
<feOffset dy="2"/>
<feGaussianBlur stdDeviation="10"/>
<feColorMatrix type="matrix" values="0 0 0 0 0.717647 0 0 0 0 0.717647 0 0 0 0 0.717647 0 0 0 0.08 0"/>
<feBlend mode="normal" in2="BackgroundImageFix" result="effect1_dropShadow_496_499"/>
<feColorMatrix in="SourceAlpha" type="matrix" values="0 0 0 0 0 0 0 0 0 0 0 0 0 0 0 0 0 0 127 0" result="hardAlpha"/>
<feOffset dy="20"/>
<feGaussianBlur stdDeviation="20"/>
<feColorMatrix type="matrix" values="0 0 0 0 0.717647 0 0 0 0 0.717647 0 0 0 0 0.717647 0 0 0 0.08 0"/>
<feBlend mode="normal" in2="effect1_dropShadow_496_499" result="effect2_dropShadow_496_499"/>
<feBlend mode="normal" in="SourceGraphic" in2="effect2_dropShadow_496_499" result="shape"/>
</filter>
<filter id="filter4_dd_496_499" x="202.995" y="70.0557" width="158.5" height="130" filterUnits="userSpaceOnUse" color-interpolation-filters="sRGB">
<feFlood flood-opacity="0" result="BackgroundImageFix"/>
<feColorMatrix in="SourceAlpha" type="matrix" values="0 0 0 0 0 0 0 0 0 0 0 0 0 0 0 0 0 0 127 0" result="hardAlpha"/>
<feOffset dy="2"/>
<feGaussianBlur stdDeviation="10"/>
<feColorMatrix type="matrix" values="0 0 0 0 0.717647 0 0 0 0 0.717647 0 0 0 0 0.717647 0 0 0 0.08 0"/>
<feBlend mode="normal" in2="BackgroundImageFix" result="effect1_dropShadow_496_499"/>
<feColorMatrix in="SourceAlpha" type="matrix" values="0 0 0 0 0 0 0 0 0 0 0 0 0 0 0 0 0 0 127 0" result="hardAlpha"/>
<feOffset dy="20"/>
<feGaussianBlur stdDeviation="20"/>
<feColorMatrix type="matrix" values="0 0 0 0 0.717647 0 0 0 0 0.717647 0 0 0 0 0.717647 0 0 0 0.08 0"/>
<feBlend mode="normal" in2="effect1_dropShadow_496_499" result="effect2_dropShadow_496_499"/>
<feBlend mode="normal" in="SourceGraphic" in2="effect2_dropShadow_496_499" result="shape"/>
</filter>
</defs>
</svg>
