<?xml version="1.0" encoding="UTF-8" standalone="no"?>
<svg
   version="1.1"
   width="512"
   height="512"
   id="svg356"
   sodipodi:docname="logo512.svg"
   inkscape:version="1.1.2 (0a00cf5339, 2022-02-04)"
   viewBox="0 0 512 512"
   xmlns:inkscape="http://www.inkscape.org/namespaces/inkscape"
   xmlns:sodipodi="http://sodipodi.sourceforge.net/DTD/sodipodi-0.dtd"
   xmlns="http://www.w3.org/2000/svg"
   xmlns:svg="http://www.w3.org/2000/svg">
  <defs
     id="defs360" />
  <sodipodi:namedview
     id="namedview358"
     pagecolor="#ffffff"
     bordercolor="#666666"
     borderopacity="1.0"
     inkscape:pageshadow="2"
     inkscape:pageopacity="0.0"
     inkscape:pagecheckerboard="0"
     showgrid="false"
     inkscape:zoom="1"
     inkscape:cx="300.5"
     inkscape:cy="271"
     inkscape:window-width="1846"
     inkscape:window-height="1109"
     inkscape:window-x="0"
     inkscape:window-y="0"
     inkscape:window-maximized="1"
     inkscape:current-layer="svg356"
     width="512px"
     lock-margins="true" />
  <g
     data-paper-data="{&quot;elementType&quot;:&quot;text&quot;}"
     id="g350"
     style="font-family:none;mix-blend-mode:normal;fill:#5fabab;fill-rule:nonzero;stroke:none;stroke-width:1;stroke-linecap:butt;stroke-linejoin:miter;stroke-miterlimit:10;stroke-dasharray:none;stroke-dashoffset:0"
     transform="matrix(1.03,0,0,1.03,-1.4999948,-1.5000052)">
    <g
       data-paper-data="{&quot;baseline&quot;:68,&quot;elementType&quot;:&quot;row&quot;}"
       id="g348">
      <g
         data-paper-data="{&quot;baselineProportion&quot;:0.7727272727272727,&quot;fontSize&quot;:100,&quot;baseline&quot;:68,&quot;elementType&quot;:&quot;word&quot;}"
         id="g346">
        <path
           d="M 73.99572,276.78093 C 57.99858,276.78093 50,268.4967 50,251.92823 c 0,-9.21264 2.26745,-16.19354 6.80236,-20.94269 4.5349,-4.74915 10.5874,-7.12373 18.15747,-7.12373 1.85681,0 3.82075,0.17854 5.89181,0.53562 2.07106,0.35708 3.78504,0.82128 5.14194,1.39261 V 203.5083 h 25.92394 v 72.20139 H 89.42154 l -1.17836,-3.32084 c -1.99964,1.42832 -4.14212,2.51741 -6.42742,3.26727 -2.28531,0.74987 -4.89198,1.1248 -7.82003,1.1248 m 7.49865,-18.53239 c 0.92841,0 1.73183,-0.12498 2.41028,-0.37493 0.67845,-0.24996 1.37475,-0.6606 2.08891,-1.23192 v -12.6406 c -0.71416,-0.57133 -1.41046,-0.98197 -2.08891,-1.23192 -0.67845,-0.24996 -1.48188,-0.37493 -2.41028,-0.37493 -1.57115,0 -2.80307,0.80343 -3.69577,2.41028 -0.8927,1.60686 -1.33905,3.91002 -1.33905,6.90948 0,2.78522 0.39279,4.57061 1.17836,5.35619 0.78557,0.78557 2.07106,1.17836 3.85645,1.17836 z"
           data-paper-data="{&quot;elementType&quot;:&quot;letter&quot;,&quot;baseline&quot;:67.4,&quot;baselineProportion&quot;:0.9853801169590644,&quot;fontSize&quot;:100}"
           id="path332" />
        <path
           d="m 126.48634,243.57258 h -7.07017 l 2.14247,-18.63953 h 30.85163 v 50.77665 h -25.92394 z m -1.8211,-40.70702 h 27.74505 v 17.88966 h -27.74505 v -17.88966"
           data-paper-data="{&quot;elementType&quot;:&quot;letter&quot;,&quot;baseline&quot;:68,&quot;baselineProportion&quot;:1,&quot;fontSize&quot;:100}"
           id="path334" />
        <path
           d="m 181.76219,276.78093 c -4.78486,0 -9.33762,-0.33923 -13.65828,-1.01768 -4.32066,-0.67845 -7.62364,-1.55329 -9.90894,-2.62453 v -16.38993 c 2.35672,1.28548 5.39189,2.32101 9.10552,3.10659 3.71362,0.78557 6.82021,1.17836 9.31976,1.17836 2.14247,0 3.64221,-0.0536 4.4992,-0.16069 0.85699,-0.10712 1.28548,-0.44635 1.28548,-1.01768 0,-0.42849 -0.44635,-0.82128 -1.33905,-1.17836 -0.8927,-0.35708 -2.23174,-0.74987 -4.01714,-1.17836 -3.78504,-1.14265 -5.82039,-1.74969 -6.10605,-1.8211 -4.78486,-1.7854 -8.17711,-3.76718 -10.17675,-5.94537 -1.99964,-2.17818 -2.99946,-5.26692 -2.99946,-9.2662 0,-11.06945 9.14122,-16.60418 27.42367,-16.60418 3.42796,0 7.23085,0.24996 11.40868,0.74987 4.17783,0.49991 7.33798,1.10695 9.48045,1.8211 v 16.28281 c -2.28531,-0.92841 -4.74915,-1.67827 -7.39154,-2.2496 -2.64239,-0.57133 -4.9634,-0.85699 -6.96304,-0.85699 -2.42814,0 -4.28495,0.0714 -5.57043,0.21425 -1.28548,0.14283 -1.92823,0.53562 -1.92823,1.17836 0,0.35708 0.39279,0.67845 1.17836,0.96411 0.78557,0.28566 2.14247,0.67845 4.0707,1.17836 1.85681,0.35708 3.6065,0.78557 5.24906,1.28548 3.71362,1.07124 6.58811,2.26745 8.62346,3.58864 2.03535,1.32119 3.46367,2.91019 4.28495,4.76701 0.82128,1.85681 1.23192,4.21353 1.23192,7.07017 0,5.28477 -2.32101,9.42689 -6.96304,12.42635 -4.64203,2.99946 -11.35512,4.4992 -20.13926,4.4992 z"
           data-paper-data="{&quot;elementType&quot;:&quot;letter&quot;,&quot;baseline&quot;:48.400000000000006,&quot;baselineProportion&quot;:0.979757085020243,&quot;fontSize&quot;:100}"
           id="path336" />
        <path
           d="m 214.22067,203.5083 h 25.92394 v 23.35297 c 1.49973,-0.85699 3.46367,-1.57115 5.89181,-2.14247 2.42814,-0.57133 4.89198,-0.85699 7.39154,-0.85699 7.14158,0 12.4085,1.67827 15.80075,5.03482 3.39225,3.35654 5.08838,8.53419 5.08838,15.53294 v 31.28013 h -25.92394 v -29.13765 c 0,-2.42814 -1.17836,-3.64221 -3.53508,-3.64221 -0.78557,0 -1.64256,0.21425 -2.57097,0.64274 -0.92841,0.42849 -1.64256,0.92841 -2.14247,1.49973 v 30.63739 h -25.92394 z"
           data-paper-data="{&quot;elementType&quot;:&quot;letter&quot;,&quot;baseline&quot;:67.4,&quot;baselineProportion&quot;:1,&quot;fontSize&quot;:100}"
           id="path338" />
        <path
           d="m 304.74022,276.78093 c -14.426,0 -21.63899,-6.99875 -21.63899,-20.99625 v -12.2121 h -6.10605 v -18.63953 h 6.10605 v -9.96251 l 25.92394,-5.24906 v 15.21157 h 10.391 l -0.53562,18.63953 h -9.85538 v 10.8195 c 0,2.99946 1.67827,4.4992 5.03482,4.4992 2.21389,0 4.35636,-0.35708 6.42742,-1.07124 v 16.06856 c -4.4992,1.92823 -9.74826,2.89234 -15.74719,2.89234 z"
           data-paper-data="{&quot;elementType&quot;:&quot;letter&quot;,&quot;baseline&quot;:61.6,&quot;baselineProportion&quot;:0.9840255591054313,&quot;fontSize&quot;:100}"
           id="path340" />
        <path
           d="m 342.62694,276.78093 c -5.78468,0 -10.33744,-1.69613 -13.65828,-5.08838 -3.32084,-3.39225 -4.98125,-8.26638 -4.98125,-14.62239 v -32.13712 h 25.92394 v 29.3519 c 0,2.28531 1.17836,3.42796 3.53508,3.42796 0.78557,0 1.64256,-0.21425 2.57097,-0.64274 0.92841,-0.42849 1.64256,-0.92841 2.14247,-1.49973 v -30.63739 h 25.92394 v 50.77665 h -24.31709 l -0.53562,-2.89234 c -1.99964,1.21407 -4.44563,2.17818 -7.33798,2.89234 -2.89234,0.71416 -5.98107,1.07124 -9.2662,1.07124 z"
           data-paper-data="{&quot;elementType&quot;:&quot;letter&quot;,&quot;baseline&quot;:47.400000000000006,&quot;baselineProportion&quot;:0.9793388429752066,&quot;fontSize&quot;:100}"
           id="path342" />
        <path
           d="m 388.08249,224.93305 h 22.49598 l 1.17836,3.32084 c 1.99964,-1.42832 4.14212,-2.51741 6.42742,-3.26727 2.28531,-0.74987 4.89198,-1.1248 7.82003,-1.1248 7.85574,0 13.81896,2.08891 17.88966,6.26674 4.0707,4.17783 6.10605,10.69452 6.10605,19.55008 0,8.92698 -2.17818,15.67577 -6.53455,20.24638 -4.35636,4.57061 -10.49813,6.85592 -18.42528,6.85592 -1.85681,0 -3.82075,-0.17854 -5.89181,-0.53562 -2.07106,-0.35708 -3.78504,-0.82128 -5.14194,-1.39261 v 22.28174 h -25.92394 v -72.20139 m 30.42315,33.31547 c 1.64256,0 2.89234,-0.64274 3.74933,-1.92823 0.85699,-1.28548 1.28548,-3.39225 1.28548,-6.3203 0,-2.85663 -0.41064,-4.83842 -1.23192,-5.94537 -0.82128,-1.10695 -2.08891,-1.66042 -3.80289,-1.66042 -0.92841,0 -1.73183,0.12498 -2.41028,0.37493 -0.67845,0.24996 -1.37475,0.6606 -2.08891,1.23192 v 12.6406 c 0.71416,0.57133 1.41046,0.98197 2.08891,1.23192 0.67845,0.24996 1.48188,0.37493 2.41028,0.37493 z"
           data-paper-data="{&quot;elementType&quot;:&quot;letter&quot;,&quot;baseline&quot;:48.400000000000006,&quot;baselineProportion&quot;:0.7076023391812866,&quot;fontSize&quot;:100}"
           id="path344" />
      </g>
    </g>
  </g>
</svg>
