<?xml version="1.0" standalone="no"?>
<!DOCTYPE svg PUBLIC "-//W3C//DTD SVG 20010904//EN"
 "http://www.w3.org/TR/2001/REC-SVG-20010904/DTD/svg10.dtd">
<svg version="1.0" xmlns="http://www.w3.org/2000/svg"
 width="512.000000pt" height="512.000000pt" viewBox="0 0 512.000000 512.000000"
 preserveAspectRatio="xMidYMid meet">

<g transform="translate(0.000000,512.000000) scale(0.100000,-0.100000)"
fill="#000000" stroke="none">
<path d="M825 5090 c-182 -5 -239 -9 -273 -22 -88 -35 -181 -117 -220 -195
-43 -84 -52 -139 -52 -320 l0 -173 -95 0 c-88 0 -96 -2 -110 -24 -18 -27 -7
-69 20 -80 9 -3 55 -6 101 -6 l84 0 0 -160 0 -160 -84 0 c-46 0 -92 -3 -101
-6 -27 -11 -38 -53 -20 -80 14 -22 22 -24 110 -24 l95 0 0 -165 0 -165 -95 0
c-89 0 -95 -1 -110 -24 -13 -19 -14 -29 -5 -45 17 -33 43 -41 129 -41 l81 0 0
-160 0 -160 -88 0 c-100 0 -125 -11 -125 -55 0 -44 25 -55 125 -55 l88 0 0
-160 0 -159 -91 -3 c-87 -3 -93 -5 -112 -30 -19 -25 -19 -28 -3 -52 16 -25 21
-26 111 -26 l95 0 0 -165 0 -165 -95 0 c-88 0 -96 -2 -110 -24 -17 -25 -11
-53 14 -73 10 -8 50 -12 104 -13 l87 0 0 -160 0 -160 -88 0 c-93 0 -115 -8
-127 -47 -4 -15 0 -28 14 -42 18 -18 34 -21 111 -21 l90 0 0 -160 0 -160 -81
0 c-86 0 -112 -8 -129 -41 -9 -16 -8 -26 5 -45 15 -23 21 -24 110 -24 l95 0 0
-165 0 -165 -95 0 c-88 0 -96 -2 -110 -24 -18 -27 -7 -69 20 -80 9 -3 55 -6
101 -6 l84 0 0 -174 c0 -143 3 -185 19 -235 38 -121 111 -205 231 -264 l65
-32 1535 -3 c1514 -2 1536 -2 1601 18 121 36 218 130 272 261 l22 54 3 2125
c2 1513 0 2144 -8 2189 -24 140 -110 254 -237 314 l-68 32 -1330 5 c-731 3
-1433 3 -1560 0z m175 -2501 l0 -2391 -192 4 c-187 3 -195 4 -243 30 -68 35
-128 102 -154 172 -18 50 -21 78 -21 226 l0 170 142 0 c153 0 178 8 178 56 0
48 -20 54 -176 54 l-144 0 2 162 3 163 144 3 c86 1 150 7 158 14 21 17 16 65
-9 82 -18 13 -52 16 -160 16 l-138 0 0 160 0 160 144 0 c156 0 176 6 176 55 0
49 -20 55 -176 55 l-144 0 0 160 0 160 138 0 c154 0 182 9 182 59 0 47 -12 51
-172 51 l-148 0 0 165 0 165 148 0 c160 0 172 4 172 51 0 50 -28 59 -182 59
l-138 0 0 160 0 160 144 0 c156 0 176 6 176 55 0 49 -20 55 -176 55 l-144 0 0
160 0 160 138 0 c108 0 142 3 160 16 25 17 30 65 9 82 -8 7 -72 13 -158 14
l-144 3 -3 163 -2 162 148 0 c160 0 172 4 172 51 0 50 -28 59 -182 59 l-138 0
0 160 0 160 142 0 c153 0 178 8 178 56 0 48 -20 54 -176 54 l-144 0 0 170 c0
186 9 231 60 306 32 45 91 89 147 110 26 9 93 13 221 14 l182 0 0 -2391z
m2714 2375 c64 -22 147 -100 177 -166 l24 -53 0 -2155 0 -2155 -28 -57 c-30
-62 -83 -115 -149 -150 l-43 -23 -1292 -3 -1293 -2 0 2390 0 2390 1278 0
c1148 0 1283 -2 1326 -16z"/>
<path d="M1785 4750 c-305 -65 -500 -369 -430 -669 48 -203 207 -364 410 -416
395 -101 771 275 670 670 -47 185 -176 328 -353 392 -74 27 -225 39 -297 23z
m238 -120 c79 -24 171 -84 215 -140 18 -22 48 -71 65 -108 30 -63 32 -74 32
-177 0 -106 -1 -113 -37 -188 -134 -281 -498 -344 -717 -126 -137 138 -169
347 -80 521 28 54 113 143 167 175 107 63 239 79 355 43z"/>
<path d="M1872 4584 c-15 -10 -22 -26 -22 -47 -1 -27 -8 -36 -44 -58 -53 -32
-86 -95 -86 -162 0 -62 42 -110 130 -150 80 -36 110 -62 110 -98 0 -31 -16
-47 -57 -55 -45 -9 -72 10 -79 56 -8 50 -34 75 -69 66 -34 -9 -47 -45 -36 -98
12 -51 37 -86 84 -117 28 -19 37 -31 37 -52 0 -38 39 -65 69 -49 24 12 41 41
41 69 0 12 11 26 28 35 15 8 41 28 57 46 27 28 30 37 30 99 0 92 -25 124 -142
183 -74 38 -89 49 -91 71 -4 32 36 77 68 77 29 0 70 -44 70 -74 0 -54 66 -76
96 -31 32 49 -6 148 -71 186 -25 15 -35 28 -35 45 0 23 -39 74 -57 74 -5 0
-19 -7 -31 -16z"/>
<path d="M3000 4745 c-199 -55 -353 -209 -405 -405 -17 -64 -19 -195 -4 -260
21 -91 78 -191 153 -266 220 -220 560 -220 781 1 288 287 181 766 -202 911
-87 33 -239 42 -323 19z m259 -114 c83 -26 137 -60 198 -123 58 -63 87 -114
108 -195 28 -107 13 -224 -42 -325 -33 -61 -124 -148 -189 -180 -197 -100
-447 -36 -567 145 -154 232 -73 529 180 656 89 44 212 53 312 22z"/>
<path d="M3105 4575 c-14 -13 -25 -35 -25 -48 0 -17 -12 -32 -40 -51 -42 -28
-74 -80 -85 -136 -4 -26 0 -47 17 -80 20 -39 34 -51 112 -91 96 -49 122 -75
112 -112 -6 -24 -43 -47 -76 -47 -29 0 -60 36 -60 70 0 40 -40 68 -75 52 -31
-15 -41 -53 -25 -105 16 -56 35 -81 74 -102 27 -15 35 -26 40 -57 8 -50 43
-69 81 -44 18 12 25 25 25 49 1 27 7 36 45 59 84 51 110 142 62 220 -29 47
-60 71 -140 107 -36 16 -70 38 -76 48 -13 25 6 63 42 83 41 23 79 -1 92 -58
12 -46 27 -62 62 -62 81 0 53 161 -37 212 -33 19 -40 28 -40 55 0 22 -7 37
-22 47 -30 21 -35 20 -63 -9z"/>
<path d="M1373 3430 c-27 -11 -39 -51 -23 -79 l11 -21 1149 0 c1031 0 1150 2
1164 16 20 19 20 44 2 70 -14 19 -39 19 -1148 21 -653 1 -1142 -2 -1155 -7z"/>
<path d="M1356 3094 c-23 -22 -20 -60 6 -78 20 -14 146 -16 1155 -16 1120 0
1133 0 1153 20 24 24 26 53 4 74 -14 14 -133 16 -1159 16 -1026 0 -1145 -2
-1159 -16z"/>
<path d="M1357 2772 c-22 -24 -21 -55 1 -75 17 -16 112 -17 1159 -17 1092 0
1141 1 1156 18 22 24 21 55 -1 75 -17 16 -112 17 -1159 17 -1092 0 -1141 -1
-1156 -18z"/>
<path d="M1362 2454 c-27 -18 -29 -55 -4 -77 17 -16 112 -17 1159 -17 1092 0
1141 1 1156 18 22 25 21 48 -3 72 -20 20 -33 20 -1153 20 -1009 0 -1135 -2
-1155 -16z"/>
<path d="M1373 2140 c-27 -11 -39 -51 -23 -79 l11 -21 1154 0 1154 0 11 21
c16 30 4 68 -26 79 -33 13 -2250 12 -2281 0z"/>
<path d="M1356 1804 c-23 -22 -20 -60 6 -78 20 -14 146 -16 1155 -16 1120 0
1133 0 1153 20 24 24 26 53 4 74 -14 14 -133 16 -1159 16 -1026 0 -1145 -2
-1159 -16z"/>
<path d="M1357 1482 c-22 -24 -21 -55 1 -75 17 -16 112 -17 1159 -17 1092 0
1141 1 1156 18 22 24 21 55 -1 75 -17 16 -112 17 -1159 17 -1092 0 -1141 -1
-1156 -18z"/>
<path d="M1362 1164 c-26 -18 -29 -56 -6 -78 14 -14 133 -16 1158 -16 1095 0
1144 1 1159 18 22 25 21 48 -3 72 -20 20 -33 20 -1153 20 -1009 0 -1135 -2
-1155 -16z"/>
<path d="M1382 853 c-32 -6 -49 -45 -34 -78 l12 -25 1155 0 1155 0 12 25 c16
36 -2 70 -42 79 -36 7 -2221 6 -2258 -1z"/>
<path d="M1357 512 c-23 -26 -21 -58 5 -76 20 -14 146 -16 1155 -16 1120 0
1133 0 1153 20 25 25 26 52 2 73 -17 16 -112 17 -1159 17 -1092 0 -1141 -1
-1156 -18z"/>
<path d="M4424 5066 c-27 -13 -66 -42 -87 -66 -72 -85 -67 87 -67 -2119 l0
-1986 141 -385 c78 -212 148 -393 157 -402 19 -23 55 -23 74 0 8 9 79 190 157
402 l141 385 0 1986 c0 2200 5 2034 -66 2117 -19 22 -57 52 -86 66 -48 24 -62
26 -182 26 -116 0 -137 -3 -182 -24z m346 -121 c56 -53 60 -70 60 -235 l0
-150 -225 0 -225 0 0 152 c0 143 1 154 25 193 38 65 68 76 212 73 120 -3 122
-3 153 -33z m60 -665 l0 -170 -225 0 -225 0 0 170 0 170 225 0 225 0 0 -170z
m0 -385 l0 -105 -225 0 -225 0 0 105 0 105 225 0 225 0 0 -105z m0 -315 l0
-100 -225 0 -225 0 0 100 0 100 225 0 225 0 0 -100z m0 -1415 l0 -1205 -225 0
-225 0 0 1205 0 1205 225 0 225 0 0 -1205z m-30 -1325 c0 -9 -189 -522 -194
-528 -2 -1 -27 61 -56 140 -29 79 -75 200 -101 271 l-47 127 199 0 c119 0 199
-4 199 -10z"/>
<path d="M4567 2922 c-15 -16 -17 -52 -17 -305 0 -310 1 -317 55 -317 54 0 55
7 55 319 0 266 -1 289 -18 304 -24 22 -55 21 -75 -1z"/>
<path d="M4566 2014 c-14 -13 -16 -55 -16 -304 0 -249 2 -291 16 -304 21 -21
57 -20 77 2 15 16 17 52 17 304 0 263 -1 286 -18 301 -23 21 -56 22 -76 1z"/>
<path d="M4957 123 c-9 -9 -9 -45 1 -60 4 -6 7 6 7 28 0 21 0 39 -1 39 0 0 -4
-3 -7 -7z"/>
</g>
</svg>
