<?xml version="1.0" encoding="UTF-8" standalone="no"?>
<!-- Created with Inkscape (http://www.inkscape.org/) -->

<svg
   xmlns:dc="http://purl.org/dc/elements/1.1/"
   xmlns:cc="http://creativecommons.org/ns#"
   xmlns:rdf="http://www.w3.org/1999/02/22-rdf-syntax-ns#"
   xmlns:svg="http://www.w3.org/2000/svg"
   xmlns="http://www.w3.org/2000/svg"
   xmlns:xlink="http://www.w3.org/1999/xlink"
   xmlns:sodipodi="http://sodipodi.sourceforge.net/DTD/sodipodi-0.dtd"
   xmlns:inkscape="http://www.inkscape.org/namespaces/inkscape"
   width="142.31"
   height="38"
   version="1.1"
   viewBox="0 0 142.31 38"
   id="svg60"
   sodipodi:docname="loyverse marketplace logo.svg"
   inkscape:export-filename="/media/ivan/Data/UMG/Loyverse/Logo/loyverse marketplace logo.png"
   inkscape:export-xdpi="95.790878"
   inkscape:export-ydpi="95.790878"
   inkscape:version="0.92.3 (2405546, 2018-03-11)">
  <sodipodi:namedview
     pagecolor="#ffffff"
     bordercolor="#666666"
     borderopacity="1"
     objecttolerance="10"
     gridtolerance="10"
     guidetolerance="10"
     inkscape:pageopacity="0"
     inkscape:pageshadow="2"
     inkscape:window-width="1920"
     inkscape:window-height="1029"
     id="namedview62"
     showgrid="false"
     inkscape:zoom="4.21505"
     inkscape:cx="57.245394"
     inkscape:cy="38.694875"
     inkscape:window-x="0"
     inkscape:window-y="25"
     inkscape:window-maximized="1"
     inkscape:current-layer="svg60" />
  <defs
     id="defs8">
    <linearGradient
       id="linearGradient4361">
      <stop
         stop-color="#00a1e4"
         offset="0"
         id="stop2" />
      <stop
         stop-color="#0072bc"
         offset="1"
         id="stop4" />
    </linearGradient>
    <linearGradient
       id="linearGradient4285"
       x1="599.5"
       x2="599.5"
       y1="868.23"
       y2="1025.3"
       gradientUnits="userSpaceOnUse"
       xlink:href="#linearGradient4361" />
  </defs>
  <metadata
     id="metadata10">
    <rdf:RDF>
      <cc:Work
         rdf:about="">
        <dc:format>image/svg+xml</dc:format>
        <dc:type
           rdf:resource="http://purl.org/dc/dcmitype/StillImage" />
        <dc:title />
      </cc:Work>
    </rdf:RDF>
  </metadata>
  <g
     transform="matrix(.10438 0 0 .10438 26.431 -80.001)"
     fill="url(#linearGradient4285)"
     id="g28">
    <path
       d="m767.93 867.83v157.45h32.488v-62.73h7.0615l32.787 62.734h34.598l-35.786-69.942c2.2977-0.8737 4.5421-1.959 6.7246-3.2543v-0.024c6.573-4.0958 11.856-9.6175 15.73-16.394 1.1233-1.9638 2.0016-3.9602 2.7646-5.946 0.18663-0.3799 0.3801-0.8049 0.53185-1.2157 0.33849-0.9165 0.64919-1.934 0.7862-2.4255 0.48806-1.7685 0.90596-4.0136 1.1521-7.708 0.07-1.1571 0.1021-2.3625 0.099-3.6054v-0.01c0-0.4235 0.0318-0.7411 0.0318-0.9782 0-6.0872-0.93067-11.423-2.6698-16.126v-0.045c-2.0262-6.0907-5.2266-11.066-10.303-16.18-6.9145-6.9663-16.461-13.587-33.531-13.587h-52.465zm32.265 27.985h16.404c7.3825 0.1379 10.776 1.7986 14.386 5.1293 3.8126 3.355 5.7517 8.0341 5.7517 13.662 0 1.5885-0.18697 3.0981-0.47481 4.5452-0.07 0.3421-0.13257 0.7584-0.25282 1.2226v0.034c-0.1818 0.7478-0.32316 1.2212-0.5133 1.6489v0.01c-0.0844 0.194-0.0287 0.063-0.0874 0.1962-0.35392 0.9831-0.76053 1.9718-1.2894 2.9446-1.7364 3.1954-4.105 5.7992-7.0511 7.7306v0.012c-2.9201 1.8233-6.0851 2.7686-9.4019 2.7889h-17.437v-25.374l-0.034-14.48v-0.07z"
       id="path12" />
    <path
       d="m338.45 867.84 50.423 81.531v75.896h32.492v-75.246c16.148-26.354 36.441-59.561 50.272-82.181h-34.798l-31.104 54.215-30.841-54.215h-36.443z"
       id="path14" />
    <path
       d="m486.78 867.84 53.246 157.43h32.148l53.961-157.43h-32.61c-12.342 39.014-25.611 77.759-37.496 116.93-11.901-37.404-24.888-79.469-36.577-116.93h-32.671z"
       id="path16" />
    <path
       d="m260.94 865.67c-44.555 0-80.643 36.134-80.643 80.746 0 44.613 36.087 80.752 80.643 80.752 44.555 0 80.643-36.139 80.643-80.752 4.9e-4 -44.613-36.088-80.747-80.643-80.746zm0 30.073c27.935 1e-3 50.613 22.703 50.613 50.673-4.9e-4 27.97-22.679 50.678-50.613 50.678-27.934-1e-3 -50.607-22.708-50.608-50.678 6.2e-4 -27.97 22.674-50.673 50.608-50.673z"
       id="path18" />
    <path
       d="m950.94 866.4c-9.2247 0-17.814 1.5884-25.825 4.7592-7.9376 3.142-14.315 8.0095-19.262 14.688-4.8786 6.5862-7.3509 14.846-7.3509 25.008 0 8.382 1.3479 15.354 3.9469 20.959 2.7286 5.699 6.1567 10.211 10.284 13.614 4.3286 3.4955 9.5231 6.7223 15.593 9.6732l0.28958 0.14278v-0.0103l9.7435 4.1962 0.034 0.0103 0.0237 0.0124c5.7664 2.3246 10.355 4.3535 13.781 6.1103 3.5351 1.813 6.4924 4.0679 8.8186 6.7658 2.433 2.8225 3.6814 6.2991 3.6814 10.136 0 6.386-2.4688 11.408-7.2724 14.153-4.4675 2.513-9.8766 3.7257-16.133 3.7257-5.5816 0-10.606-0.75124-15.054-2.2941l-0.3459-0.12056v-0.0422c-4.1243-1.4799-8.4552-3.3747-13.037-5.7504l-0.22123-0.11663-14.76 20.933c0.82571 0.8694 1.8096 1.7751 3.1045 2.7345 4.0901 2.9648 10.159 5.6114 18.162 7.8032l0.0206 0.01h0.0103c8.0398 2.0908 17.401 3.1507 28.083 3.1507 8.7789 0 16.878-1.623 24.357-4.8638 7.4738-3.203 13.504-8.33 18.214-15.52 4.7291-7.175 7.1538-16.432 7.1538-27.926 0-9.3493-1.9532-16.85-5.7404-22.652l-0.0823-0.12868v-0.0103c-3.7989-5.9121-8.2782-10.371-13.455-13.445l-0.21318-0.12662c-5.3426-3.2382-12.253-6.6801-20.742-10.297-5.7934-2.2482-10.352-4.242-13.723-6.0158l-0.27342-0.14475v-0.0504c-3.2568-1.8052-6.0562-4.0879-8.2999-6.8703l-0.11459-0.14073v-0.0607c-2.2595-2.9983-3.38-6.7095-3.38-10.918 0-4.0114 1.9129-7.6022 5.3362-10.365 3.706-3.079 9.6453-4.2928 17.822-4.2928 4.5092 0 8.3462 0.42372 11.638 1.2486v-0.0381l0.57103 0.13671c3.1822 0.75592 6.3201 1.7838 9.4179 3.014l11.41-21.47c-0.45986-0.38377-0.94133-0.77126-1.522-1.1722l-0.0628-0.0443c-3.2328-2.2733-7.8914-4.2236-13.978-5.7243-6.0319-1.5699-12.817-2.3652-20.334-2.3785h-0.31563z"
       id="path20" />
    <path
       d="m89.913 867.84v157.43h81.946v-27.212h-49.452v-130.21h-32.494z"
       id="path22" />
    <path
       d="m645.15 868.19v156.71h90.217v-26.498h-58.443v-45.524h49.363v-26.498h-49.363v-31.827h58.443v-26.368h-82.83z"
       id="path24" />
    <path
       d="m1019.9 868.19v156.71h90.217v-26.498h-58.443v-45.524h49.363v-26.498h-49.363v-31.827h58.443v-26.368h-82.83z"
       id="path26" />
  </g>
  <g
     transform="matrix(.15697 0 0 .15697 51.517 -13.734)"
     fill="#f5833c"
     id="g34">
    <path
       transform="matrix(1.5992,0,0,1.5992,-392.17,54.089)"
       d="m40 60v48h8v16h-8v48h48v-8h16v8h48v-48h-8v-16h8v-48h-48v8h-16v-8zm8 8h32v32h-32zm64 0h32v32h-32zm-24 8h16v32h32v16h-32v32h-16v-32h-32v-16h32zm-40 56h32v32h-32zm64 0h32v32h-32z"
       id="path30" />
    <path
       transform="matrix(1.5992,0,0,1.5992,-392.17,54.089)"
       d="m128.93 25.443c-3.0661-3.0652-6.6721-4.5557-11.026-4.5557-5.0042 0-8.8162 1.7401-11.658 5.3267l-10.255 13.204-10.257-13.224c-2.8298-3.5704-6.6397-5.3066-11.642-5.3066-4.3537 0-7.9613 1.4905-11.028 4.5557-3.0643 3.065-4.5537 6.6707-4.5537 11.025 0 4.3546 1.4896 7.9604 4.5557 11.026 2.6254 2.6263 5.6369 4.0858 9.2831 4.4648h47.326l0.0404-0.0039c3.5635-0.37509 6.5729-1.8343 9.2024-4.4609 3.0661-3.0663 4.5555-6.6728 4.5555-11.026 2.4e-4 -4.3523-1.4894-7.9592-4.5553-11.025zm-38.364 19.121h-16.462c-2.2352 0-4.1656-0.79544-5.732-2.3628-1.5685-1.5676-2.3628-3.4956-2.3628-5.7322 0-2.2364 0.7943-4.1646 2.3628-5.732 1.5664-1.5673 3.4947-2.3628 5.732-2.3628 2.4174 0 4.39 0.89144 5.8879 2.6741l10.575 13.516zm10.959 0 10.514-13.542c1.4736-1.7564 3.4462-2.6478 5.8655-2.6478 2.2355 0 4.1637 0.7943 5.7302 2.3616 1.5685 1.5685 2.3628 3.4967 2.3628 5.7331 0 2.2366-0.79431 4.1646-2.3628 5.7322-1.5664 1.5673-3.4947 2.3628-5.7302 2.3628h-16.379z"
       id="path32" />
  </g>
  <g
     fill="#949494"
     stroke="#949494"
     stroke-width=".2284"
     aria-label="MARKETPLACE"
     id="g58">
    <path
       d="m36.596 37.927h-0.74002l0.44766-6.1577h0.94101l0.81311 2.2475 0.98669 2.8687q0.52989-1.4983 1.0415-2.8687l0.84965-2.2475h0.94101l0.53903 6.1577h-0.74002l-0.21013-2.4302-0.21926-2.7317q-0.48421 1.3521-0.99583 2.7317l-0.85879 2.2931h-0.70347l-0.81311-2.2931-0.93188-2.6769q0 0.3563-0.17358 2.6769z"
       id="path36" />
    <path
       d="m49.942 35.332-0.11877 0.34717h2.1835l-0.11877-0.35631-0.95928-2.9601q-0.10963 0.39285-0.98669 2.9692zm-0.87706 2.5946h-0.79484l2.147-6.1577h1.0232l2.1104 6.1577h-0.79484l-0.53903-1.6171h-2.6038z"
       id="path38" />
    <path
       d="m61.067 32.409h-0.84965v2.4576h0.93188q0.63039 0 0.95928-0.33803 0.33803-0.34717 0.33803-0.8862 0-1.2334-1.3795-1.2334zm0.03654 3.088h-0.8862v2.4302h-0.74002v-6.1577h1.544q1.0689 0 1.6171 0.50248 0.5573 0.50248 0.5573 1.3887-0.01827 0.63952-0.33803 1.0872-0.31976 0.44767-0.90447 0.63039l1.6171 2.549h-0.8862l-1.5074-2.4302z"
       id="path40" />
    <path
       d="m73.667 37.927h-0.95928l-2.4302-3.0423 2.348-3.1154h0.9136l-2.348 3.1154zm-3.5356 0h-0.74002v-6.1577h0.74002z"
       id="path42" />
    <path
       d="m82.955 37.927h-3.4352v-6.1577h3.3895v0.64866h-2.6494v2.1104h2.3388v0.64866h-2.3388v2.1013h2.6951z"
       id="path44" />
    <path
       d="m92.532 32.418h-1.6628v5.509h-0.74002v-5.509h-1.6628v-0.64866h4.0655z"
       id="path46" />
    <path
       d="m100 35.661h-0.95015v2.2657h-0.74002v-6.1577h1.6171q1.0689 0 1.681 0.5573 0.62125 0.54816 0.62125 1.4252 0 0.82224-0.61211 1.3704-0.61212 0.53903-1.6171 0.53903zm-0.06395-3.2616h-0.8862v2.6312h0.95015q0.69434 0 1.0872-0.3563 0.39285-0.36544 0.39285-0.92274 0-0.62125-0.40199-0.98669-0.40198-0.36544-1.142-0.36544z"
       id="path48" />
    <path
       d="m111.55 37.927h-3.3621v-6.1577h0.74002v5.4908h2.622z"
       id="path50" />
    <path
       d="m118.73 35.332-0.11877 0.34717h2.1835l-0.11877-0.35631-0.95928-2.9601q-0.10963 0.39285-0.98669 2.9692zm-0.87706 2.5946h-0.79483l2.147-6.1577h1.0232l2.1104 6.1577h-0.79483l-0.53903-1.6171h-2.6038z"
       id="path52" />
    <path
       d="m132.68 37.616q-0.56643 0.38371-1.5531 0.38371-1.3887 0-2.2566-0.84965-0.86793-0.85879-0.86793-2.3297 0-1.3887 0.87706-2.2566 0.8862-0.87706 2.2201-0.87706 0.95928 0 1.5623 0.3289v0.75829q-0.40198-0.21013-0.72175-0.30149-0.31976-0.09136-0.84051-0.09136-0.99583 0-1.6628 0.67607-0.65779 0.67607-0.65779 1.7633 0 1.1329 0.65779 1.8089 0.6578 0.67607 1.745 0.67607 0.87706 0 1.4983-0.46594z"
       id="path54" />
    <path
       d="m142.1 37.927h-3.4351v-6.1577h3.3895v0.64866h-2.6494v2.1104h2.3388v0.64866h-2.3388v2.1013h2.6951z"
       id="path56" />
  </g>
</svg>
