<svg width="160" height="34" viewBox="0 0 160 34" fill="none" xmlns="http://www.w3.org/2000/svg">
<g clip-path="url(#clip0_1653_3914)">
<path d="M0.506536 27.8807V2.87109C0.417882 1.34781 1.23105 0.523687 2.94648 0.401367H8.43865C9.55622 0.401367 10.2196 1.16873 10.4231 2.70873V19.0248C10.4231 20.2304 10.5004 21.0567 10.6519 21.495C10.8039 21.935 11.2878 21.5535 12.0988 20.3386L31.7799 0.401367H43.6805C45.0902 0.469567 45.2444 1.18061 44.1365 2.54153L32.6752 15.6667L25.7126 23.0842L21.4616 28.0246C17.9185 31.6084 14.4405 33.4 11.0328 33.4H6.76078C2.59143 33.4005 0.506536 31.5586 0.506536 27.8807Z" fill="#E51D39"/>
<path d="M33.9878 18.5034L35.418 19.9281L46.7648 31.2546C47.8702 32.6199 47.7182 33.3314 46.3063 33.3996H34.4088L29.4883 28.4171L27.0273 25.9231L33.9878 18.5034Z" fill="#F38520"/>
<path d="M61.8652 0.401271C63.1881 0.947751 63.9497 1.99055 64.1532 3.52835V30.4357C63.9497 32.0839 63.1881 33.0708 61.8648 33.4004H54.2366C53.1964 33.0167 52.4347 32.0254 51.9482 30.4357V3.19879C52.4955 1.71775 53.3108 0.784951 54.3908 0.401271H61.8652ZM84.1396 8.30983C82.2067 8.30983 81.2416 9.35791 81.2416 11.444V22.3582C81.2416 24.3901 82.0036 25.3766 83.53 25.3251H109.921C111.143 25.3251 111.751 25.9257 111.751 27.1357V31.3817C111.751 32.7259 111.09 33.3995 109.767 33.3995H75.1393C71.5517 33.018 69.5209 31.0376 69.0344 27.463V6.16967C69.5838 2.71039 71.8207 0.784071 75.7494 0.400391H110.075C111.192 0.400391 111.751 1.00539 111.751 2.21319V6.16967C111.751 7.59879 111.192 8.30983 110.075 8.30983H88.1059H84.1396ZM131.887 8.30983C129.956 8.30983 128.991 9.35791 128.991 11.444V22.3582C128.991 24.3901 129.751 25.3766 131.279 25.3251H157.67C158.895 25.3251 159.5 25.9257 159.5 27.1357V31.3817C159.5 32.7259 158.839 33.3995 157.514 33.3995H122.889C119.301 33.018 117.268 31.0376 116.784 27.463V6.16967C117.331 2.71039 119.568 0.784071 123.496 0.400391H157.82C158.942 0.400391 159.5 1.00539 159.5 2.21319V6.16967C159.5 7.59879 158.941 8.30983 157.82 8.30983H135.853H131.887Z" fill="#E51D39"/>
</g>
<defs>
<clipPath id="clip0_1653_3914">
<rect width="159" height="33" fill="white" transform="translate(0.5 0.400391)"/>
</clipPath>
</defs>
</svg>
