<svg width="162" height="34" viewBox="0 0 162 34" fill="none" xmlns="http://www.w3.org/2000/svg">
<g clip-path="url(#clip0_1607_3424)">
<path d="M16.8126 0.542007C11.8947 2.29404 7.39837 5.66037 4.25351 9.83091C-2.02847 17.4696 -1.60094 24.4526 7.20449 25.6128C4.95442 31.19 9.04352 36.223 17.213 31.5674C26.3858 26.2221 30.0988 13.5824 20.0098 11.6761C20.4635 10.6468 20.7311 9.61264 20.7311 8.66871C20.7311 6.49273 19.2537 5.17822 17.7685 5.6206C16.357 6.04066 16.3434 8.1138 17.5116 8.54259C18.3996 8.86952 18.3056 10.0414 17.4718 11.4365C15.9401 11.4151 14.1845 11.5829 12.1836 11.9758C7.52733 12.8916 7.87631 19.2255 12.9504 18.3447C14.771 18.0284 16.8495 16.3976 18.3996 14.3662C22.4208 14.761 23.6627 17.0321 22.7631 20.2568C21.4475 24.4254 18.6836 27.6889 14.7167 29.5224C9.54859 31.9031 8.4541 29.1179 10.2466 25.7797C11.313 25.768 12.4666 25.6914 13.7095 25.5449C21.5164 24.7465 18.4704 15.2684 11.6455 20.1976C10.4754 21.0542 9.52049 21.9875 8.7682 22.9479C4.61997 22.783 0.87113 21.1231 4.77604 14.2944C8.20107 8.32239 13.8413 4.50689 18.0836 3.26416C19.5784 2.80239 19.306 0.400375 17.5862 0.400375C17.3545 0.400375 17.0967 0.444027 16.8126 0.542007ZM12.9698 14.7087C13.5999 14.5981 14.1971 14.5108 14.7642 14.4467C14.3638 14.7698 13.9344 15.0831 13.4777 15.3771C13.0968 15.6216 12.7623 15.7166 12.5054 15.7166C11.7677 15.7166 11.6717 14.9367 12.9698 14.7087ZM12.803 22.5666C15.0899 20.5886 16.2775 22.1796 14.1699 22.5637C13.7085 22.6326 13.1695 22.7063 12.5839 22.7723C12.6557 22.7034 12.7284 22.6345 12.803 22.5666Z" fill="url(#paint0_linear_1607_3424)"/>
<path d="M51.3636 14.1246H46.5493V10.996H59.6348V14.1246H54.8206V26.416H51.3636V14.1246Z" fill="#49505E"/>
<path d="M73.5966 18.7502V18.7065C73.5966 16.063 71.6597 13.8598 68.9307 13.8598C66.2008 13.8598 64.3075 16.0193 64.3075 18.6619V18.7065C64.3075 21.3501 66.2444 23.5523 68.9734 23.5523C71.7033 23.5523 73.5966 21.3938 73.5966 18.7502ZM60.7632 18.7502V18.7065C60.7632 14.3226 64.2192 10.7321 68.9734 10.7321C73.7285 10.7321 77.1399 14.2789 77.1399 18.6619V18.7065C77.1399 23.0905 73.6849 26.6809 68.9307 26.6809C64.1746 26.6809 60.7632 23.1342 60.7632 18.7502Z" fill="#49505E"/>
<path d="M86.6482 18.4858C88.2992 18.4858 89.2463 17.6049 89.2463 16.305V16.2613C89.2463 14.8071 88.2333 14.0582 86.5823 14.0582H83.294V18.4858H86.6482ZM79.9756 10.9965H86.94C88.8983 10.9965 90.4184 11.5475 91.4315 12.5603C92.2885 13.4198 92.7518 14.6305 92.7518 16.0847V16.1284C92.7518 18.6187 91.4082 20.1815 89.4499 20.9091L93.2133 26.4165H89.2522L85.9493 21.4815H83.3657V26.4165H79.9756V10.9965Z" fill="#49505E"/>
<path d="M95.7583 10.9962H107.301V14.0143H99.1261V17.1419H106.311V20.16H99.1261V23.3982H107.412V26.4163H95.7583V10.9962Z" fill="#49505E"/>
<path d="M117.318 17.1865C114.654 16.5036 113.994 16.1728 113.994 15.16V15.1153C113.994 14.3664 114.676 13.7717 115.974 13.7717C117.122 13.7717 118.304 14.219 119.504 14.9766L121.741 12.7366C120.179 11.4813 118.264 10.776 116.019 10.776C112.871 10.776 110.626 12.627 110.626 15.4238V15.4685C110.626 18.5302 112.629 19.3887 115.733 20.1813C118.308 20.8429 118.836 21.2834 118.836 22.1429V22.1865C118.836 23.0897 118 23.6407 116.613 23.6407C114.945 23.6407 113.554 22.9879 112.232 21.945L110.009 24.1695C111.858 25.8216 114.214 26.6365 116.547 26.6365C119.871 26.6365 122.204 24.9174 122.204 21.8567V21.8121C122.204 19.1248 120.443 18.0014 117.318 17.1865Z" fill="#49505E"/>
<path d="M40.1333 17.1865C37.4703 16.5036 36.8101 16.1728 36.8101 15.16V15.1153C36.8101 14.3664 37.4916 13.7717 38.7906 13.7717C39.9375 13.7717 41.1192 14.219 42.3204 14.9766L44.5578 12.7366C42.9951 11.4813 41.0805 10.776 38.8352 10.776C35.6875 10.776 33.4422 12.627 33.4422 15.4238V15.4685C33.4422 18.5302 35.4451 19.3887 38.5483 20.1813C41.1241 20.8429 41.6524 21.2834 41.6524 22.1429V22.1865C41.6524 23.0897 40.8158 23.6407 39.4285 23.6407C37.7611 23.6407 36.369 22.9879 35.0486 21.945L32.8257 24.1695C34.6744 25.8216 37.0292 26.6365 39.3636 26.6365C42.6868 26.6365 45.0203 24.9174 45.0203 21.8567V21.8121C45.0203 19.1248 43.2598 18.0014 40.1333 17.1865Z" fill="#49505E"/>
<path d="M141.342 15.0465H139.367V18.0354H141.342V15.0465ZM144.859 24.7768L143.648 26.4047C141.457 25.6062 139.799 24.1957 138.688 21.9208C137.94 23.5981 136.48 25.126 133.875 26.4202L132.581 24.9921C135.85 23.5476 137.077 21.8043 137.409 19.7128H133.394V18.0354H137.525V15.0465H134.223V13.3866H137.525V10.9962H139.367V13.3866H143.166V18.0354H144.726V19.7128H139.616C140.511 22.5523 142.354 24.0958 144.859 24.7768ZM130.921 11.1456C132.116 11.7432 133.062 12.3408 133.742 12.9714L132.531 14.2665C131.901 13.6194 131.005 12.9889 129.909 12.3903L130.921 11.1456ZM132.183 20.1939L133.526 21.1903C132.896 22.8501 131.867 25.0746 131.137 26.3212L129.561 25.2745C130.341 24.1123 131.519 21.8548 132.183 20.1939ZM130.324 15.5112C131.619 16.1427 132.631 16.8237 133.361 17.5048L132.133 18.7999C131.469 18.0694 130.506 17.3719 129.329 16.7403L130.324 15.5112Z" fill="#49505E"/>
<path d="M156.359 15.6613C156.99 15.2131 157.553 14.698 158.001 14.0674H154.534C155.031 14.698 155.646 15.2296 156.359 15.6613ZM158.417 21.838V20.5759H154.219V21.3064C154.219 21.4723 154.219 21.6556 154.202 21.838H158.417ZM158.417 19.1479V18.5008H159.445C158.35 18.235 157.321 17.8858 156.392 17.4046C155.513 17.8693 154.55 18.235 153.505 18.5008H154.219V19.1479H158.417ZM153.986 23.2825C153.688 24.4118 153.108 25.4905 152.061 26.4539L150.485 25.4246C152.013 24.1954 152.46 22.8169 152.46 21.2734V18.7336C152.178 18.7996 151.896 18.8491 151.598 18.883L150.65 17.4385C152.211 17.2882 153.622 16.9729 154.849 16.4587C153.986 15.8107 153.256 15.0307 152.659 14.0674H150.983V12.5404H155.346V10.996H157.205V12.5404H161.801V14.0674H159.943C159.378 14.9967 158.715 15.7777 157.918 16.4083C159.13 16.8739 160.524 17.1562 162 17.2882L160.988 18.7996C160.723 18.7666 160.474 18.7172 160.225 18.6667V26.4044H158.417V23.2825H153.986ZM147.996 11.1454C149.19 11.743 150.137 12.3406 150.817 12.9711L149.605 14.2672C148.975 13.6192 148.079 12.9886 146.984 12.39L147.996 11.1454ZM149.257 20.2102L150.602 21.2239C149.971 22.8848 148.943 25.0918 148.212 26.3365L146.636 25.2917C147.415 24.1469 148.594 21.8865 149.257 20.2102ZM147.399 15.5119C148.694 16.1434 149.706 16.8235 150.436 17.5045L149.208 18.7996C148.544 18.0691 147.581 17.3716 146.403 16.7401L147.399 15.5119Z" fill="#49505E"/>
</g>
<defs>
<linearGradient id="paint0_linear_1607_3424" x1="13.0191" y1="0.400482" x2="13.0191" y2="33.3998" gradientUnits="userSpaceOnUse">
<stop stop-color="#00A9C6"/>
<stop offset="0.0314941" stop-color="#00A9C6"/>
<stop offset="0.15" stop-color="#00A9CE"/>
<stop offset="0.231136" stop-color="#00A9CE"/>
<stop offset="0.536433" stop-color="#DBBFDB"/>
<stop offset="0.542411" stop-color="#DBBFDB"/>
<stop offset="0.712479" stop-color="#F3A7AD"/>
<stop offset="0.765305" stop-color="#F3A7AD"/>
<stop offset="0.994527" stop-color="#EA5464"/>
<stop offset="1" stop-color="#EA5464"/>
</linearGradient>
<clipPath id="clip0_1607_3424">
<rect width="162" height="33" fill="white" transform="translate(0 0.400391)"/>
</clipPath>
</defs>
</svg>
