<svg width="92" height="34" viewBox="0 0 92 34" fill="none" xmlns="http://www.w3.org/2000/svg">
<g clip-path="url(#clip0_1607_3367)">
<path d="M61.0686 20.5058C60.7356 20.9389 60.2061 21.4927 59.4182 21.867C57.7533 22.6446 55.8919 22.1661 54.8775 21.4328C54.559 21.2091 54.347 20.9543 54.3015 20.909C53.863 20.416 53.56 19.787 53.4091 19.0393H64.0509C64.1264 18.5309 64.1564 18.1267 64.1564 17.8132C64.1564 15.8228 63.5359 14.1182 62.265 12.727C61.0086 11.3359 59.4037 10.6326 57.4358 10.6326C55.3614 10.6326 53.681 11.3204 52.3491 12.6817C51.0327 14.0584 50.3657 15.7486 50.3657 17.7833C50.3657 19.8478 51.0327 21.5679 52.3646 22.9137C52.7576 23.3025 53.1816 23.6469 53.651 23.9316C55.4069 24.9938 57.2993 24.9628 57.6323 24.9484C58.2383 24.9339 60.2816 24.8288 62.0075 23.2881C62.6735 22.7044 63.0819 22.0763 63.3239 21.6422C62.6125 21.2689 61.841 20.8791 61.0686 20.5058ZM54.7565 14.1924C55.4679 13.5943 56.3603 13.2953 57.4358 13.2953C58.3737 13.2953 59.2072 13.5799 59.9031 14.1326C60.6146 14.7008 61.0531 15.5238 61.2506 16.6314H53.3935C53.59 15.6135 54.045 14.7906 54.7565 14.1924Z" fill="#151515"/>
<path d="M27.1146 0.400391H7.6623C3.81651 0.400391 0.69873 3.48177 0.69873 7.28192V26.5189C0.69873 30.319 3.81651 33.4004 7.6623 33.4004H27.1301C30.9748 33.4004 34.0926 30.319 34.0926 26.5189V7.28192C34.0782 3.48177 30.9593 0.400391 27.1146 0.400391ZM7.6168 14.4625V8.74733C10.9021 8.74733 13.8989 9.98895 16.1543 12.0092C14.8223 13.5499 13.8234 15.3741 13.2629 17.3645C12.0065 15.6144 9.94764 14.4625 7.6168 14.4625ZM27.1601 14.4625C23.3598 14.4625 20.2875 17.514 20.2875 21.2533V25.038H14.4894V21.2533C14.4894 18.2317 15.5793 15.4494 17.3807 13.2807C19.7115 10.4974 23.2243 8.73289 27.1601 8.73289V14.4625Z" fill="#151515"/>
<path d="M88.4082 11.0812H91.284V24.5297H88.4082C88.4082 24.0058 88.4082 23.483 88.4082 22.9735C88.0597 23.3025 87.5457 23.7367 86.8188 24.111C85.3648 24.8587 84.0484 24.8886 83.761 24.8886C81.9296 24.8886 80.3702 24.2007 79.0683 22.824C77.7663 21.4483 77.1304 19.788 77.1304 17.8132C77.1304 15.8239 77.7808 14.1481 79.0683 12.7869C79.7797 12.0392 80.5822 11.4854 81.4746 11.1564C82.489 10.7677 83.337 10.7522 83.761 10.7522C84.3514 10.7522 85.6833 10.7522 87.0608 11.5452C87.6967 11.9196 88.1352 12.3383 88.4237 12.6373C88.4082 12.099 88.4082 11.5896 88.4082 11.0812ZM81.1871 20.8801C81.9896 21.702 82.9885 22.1063 84.1994 22.1063C85.4114 22.1063 86.4103 21.702 87.2128 20.8801C88.0142 20.0572 88.4082 19.0393 88.4082 17.7977C88.4082 16.5561 88.0142 15.5393 87.2128 14.7163C86.4103 13.8934 85.4114 13.4902 84.1994 13.4902C82.9885 13.4902 81.9896 13.8934 81.1871 14.7163C80.3857 15.5393 79.9917 16.5561 79.9917 17.7977C79.9917 19.0393 80.3857 20.0572 81.1871 20.8801Z" fill="#151515"/>
<path d="M42.6156 16.8993C42.6011 17.154 42.6011 17.5129 42.6156 17.9316C42.6911 19.727 42.7676 21.2677 43.812 22.6444C45.2949 24.5883 47.7168 24.8874 47.9288 24.9173C48.2773 24.9472 48.5647 24.9472 48.7767 24.9472H49.5182V22.0906H48.8377C47.9443 22.0751 47.3838 21.7616 47.1418 21.5966C45.9154 20.7892 45.7034 19.2629 45.6434 18.904C45.6134 18.739 45.5824 18.4255 45.5679 18.0811C45.5369 17.5882 45.5369 17.1839 45.5369 16.8993V13.4436H49.5182V10.6613H45.5369V6.95186V6.60742C44.5235 6.87658 43.5391 7.23545 42.6001 7.68508V16.8993H42.6156Z" fill="#151515"/>
<path d="M74.3746 10.7974C73.2247 14.0881 72.0748 17.3943 70.9239 20.6861C70.0459 18.8453 69.1835 16.9158 68.3356 14.8667C67.7596 13.4756 67.2456 12.1287 66.7461 10.7974H63.5063C64.8838 14.0438 65.9737 16.6322 66.7917 18.5163C67.3666 19.7734 67.9416 21.0449 68.5165 22.301C68.6075 22.466 68.714 22.7496 68.805 23.0796C68.9105 23.4529 69.0315 23.9314 68.9405 24.4852C68.774 25.4123 68.0481 25.9661 67.7451 26.1909C67.1091 26.6838 66.4432 26.8488 66.0492 26.9086C66.0492 27.911 66.0492 28.9134 66.0492 29.9157C66.5342 29.8559 67.2001 29.7363 67.9571 29.4218C68.683 29.1227 69.6675 28.5689 70.7419 27.3428C71.7873 26.161 72.4078 24.9492 73.4522 22.3165C74.5722 19.4743 75.1026 17.6789 76.3436 14.0881C76.8275 12.6825 77.237 11.5306 77.509 10.783L74.3746 10.7974Z" fill="#151515"/>
<path d="M27.16 14.4625C23.3597 14.4625 20.2874 17.514 20.2874 21.2533V25.038H14.4893V21.2533C14.4893 18.2318 15.5792 15.4494 17.3806 13.2807C19.7114 10.4974 23.2242 8.73291 27.16 8.73291V14.4625Z" fill="#DDE048"/>
<path d="M7.6167 14.4615V8.74731C10.902 8.74731 13.8988 9.98894 16.1542 12.0081C14.8222 13.5488 13.8233 15.3741 13.2628 17.3634C12.0064 15.6134 9.94754 14.4615 7.6167 14.4615Z" fill="white"/>
</g>
<defs>
<clipPath id="clip0_1607_3367">
<rect width="91" height="33" fill="white" transform="translate(0.5 0.400391)"/>
</clipPath>
</defs>
</svg>
