<?xml version="1.0" encoding="UTF-8" standalone="no"?>
<svg
   width="72"
   height="72"
   viewBox="0 0 72 72"
   fill="none"
   version="1.1"
   id="svg11"
   xmlns="http://www.w3.org/2000/svg"
   xmlns:svg="http://www.w3.org/2000/svg"
   xmlns:rdf="http://www.w3.org/1999/02/22-rdf-syntax-ns#"
   xmlns:cc="http://creativecommons.org/ns#"
   xmlns:dc="http://purl.org/dc/elements/1.1/">
  <title
     id="title11">syncapps-logo</title>
  <defs
     id="defs11">
    <clipPath
       id="clip0_4202_21">
      <rect
         width="175.10201"
         height="132"
         fill="#ffffff"
         transform="translate(12,34)"
         id="rect11"
         x="0"
         y="0" />
    </clipPath>
  </defs>
  <g
     clip-path="url(#clip0_4202_21)"
     id="g11"
     transform="matrix(0.41118899,0,0,0.41118899,-4.5544653,-2.7420569)">
    <g
       id="g12"
       transform="matrix(0.97222212,0,0,0.97222212,2.4017159,2.2098065)">
      <path
         d="m 187.102,100.119 c 0.005,3.723 -0.73,7.409 -2.163,10.849 -1.434,3.44 -3.537,6.566 -6.19,9.198 -2.652,2.632 -5.802,4.72 -9.269,6.143 -3.467,1.423 -7.183,2.154 -10.935,2.15 H 21.5949 c -2.5251,0 -4.9467,-0.995 -6.7321,-2.766 -1.7855,-1.772 -2.7886,-4.174 -2.7886,-6.679 0,-2.505 1.0031,-4.907 2.7886,-6.679 1.7854,-1.771 4.207,-2.766 6.7321,-2.766 H 158.545 c 2.525,0 4.947,-0.995 6.732,-2.766 1.786,-1.772 2.789,-4.174 2.789,-6.679 0,-2.505 -1.003,-4.9073 -2.789,-6.6786 -1.785,-1.7713 -4.207,-2.7664 -6.732,-2.7664 h -41.98 l 5.712,-5.2528 c 0.594,-0.5284 1.069,-1.175 1.394,-1.8977 0.325,-0.7227 0.493,-1.5053 0.493,-2.2967 0,-0.7915 -0.168,-1.5741 -0.493,-2.2968 -0.325,-0.7227 -0.8,-1.3693 -1.394,-1.8977 l -5.721,-5.2528 h 41.989 c 3.751,-0.0036 7.466,0.7267 10.933,2.1491 3.466,1.4225 6.616,3.5091 9.268,6.1406 2.653,2.6314 4.756,5.756 6.19,9.1948 1.434,3.4388 2.17,7.1244 2.166,10.846"
         fill="#5d67d8"
         id="path1" />
      <path
         d="M 177.508,34 H 41.1829 C 28.7417,34 17.49,41.6588 13.5744,52.665 c -1.0649,3.0264 -1.5973,6.2119 -1.5736,9.4174 0.0704,3.4929 0.6952,6.953 1.8513,10.2531 3.9203,11.0199 14.9081,18.3297 27.3493,18.3297 h 59.0726 v 4.7845 c 0,3.3932 2.055,4.284 4.568,1.9744 l 0.639,-0.5785 6.716,-6.1712 5.716,-5.2482 c 0.592,-0.5296 1.065,-1.1766 1.389,-1.8991 0.324,-0.7226 0.491,-1.5046 0.491,-2.2954 0,-0.7908 -0.167,-1.5728 -0.491,-2.2953 -0.324,-0.7226 -0.797,-1.3696 -1.389,-1.8991 l -5.726,-5.2528 -6.692,-6.162 -0.639,-0.5831 c -2.513,-2.2958 -4.568,-1.4188 -4.568,1.979 v 4.7569 H 41.1829 c -2.5251,0 -4.9467,-0.9951 -6.7321,-2.7664 -1.7855,-1.7713 -2.7886,-4.1736 -2.7886,-6.6786 0,-2.5049 1.0031,-4.9073 2.7886,-6.6786 1.7854,-1.7713 4.207,-2.7664 6.7321,-2.7664 H 177.508 c 2.488,-0.0544 4.856,-1.0731 6.596,-2.8381 1.74,-1.7649 2.715,-4.1356 2.715,-6.6045 0,-2.4689 -0.975,-4.8397 -2.715,-6.6046 -1.74,-1.7649 -4.108,-2.7837 -6.596,-2.8381 z"
         fill="#5d67d8"
         id="path2" />
      <path
         d="m 104.647,67.0184 c -0.004,-0.463 0.044,-0.925 0.143,-1.3775 l 6.721,6.1436 5.72,5.2528 c 0.592,0.5295 1.066,1.1765 1.39,1.8991 0.324,0.7225 0.491,1.5045 0.491,2.2953 0,0.7908 -0.167,1.5728 -0.491,2.2954 -0.324,0.7225 -0.798,1.3695 -1.39,1.8991"
         fill="#5d67d8"
         id="path3" />
      <path
         d="m 52.9982,147.542 c -0.8285,0 -1.2451,0.344 -1.2451,1.047 v 10.974 H 41.853 c -2.4346,0 -3.6518,-0.645 -3.6518,-1.933 v -9.041 c 0,-0.703 -0.4212,-1.047 -1.2682,-1.047 -0.847,0 -1.2728,0.344 -1.2728,1.047 v 9.041 c 0,2.699 2.2262,4.049 6.6788,4.049 h 9.4141 v 0.138 c 0,1.182 -1.0275,1.772 -3.0825,1.772 h -3.4065 c -0.1378,-0.017 -0.2779,-0.003 -0.4092,0.042 -0.1314,0.045 -0.2504,0.119 -0.3478,0.218 -0.0973,0.098 -0.1703,0.217 -0.2133,0.349 -0.0429,0.131 -0.0546,0.27 -0.0341,0.406 0,0.698 0.3333,1.047 1.0044,1.047 h 3.189 c 3.8971,0 5.8441,-1.278 5.841,-3.834 v -13.228 c 0,-0.703 -0.4304,-1.047 -1.2959,-1.047 z"
         fill="#0a3740"
         id="path4" />
      <path
         d="m 69.5553,147.725 h -4.9524 c -4.5204,0 -6.7806,1.274 -6.7806,3.821 v 9.151 c 0,0.753 0.4258,1.129 1.2728,1.129 0.847,0 1.2682,-0.376 1.2682,-1.129 v -9.151 c 0,-1.144 1.1756,-1.718 3.5176,-1.718 h 6.4381 c 2.3265,0 3.4913,0.573 3.4944,1.718 v 9.151 c 0,0.753 0.4305,1.129 1.296,1.129 0.8655,0 1.2959,-0.376 1.2959,-1.129 v -9.151 c 0,-2.538 -2.2802,-3.808 -6.8408,-3.811"
         fill="#0a3740"
         id="path5" />
      <path
         d="m 95.4153,159.562 h -9.2568 c -2.6135,0 -3.9202,-0.707 -3.9202,-2.121 v -5.689 c 0,-1.286 1.1339,-1.933 3.4065,-1.933 h 9.7659 c 0.7915,0 1.1895,-0.354 1.1895,-1.074 0,-0.721 -0.398,-1.015 -1.1895,-1.015 h -9.4095 c -4.2026,0 -6.3039,1.368 -6.3039,4.105 v 5.739 c 0,2.737 2.3142,4.105 6.9426,4.105 h 8.794 c 0.7035,0 1.0552,-0.33 1.0552,-0.992 0,-0.748 -0.3517,-1.125 -1.0552,-1.125"
         fill="#0a3740"
         id="path6" />
      <path
         d="m 123.693,160.233 c -0.037,-0.138 -0.118,-0.261 -0.232,-0.349 l -10.645,-15.699 c -0.178,-0.289 -0.428,-0.528 -0.727,-0.693 -0.298,-0.165 -0.635,-0.25 -0.976,-0.248 -0.343,0.005 -0.681,0.088 -0.986,0.243 -0.327,0.155 -0.604,0.397 -0.801,0.698 l -10.5202,15.699 c -0.1342,0.199 -0.2096,0.431 -0.2176,0.67 -0.0045,0.179 0.0353,0.357 0.116,0.517 0.0807,0.16 0.1998,0.298 0.3469,0.402 0.291,0.22 0.6476,0.338 1.0139,0.335 0.163,-0.013 0.322,-0.063 0.463,-0.147 0.194,-0.115 0.36,-0.272 0.486,-0.459 l 3.059,-4.509 h 14.089 l 3.068,4.495 c 0.148,0.186 0.339,0.334 0.556,0.432 0.249,0.113 0.525,0.155 0.797,0.122 0.272,-0.033 0.53,-0.141 0.744,-0.311 0.137,-0.103 0.247,-0.237 0.321,-0.391 0.073,-0.155 0.107,-0.324 0.1,-0.495 -0.002,-0.108 -0.016,-0.216 -0.041,-0.321 z m -18.125,-5.726 5.628,-8.747 5.489,8.747 z"
         fill="#0a3740"
         id="path7" />
      <path
         d="m 137.612,147.725 h -4.925 c -4.489,0 -6.734,1.343 -6.734,4.027 v 13.068 c 0,0.79 0.412,1.18 1.245,1.18 0.833,0 1.296,-0.39 1.296,-1.18 v -3.141 h 9.822 c 4.255,0 6.382,-1.403 6.382,-4.21 v -5.767 c 0,-2.654 -2.362,-3.98 -7.086,-3.977 z m 4.49,9.794 c 0,1.365 -1.119,2.046 -3.356,2.043 h -10.252 v -7.732 c 0,-1.336 1.301,-2.011 3.897,-2.011 h 5.624 c 2.724,0 4.087,0.644 4.087,1.933 z"
         fill="#0a3740"
         id="path8" />
      <path
         d="m 159.646,147.725 h -4.916 c -4.489,0 -6.734,1.343 -6.734,4.027 v 13.068 c 0,0.79 0.417,1.18 1.245,1.18 0.829,0 1.296,-0.39 1.296,-1.18 v -3.141 h 9.822 c 4.255,0 6.382,-1.403 6.382,-4.21 v -5.767 c 0,-2.654 -2.362,-3.98 -7.086,-3.977 z m 4.499,9.794 c 0,1.365 -1.119,2.046 -3.356,2.043 h -10.252 v -7.732 c 0,-1.336 1.301,-2.011 3.897,-2.011 h 5.624 c 2.724,0 4.087,0.644 4.087,1.933 z"
         fill="#0a3740"
         id="path9" />
      <path
         d="m 32.2,155.536 v 1.933 c 0,2.81 -2.3004,4.213 -6.901,4.21 H 13.0707 c -0.6618,0 -0.9997,-0.381 -0.9997,-1.152 -0.0211,-0.137 -0.0101,-0.276 0.0322,-0.407 0.0423,-0.131 0.1148,-0.251 0.2117,-0.35 0.0969,-0.099 0.2156,-0.174 0.3468,-0.22 0.1311,-0.045 0.2712,-0.06 0.409,-0.043 h 12.5801 c 2.5271,0 3.7906,-0.724 3.7906,-2.171 v -1.557 c 0,-1.595 -1.498,-2.391 -4.4942,-2.388 h -5.554 c -4.7889,-0.006 -7.1833,-1.285 -7.1833,-3.838 v -1.837 c 0,-2.73 1.9531,-4.143 5.8595,-4.238 h 12.6495 c 0.6665,0 0.9997,0.386 0.9997,1.157 0.0212,0.136 0.0101,0.276 -0.0322,0.407 -0.0423,0.131 -0.1148,0.251 -0.2117,0.35 -0.0969,0.099 -0.2156,0.174 -0.3468,0.219 -0.1311,0.046 -0.2711,0.061 -0.409,0.043 h -12.58 c -0.5068,-0.007 -1.0132,0.03 -1.5135,0.111 -0.5009,0.091 -0.9499,0.363 -1.2609,0.763 -0.311,0.4 -0.462,0.9 -0.4239,1.404 v 1.377 c 0,1.307 1.3345,1.961 4.0036,1.961 h 5.6559 c 2.5426,0 4.4433,0.349 5.7022,1.047 0.5937,0.299 1.0882,0.761 1.4247,1.33 0.3364,0.57 0.5006,1.224 0.473,1.884"
         fill="#0a3740"
         id="path10" />
      <path
         d="m 187.028,157.147 v 0.827 c 0,2.467 -1.785,3.701 -5.355,3.701 h -10.872 c -0.759,0 -1.139,-0.34 -1.139,-1.015 -0.019,-0.152 -0.003,-0.306 0.048,-0.451 0.05,-0.144 0.134,-0.275 0.244,-0.382 0.111,-0.107 0.245,-0.187 0.392,-0.233 0.147,-0.047 0.303,-0.059 0.455,-0.036 h 11.307 c 1.543,0 2.314,-0.528 2.314,-1.584 v -0.827 c 0,-1.037 -0.865,-1.561 -2.596,-1.561 h -6.017 c -3.968,0 -5.952,-1.178 -5.952,-3.535 v -0.919 c 0,-2.274 1.884,-3.411 5.651,-3.411 h 10.433 c 0.15,-0.023 0.303,-0.01 0.448,0.036 0.145,0.046 0.277,0.125 0.385,0.231 0.109,0.105 0.191,0.234 0.241,0.377 0.05,0.142 0.065,0.295 0.046,0.444 0,0.67 -0.375,1.01 -1.12,1.01 h -11.058 c -1.675,0 -2.513,0.439 -2.513,1.318 v 0.868 c 0,1.019 0.991,1.529 2.972,1.529 h 6.169 c 3.678,0 5.517,1.207 5.517,3.623"
         fill="#0a3740"
         id="path11" />
    </g>
  </g>
  <metadata
     id="metadata11">
    <rdf:RDF>
      <cc:Work
         rdf:about="">
        <dc:title>syncapps-logo</dc:title>
        <dc:creator>
          <cc:Agent>
            <dc:title>loyverse</dc:title>
          </cc:Agent>
        </dc:creator>
        <dc:rights>
          <cc:Agent>
            <dc:title>loyverse</dc:title>
          </cc:Agent>
        </dc:rights>
      </cc:Work>
    </rdf:RDF>
  </metadata>
</svg>
