<svg width="138" height="34" viewBox="0 0 138 34" fill="none" xmlns="http://www.w3.org/2000/svg">
<g clip-path="url(#clip0_1607_3402)">
<path d="M13.2856 23.175L0.5 1.54067H12.7294L18.7806 12.5459H19.1631L25.2594 1.53149H37.2332L24.4476 23.175V32.2602H13.2736L13.2856 23.175Z" fill="#00A9E0"/>
<path d="M71.0669 16.9886C71.0669 6.71905 78.1828 0.662842 88.7095 0.662842C93.8671 0.662842 97.4867 1.93426 100.342 3.60288V13.9595H100.257C96.7641 11.5369 93.7375 10.1407 89.9883 10.1407C85.4715 10.1407 82.2344 12.5634 82.2344 16.8996C82.2344 21.2358 85.557 23.6135 89.9442 23.6135C93.823 23.6135 96.9341 22.254 100.257 19.7525H100.342V30.2394C97.9896 31.6447 93.8736 33.1345 88.6249 33.1345C77.7543 33.1372 71.0678 27.2562 71.0678 16.9876L71.0669 16.9886Z" fill="#00A9E0"/>
<path d="M102.214 16.9013C102.214 6.63273 109.03 0.400391 119.857 0.400391C130.685 0.400391 137.5 6.63273 137.5 16.9013C137.5 27.1699 130.684 33.3995 119.857 33.3995C109.031 33.3995 102.214 27.1699 102.214 16.9013ZM126.62 16.9013C126.62 12.3798 124.064 9.79109 119.857 9.79109C115.65 9.79109 113.127 12.3807 113.127 16.9013C113.127 21.4219 115.64 24.0088 119.857 24.0088C124.075 24.0088 126.629 21.4192 126.629 16.9013H126.621H126.62Z" fill="#00A9E0"/>
<path d="M33.9971 16.9013C33.9971 6.63273 40.8132 0.400391 51.6397 0.400391C62.4661 0.400391 69.2832 6.63273 69.2832 16.9013C69.2832 27.1699 62.4634 33.3995 51.6397 33.3995C40.816 33.3995 33.9971 27.1699 33.9971 16.9013ZM58.4025 16.9013C58.4025 12.3798 55.8439 9.79109 51.6397 9.79109C47.4354 9.79109 44.9062 12.3807 44.9062 16.9013C44.9062 21.4219 47.4207 24.0088 51.6397 24.0088C55.8586 24.0088 58.4117 21.4192 58.4117 16.9013H58.4025Z" fill="#00A9E0"/>
</g>
<defs>
<clipPath id="clip0_1607_3402">
<rect width="137" height="33" fill="white" transform="translate(0.5 0.400391)"/>
</clipPath>
</defs>
</svg>
