<svg width="513" height="513" viewBox="0 0 513 513" fill="none" xmlns="http://www.w3.org/2000/svg">
<g clip-path="url(#clip0_7505_300)">
<path d="M389.433 512.5H123.567C55.5426 512.5 0.5 457.457 0.5 389.433V123.567C0.5 55.5426 55.5426 0.5 123.567 0.5H389.433C457.457 0.5 512.5 55.5426 512.5 123.567V389.433C512.5 457.457 457.457 512.5 389.433 512.5Z" fill="#070706"/>
<path d="M411.244 270.517C413.321 268.44 414.879 265.843 416.437 262.728C416.956 261.689 417.476 260.651 417.476 259.612C418.514 257.535 419.033 254.939 419.033 252.342C419.033 251.304 419.033 250.265 419.033 249.227C419.033 245.592 418.514 242.476 416.956 238.841C416.956 238.841 416.956 238.841 416.956 238.322C415.918 235.206 413.841 232.091 411.244 229.494C411.244 229.494 411.244 228.975 410.725 228.456L276.753 93.4457C264.81 81.5025 245.597 81.5025 233.654 93.4457C221.711 105.389 221.711 124.602 233.654 136.545L316.218 220.148H193.151C138.108 220.148 93.4512 264.805 93.4512 319.847C93.4512 363.985 118.376 401.892 158.879 419.547C172.899 425.778 187.958 428.894 202.498 428.894C229.5 428.894 255.463 418.509 276.234 398.776L409.686 272.594C409.686 272.594 409.686 272.594 410.206 272.074C410.206 272.074 410.206 272.074 410.725 272.074C410.725 271.555 411.244 271.036 411.244 270.517ZM234.693 354.119C220.672 367.62 200.94 371.255 183.285 363.466C165.11 355.677 154.206 339.06 154.206 319.847C154.206 298.557 171.861 280.902 193.151 280.902H312.583L234.693 354.119Z" fill="#0083FE"/>
</g>
<defs>
<clipPath id="clip0_7505_300">
<rect width="512" height="512" fill="white" transform="translate(0.5 0.5)"/>
</clipPath>
</defs>
</svg>
