<svg width="144" height="48" viewBox="0 0 144 48" fill="none" xmlns="http://www.w3.org/2000/svg">
<path d="M132.161 0.000155999H11.4416C11.0015 0.000155999 10.5668 0.000156 10.1279 0.00255599C9.76053 0.00495598 9.39608 0.011928 9.02517 0.0177959C8.21939 0.0272781 7.4155 0.0981672 6.6205 0.229847C5.82661 0.364394 5.05759 0.618053 4.33945 0.982245C3.62219 1.34952 2.9668 1.82675 2.39708 2.39663C1.82436 2.96491 1.34695 3.62176 0.983217 4.34193C0.618478 5.06067 0.365567 5.83086 0.233219 6.62591C0.0996128 7.41995 0.027718 8.22315 0.0181799 9.0283C0.00704398 9.39622 0.00586798 9.76536 0 10.1333V37.8704C0.00586798 38.243 0.00704398 38.6039 0.0181799 38.9766C0.0277209 39.7817 0.0996157 40.5849 0.233219 41.3789C0.365202 42.1744 0.618128 42.945 0.983217 43.6641C1.34679 44.3819 1.82426 45.0361 2.39708 45.6012C2.96464 46.1736 3.62045 46.6512 4.33945 47.0156C5.05759 47.3808 5.82652 47.636 6.6205 47.7726C7.41564 47.9032 8.21944 47.9741 9.02517 47.9848C9.39608 47.9929 9.76053 47.9976 10.1279 47.9976C10.5668 48 11.0016 48 11.4416 48H132.161C132.593 48 133.031 48 133.462 47.9976C133.828 47.9976 134.203 47.9929 134.568 47.9848C135.373 47.9747 136.175 47.9038 136.968 47.7726C137.765 47.635 138.537 47.3799 139.258 47.0156C139.977 46.651 140.632 46.1734 141.199 45.6012C141.77 45.0339 142.249 44.3802 142.617 43.6641C142.979 42.9445 143.23 42.174 143.36 41.3789C143.493 40.5848 143.568 39.7818 143.582 38.9766C143.587 38.6039 143.587 38.243 143.587 37.8704C143.596 37.4344 143.596 37.0008 143.596 36.5578V11.4435C143.596 11.004 143.596 10.5681 143.587 10.1333C143.587 9.76536 143.587 9.39622 143.582 9.02825C143.568 8.22304 143.493 7.42001 143.36 6.62586C143.229 5.83128 142.979 5.06114 142.617 4.34189C141.876 2.89838 140.701 1.72338 139.258 0.982137C138.537 0.618835 137.765 0.365243 136.968 0.229739C136.175 0.097479 135.373 0.0265652 134.568 0.0176279C134.203 0.011772 133.828 0.00473998 133.462 0.00239999C133.031 0 132.593 0.000155999 132.161 0.000155999Z" fill="#A6A6A6"/>
<path d="M10.1338 46.9498C9.76815 46.9498 9.41136 46.9452 9.04862 46.937C8.29716 46.9272 7.54745 46.8618 6.80566 46.7413C6.11397 46.6222 5.44391 46.4006 4.81758 46.0838C4.19699 45.7697 3.63096 45.3578 3.14118 44.8639C2.64431 44.3758 2.23064 43.8098 1.91657 43.1881C1.59904 42.5624 1.37929 41.8917 1.26497 41.1995C1.14152 40.4556 1.07473 39.7034 1.06518 38.9495C1.05757 38.6964 1.04761 37.8538 1.04761 37.8538V10.1332C1.04761 10.1332 1.05822 9.30349 1.06524 9.05973C1.07439 8.30695 1.14079 7.55596 1.26387 6.81325C1.3784 6.11908 1.59832 5.44648 1.91602 4.81874C2.22894 4.19752 2.64031 3.63102 3.13418 3.14121C3.62751 2.64674 4.19534 2.23272 4.81699 1.91425C5.44188 1.59851 6.11067 1.37847 6.80096 1.26152C7.5452 1.1398 8.2975 1.07399 9.05157 1.06465L10.1343 1.05H133.456L134.552 1.06524C135.299 1.07412 136.045 1.13934 136.782 1.26034C137.479 1.37877 138.155 1.60033 138.787 1.91776C140.032 2.55957 141.046 3.57498 141.685 4.82167C141.998 5.44508 142.214 6.11219 142.327 6.80037C142.452 7.54917 142.522 8.30606 142.536 9.06501C142.539 9.40485 142.539 9.76989 142.539 10.1332C142.549 10.5832 142.549 11.0115 142.549 11.4433V36.5576C142.549 36.9936 142.549 37.419 142.539 37.8479C142.539 38.2381 142.539 38.5956 142.535 38.9635C142.521 39.7089 142.452 40.4523 142.33 41.1877C142.218 41.885 141.999 42.5609 141.682 43.1917C141.365 43.8066 140.954 44.3678 140.463 44.8545C139.973 45.3511 139.406 45.7654 138.784 46.0815C138.153 46.4007 137.479 46.6231 136.782 46.7413C136.04 46.8624 135.29 46.9279 134.539 46.937C134.188 46.9452 133.819 46.9498 133.462 46.9498L132.161 46.9522L10.1338 46.9498Z" fill="black"/>
<path d="M29.7226 24.3607C29.7355 23.3592 30.0015 22.3771 30.4959 21.506C30.9904 20.6348 31.6971 19.9029 32.5504 19.3783C32.0084 18.6041 31.2932 17.967 30.4618 17.5175C29.6304 17.068 28.7057 16.8186 27.7611 16.7891C25.746 16.5776 23.7924 17.9949 22.7656 17.9949C21.7189 17.9949 20.1379 16.8101 18.4354 16.8451C17.3342 16.8807 16.261 17.2009 15.3203 17.7746C14.3797 18.3482 13.6037 19.1558 13.0679 20.1185C10.7471 24.1366 12.4782 30.0419 14.7014 33.2898C15.8136 34.8802 17.1136 36.6567 18.8145 36.5937C20.479 36.5247 21.1006 35.5324 23.1098 35.5324C25.1003 35.5324 25.6835 36.5937 27.4189 36.5537C29.205 36.5247 30.3303 34.9562 31.4035 33.3507C32.2027 32.2175 32.8177 30.965 33.2256 29.6397C32.188 29.2009 31.3025 28.4662 30.6796 27.5275C30.0566 26.5887 29.7238 25.4874 29.7226 24.3607Z" fill="white"/>
<path d="M26.4446 14.653C27.4185 13.484 27.8982 11.9814 27.782 10.4643C26.2942 10.6206 24.9199 11.3316 23.933 12.4558C23.4504 13.005 23.0808 13.6439 22.8453 14.3361C22.6098 15.0282 22.513 15.7599 22.5605 16.4895C23.3047 16.4971 24.0409 16.3358 24.7137 16.0177C25.3865 15.6996 25.9783 15.233 26.4446 14.653Z" fill="white"/>
<path d="M50.7626 32.5675H45.0825L43.7184 36.5952H41.3126L46.6927 21.6937H49.1922L54.5723 36.5952H52.1254L50.7626 32.5675ZM45.6708 30.7089H50.1732L47.9536 24.1722H47.8915L45.6708 30.7089Z" fill="white"/>
<path d="M66.1914 31.1636C66.1914 34.5398 64.3844 36.7089 61.6574 36.7089C60.9667 36.745 60.2797 36.5859 59.6751 36.2497C59.0706 35.9136 58.5729 35.4139 58.2391 34.8081H58.1875V40.1893H55.9574V25.7308H58.1161V27.5378H58.1571C58.5062 26.9349 59.0123 26.4378 59.6214 26.0996C60.2306 25.7614 60.92 25.5947 61.6164 25.6171C64.3738 25.6171 66.1914 27.7968 66.1914 31.1636ZM63.8992 31.1636C63.8992 28.964 62.7625 27.5179 61.0281 27.5179C59.3242 27.5179 58.1782 28.9945 58.1782 31.1636C58.1782 33.3526 59.3242 34.8187 61.0281 34.8187C62.7625 34.8187 63.8992 33.3831 63.8992 31.1636Z" fill="white"/>
<path d="M78.1492 31.1636C78.1492 34.5397 76.3422 36.7089 73.6152 36.7089C72.9244 36.745 72.2374 36.5859 71.6329 36.2497C71.0283 35.9136 70.5307 35.4139 70.1969 34.8081H70.1453V40.1893H67.9152V25.7308H70.0738V27.5378H70.1148C70.4639 26.9348 70.97 26.4378 71.5792 26.0996C72.1883 25.7614 72.8778 25.5947 73.5742 25.6171C76.3316 25.6171 78.1492 27.7968 78.1492 31.1636ZM75.857 31.1636C75.857 28.964 74.7203 27.5179 72.9859 27.5179C71.282 27.5179 70.1359 28.9944 70.1359 31.1636C70.1359 33.3526 71.282 34.8186 72.9859 34.8186C74.7203 34.8186 75.857 33.3831 75.857 31.1636Z" fill="white"/>
<path d="M86.0523 32.4433C86.2175 33.921 87.6531 34.8913 89.6148 34.8913C91.4945 34.8913 92.8468 33.9209 92.8468 32.5885C92.8468 31.4319 92.0312 30.7393 90.0999 30.2647L88.1687 29.7995C85.4324 29.1385 84.1621 27.8588 84.1621 25.7823C84.1621 23.2112 86.4027 21.4452 89.5843 21.4452C92.7331 21.4452 94.8917 23.2112 94.9644 25.7823H92.7132C92.5784 24.2952 91.3491 23.3975 89.5526 23.3975C87.7562 23.3975 86.5269 24.3057 86.5269 25.6276C86.5269 26.6811 87.312 27.301 89.2327 27.7756L90.8745 28.1787C93.9319 28.9018 95.2022 30.1299 95.2022 32.3096C95.2022 35.0974 92.9815 36.8435 89.4495 36.8435C86.1448 36.8435 83.9136 35.1385 83.7694 32.4432L86.0523 32.4433Z" fill="white"/>
<path d="M100.015 23.1597V25.7308H102.081V27.4968H100.015V33.4862C100.015 34.4167 100.429 34.8503 101.337 34.8503C101.582 34.846 101.827 34.8288 102.071 34.7987V36.5541C101.662 36.6304 101.247 36.665 100.832 36.6573C98.6323 36.6573 97.7745 35.8311 97.7745 33.7241V27.4968H96.1948V25.7308H97.7745V23.1597H100.015Z" fill="white"/>
<path d="M103.278 31.1636C103.278 27.7452 105.291 25.5972 108.43 25.5972C111.58 25.5972 113.584 27.7452 113.584 31.1636C113.584 34.5913 111.591 36.73 108.43 36.73C105.271 36.73 103.278 34.5913 103.278 31.1636ZM111.312 31.1636C111.312 28.8187 110.237 27.4347 108.43 27.4347C106.623 27.4347 105.55 28.8292 105.55 31.1636C105.55 33.5179 106.623 34.8913 108.43 34.8913C110.237 34.8913 111.312 33.5179 111.312 31.1636Z" fill="white"/>
<path d="M115.423 25.7308H117.55V27.58H117.601C117.745 27.0024 118.084 26.492 118.56 26.1346C119.035 25.7771 119.62 25.5944 120.215 25.6171C120.472 25.6162 120.728 25.6441 120.979 25.7003V27.7862C120.654 27.6871 120.316 27.6416 119.977 27.6515C119.653 27.6383 119.33 27.6954 119.03 27.8189C118.73 27.9424 118.461 28.1293 118.24 28.3667C118.019 28.6042 117.852 28.8866 117.751 29.1946C117.65 29.5026 117.616 29.8289 117.653 30.1511V36.5952H115.423L115.423 25.7308Z" fill="white"/>
<path d="M131.261 33.4042C130.961 35.3764 129.04 36.73 126.583 36.73C123.422 36.73 121.46 34.6124 121.46 31.2151C121.46 27.8073 123.433 25.5972 126.489 25.5972C129.495 25.5972 131.385 27.662 131.385 30.9561V31.7202H123.712V31.855C123.676 32.2548 123.726 32.6576 123.858 33.0366C123.991 33.4156 124.202 33.7622 124.478 34.0532C124.755 34.3443 125.09 34.5732 125.462 34.7248C125.833 34.8763 126.233 34.9471 126.634 34.9323C127.161 34.9817 127.69 34.8596 128.142 34.5843C128.594 34.309 128.945 33.8951 129.143 33.4042L131.261 33.4042ZM123.722 30.1616H129.154C129.174 29.8021 129.119 29.4423 128.994 29.1049C128.868 28.7674 128.674 28.4596 128.424 28.2007C128.174 27.9418 127.873 27.7374 127.54 27.6003C127.207 27.4632 126.849 27.3965 126.489 27.4042C126.126 27.402 125.766 27.4718 125.43 27.6095C125.094 27.7472 124.788 27.9501 124.531 28.2064C124.274 28.4628 124.07 28.7676 123.931 29.1031C123.792 29.4387 123.721 29.7985 123.722 30.1616Z" fill="white"/>
<path d="M45.3913 10.4772C45.8588 10.4436 46.328 10.5142 46.7649 10.684C47.2018 10.8537 47.5957 11.1183 47.918 11.4586C48.2403 11.799 48.483 12.2066 48.6287 12.6521C48.7744 13.0976 48.8194 13.5699 48.7604 14.035C48.7604 16.3225 47.5241 17.6374 45.3913 17.6374H42.805V10.4772H45.3913ZM43.9171 16.6247H45.2671C45.6011 16.6447 45.9355 16.5899 46.2457 16.4644C46.556 16.3389 46.8343 16.1457 47.0605 15.8991C47.2867 15.6524 47.455 15.3584 47.5533 15.0384C47.6515 14.7185 47.6772 14.3807 47.6284 14.0496C47.6736 13.7198 47.6454 13.384 47.5456 13.0664C47.4459 12.7488 47.2771 12.4572 47.0514 12.2125C46.8258 11.9678 46.5488 11.776 46.2403 11.651C45.9318 11.5259 45.5994 11.4706 45.2671 11.489H43.9171V16.6247Z" fill="white"/>
<path d="M50.0167 14.9332C49.9827 14.5781 50.0233 14.2198 50.1359 13.8813C50.2485 13.5428 50.4306 13.2316 50.6706 12.9676C50.9105 12.7036 51.203 12.4927 51.5292 12.3484C51.8554 12.2041 52.2082 12.1295 52.5649 12.1295C52.9216 12.1295 53.2744 12.2041 53.6006 12.3484C53.9268 12.4927 54.2193 12.7036 54.4592 12.9676C54.6992 13.2316 54.8813 13.5428 54.9939 13.8813C55.1065 14.2198 55.1471 14.5781 55.1131 14.9332C55.1477 15.2886 55.1076 15.6474 54.9953 15.9864C54.883 16.3255 54.701 16.6372 54.461 16.9017C54.221 17.1662 53.9283 17.3776 53.6018 17.5222C53.2752 17.6669 52.922 17.7416 52.5649 17.7416C52.2077 17.7416 51.8546 17.6669 51.528 17.5222C51.2015 17.3776 50.9088 17.1662 50.6688 16.9017C50.4288 16.6372 50.2468 16.3255 50.1345 15.9864C50.0222 15.6474 49.982 15.2886 50.0167 14.9332ZM54.0162 14.9332C54.0162 13.7619 53.4901 13.0769 52.5667 13.0769C51.6397 13.0769 51.1183 13.7619 51.1183 14.9332C51.1183 16.1138 51.6397 16.7935 52.5667 16.7935C53.4901 16.7935 54.0162 16.1091 54.0162 14.9332Z" fill="white"/>
<path d="M61.8877 17.6373H60.7815L59.6647 13.6576H59.5803L58.4682 17.6373H57.3725L55.8831 12.2338H56.9647L57.9327 16.3569H58.0124L59.1233 12.2338H60.1463L61.2573 16.3569H61.3416L62.3049 12.2338H63.3713L61.8877 17.6373Z" fill="white"/>
<path d="M64.624 12.2338H65.6506V13.0921H65.7303C65.8655 12.7838 66.0935 12.5254 66.3825 12.3528C66.6716 12.1803 67.0072 12.1022 67.3428 12.1294C67.6057 12.1097 67.8697 12.1493 68.1152 12.2454C68.3607 12.3416 68.5815 12.4917 68.7611 12.6847C68.9407 12.8777 69.0746 13.1087 69.1528 13.3604C69.2311 13.6122 69.2517 13.8784 69.2131 14.1392V17.6372H68.1467V14.407C68.1467 13.5386 67.7693 13.1068 66.9807 13.1068C66.8022 13.0985 66.624 13.1289 66.4583 13.1959C66.2926 13.2629 66.1434 13.3649 66.0208 13.4949C65.8983 13.625 65.8053 13.78 65.7483 13.9494C65.6913 14.1187 65.6715 14.2984 65.6904 14.4761V17.6373H64.624L64.624 12.2338Z" fill="white"/>
<path d="M70.9123 10.1244H71.9787V17.6372H70.9123V10.1244Z" fill="white"/>
<path d="M73.4611 14.9332C73.4272 14.578 73.4678 14.2197 73.5805 13.8812C73.6931 13.5428 73.8752 13.2315 74.1152 12.9675C74.3551 12.7036 74.6476 12.4926 74.9739 12.3483C75.3001 12.204 75.6529 12.1294 76.0097 12.1294C76.3664 12.1294 76.7192 12.204 77.0454 12.3483C77.3717 12.4926 77.6642 12.7036 77.9041 12.9675C78.1441 13.2315 78.3262 13.5428 78.4388 13.8812C78.5515 14.2197 78.5921 14.578 78.5582 14.9332C78.5927 15.2886 78.5526 15.6474 78.4402 15.9865C78.3279 16.3255 78.1459 16.6373 77.9058 16.9017C77.6658 17.1662 77.3731 17.3776 77.0466 17.5222C76.72 17.6669 76.3668 17.7416 76.0097 17.7416C75.6525 17.7416 75.2993 17.6669 74.9727 17.5222C74.6462 17.3776 74.3535 17.1662 74.1135 16.9017C73.8734 16.6373 73.6914 16.3255 73.5791 15.9865C73.4667 15.6474 73.4265 15.2886 73.4611 14.9332ZM77.4607 14.9332C77.4607 13.7619 76.9345 13.0769 76.0111 13.0769C75.0842 13.0769 74.5627 13.7619 74.5627 14.9332C74.5627 16.1138 75.0842 16.7935 76.0111 16.7935C76.9345 16.7935 77.4607 16.1091 77.4607 14.9332Z" fill="white"/>
<path d="M79.6808 16.1091C79.6808 15.1365 80.405 14.5757 81.6906 14.496L83.1542 14.4117V13.9453C83.1542 13.3746 82.7769 13.0523 82.048 13.0523C81.4527 13.0523 81.0402 13.2709 80.9218 13.6529H79.8894C79.9984 12.7248 80.8714 12.1295 82.0972 12.1295C83.4519 12.1295 84.216 12.8039 84.216 13.9453V17.6372H83.1894V16.8779H83.105C82.9338 17.1503 82.6933 17.3723 82.4081 17.5214C82.123 17.6704 81.8034 17.7411 81.482 17.7263C81.2551 17.7499 81.0259 17.7257 80.809 17.6552C80.592 17.5848 80.3923 17.4697 80.2226 17.3173C80.0529 17.165 79.917 16.9787 79.8237 16.7706C79.7304 16.5625 79.6817 16.3372 79.6808 16.1091ZM83.1542 15.6474V15.1957L81.8347 15.28C81.0906 15.3298 80.7531 15.5829 80.7531 16.0593C80.7531 16.5456 81.1749 16.8286 81.7551 16.8286C81.925 16.8458 82.0967 16.8287 82.2599 16.7782C82.4231 16.7277 82.5745 16.6448 82.7051 16.5346C82.8356 16.4244 82.9427 16.2891 83.0198 16.1367C83.097 15.9842 83.1427 15.8179 83.1542 15.6474Z" fill="white"/>
<path d="M85.6175 14.9332C85.6175 13.2257 86.4953 12.1441 87.8605 12.1441C88.1982 12.1285 88.5333 12.2094 88.8268 12.3773C89.1202 12.5452 89.3598 12.7931 89.5175 13.0921H89.5972V10.1244H90.6636V17.6372H89.6417V16.7835H89.5574C89.3874 17.0805 89.1395 17.3253 88.8404 17.4915C88.5413 17.6577 88.2024 17.7389 87.8605 17.7263C86.4859 17.7263 85.6175 16.6447 85.6175 14.9332ZM86.7191 14.9332C86.7191 16.0793 87.2594 16.7689 88.1629 16.7689C89.0617 16.7689 89.6172 16.0693 89.6172 14.9379C89.6172 13.8117 89.0558 13.1021 88.1629 13.1021C87.2652 13.1021 86.7191 13.7964 86.7191 14.9332Z" fill="white"/>
<path d="M95.0757 14.9332C95.0417 14.5781 95.0823 14.2198 95.1949 13.8813C95.3075 13.5428 95.4897 13.2316 95.7296 12.9676C95.9695 12.7036 96.262 12.4927 96.5882 12.3484C96.9144 12.2041 97.2672 12.1295 97.6239 12.1295C97.9806 12.1295 98.3334 12.2041 98.6596 12.3484C98.9859 12.4927 99.2783 12.7036 99.5182 12.9676C99.7582 13.2316 99.9403 13.5428 100.053 13.8813C100.165 14.2198 100.206 14.5781 100.172 14.9332C100.207 15.2886 100.167 15.6474 100.054 15.9864C99.942 16.3255 99.76 16.6372 99.52 16.9017C99.28 17.1662 98.9874 17.3776 98.6608 17.5222C98.3343 17.6669 97.9811 17.7416 97.6239 17.7416C97.2668 17.7416 96.9136 17.6669 96.587 17.5222C96.2605 17.3776 95.9678 17.1662 95.7278 16.9017C95.4878 16.6372 95.3058 16.3255 95.1935 15.9864C95.0812 15.6474 95.0411 15.2886 95.0757 14.9332ZM99.0753 14.9332C99.0753 13.7619 98.5491 13.0769 97.6257 13.0769C96.6987 13.0769 96.1773 13.7619 96.1773 14.9332C96.1773 16.1138 96.6988 16.7935 97.6257 16.7935C98.5491 16.7935 99.0753 16.1091 99.0753 14.9332Z" fill="white"/>
<path d="M101.603 12.2338H102.63V13.0921H102.709C102.844 12.7838 103.072 12.5254 103.362 12.3528C103.651 12.1803 103.986 12.1022 104.322 12.1294C104.585 12.1097 104.849 12.1493 105.094 12.2454C105.34 12.3416 105.56 12.4917 105.74 12.6847C105.92 12.8777 106.054 13.1087 106.132 13.3604C106.21 13.6122 106.231 13.8784 106.192 14.1392V17.6372H105.126V14.407C105.126 13.5386 104.748 13.1068 103.96 13.1068C103.781 13.0985 103.603 13.1289 103.437 13.1959C103.272 13.2629 103.122 13.3649 103 13.4949C102.877 13.625 102.784 13.78 102.727 13.9494C102.67 14.1187 102.651 14.2984 102.669 14.4761V17.6373H101.603V12.2338Z" fill="white"/>
<path d="M112.218 10.8884V12.2584H113.389V13.1566H112.218V15.9351C112.218 16.5011 112.451 16.749 112.982 16.749C113.118 16.7485 113.254 16.7403 113.389 16.7244V17.6126C113.197 17.6469 113.003 17.6651 112.808 17.6671C111.623 17.6671 111.15 17.2499 111.15 16.2081V13.1566H110.292V12.2583H111.15V10.8884H112.218Z" fill="white"/>
<path d="M114.845 10.1244H115.902V13.1021H115.987C116.128 12.7909 116.363 12.531 116.657 12.3578C116.952 12.1846 117.293 12.1065 117.634 12.1341C117.896 12.1199 118.157 12.1636 118.4 12.262C118.643 12.3605 118.861 12.5113 119.038 12.7037C119.216 12.8961 119.349 13.1253 119.428 13.3751C119.507 13.6249 119.53 13.889 119.495 14.1486V17.6372H118.428V14.4117C118.428 13.5486 118.026 13.1115 117.272 13.1115C117.089 13.0964 116.904 13.1216 116.732 13.1853C116.559 13.249 116.403 13.3495 116.273 13.48C116.144 13.6105 116.044 13.7677 115.982 13.9407C115.919 14.1137 115.895 14.2982 115.912 14.4814V17.6372H114.845L114.845 10.1244Z" fill="white"/>
<path d="M125.713 16.1783C125.568 16.6721 125.254 17.0993 124.826 17.3851C124.398 17.6708 123.883 17.797 123.372 17.7415C123.016 17.7509 122.662 17.6827 122.335 17.5417C122.008 17.4007 121.716 17.1902 121.478 16.9248C121.241 16.6595 121.064 16.3456 120.96 16.005C120.856 15.6644 120.827 15.3053 120.876 14.9525C120.828 14.5986 120.857 14.2387 120.961 13.8971C121.065 13.5555 121.241 13.2402 121.477 12.9725C121.713 12.7048 122.004 12.491 122.33 12.3456C122.656 12.2001 123.01 12.1264 123.367 12.1295C124.871 12.1295 125.778 13.1567 125.778 14.8534V15.2256H121.962V15.2853C121.945 15.4836 121.97 15.6832 122.035 15.8713C122.1 16.0594 122.204 16.2319 122.339 16.3776C122.475 16.5233 122.639 16.6392 122.822 16.7176C123.005 16.7961 123.202 16.8355 123.401 16.8333C123.656 16.8639 123.915 16.818 124.143 16.7014C124.372 16.5847 124.561 16.4026 124.687 16.1782L125.713 16.1783ZM121.962 14.4369H124.691C124.705 14.2555 124.68 14.0734 124.619 13.9021C124.558 13.7308 124.461 13.5743 124.336 13.4424C124.211 13.3106 124.059 13.2064 123.891 13.1366C123.724 13.0668 123.543 13.0329 123.361 13.0371C123.177 13.0348 122.994 13.0694 122.823 13.1389C122.652 13.2085 122.497 13.3115 122.366 13.4419C122.236 13.5724 122.133 13.7276 122.064 13.8985C121.994 14.0694 121.96 14.2524 121.962 14.4369Z" fill="white"/>
</svg>
